<mxfile host="app.diagrams.net" modified="2024-05-08T15:47:42.978Z" agent="Mozilla/5.0 (Windows NT 10.0; Win64; x64; rv:125.0) Gecko/20100101 Firefox/125.0" etag="7-zCsRpC7epX0e4nZR5c" version="24.3.1" type="device">
  <diagram name="Page-1" id="MGvWt-y6DO7xU7MzdQJx">
    <mxGraphModel dx="1434" dy="774" grid="1" gridSize="10" guides="1" tooltips="1" connect="1" arrows="1" fold="1" page="1" pageScale="1" pageWidth="827" pageHeight="1169" math="0" shadow="0">
      <root>
        <mxCell id="0" />
        <mxCell id="1" parent="0" />
        <mxCell id="N_rBBtrlS4sjjkyDHwOa-1" value="Serveur webÂ &#xa;Application micro service gestion des utilisateurs&#xa;NodeJs Version 20&#xa;&#xa;Service SSH, SMB, PM2 &#xa;&#xa;&#xa;IP Local : 192.168.1.200 port 62548&#xa;IP public : 9X.X.XXX.XX port 62548&#xa;" style="shape=image;verticalLabelPosition=bottom;labelBackgroundColor=default;verticalAlign=top;aspect=fixed;imageAspect=0;image=data:image/png,iVBORw0KGgoAAAANSUhEUgAAAQAAAAEACAYAAABccqhmAAAABHNCSVQICAgIfAhkiAAAAAlwSFlzAAAHYgAAB2IBOHqZ2wAAABl0RVh0U29mdHdhcmUAd3d3Lmlua3NjYXBlLm9yZ5vuPBoAACAASURBVHic7Z1pmBxXdff/51ZVr9Ozr5JmNJpFli0kG2+yDXjBgA2xTQCbl2AsjQyxwQESEhMg5H0jSAIOEAgEJ9iALWwgEGELbDDY4CVe8IpteZU13TMjjWak2Zfeu6vqvh8kEXl6Zrpqurqrqvv+nkdfpm/d+qu7zqm7nHsOIBAIBAKBQCAQCAQCgaASILsFCJzDDs7ZYDi8jhOtl4BmHWghohZw3gQi39FmPs7hBwAGPq1zmmLEp8FpCsSnNc73qR7P3h+vXTtj439FYBDhACqUKziXggMDp3JO54L4KcRxEoATgSPGbQHjAH8VRC9z4PeM84dv7ekZtqhvgUUIB1BBXD0wcALXcanO+XlEOBdAdYkl7OeERxjnv0sryl1ilGA/wgGUOX2Dg53Q9XeD4woAb7Jbz3FoAJ4AYZdM9JPvdXWN2S2oEhEOoAzpGxz0QdM+ANDHAZxmt558cEAF4eek6zfu7O19yG49lYRwAGXE9nC4XSf6GHF8BECT3XpWAgdeYoT/UGPB224/uTVut55yRziAMuAj/f1rNJI+zcGvBeC1W48VcGCSCF+Lezzf2tXenrRbT7kiHICLuea11xozTL4ehE/CutV7pzEOwtfB2Dd3rluXsltMuSEcgAvZ8eCD8tCajk9ywhcIqLJbT4noZ4Trbunu/p3dQsoJ4QBcxtb+/jcyYjcBOMNuLbZwZNfgE2LXwBqEA3AJ14yOBjKJ1A0Avw6AZLcem5khwt/c2t19q91C3I5wAC7gqn1DJ0pM+wmAzXZrcRQcd0BmH9m5bt2s3VLcCrNbgGB5toXDWyVJexrC+HMhvA+a/vzW/v6z7ZbiVsQIwKH0DQ76oOrfB+GDdmtxARkO/okf9PTcbLcQtyEcgAP58PBwvZbJ7AbHuXZrcRME+tba7nWf2kGk263FLQgH4DCu3revSyfpVyBssFuLS7kz7vV8SAQPGUM4AAexLRw+jUC/hkvDeB3EY1muv+tHvb3zdgtxOsIBOISrBwZO1nXcD/AGu7WUAwR6nNTMRbds2BC1W4uTEQ7AAfRFIps4xwMENNqtpcz4PVOzFwsnsDRiG9BmtvX3bwTH/cL4i8I5uqL88prR0YDdQpyKcAA20jc42ErE7oGY8xcPjnMzieTtOzgXz/oiiC/FJo4m7dgNoMNuLRXAe/dHIl+0W4QTEQ7ADjgnruvfBegsu6VUChz0d339A1fZrcNpiEVAG+iLRD4Lji/braMCSTPCm2/p7n7GbiFOQTiAEnN1JHK6zvF7AIrdWiqUCFOzbxQ7A0cQU4ASctWew0Gd40cQxm8n3bqk/JvdIpyCcAAlRArEvwVgvd06Kh7C1X3h8AfsluEExBSgRGzrH7iMiP/Cbh2Co3BME/QNt/b2TtgtxU7ECKAEXDE87CfGxbDTSRDqOdgNdsuwG+EASkBVKvNZcKyzW4dgAYTt2/YNVPSRazEFAPDhcLhH5exUYrwLnHcB1AWg9sinVAcABMzpnI+A+GHiNAKGF3RVffK2E04YWa7vq/YOrZNk7WWUb9pud8Oxp/PggdN3XHCBarcUO6hIB/DB/fvrPNnsuwnsAg5+AYD2ArobJvDHQfRzNRa8a2E1m+3h8C846LLCFAuKC12zs6fru3arsIOKcQA7OGdDg4MXcp1vJ+A9AHx5LzJPAsBdxOkOzvh+rmM7ET5WhPsIrGV/PJ1av2vjxozdQkpN2TuAHZyzofDglSD+DwC67dYjcCYE/tFbe3pusltHqSlrB3B1JPI2HfgqOE6xW4vA8QyHuN777729abuFlBLZbgHFYOtrr61mkvI9nfOL7dYicA3tMUhXAfie3UJKSdltA/b1D1zBJGUPIIxfYA4O/nG7NZSaspkCfKK/3xsF+z4IV9qtReBedEZbbuvqespuHaWiLEYAH9y/vy5KdK8wfkGhMI1fa7eGUuL6EUDf4GAnado9HHSi3VoEZUHCQ1h1c3f3nN1CSoGrRwDb+/uboOn3CeMXWEggo1dO4JZrHcCV/f3VIOleAL12axGUF0T8PXZrKBWudACf6O/3KiT9goO/0W4tpYAABBkr+nzNQwSFCrtLqbQWEw5cVCmpxF0ZBxAj+meAn2+3jmJDAC6qrcHFtbWokSSkdB3/Mx/FHdPTyHJu2X1Wezy4srEBG/xHziuNZbP49ewsHpmPwuhdPER4X0M9zguF4GUMs5qG38zO4r7ZOcN9OIhAJpF4B4Cf2y2k2LjOUfcNDLwdOv8NXDp6MQoDcE1LM7ZUVeV8Fkml8eXRUWgWOIFGWcaO9jUIstyv89FoFN8fz58vQybC51atQpfPm/PZk7EYbh4bh+vK9RK+v7O7+yN2yyg2rjKia157rRG6vhMu022W5YwfALp9XvxJba0l93p3fd2ixg8Abw6F/jgqWI5L6moXNX4A2FJVhWtamt33g3G82W4JpcBVv0tGlm8AaJXdOopJPuM/xlmh5T83gocIZwSX72ejAQdwdh6tLnUC67f395d9xSbX/CZ9kcgmcPTZraOYGDV+AKha4q1ths2BALxs+Vlgno8BAEFJytvGhU6AOKSyL9zint+D868CyP+kuRQzxg8AQ+nCD62dURXM22bQwH0GU8a0uM8J8DfZraDYuOK36OvvPx+gi+zWUSzMGr/OOe6emS3onh4inBxY3gFkOMeLiWTevu6emTG8yOcqJ8BQ9tvMrvgdQOwTdksoFmaNnwO4fXIK/alUQffdHMw//H8hkUBaz2/a+1Ip3D4xaXi7z0VOoOyDzBz/G3xoaKgNwKV26ygGDMBHms0Z/w8nJ/HQ/HzB9863+AcAT8fiedsc46H5eeycmDDlBD7a0gJWYOBRUeFY2zc4WIzUcY7B8Q5AzmrXogxLaR0z/rMNruYfM/4H5go3/iPD/+UD3TKcY08iYarfh+ejppzAGVVBfLS52clOgGlZKut07o53ACD8md0SrMZO4wesHf4vpNycgMTUE+zWUEwc7QCu3revC2VWS89u4wesH/4vpKycANHb7ZZQTBx9FkAnqazSejnB+Is1/F/Iw/NHqm/3NTUZijc/siXZjO+Mj0O38JxDwXBcuz0cngFwj6rKh5D2jS+s/eBmHO0AiPhF3H3HFRbFCcYPFHf4v5AycQISB30ewOclWQPkOPrCkQSASQD7OcdLjPgezqU9gUzipf/YuDFms15TONoBcNAZdmuwiv/T2GDK+G+bsGa1fyHFHv4v5OH5KBgIW5saDTuBabUeP5maskxDEQgA6ADQQYS3cBBAOhJen94XjjzPCfdCo9+sG9n/e6eXHHPs6/WaSKQmw1FYtItDaJBlfGVth6EFl2Iav4cI3+rsXHYEkOEcnxzab8kI4HjOr6427AR0znH9gWHMqI62HSPMc8J9pNNtnQf3/9qJzsCxi4BZjW2wW4NV9Pp8ths/AJxcwuH/Qh6an8dtBoOFGBHW+8pi+72aOC4H8buG2juGt4cHvrl1YGCz3aKOx7EOQGdaWW+/2EGph/+C19HKwT/JdP78tv7I3VsHBs60WxDgYAdAVD7HfvtTKUOx8gRga1Mjzq+utlyDhwibS7D6vxRmpwD7Cgx1djBEhEuYzp/sC0ce3RoOX2CnGMc6AA5YbwU2MaWq+O2ssSzTxXICdg7/zRg/ANw3N18O838jvImBHtgejty5NRLpsEOAYx0AOA/ZLcFK/ntqCo9Hje0QHXMCF9ZY5wTsGv6fWx0yZfxPxeLYNT1tuQ4nw4H3MOCVbeHw317zzDMlDXt3rANgYK5LI7ccOoDvjY+bcgJXNlrjBOwa/p9bHTIcAwAcMf6bnBUDUDo4ggT6l0xt3XPbwuHTSnVbxzoATrzsxoB2OQE7hv/C+FfMRgI93heJfAacF32b3rEOAJzKcjnaDidQ6uG/MP6CUcBxQ19kcPeHh4fri3kjxzoAzjFmt4ZiUUonUOrhvzB+K+Hv1tKZP1y1b6hope8c6wAYytcBAKVzAqUc/gvjLwqdEmmPbguHi5Kf0LEOgCT0262h2BxzAk/GzDmB86qNb5CUavh/nknjfzIWw01jY8L4jUCoJ9D92/oH3m911451ADrRawA0u3UUGx3AzWPmnMDWxkb0GAiVLdXwv8fnw9ZG41t9rq0WZC9eIv7jbeHwVis7dawD2LluXQrAiN06SsExJ2B0OsCI8K7amrztNhrI+/+iBcP/S+pqDSfzeDoWx83jE8L4V4YE0Pf7wuE/tapDxzqAq/YcDgKos1tHqTA7Hej0Ll6K63g6PJ68bawY/q/15NcCHHnzf0cM+wuCABmgn1wdibzNiv4c6QCuHhg4QQrGfwqgrKIB82FmOpA08NZO8eXbZDjH8xas/ue7DyCG/Rbj1Th290UiBefLcERCkOtefrkq7vG/lRh/Bzjeoeu87POxL8UxJwBg2XThRgz3hXgC729oWNLLPxGNWbL6/3w8gYuXmZII47ceAqo4x51XhcOn3d7TM77SfmwdAWwLh0/bHh64Ke71HSLivwDHX6ACijHkI99I4HA2i18ZqAx0KJvFPUu0m1JV7J6xJub+lzMzGMtmF/1MGH/xIGCNDPrJjgcfXPGLvOQZga7aczgoBeLXguHj4CjrnOuFQgDeXluDd9TUoEGWkdB1PBOL447pacxrxjZICMB51dW4qLYGrYqCpK7j2Xgcd0zPWHrirlqScHlDPU4LBhFgDFOqivtm5/DbuTnD2YEFK4ODf+0HPT2fXsm1JXMAV+/dG9IV5Tpw/A2Asi+7bDUeImQKXDxTiJAtwQKcFVoFpuAgXLKzu/sesxcW3wFwTn2RyDaAvgJh+AJBsRjOcv0NP+rtNZVPrqiLgFsjkfUUGbgRIEu2LAQCwZK0y2A3ALjOzEXFGQFwTtsikU8T6J9QhnX9BAKHonOdLvjB+q6HjV5guQPY3t/fBGI/4MA7re5bIBAsDwdeWtfddfIOIkMbL5ZuA/ZFImdwoueF8QsE9kDAG4bCg1eaaG8NV0cib9M57kSFRe8JBA5kKJ5OnbBr48ZMvoaWjAC2hcNbdY57IIxfIHACnUGP7yNGGhbsALaHw9sItBNisU8gcAyc8DkjEYIFOYDt/f3v1kHfg4NrDAoElQgBa4Y6Oi7L127FDmB7OPxWTuyn5JADRQKB4PVwjo/la7OiN/fWSKSDOP5AQONKrhcIBCWBM0Yn3tLV9dpSDUyPAPoGB33EcYcwfoHA8RDX9T9froFpB0Aa/yYBp69ck0AgKBUc9L7lPjc1BdgaDr+TgUyfOBIIBPbBGJ1yS1fXnkU/M9rJVXsOBxnRjdbJEggEpUDj/N1LfWbYAbBg7AaRwEMgcB/EseR2oKEpwLb+/o1EbA8AyTJVJYCndagTaWhzKnhKg57hIAsLYArKD84YmIdAPglSjQK5SQF5XfXYLwaXvJ7G77e35+SAM7SHT8T+CS4yfi2qItMfhzadGwot8tQIlkeHFgeALNRDKaT3AnKDB56eIFjItSEvpKaypwO4b+EHef9HfZHIGeBYcg7hJLjOkXktjuxI0m4pgjJCncpAnc5AWe2DZ30VKE+xFSfCSD8TK3EAxPEF7oJQX57RkdozD21u8ey0AkFBcCB7MAU9psG3uRrkcWRJjeVYtIbAsv+LD4fDPRy4qDh6LETjSArjF5QAbTaL1HNz4Jq7JpN8ididZR2ASnRdvjZOIPVqFLowfkGJ0KIq0q9G7ZZhElp13csv51SaWdK4rxkdDRBHX1E1WYA2lYF6OG23DEGFoR5OQ5vKm2/DUaT8/tUL/7akA8jGU++C04tzciATLry4pUCwEtLhuLu2lThvX/inJR2AzpaOHnIK2lwWWtS66jYCgRn0qOqqdScOGHMAOx58UCYd7yq+pMJQx901BBOUH+qEi6afnBubAgytWfNmEOqLr6gw9BnhAAT2ok27agTgX/i3RR0AEb25+HIKR0+JsF6BvfCUsSKtToBAOXE/iwYC6Zy2kMNDf7jOwbPCAdgN5xycLzQCAmOFRY7rmpoTfsZYYaG4uq5h4aodEQPRyne6eZaD69wV0YGccu190W+UCGcWX05hkMsCMcqNVHwaM1P7kUlFF10JZ5KCUG0bahrWggy+TVQ1jdnxASRiU+A817kTEXxVDahr6oKi+Awq5ZidOoD4zCGo2uJTRo+vCrX1HfCHVpbkijQOuMABEM8dAeS4vu3hcDuA5pIoEriSZGwaYyMvIZNc3PgBQNeymJs6gIlDrxrqU9OyGDuwB/HoxKLGDxwZbSSjkzi8/zloWWOLb5OH+zE3uX9J4weATCqG8UOvID4/bqhPt6JDz7H3nD9wxjpLokbgWmbGI4b3v5PRSaQSc3nbRadHoGZThvrUtSzmpofztsukYojPHTbUJzgwMz7grn19kzBOOceBcyc/GjpLIUbgTjQti2zW3GnLdDK/A0in8rd5fft5A/fN3+Z4NC0D1eT/zU3oxKcW/i1nTkCkr+XOP/xXVNbXjuH05gGsqZpByJNELOPHaKIWz4x3Yu90G0r1/UhVEqQmL1i1AuZh4KoOPalBnchAn86A2/C20nXzgVdcz79Srhto87r2Wn4dK9FqpF/XQpTfAehAS6Waf0doGttPehgn1Y3mfHYqgEs6n8e+2RbsfPUtiMwVb5mEfAze9VWQm705n0kAlDV+8LiK9L441BLHoyuyH8QkQ0Z9DNkbyN+vJ4BMKmZchyeYv403f5vXQ4a0uhXiuSOAxfY/jC6vlhWnNg/hH7fcsajxH8/62jF8YctunNPWXxQdUrWMwJl1ixr/8VBQhu+UGnjWlviBJSBU02q4uSR7EKzKv7peVdsGMjGyCtW15W3jD9ZDVnJiX5bWUNNS8Palk9EZy3m4cx0AUcU5gJ6acXzq5Pvgk41FdSlMw8c335/XWZiF/BJ8p9QYTzZBgKc3CKW1tD9ZbdM6BENNedvJshfNa94AMmBUPn8N6lt687YlItQ1d8EfzB+oSkRoXrMRsie/E/BX1aOuuTtvO7fCAbVG03IqBOWuAQDLv3rKDEYcH930ADySubmfRDqu23w/PvXIlcjm7q6sCN+GqhVlmvGcWAV1OgOeKU1gFBFD46oTUZNuRyoZBV841yaCogTgC9aaCrKpqm1FINSAZHwGmpq7zSfJHngDdZBlj+E+FU8AqzpPQyo+h2w2ASzYYiSS4PWH4PGVd2V7Bt7/7729OV9qrgPgnFfSIuCWlgjaq3J2RwzR5I/i3NV7cf/wSQXrkKplSA3GH+zjIYmgdPhLfjRa8VZB8ebkmCgIJikIVlu7vkLE4K+qg9/hp9uLCSd6abG/58YBgGaKL8c5nN0aLuz6loglOuSWwobxSktFDdwEJuGAMQcAjopyAN21EwVd31VrTfQYqy4szp38EkhxfPY2gU1IwO8X+3vuE8MwW3Q1DqLGkyjo+qCcNr1+sBhWZJklT+VM3QSmSEU9nscW+yB3CsD5oeLrcQ4pVSnoeo0zZPXCt46syDLrtky1gtLAgUd3tbcvGuKYezhAl3K2CsqZsWR1QdePJ6vBeeFvXp4s8Fy5xsHT4ni0YDH4b5f6JMcBKJK+t7hinMXzE2sLuv7Z8cKuP4Y6WVhqKXU6W9YHWQQrhzP2m6U+y3EAN3d3zwGomGnAgwc3rHgIr+kM9x8sfAsQALTxwvbx1YPle4hFsHI48NJtXV0vLPX5UkvPzwL4k+JIchaTqRDuHjwF7+3+g+lr7xveiJGYNXvLXOPIhOPwnmQ+IEWdyJT8TEA6OY/Zqf1IJ+dzzgUQEWTFj6qaVlTXrTFcWE5Ts5id2o9UdBKqnskZ0UiSB/6qetQ0dhoPBuJAdHYU0blDUDPJnFwDjEnw+KpQ07AWvkCtsT5dBe1c7tPFcwKCHiqGFKeyK3wmnh3vNHXNKzOr8MO951iqIzuaQtbkm1yPq0i/bO7Ya6GkEjMYG34BqfjMooeCOOfIZhKYmRjA5GFjS0q6rmJseA9is6NHkncsMp3RtAxic4cxduB56JqxsO3piTCmx8PIpuOLJhrRdQ2pxBzGDr6AZHTSUJ9ugQMqSfSj5dos6gA0rt1fHEnOROeErz13Me49sMnQUd//GdmALz19KVRu/cGR9N7YkYg+A/N5bSqD5DNz4GppJ//TY5Els/YsJD4/ZuhcfnRmBNmMsS1ZNZvC3NSBvO2y6TiiswbPa3BgejwCXkYLKQTcu3PdumUzoiw6Bejq6dkzGBmYJGBlSdJciMYZbnnlLXh45ARctu5ZnNI0DK/0v2+ZjCbjxak1uHvoFLw6vaqoWjJDCWTH0/CsC0JpVIDjAnw4B/SZLLLDCagTpU+LruuqYUM9Rjo5B69/+d0WI1mDzLZPJ+dMLYyqahpaNmXqBKGT4YRv5GuzqAPYQaT3hcO/Bugq62U5m/BcM77+/MVQmI7mwByqPUlEMz6MJ6uR0QqL1jMDT2hIvzyPDB2N8vMyIKtDS+lAid/4x6Op5vPgawaG65rJRBxGkn2Y7RMANFWFXFhoiFN4+gfd3XlH8ks+0cSlH3HSK84BHCOrM4zE6jBi8wESzo84AySckX9e8fhAxAxPAY5ckz9ngcfjRzZtJiFI/re0YjK5B4FMX+Nc+JeMtFoy/jTW0/k7AAYzKgoqB0JVTYvh1kxSEDCQbjtY22p4twAAggaSkvgDdZBMHB0OhBrLJSHIK53d3XcZabikA9hFpIHwY+s0CcqF2qYu+IL5R0aSpKBp1UmGCnr4A3WobVyHfF6AQKhp7DCUkISYhOZVGw05gWMJScoBzulzO4gMDdGW/bav2ju0jsnaPlpmqmAbKkfsofLatnEVHEgnZ5FKRXMSaRIjKLIP/qpGMMnco5PNppCKTUPT0jlJTyXZA3+w3tDw/3VSdQ2J2BTUTBL6wjiAowlBvMFaUynJjqfq/EZAdshBLMJ9O7u7LzLePA99/ZEfgfDBwlQVh9iDk4A4ACOwE4lQdYFjNssyjNHmW7q6DJ/nyXsGlUn0FTg0ytyKI7QCQSE46hnk+LoZ4wcMOIBburr2ANi9YlFFRKoqiwUbgYthIcc8gy/HfZ4vmr3IkPvSVOl6AMbqNpUQqUmkwRLYi9LkiCTaacboyqXO/C+HIQdw+4bOQQL/V/O6iovc5AUkhyy+CCoOkghS48oSuVoL//TRkbppDE9g1HjVlwHsX8lNigUpBKW9PMI2Be5D6fCDFHtfQJzjlzu7u7+90usNO4DbT26NM8KHADgjJO0ons6AsxZiBBUBeVnpqzLl8rKX4UMgWvEivSnLuaW7+1GA/8tKb1YMSCb4NleDmJgKCEoEAb5NIZv3/vkogb/zaAKfFWP61emZnd0BwpOF3NRqpFoF3hNDIOEDBEWGCPCdFIJUa+vcP8oYe9etPT3DhXa0IpP50NBQm6xqTwJoL1SAlWhTGSRfigJZkRxTYD2kMHg3hSDX22f8HIgR1y/d2dv7kBX9rfidua2/fyMRewxAjRVCrEJPashE4lDH0g4NXxK4DgLkVh+83UGQz9b1pjkCf9etPT2LFvlYCQUNmvvC4YsB+gUAJ+yFvA49pkIdTUGdSENPihGBwDzMzyA3eSG1+SCFbD4OwzHNGC66pbv7GSu7LXjWvC0S+RPiuAMOrSqcOjCH5IF5qPE0tKQKvvCEiUBwHEQEyS9DDnrg66iFv6OwuhEWsR+ES3d2d79odceWLJtt7x+8iJO+G4AjNuW1ZBYzTx1Ecnwu56SaQGAGJskINNWi9sw1kAK2jAIekRld8b2urrFidG7Zuvn2/sHzdNJ/ZncewdmnRxAdGMs59ikQFAIxhpquVtScXtx8kAv4Zufwget3XHBB0d5ilm6cXbV3aJ0ka78AsMnKfo3ANY6JB8JIThW0LSoQLEugvhZNF3YXOQSdpgj6X9za0/PTIt4EwAriAJbj9g2dg4F06hxO+JmV/Rph7N59wvgFRScxPYux+4pXPpOA3TLDxlIY/9H7FYft/QMf4sS/BRQ/q+bUw0OIjYrsQILSEVrdhPq3WFMX8igTRPjLW7u7/8vKTvNRtE3NW3u7fqhr6iYA9xTrHgCQHokiNjpVzFsIBDlERyaRGrGgIhMhTuD/nOV6T6mN/8jtS8DVkcjbdI5/BbDZ6r4P3f0qMvG41d0KBHnxBINou/TEFV3LAZWBbiFV/sItGzoMli+ynpKENd3S3f27zuEDp3HwawHkr+lkkNRoXBi/wDYy8TjSh43XMjjKDAf/Gkms99aermvtNH6gRCOA49nx4IPy/vb293FOfw3CmYX0Nf3IAURHxq2SJhCYJtTejPo3dRhp+iIH/7Y3EPjhzatWmautVkRsPT+3fd/gFjD+QQ79coBMb7CO7H4JatpxmcoEFYTi82HVn75hqY+fJfDd4PzOW3t7XymlLqM44gDtDs7ZYP/gm8H0S4noLeA4FUDeCm3D//0c9EXKUwsEpYJJEtqveCMAgANhEJ6ATk/oGrvn9g2dgzbLy4sjCn4crWLy8NF/uGrP4SCrip8FTqcQeA8HegjoAdAMIAAAXAd0XUT7CexF13TwuHY5C9DDO3t7J+zWYxZHjABMwTl98MCB2sxzIydOvTT8mN1yKhU1k0Rs6iDSiflFCoUSZI8Xwdo2+KuNR4ZzXUdsegTJ2DR0NY2Fj6ckK/BW1SNUvxpkooZfKjqF+OxhZDNJ5JQbIgavP4RQwxrIKywMWuX1d9396csc/7ZfDEeMAExBxH8MzFz61bsO2S2lUsmm45gY3LNsiW41k0AqNoNQUwdqmjrz9sl1HRMHXkQmsXQ0p5pJIp2YR3J+As2dbwSx/JtY0clhzI0vb5tqOo7E/DgaOzbDG3DE6b+SIbJpCkwzM7pvWeM/nujkMNR0/q3a+MzossZ/PNlUHNGp/NmwtGwKcxNDhvrkuo6ZQ/sMtS0nhAMQmILrGjIpE3vfnCMZn8nbLBWfNaUjbbRPE/kf1HQCmpo2pcPtuG8KUAICpEGj0AAAEclJREFUsorTV0+gsyaGGm8Gc2kFw/NVeHq0CbFM3s0JyyCJwdcSgqcuAMmnQM9oUONpJEfnoKWyJdNxPFo2bcqojlyTydtGzZozPDWTv71mss9j/UqyI3PbFAXhAI4j5Mniyk1hXLZ+CB4pd4dB1RnuCbfjtj3rMZsuXhY0khiqT2hB9YmtYMoii12cIz48g9k9I1DjpX1jSYrvSGpcE05ANlDOW/H4DU0V/tjem79PI/ddSb/lhJgCHGVtTRQ3vvNRXH7iwKLGDwAy03HZ+v34z3c9it764hw9lvwetL71BNRuXr248QMAEYId9Wi7+CT420q7aEWMwR9qMNyekWSofaCmyZQOf3X+9r6qejDJ+DvOG6wFk0o3wnMCwgEAaPCncMNbn8aqkLEIzaZgEl+58EmsDll7DoHJDC3n9cDTEDTWXpHQdG4vvE0hS3Xko7a1F4qBLTNiDHWr10OS84+W/NVNqKozFgwaqGlGoK4tbzsmyahfdYKh3QLZ40PdqvWG7l9OiCkAgM+cswdNQXOFVUPeLD7zpufxl785B9yicIq6N3ZAqTW3F01EaDp7HUZ+9RK4VprAKElW0LzuVCTmx5FJzIMv3BEgBtnjR6Cm2dQwvLatB/6aJqTmJ6FpmZxpBpO98FXVw1dlPMWEL9SAlu7TkZgdg5pNAguDx5gMjz+EQG0zGDmm1HfJqHgHcErrJE5tW1kykZMaZ3FO+xgeG24tWIdc5UWwa2XpFKWAB6GeJsy/VpS8kYtCjCFY24pgbeH/9+PxBmrgDVhbakJWfKhusjR5R9lQ8VOACzsLiye6sNOa05zBjvqCSpsF1xqflwsEx6h4B7CppbBsQptbpi3R4W2uKuh6T30ATK74n1Ngkop/Yhr9hR0nrvFlILPC596Sr/BtRSnguAJNAodT8Q5A54Ut4HFuVQnCwnsp1SKgoHyoeAcwHvcVdP1UwgdNL/xr1BL5o+WWhXNoKVEFSWCOincAzx4yF4CSc/1haxbfkocLyzCbmoyJEYDANBXvAH47uLqgffz7Imss0ZEYngFXV27A8UGRGl1gnoqPA+ifrsEDg224cJ357bwnDrZgz7g1IwAtmcX8a2Oo2Zg/wm0h2dkEYiV2AJqaQXx6FOnEHPjC4Bo6EocfrG2FN1hrvFPOkZgdQzI2BVVNgxaszzBZgT9Uj0BtG8jEnmkmMYfY7GFomSS4/vq1FmIMij+EUP1qSErlHAI6RsU7AAD45lOb0FMfxdqaqOFrDsUC+OoT1pY5mHtpBN7GIHwtxuP79YyKiccipk/oFYKaSWBiaA80dekTiZlkFIm5cdQ0r0OosT1/p5xjcvglpGLLH/NNxaYRn5tA09pNIMo/gI3PHMLM4fCy3086MYfE7GE0rT0Zis9YGHa5UPFTAABIZGX89W/PwvNj9Ybah2eqcf1vt2AuZe22G+fA+MMRJIbzn3UHADWRwdiD+5CNlvZE4Mxo/7LGfzzzE0NQM/nPWMRnD+U1/mNkEnOITR3M205T05jNY/zH0DUV06N7Dd2/nBAjgKPMpTz4zP1b8M7ug/jAG8JoXeRswETcj1171+Gu19ZCtWDlfzG4pmHisQgC7fWo2dgGT21uLL2e0RDtH8f8q4egF7BusCJ9um44cw8AcM6Ris2gqn75Mw7JqLmAqmRsBqHG5fPxp2Mz4CZGRtlUHLqaBhP5ACoTTWf4ZX8Hftnfge66eayrjaLam8F8RsGBuRD6p6otO/iTj8TwNBLD01BCXnjqgmB+BTyjQo2lkZqMl3TIfzxaNmU6YkEzkLzDbEIQLZM/gMtsnwCQzaThFQ5AEJmpRmTG/gSR2Wi65EP85ZAUH4jI1JtV9uaPtVA8PlMJQWQDiTskj/kYDyNaywmxBiAwBTEGb9D4cVwigi+Yf23FTJIR4Mgx37xtgvWGcgEcwxOohiRVVji1cAAC09S29R5JDZYHIkJtW4+hN3GgpgWBmmZD9/eFGhAykDxEkhXUt50AI8csJdmDepEQxD1oFNQBc0k8BNYgK160dJ+G+MwhZBLzOSnCiRhkjw/B2jbj22pEqF91AvzVjUjOT0HXMjnTDPlYQhAT6cP8NU1o8QWQmBlDNpsEX1BKjjEJHn81gnVtptKHHc+RZ9GduNYBnBljIw/LBG7RURyBORiTEGpYA1iZhoAI/lAj/KGVJUZZCsUbRE1rl6V9HoNAODPGRu4pSu/Fx32lwY7jwi/9TNV1rfLyOAkcA2Oyev/fvc+1mURdvQbAmFzYCRqBoEAYk1z9DLraAUhMedhuDYLKhsnyQ3ZrKARXOwBFVr7h8lmMwNUQmMS+breKQnC99bzjK3cNZDPJdXbrEFQeiuKL3PeZd/fYraMQXD0CAABF9myzW4Og8iAieDzBq+zWUSiudwC/+uuLH/F4g9+1W4egsvB4Az/45afe9rjdOgrF9VOAY7zjq3c9k00nT7Nbh6D88Xj9T9/76cvOtFuHFbh+BHCM+z592eleT3B3Gfk0gQPxeAK/u/f6S7fYrcMqysYBAMBv/vaS9/r9wb+TJNk5x+cEZYEkyWmfr+Yz9/7tpW8HUdmEn5bl6/Kd37rHy1P8O5qWea+qZew/0ytwLZLsmVMkz51Va+Mf3fX+9xeYu915lKUDOJ5Lv3H/qZz433OubeJcbwdH5WR7EJiHkGZgwxz0oi7TP/76k29/zm5JxaQ8HQDn9L7vPPleRrSNg78NgPEa1QLB/5Ik0O849J0/u/as3eU09D9G2TmAK77z5Nkc/BsAymahRmA/BDyhE/+rO649+0m7tVhJWTmAy296/CPgdCOAykrrIigVKif81R3XnnWj3UKsomx2AS7/zuN/D07fhTB+QfGQiePbV/zn45+3W4hVlMUI4PLvPP5egH6GMvn/CBwPJ/A/2/XRs39qt5BCcb3BfODfH12lKvI+AJVV0kVgNzGd5PV3Xnv6IbuFFILrpwBZRfoihPELSk8Vg/oPdosoFFePAD5w41PtqqQPAhBpwQR2oBLXO3d97JwRu4WsFFePALKy9h4I4xfYh6wz9qd2iygEVzsA4nSJ3RoElQ3juNRuDYXgagcA4ES7BQgqGw7u6mfQtQ5gxw7OALTYrUNQ6VDb0WfRlbi2MMjza5+vltNwbT52t8O5jvj8ONLJeegLqu0QEWTFh6rqFsgec8cwUolZJGNTUNXcg3ey5IEvWA9/lfHahACgZlOIzY1BzSZzqg0xYvD4QwhWt4CxFS0nKS+3/SEEwHjNdAfhWgcQSMYow4T924GmZTB24AVkM4ll281PD6Oh9QQEq43V/Jse60d0dvlt9fnZEQRDTWhYtQFkYBMrGZvGxOgr4HyZ6l3zY5ifPoiW9s2QDdQ8XIiiJV07AnCtcIF9TB8O5zV+AOCcY+rwPmjZ/PlZ4vPjeY3/j22jE4gbaKtrWUweenV54z+Kmk1h6vA+Q/cvJ4QDEJiCc45EbMpEex3JeP728dikKR3xaP72yfhMzvRkOVKJWWha1pQOt+PaKUCxafbPY01oGiElhVjWh9FYHQ4lakqug7wMrEoGeRmQ1aGndOhRNf+FRULNpgCTBVmzmfxVnDUDbV7XZzZ/ezWTMtUnAGjZJCSpcqaWwgEcB4HjnLYwLut6Dp2h3DfMwVg97h48BQ+PngCdFzeIUm7wQFkXgFSj5MRr6kkN2eEUsgeTgF7aHBWS7Dmix8RtJSV/EiZJ9gDpuOE+ZdlAn4r5g6GSVFkJo4QDOEpQTuMvT/ktTm48sGSbNVXT+NimB3D+6r34+nMXYz5rfsEoH8QI3g1VkFct3TfzS/CuD0JZ7UNqzxz0hPFhbqEwJsHrq0Y6abAmJgH+QP5Ve1+wDsn4jGEd/qCBPgO1MOOtFG/QkLMqJ8QaAACvpOLzZ9y9rPEfz4n1o9ixZTcCssU5IgnwbQota/zHw4IS/KfXgnyl/RkbWnrBmLF3R01DBxRv/rNaodpV8AaMTbE8viqE6tbkbScrPtQ1Gasax5iEhpZeQ23LCTECANB34iPorhk3dc3qqhlcs/FB/NueiyzT4VkbgNRk7g1EHgb/pmoknpk1OzVfMYo3iLbOUzE/PYx0KgpdWxgHAMgeP0LVrfCHGg31ScTQsmYTojOjSMSmoKtp8AVzH0lW4A/WI1S32vCefXX9GijeIGKzo8hmcuMAiDF4/SFU17VDMRmzUA5UvAPoCE3h/NV7V3TtWW0DWL9/DPtmCw9IJIVBWRdY0bWsRoHc4oV6uHTlEGTFh3qL35hEDNX1a1Bdn//tbgZ/sM7QlKESqfgpwHmrXwNbYbJXAsf5q1+1RIfc4gVJK19YVFZV3ttLUDgV7wA2NQwXdP3mxsKuP4bUUFgqQ6lOAZir0zsIbKDiHUCTP1rQ9Q2+2IpHEMfDCl3II4B5hQMQmKPiHYBE+cNEl4MIkCxwAJwKN17OKv7nFJik4p+YmVRh6QRjGR+yugVfY7rwvXxuQR+CyqLiHcBrc20FXb93prDrj6HOFRaDrkVVQC27ylWCIlPxDuCx0cK2sh471GOJDm0sU9A+vjomKqILzFPxcQB7Jtuxd6YNG+rMp3cfijbiibFuS3TocRXq4TTkNvOhqDytQx02d5imcDji0UlkkvO5x22JICt+BEJNkGVzuxuZVOxIIJCWG2XJZAWBYD08PnMV33Uti/j8BNRMEhyv10okweOrQiDUCKLKex9WvAMAgG+/8DZ86ZxdqFaMnx5LagpufOFCcAsPBaX2xRCskUEB45lpOAdSL8+Da6Ub/uuairGRF5FJLr+DMjc5hMZVG+APNhjqd2ZiEPMzw8uOhOYmDyBU24b65l5DSe3TiVmMj7wCXV/+BKUyFURL+6Yjh5IqiMpzeYswkQzhy89cimmDC4LzWR9ueOYSHIgae7ANk9WReHYOetzgYp7OkX5pHtp0ac+wT4+H8xo/AOi6honRvdAWSe+1kGR0EvPTyxv/MaKzhxCfP2zg/irGR1/Na/wAkM3EMTUmEoJULANzTfjs76/AAwdPXPKoL+eER0bX47OPvd+yxb+ce6Q0JJ+aQWYoASzzVlcnM0g8OVPyuT/nOhLRCePtdQ3J+HTednETfQJALJr/7EYyPgPdRIKPZHzakLMoJ8QU4DjmMgHc9NIF+Mm+LTi1eQgdoRlUKwlEsz4cjNXj2YlOw6OEQuAaRyYcR3YoAbnRA1YtgxQGrnLoSQ3aZKakR4CPR82mcg7U5MNI+rCMgTav05E2kBDEQJvXwQE1kzC9xuBmhANYhLlMAA8ePMluGeAqR/ZwGijhIZ98rCghiJR/Xi1LHmRhPCGIkbn6ShKCMAOJRsoJMQUQmIIxGR5vlalrjiTmWB6vgTav6zNooE9/jaHMwcdQFD/kCssIJByAwDT1zb2Gz+OH6lbB48vvMKoNtgMAxeNHdX27sXaN+dsBR2oZ1Lf2uLxcrnnEFEBgGq8/hNaOUzA3dWDxwiCMHSkMUtOKqupWQ30Sk9DafjLmpg4gEZuGpqVzphmS7IG/qh41DR2GMxLVNnRCUQKIzh2Cmk7mxCwwJsHjC6GmocOwAyonXOsARsfVaGOrokOMYmxB8QbRuMrasnjEJNQ2rUOtwTReRglWNxsuTrIC9NFxtbAjpTbiWuN5aMcFKgBzyeQFAusZO/osuhLXOoCjDNktQFDZELDfbg2F4GoHwIHf2K1BUPH82m4BheBqBwCu/9xuCYLKRgX9wm4NheBqB3DHx855DuD3261DULE8tPujW/bYLaIQXO0AAEBn0udQsoz4AsEf4aTjertFFIrrHcCd15z5NIB/tVuHoNKgr+y67qw/2K2iUFzvAADgDYe3fAbgv7Rbh6AyIOBeqt//ebt1WEFZOIAdO0iv8qau4ITb7dYiKHfov1Mkv3fX+99fFhlYyyvymXO64uanruec/z8AlRfXKSgmMRB2/OyaLV8HWZAH3iGUlwM4yhU3PtXKJf3/AvggAHPHzASC1zML4EeKhH/8rz8/a8xuMVZTlg7gGNfc9Iwyw9XzOedv4oQ1BGoljso67ykwBSekOfhh4jjIJTzawJX/ufna00ubc00gEAgEAoFAIBAIBAKBwGL+P+tX/XawJOQMAAAAAElFTkSuQmCC;" vertex="1" parent="1">
          <mxGeometry x="90" y="210" width="100" height="100" as="geometry" />
        </mxCell>
        <mxCell id="N_rBBtrlS4sjjkyDHwOa-2" value="Routeur (BOX) FTTH&#xa;IP publicÂ  : 9X.X.XXX.XX&#xa;Configuration NAT IPV4&#xa;" style="shape=image;verticalLabelPosition=bottom;labelBackgroundColor=default;verticalAlign=top;aspect=fixed;imageAspect=0;image=data:image/png,iVBORw0KGgoAAAANSUhEUgAAAQAAAAEACAYAAABccqhmAAAACXBIWXMAAAdhAAAHYQGVw7i2AAAAGXRFWHRTb2Z0d2FyZQB3d3cuaW5rc2NhcGUub3Jnm+48GgAAF/pJREFUeJzt3VmQXUd9BvCv+9xl9pEXLdjGMpJtgYXkZbBlykgajIEye2KPWVymUikCVJKHpHhKFVvlgaQqCQmEh0BIXImLBEpsCURKjIOvJdtkCmQtZoyNZOMFyyOPZVmz3u1050EWyJ4Z3Xvu+Xf30T3f73FmTp/W6PR/+pzzdV+AiIiIiIiIiPJAhTrx2NhYdGjKbrUxboayawE1AOCoUmo8MvEP9u757nOh+kYkbWTr774m1tF7rbVbAKwG7KxVeFortfOylWrPjh074hD9ClIArto69m6r7d/AYsMyP1K3wNd7a+U/Gx//xrTXzhEJ2rLl9qFqufYFAH8AoLTkDyk8poz61P49O/7La+fgvwCoq7bd+jkLfLbNcx9WsO/av/s7h1x3jEjaG2/84PqoGe8CcFlbB1j75wf2fOfzAKzLfp0u8nUiALhy262fAvAFtF94zgXUe1ZfuOHfjz7z6JzDrhGJunrr2EplzX0ALm37IKW2r157xezRpx550F3PXkn7OtGmbWObAPxlB4e+TkfR30n3h8glo+0XAaxLepwC/uKNW2/Z7KBLS/JWADTspwEUOjnWKnz46q1jVwh3iciJzTeMbYDF7R0eXiho9RnRDp2BlwIwMvLePgAfSNOGUeYOoe4QuRWZO5Di+Zq1eN/G0bEBwR4ty0sBaPT3XI/lnoC2TV0n0hkixxTUtSmbKJVgrhfpTAteCoACVgo0c7lAG0Q+tPfU/wys0askOtKKlwJgYcsCzaxCwOASUQKr0zZgYXokOtKKnxmAUjMCzZQ2vnnsHIF2iJzZsuX2IQB9aduxVnsJwPmZAVickGinXNSpKyuRS7VyVeQa1VpmzLQ8j4+TwMYvSTQTq8YaiXaIXDFKCV2jMmOmFS8FwBSLItXMGs4AKOOMErlGbSwzZlrxUgCaqi5TzZTML5fIFa2MTAEwQmOmBS8FYE18/AQEFjhoZVkAKNOs0B+p+eFq98wAKpVKE8B82nasTf96hcgpK/JHqnp4166aQDsteVsLACD1lMZC6gELkRtK5hr1Mv0H/BaA1FMa3gJQ1lmBEBCUn1eAwNk2A+AtAGWewB8p24UzACUwAwDjwJR5SiLD34UzAJmqxjgwZZZUDBjd+AzACt3XMA5MWSUVA5aKzrfD4zMAK1LVjI5ZACiTrBb646Rlxkpbp/J1IkCLVDUTg68CKZOs0LWprcxYaetcvk4EaxgHpq4mFQMGhMZKG/w9AxBa3sgsAGWVVAy4K58BWCiRqsYsAGWWTAwYsDJjpR3eCkAkV9VYACiTLIRmAFEXzgCUUFVTig8BKZsUZK5N240zAFOUqWq8BaDskrkFKJkunAHYQo9UVWMcmDJKJAaMQqPUfTOAg3ffNQegIdAU48CUOYIxYDM+ftmsQDtt8bkaEBYQ2eqYcWDKGqkYMIBp4PNGqK2WvBYAbRkHpu4kFgMWisy3y+8MQDEOTN1JKgYMoTHSLq8FQKy6MQ5MGSO2G7DQLLldngsA48DUnaRiwNrjZiAvn88joa2OmAWgzJGKAXvcDATw/gyAcWDqTmIxYI8LgQDfbwGEpjeMA1PWSMWAobt4BsBbAOpeUisBu3gGILUnABgHpsyRiQF39S0AhPYEAOPAlCGCMWAIjpG2+J0BCFY3xoEpKwRjwNBys+T2zufzZLCxWHVjHJiyQi4GDAByY6QdXguAKRbFqps1TANSNthYajNQwMZyY6QdXgtAU9XFqpuVeu1ClJIWfC1tjdwYaYfXArAmPn4CgJVoi3FgygqpGDAAzA9Xu3cGUKlUmgDmJNpiFoAyQy4GvHB4166aUFtt8b0YCJBb7MACQJkgFQOG54VAQIgCoITSgCwAlBFKrgB4vf8HQhQAoSyAWPaaKDUjdS12/wxA6hOCwDgwZYZMDNh3ChAIUAC0tVJVrrTpLR9ZIdQWUUc23PC+QYjFgMXGRtsCPASU2/KoqGPeBlBQvVFR8Br0ux0YEOIWQG5TEMaBKTjJGLDk2GhXgBmA3K6njANTaJIxYG397ggMBHkLYOTiwEI7sRJ1SmvJP0JyY6Nd/m8BBJc7as4AKDBr5CLpvjcDAc7u14Cw3BuQQpO8Bj1+LPgp3gtAJFvlOAOgoARjwLBRDmYASrDKMQ5MoQnGgGHzMAMwRbkqp6R2YiXqmNw1WDI5mAHYQo9glVOrwTgwhSVWAAqNUvfPAA7efdccgIZQc4wDUzCyMWCY8fHLZoXaaluI/QBggWmpthgHplBkY8CYBj5vBNtrS5ACoAU/AplxYApFdjdg/+sAgEAFAFrwTQDDQBSIZAw4xFJgINQtgGAWgHFgCkUyBmwDbAYChJoBCG59xDgwhSIZA0aA7cCAUAVAdAbAODAFInjt6VzNAGQ/A50zAApCNAacpxmA6DMAFgAKRDIGjACbgQDBXgMyDkzdQPDaC7AUGAj2EFDylQfjwBSM4C1Anl4Dyn4GOuPA5J1wDDhvMwDhz0Av1HgbQF71F8ui11wU+d8ODAg1AxBe9hhB8VUgeRULfzKVlfu8jEQCvQWQvd9hHJh8k40BI8h2YECgAtAoG9Fqxzgw+Sa7GzBgmrJjol1BCsCa+PgJAFaqPcaByTfhGDDmh6v5KQCVSqUJYE6qPauYBSDPlOgfnYXDu3bVBNtrW6jFQIBo9pkPAckvK/sQMMhffyBkAVBy2WfGgck30RhwoHUAQMgCwDgwndVEr7n8zQBko4+MA5N3q+SaCvMKEAhYALRs8IFxYPLm5Rhwv1yLYUJAQNCHgMKbIDIOTJ5Ix4BDbQgKhCwAghuDAkAhltyhlWh5JhbeiTpQChAI+QxAePWT4dZg5IkRfu0svDo2kYBvAWTvexgHJl+kY8DCz8OSnTvUiaU3QGAcmHyRjgHn8i2A9LSHcWDyRjYGLL48PolgBaAgXvUYByY/hGPAQCGHMwAIVz3GgckX4RgwTB5nADCRaNVjHJj8kb3WLGTHQhLBCkDcXxSuemoVGAcmPwRjwEB/LcrfDODg3XfNAWgINllmHJhck48Bw4yPf2NGsL1EQu4HAEivgmIcmByTjwFDdHespIIWACUcgGAcmFwTjwEHXAgEhJ4BCK8HYByYXJOOAYcMAQGBC4D0egDGgck16RiwDbgZCBB6BiC8FRLjwOSafAw43HZgQOgCID4DYBaAHBOOAetczwC0cPUT/s8hWkR6HUCeZwDizwAsHwKSY9LXmMrxDEALFwDGgck94Wss0MeCnxL4IaD4ikDGgck10Riw9L4YSYW9BZDfColxYHLGQQw47zOAWL76MQ5MjjiIASOKTI5nAA7WQTMOTK7Ix4ABG3A/QCB0AXCwHbJhGpAcscrBH5eAW4IDgQuAibX4P95yPQA5ohxcW8rKj4EkghaAleWpaQgvhWQcmFxxEAPGzMDstHSbSQQtAJVKpQlgTrJNxoHJGfmk6cLhXbtqwm0mEnoxECAdhWQcmFyRv7aCTv+BLBQA6SikZQEgN6wVn10GfQMAZKEAiD8FNXwISE4o6c8DCJwCBDJQAOQ3RGAcmJwRjQGDMwAAEE9Cla8a/cCwcJuUcxtHxwYgHQOWv/YTC14ApFcEAkCMiLcBJKosPv0HwBkAxDcGBRgHJnkuYsChU4BABgqA9KYgAOPAJM9FDNjBatjEghcAOFgMwTgwSXMRA9aBFwIBGSgALjZEYByYpLmIAfM1INxMgxgHJnEOEqYulsMnFbwAFFxUQcaBSZqLa6rAGQDgogoyDkzCHMSAYTgDAGAiB1WQcWCSJR8DBixcXPvJBC8AcX/RQRVkHJjESceA0V+Lgs8AMjFIrtx2ax1AUbJNpZvn7K98P3iFpbPfxtGxgYKxM8LNmgO7v12A8IY4SQWfAbyMcWDKLIcx4KCDH8hOAWAcmDLLSQw4A5uBABkpAMrB56MxDkxSnOwGnIGFQEBGCoC1DqohXwWSEOsiA+Dimu9AQbKxjRs3lmrRylX1hIOv2WwqJfw4Mrbx5os3vXVEtlXKo0attjmKZP9WGmN00uuzpOzRcjz1/MTERF2qHyLDbu3GbTcqqD8G8E4AfRJtEtGS5gD8jwW+8tTEffembSxVAdiw4YbBeiG600LdkrYjRJSQwo5+q35/YqIy23kTHdqw4YbBWrFQgcU1nbZBRCkpPNRv1fZOi0DHNzb1QnQnBz9RYBbXzAFf7/TwjmYAl2x663YYU+n0pEQky8K+7amJ3T9OelxnMwBr/qSj44jICQ38YYfHJTMyMlKExds7ORkRuWGg3onR0cSv9RMXgBfnhy+A+P7oRJSGAgYufTH5moXEBcCo5rlJjyEi9xpNszLpMYkLgJWORBGRiE7GJgczUY6xABDlGAsAUY6xABDlGAsAUY6xABDlWKLk0OjoaOGZ6d6VtlF11R8i6lBU7Fk5OjpaqFQqzXaPabkYaPM77uhX1YVPArgNwJvAWQNRlhkAP4NS37Llnq8evPuuuTP98BkLwJXbbn0HgH+Bm22Ricit57S2H91X+c49y/1AtNw3Nm+/5cMK6tsAhpx0jYhcG7RWfWT1xVccOvr0Iz9f6geWnAFsesvYiNb2fgA9TrtHRD5UlVZv3l/Zsf/V31jyfl5rfAkc/ETdogcGX1rqG4tmAFeP3vImY9RP3feJiHyy1owc3PPdh07/2qIZgDXqPf66RES+KB0tGtuLbwEsLvfSGyLyy9pFY3vxDEDhPD+9ISLPFm0YsrgAWMWgD1EXWmpsc7AT5RgLAFGOsQAQ5RgLAFGOsQAQ5RgLAFGOsQAQ5RgLAFGOsQAQ5RgLAFGOsQAQ5VjizxOXoktl9F22EX3r3oDC8DlQUQHNmZdQfeYJzD16AM2ZE6G6hr71EYZGIpQv1CgMKcTTFrVJi+mHmpj7ZQzYYF1bzFrUa1U06jVY07pjWmsUSmUUe3pa7wibpBsAGrUqGvU6bBy3/HkVKRQKJZR6e6FEewI06zXUajVY0/r/SimFqFRCqdwLrWX7ETcaqFUXYNroB7RCISqg1NsLrZfdqU9ckAIwNPIWnLv9XYj6BhZ9b+CKa3DeTb+DE3vvx/F7fwDTqHvrV89rNS64o4z+1y/+DxgEcP7NRcw/HuPIv9ax8KvWF7lz1mJ2+gTiZqPtQ+IYaDTqaDSq6B9Y0ca+0G10A8DCzAk06gn+r2KgWW+gXqthYHgYSmgN2sLcLOrVhUTHNJsN1KsLGBhaAR3JDL5adQHVudn2D4hPFox6rYr+wRWIin6Gpt9bAB1h1fvvwMqbb1ty8J+ioggrrtuOC3/vTxENDHvp2uDVBaz/TO+Sg/90fesjrPt0L1ZcH2zy9BsL83OJBv/pmvUGagtn3DG6bfXqQrLBfxoTN7EwJ9OPZr2WePCfYo3B/NyMSD9M3ES1w3+TtRbzc9PwNc30WgDOf/sHMLjp2rZ/vrT6Qrzmto9BFYsOewX0rouw9o96oHva+3Ooi8BFn+hpWSxca9RqqY6v19Md/9t+pPugmEa9JnK911L+PuJG4+R0PaV6rYY0/yATx2g22v5sj1S8FYDe167H8LXbEx9XvmAtznnzTQ569DINXPSxMlQp2WEqAi76eA90Qfa+sV3WGlhr0rXRxr16O4xJ1w9Ym74N4OQ9f0omTt8PkTZMlxWAc7bf3PGxw9ffCF1ys0nx8LUF9FzU2a+hdL7Ciq1hZwFpiE0yJRpSAo1I9KOb/i1t8FIAdG8/etde2vnxpTL61r9esEe/NXxdunv54Wvd3p4QueSlAPRccDGQ8ilv+YK1Qr15pb516f6C965jlILOXl6u3qh/MH0bA24+oSwaSncPH/WpxM8PiLLCSwEwAk+bbd3NR5KbWrqbLRsD8PO8hkiclwLQOP6CQBvHBHqyRLvPp3tiW5+ySPkwnigYLwWg/vwRNGdeStXG/KEJod680vSBdK+OZvZ3FsQhygI/T7CsxfTeBzo+fOGpQ6gfOyrYod86vrsB0+kYji1erLAA0NnL2yPsE+P3ovFS8mm8jZs49qPvO+jRSY1jFi/s7CzG+sL/NlE7EmZlkFIKaYP8Uvn7k31J2YbAogQlsJhH4lci8vvQfoamtwJgGnVMfusfYZJkta3F1M5voTb5jLuOATj6vTpm9iV7kjf3aIzJb8pEaTujUCikyzBILTiJ0vYjikQu+KiY7nWMUgpRlD7XERXSt1EQaKMdXl9i16eO4Nk7v4jGC62n86a2gMlv/xNmDoy775gBnvpyFcfuabSVwDq+p4kn/2oBNvDT/56+/o6PVVDoOcOCrGT96Esxm1AoC/WjVO6FSrGUttzXL7I6slQupyqK5d4+bzOARb+t1Ws3flQprHN1wnhhDtP7HkRzdgaFwSEUXrXar3niOKb3PYjJ796J+uSvXXVjMQvMHIgxczBG1K9QOl9DnfZ/aOvAzMEmnv3nGo7d3cjEk38dRSgUiojjBqxt/1ZE6wj9g0Op/3KforRGoVhCM260tSfB6f3oHRhEsSQTpFBKoVgqIY6bsAnWFiil0NM/gHJPr0g/AIViuQwTxzAJ1lsoKJR7+1Du6xfeIeE3Z3ji6NOP3HX6V4KsabVxjOm9ezC9dw+ivoGTG4IUimhOH0fzxPEQXfqNhSdiPP33MXRBobgKKAxqNGct6lMG1t/WBG0rlEoYLJ378sXWevCpSCMSWvN+uqhQwODwqX60HnxKK+hCQfxC11GEgaEVMOblfrTaEETj5LRfuCNKafQNDp/shzFAq1+JVihEESDw/CCJ4Iva4/lZxPMJNk7wxDQtakeAGjKw8UdLCjoqwONGMsvSUSS2qUaqfujI6846We/HchhkJ8oxFgCiHGMBIMoxFgCiHGMBIMoxFgCiHGMBIMoxFgCiHGMBIMoxFgCiHGMBIMqxxQVAWZkPaiOibFlibC8qANraI356Q0SePfvqLywqAAZqt5++EJFPWqGy6Guv/kJvvbwTQLotfIkoa44vNOv//eovLlqo/OyzD9fWrL0CABx+JC8R+WSBzz5y//cqr/76km8BLl+t/tpC7XTeKyLy4UcbVqu/Xeoby+4/tGXL7UPVcu3fALzbWbeIyC2FH1ab9Y889sB/ziz17WVzAOPj35i+fLV6P4BPAuCbAaKzyxGl7McP3PfG9y83+IE2t0IcGxuLDk3Zrdao662Jr2zUax+S6ycRSSiWyt9UOjqgLX5y6Rrcv2PHjpYbWibegvTiTW8d0cb8rLMuEpErRus3Pf3wvXuTHMMoMFGOsQAQ5RgLAFGOsQAQ5RgLAFGOsQAQ5RgLAFGOJS4AysbzLjpCROl0MjYTF4CoXGIsmCiDitXaog0/WklcAJ7Ye88Jq/DzpMcRkVMHDh8en056UIfPAOw3OzuOiNxQHY3JjgpATyP+MoDnOzmWiMRN9gNf6eTAjgrAY489MKONut0CzU6OJyIZFmha2NsnJiqznRzf8WvAJ35RuUdDfRgA3woQhTEH6A89NbH7x502sGhPwCRemnrykaGV6/5DKbsOwKVp2iKiBBR2Gpjbnp64L9Uu3on3A1jOujdsu8xo9R4Lu04ptfr075nYrLPWjEidq00GUPMKmIfCHIA5pfTzSqtjnvtBZxFr7HnWmlUA+mHRb4E+wPbBc2hOKb1XR/qJV/TN2qMK+vEI+OHjE5XDIueRaKSV17zumo8D6qs+znUGv2hafePUkz+dDNwPyrA1l169ErG+RwGbw/bEfuK5Xz30NddnyUsUmIOf2jJ5eN8UInOTBQ6G7osPeSgAHPyUSJ6KQLcXAA5+6kheikA3FwAOfkolD0WgWwsABz+J6PYi0I0FgIOfRHVzEei2AsDBT050axHopgLAwU9OdWMR6JYCwMFPXnRbEeiGAsDBT151UxE42wsABz8F0S1FwEsBUEqL7xuggIdtZLZz8FMop4qAAh6WbtvFmFmKlwJgjHpcsj0FPGwi87bJw/umJNslSmry8L4pE5m3SRcBa80hyfaW46UATF7S/wCAR2VaU7tRxI0c/JQVk4f3TaGIGwHsEWlQ4ZHnfrX+QZG2WvDzDKBSaRqF2wCkma5PW+Czz51rbzryy70vSHWNSMKRX+594dy+6k3W4nMAZjptRwHPGaU+COyIBbt3pvP5c+GF151nSuaTFtiiYHpb/byFXlDKHFFQu0sm3vnkk/tf8tFPojQuueSqFTWt3w1gq7X6gravdZj/ixrlf/j1r3/yooduEhEREREREVGO/D9W7AFUNgckrwAAAABJRU5ErkJggg==;" vertex="1" parent="1">
          <mxGeometry x="380" y="207.5" width="105" height="105" as="geometry" />
        </mxCell>
        <mxCell id="N_rBBtrlS4sjjkyDHwOa-3" value="" style="endArrow=classic;startArrow=classic;html=1;rounded=0;fillColor=#fad9d5;strokeColor=#ae4132;exitX=1;exitY=0.5;exitDx=0;exitDy=0;entryX=0;entryY=0.5;entryDx=0;entryDy=0;" edge="1" parent="1" source="N_rBBtrlS4sjjkyDHwOa-1" target="N_rBBtrlS4sjjkyDHwOa-2">
          <mxGeometry width="50" height="50" relative="1" as="geometry">
            <mxPoint x="360" y="420" as="sourcePoint" />
            <mxPoint x="410" y="370" as="targetPoint" />
          </mxGeometry>
        </mxCell>
        <mxCell id="N_rBBtrlS4sjjkyDHwOa-4" value="HÃ©bergeur web (Planethoster)&#xa;IP public : 185.221.182.79&#xa;&#xa;Fait office de passerelle pour accÃ©der&#xa;Ã  mon serveur web en sÃ©curitÃ©&#xa;&#xa;" style="shape=image;verticalLabelPosition=bottom;labelBackgroundColor=default;verticalAlign=top;aspect=fixed;imageAspect=0;image=data:image/png,iVBORw0KGgoAAAANSUhEUgAAAQAAAAEACAYAAABccqhmAAAABHNCSVQICAgIfAhkiAAAAAlwSFlzAAAHYgAAB2IBOHqZ2wAAABl0RVh0U29mdHdhcmUAd3d3Lmlua3NjYXBlLm9yZ5vuPBoAACAASURBVHic7d1ZkBxHeh/wf1ZVd1dfM90z03MCAwyAGQwBkLhIEACXS/FeHbQ2tLu0+CDZWiu8jpAdfneEHfsgvzjCEXLYftjQirF2SHaYMmVLlJbiktxdkiIB4gZBENccmAtz9Zx9VndVpR+wpMGZwUx3T2dndvX3eyNQrPzQXfl1Vp4AIYQQQgghhBBCGgGTHUA9+PBOKuHA+W0AJwHeAcZM2TGRDXCeB9gsgDM69L/5Zn90XnZIqqMEsIlfXJ+LwO//IYA/AkCVvr7kwfFfCrn8D18+3JmRHYyqKAE8xPu3kj2aZvwdgMOyYyHbcsV17d96fn/blOxAVKTJDkBFn0xMBDXN+L+gyu8FRzTN+Nt3rs6EZQeiIkoAGyjkm/4YwOOy4yBVcyQQNv+d7CBURK8Aa7wzlGr3c2cM9M7vNTm4Wu+z+5uSsgNRCbUA1vBz5x+BKr8XBRlzXpEdhGooAaz3pOwAiCjspOwIVEMJYB3eKTsCIgZnvFt2DKqhBLAWTfLxLvpu16EEQEgDowRASAOjBEBIA6MEQEgDowRASAOjBEBIA6MEQEgDowRASAOjBEBIA6MEQEgDowRASAOjBEBIA6MEQEgDowRASAOjBEBIAzPKufiNN97QU7F9HUxzPLuumnM3yCgvehLnbvD1987vkR2HKNzV89HlodlXX33VKfX/2XJT0B+9dSHkD2r/gnP2KsCfgMdbDZ2dXQiaQdlhEAFy+RxmZqZlhyGaC+AcwN8o5vmPfvDK49nNLt40Abz+3qUXwPHfADTMVkqUALyrQRLAg6bg8t///svHf/6wCx76a/76exf/MTjeRgNVfkI8pgcae+fP3r346sMu2DAB/PjdK0fB2U9QZh8BIUQ5BgP7yZ/9/aUNT7nasIJrcP4jQBsoVlNyNY3r47OYSC4hlc+jaLuyQ1KKz9AQNU3sTMRwcGcn2poiskPykiDT8Z8A/Nrav1jXB/D6+xeOwdUu1iIqFVW7DyBXKOLtizfw+cQMwHnV7utpjOGx3i5869ggTL+vardtwD6Ar2GcHf2Dl45eefDP1r0CMFen01OqZCmdxY/fPYvPx6ep8peDc3w2dg8/fvcsljM52dF4hqvxdXV7XQLg4AO1CcfbrKKN//nhJSylNx2FIZtYTGfxPz68hELRlh2KJzCwdXV7fQsAvK024XjbB9eHkExlZIdR95KraXx4fVh2GJ7AuNu+9s82aAEwT0/0qYV8oYjzdyZkh+EZ54YmkCsUZYdR9zaq21TZBbh9bx6OS7381WI7Doam52WH4UmUAASYWV6VHYLnzCylZIfgSZQABEjnCrJD8Jx0nj5TESgBCODSkF/V0SuVGJQACGlglAAIaWBSFvs4rgvbLXnPgtpSpPVumOvnaRfz1S2Dg4PV4HWFA2AqjC5zwLLVHE40NB26VvvPqCYJgHNgaHoGQ/dmML20Aquo5pcAAP/m934XQcjZD8BsAvqfY0j0A/oG34zrAMlh4PbPOXJLlZdjF7IoZFfgOjXsWGMMhj+IQKgFTNNrV+4DLLuI13/2gZSySxHw+dAVj2Ffdwf2dXeAbb1fz7YJTwALqTTeu/w5FtNp0UXVNX8IeOL3GMymh1+j6UD7ABDrYfj0Jxz5CkYbbSuDfCZZ+5YO57CtLFy7gGBTp7QkoDKrWMTduXncnZvHpZG7ePHwIbRExa6KFNrmuLe4hP9z5jxV/hL0nsCmlf9B/jCw+1QFhXDAyi5Jfc1xHRuFPI3pb2VxNY2/OnMe04vLQssRlgBSuTzeufQZirai7/qKifWU19wr93oAcF0bXIG+F9e2ZIdQF4q2g3cufYZ0XtznJSwBnL15B3mav10yI1Dm9RVs18K5GmPpKiShepErFHD21pCw+wtJAOm8heGZWRG39qx0srx2eXq+/Ha8rhsl7AMtnl5utmtwQ1MzyAhqBQhJAHdn52j/izJNXUZZ7+aTlyoohGkw/HK32mIAjABt91UODo6xOTGLoYQkgGXaBKNsSxPAjbcBd4u3JtcBbr3PkaxwibwZjkP3yRnmZExDINIK3UctgHItpsXsLSFkGDBXoIUblZi8yjE3BLTuZghEAbamSZBPMyyOcVjb6URnGoJN7XDswv3OuBr0C3AAmmZA95k0/FehvKA6JSQBUPO/coUMMH39YR9g9T5Y3fBDN/xVux8RS9RaKAXmZxJCZKEEQEgDU+7kH8aASLsPZtQAY2vegVMOUrPFil4xuOvCdW1s1YzO5fOIRUuckkfqSi6fhyNjEhJnYJoGTdehxDjsA5RKAK17TBz/XivCiYcfBpFdsnH5Lxcwd7u0/eI5d5HPrsApFlDKO/TU/By6Eus2Ty1LsIqHWZD7QoHt91dMzc8hl97GKqpt0nQDZrAZmqHO86HMK0AkYeD0H3ZsWvkBIBQ3cOqftSPWU9oDkc8swylaqOUE+HiETheutni4/j9T17GRzSzCVWgmpDIJYN83m2H4S2seaTrDvl9r3vI6xy7AsWs/JLm3M1HzMr2uv9sjx1VwjqKlznkRyiSA5u7ymnjxEloAriNnLUJHLILeRExK2V7Um4h76rBQWc/lRpRJAF7z0pFB6CrsglPnNE3Dy0cGZYfhWco8oSv3ymuqL09tfT3T5XW2dLc049cff0SxPt/6wgD85vED6Grx1qiMplEn4Dp3PlyFXSito851OG7/cmXL6wzDJ7XH9dieHfjO6SPw+5QabKkLfp+B7z51BEf39MgOpboYg98My47iK8o8mZn5Ij750xkc+14bIu2bDAMu2rj8l0mslNACABiC4Tis7Crsau+oWaIDOzuwqz2OT26M4vrENFaztBnGZppDJg70duL0YB/CVRj6U4mmGwgEm5VaD6FMAgCAhVEL7/6HKUQ7HjYRyEVqtlDWRCDGNJjhWMkTgXq2OQdgI+GAHy8e2Y8XjuzHSjaHVDaPoqPG5hyq8OkaoiETzaGgsNemnkQ7gpG4oLtv4quJQEpVNwCKJYAvpWaLSM1Wt6eUaRp0betflKBZwVY7pcYAIBYKIhaq/zHtehQ0TdqMZA1l+gAIIbVHCYCQBiYkATAa+yKkqkQdGiTktkGP9d4SIlvQL6bvQkgCiEfUGeckxAtiguqUkASwqz1Rk3PNCGkEDAy728UshhKSACJmAHu7O0TcmpCGM9DTibBZR68AAHBy/z6YtDEGIdsS9Pvx5MBeYfcXlgCiQRPfOnYYPkOdaY+E1BO/oePl448hHBQ3OU3oPICulhh+59QTaI1GRRZDiOe0NUXxO6dPoCsudl8J4VOBW6IRfO/pExi6N4fhmVlMLy7RoaGEbMD0+9AVj2Ffdyf2drXXpCO9JmsBGBj6uzvQ/6uOQcd1YSu0L9qDAgpt2EiqK2D48P2XnpEdxoYMTYcuarbPZuXWvEQAuqZJ+ceWhEYvvYtRgl9L0VpICKkFSgCENDAl9wPwoqLjYnR2AePzS0jnLdi0IcjXGLqGqBnAzkQMfR1t8On021QLlAAEcznHudvj+OiLYeRo9GNrN++fAvT0gT040d8LRktLhaIEIFChaOONT65iZCYpO5S6krUKeOfyTQzPJPHdU4dpU1WBqJ0lCOccb575jCr/NgxNJ/HGJ1fBKzkNlpSEEoAgn94ex53pedlh1L2RmSTOD43LDsOzKAEIUHRcfPTFsOwwPOPD6yOwHTUnjtU7SgACjM4sUIdfFWWtAkbnFmWH4UmUAASYSMo7g96rJuaXZYfgSZQABEjl6fSfalvNyTnZyesoAQhAk3yqjz5TMSgBENLAKAEQ0sAoARDSwGo2x3I5ncGd6VnMLq0gY1nKjuv+y+98GwK3YNuUbgA7jgOJfgYzgnV7ExTSHPMjDOPnOZxSTkd/CO4UUcivwikWsNVpyVXBOZhmQPcH4Q9GIWvTBato4y9++bGUsrdi6DrCgQA6W5qxt6sT8XCoNuWKLsAqFvEP12/hzr1Z8Fo8bNsmJ0ZNB47+LkN858OvCcYYmncA7QPAhT8HnAqmGjhFC/nUbO2n17o2HDsPp5iF2dQh6dwIjtVsTkK5pVlMpTGRXMCF26Po7+nENw4OCN/AROgrwGo2hzc/Po/b92bqpPLLs/M4Nq38D2rqZNh9soIKxAErsyB1br1TtFDMp6SVXw84OG5PTePNj88jlRObsIQlgILt4KcXrmAlmxVVhKe09JVXoVv7yi/DdW24lTQbqswt0Jh+KVYyWfz0wlUUbVtYGcISwIU7I1hKZ0Td3nMCkTKvr2Cnda7IRqyuInHUg8VUGheH7gq7v5AEYNlFfD42IeLWnpUrc6ZrudcDgKarsa5elTjqxbWxcVhFMa0AIQlgbG4Bjkszt8ox+0V57+UzX5RfBtN06D5JQxwPMPx0enQ5bMfF+LyYfSWEJIDkyqqI23razA1g8lJp105f55i8UllHnhluhabJ+wX2mVEYgdoMcXlJclVMx6mQJyFrbWOQuoHdeIdj9gZDYoAjEGVYOyRppRmSQxwLo5WXwXQDwVg3bCsNxy4AvAYtNQZoTIfuDynRAqlHGUF1SkgCcF0a8qvU4jjH4jiw8XyE6nyujDH4zCjoiIz64QpaDEVTgQlpYJQACGlgyo7H+ILrc1Mxt81mEOfYahKcS6MXnuW6LriE11PGOMDU/K1VKgEEYzoOvdKCrgMh6L71M+Mcm2PuZg7X3lpEZqH0cdFCPo1iIQteQuUemZpES/P2zmQP+PRt/f9kPdO//Ud1ZGoSmdXZKkRTPsYYdJ+JgBkB09R5PpRJS4Gwhm/+URd2HA5vWPkBQDcYug6F8My/6kIwVtoDYWVXUMinS6r81dIUDNasrEbRJGuJZpVwzmEXcsimF8FrMfJSImUSwN5nmhCKl1apAxEdA881bXmd6xRRLNR+9VdfR2vNy/S6PZ3e+Ey566BoqbM+RpkE0LqrvAxfyvWOpIUvO9ua0RqlyS7V0hoNo6elWXYYVePa6syTUSYB+MzyQtmok3AdSfMRGGN4/rEBKWV70QuHBzx1SKir0FFnyiSA1dnysmIp12u6vM6WwR0deHKgV1r5XnFy/y7s72mXHUZVyXwu11ImAdw9k95yiO5Box9vPTda9wWgSexxfenoI3jm4D5JG2DVNwbgqcE+vHh4v+xQqs7nV+f1UJkEkBzN48r/XoBT2LyH1LE5rv3NImZultK5x2CG49KSAAPwzKG9+KfPn8Du9hbAQ81YYRjD7vYW/MHzJ/C8x5r+AEMg1ATd8MsO5CtKzQO4+2kK09ezaB8IwmzW1/1y5lYdJO/kkFstfUMJTTcQiibgOBZcx96yldG6zTkAG9nZFsfvP/sEUnkLU8llrObyKNJBF1/j0zU0BU3saI0hEgwIKaO1OQa/WcFOKtvE2K+WYht+MMUmBCmVAADASjuYuJSu7k0ZoBsB6MbWD1a8aevhxUpFzQAGd3QIuz/ZXLypCX6T9iJ4kFrpiBBSU5QACGlgYhIAU2eckxBPEFSnhCSAgE+dXk5CvCDoF9MxKiQBNIfqe+EGIappElSnhCSA3kSbiNsS0rB62xNC7iskAbREI+hqqf54OiGNqKc1LuywUGGjAE89MgBdsUkPhNQbXdNwalDcwjJhNTTR3ISnDw3S7FdCKsQY8Myjg0g0i5u9KHQm4CM7uxHwGfjFZ1+gIPCAQ0K8xm8YeO6xA+jrFLsSUvhU4D2d7ehuiePyyF0M3ZtBOm+JLpKQuhUNmtjb3YGjfbth+sWf3FCTtQCm34dTg/04NdiPVC6PdD4PR9HFMD5DueURpEp8hoFXThyTHcaGdF1DxDQRrfHehzV/2qPB2v8jy6FRp4VnaYxhR1uL7DCUQt30hDQwSgCENDB64a2hVM7CRHIJ6bxFG4Ks4fvVO3Bvm7gNQch6lABqYHx+CT+/dgcT80tVOt/XuxiA3kQczz7Wj962uOxwPI8SgEAcwIefD+OD60OyQ6kbHMDY/BJ+8v45nOjfhZeP7vfYvoBqoQQg0DuXb+Lc7THZYdStc3fGoGnAS0cGZYfiWdQJKMiNyVmq/FVw9tYYbk7OyQ7DsygBCMA5x/tXb8sOwzPe++w2uEKn6XgJJQABJpLLWEyrcwBkvVtMZTC5sCw7DE+iBCDA6Oyi7BA8Z2R2QXYInkQJQICVbO2PJPe6VJYWkYlACUCAgl36yUWkNPkiLScXgRIAIQ2MEgAhDYwSACENrGYzAR3XxWRyEdOLy8hYlrIbgrz2UjuCEstv2QUk+hkC0fXj3oUMw/wQsDCyvTFxzl3YVgaOXQB4Db4HBjBmwPAHofvk7QVRtB387NI1aeVvRtc1hM0AuuMx9LS1QNdq89ssPAFwDlwbm8DFoRHkC0XRxW2bW4sK8RCP/DrDjiNf/tfG8993HgdmbgDX/hqoZGURd2xkV2fB3dp3qhXzq/AFIghEWmteNnD/ux2emZVSdqkuAwj6/Ti+rw+Hdu0Uvqmu0DRTsB389MJlfPzFrbqo/DJ1HsADlX+Lax9hJV+7Vj6TlFL5v1S00rALGWnl14NcoYB/+OIW3r5wBUXBm+kKSwAcHO9duYbxeZrAUYqOR8pL9eVeD9xv+jtF+ePptkWzJEsxNp/EO5evQeQsaGEJ4NrdSYzNJUXd3nOCZR6kFKpgqbxrq9EKcx0a0y/VxPwCPh+fEHZ/IQnAcV1cHBoRcWvPstJlXp8qvwxNV2P1t6bpskOoKxfvjMJxxfRNCUkAE8lFeucv08Joee28ZJnXAwBjOpgufq/5reh+dXeFVlGuUMDkgpj1JUISwMwSrdwq18RFYGm8tGtTM8DY2QoKYYAZaQWTeGaj7gvAMMUddeVVs4srQu4rpE2YodN/ysYd4NL/4th5jKF9gCMQYetGAq00kBzmGD8POBU2sHQjgGBzJwr5VbjFAioaSywX52C6DsMfghGIgj1kiJM8XNoSU6eEJABVJ/mozrWBsXMcY+cAkRVT030ww3LG4kllbEELzGgqMCENjBIAIQ2MEgAhDUyNgeFf0X0Me55qQufBIIJNBta+B1spBzM38xj+aBW2VXo/g21bsK0cXNfGVtOqxu7dQ2x/UyXhf8XQKa9WWzU+07F795Bdna9CNOXhDGBMg89nwvCHhc/vL4cyCUA3GE7/8w609T18jDjc6kPLbhPdj4bw0X+dhl3YuqOsaGVg5UqfNVOswiy1qElHW1VbUxVOlC46NlxXzm5NHA4suwi7aCEYbnnYWq+aU+anqu90dNPK/6BYjx/9zzZveZ3rOmVV/mrZmShzXi/ZUq9HPlPHLqBYUGcthDIJoH1/eavw2/u3vt6x5cxH6OtoQyjgl1K2F4UDfuxub5EdRtXYkp7LjSiTAMym8uaHB2NbX88lre336RqePrBHStle9PSBPTB076wf4JJeQzaiTALILJT37l3K9UyT18Vxor8X/V0JaeV7xd7ONjzR3ys7jKpSaTGUMglg6nJ5m0RMlnC9YfilnSzLGMN3Tj2GfV1tUsr3gn3dCXzv9GHPnQ5sKLQYSpkEMHk1g9EzpXXYTVxK4+6nW1/LmIZAOCbtAfL7DLz29DF869gg9QmUIRzw41tHB/HaN47C71NmoKoqfIEQDJ/MXSe/TqlP98qbC5i6kkHnodD9eQDs68N8+VUXMzeymLtV+sk7hhGAHm1DsZiD6zjYao59JBSqJPSHYozhRP8uHNuzA6NzixifX0IqZ8Gm9RJfY+gamoImetti2N3RIuSdPxIKyfn15QxM02D4AtANtX4IlEoAADA/nMf8cL6q92SaDn8gUtK1na1imuyGrqO/K0H9AhJ1trbBDHljOLFalHkFIITUHiUAQhoYJQBCGpiQBODzqTPOSYgXBASNhghJABFTnXFOQrxAVJ0SkgB2tHln3jYhKtiREFOnhCSAzngzYpGwiFsT0nBikTDaY9vbo+JhhCQABoaTA3tF3JqQhnNqsF/YTsrCRgH6OttxuM9bizgIqbUje3Zhd7u49SRChwFPDQ7g5OA+2geekDIxBhzdsxsnB/cJLUfoVOAv/xHd8TjO3h7G9MISeC0OoiCkTjEw9LTGcWL/XnTEtt71artqshagI96M337yGLJWAbPLK0jn8rAV2hThQYZCa7VJdRmaLvwXtVKGpiMSNNEZa0IwULs9JWu6GCgU8KOvQ+3FMDrt6OtZuq7h6J7dssNQCj3thDQwSgCENDDl9gPwMg5gJZNDKpdHkTYE+RqfriEaNNEcDtKYUQ1RAqiBTN7CxzdHcX18BqmcOltCqygaDOBgbye+MbgHIVOt3XO8iBKAYNfHZ/DW+c9REHS8s9ekchbO3hrD5eFJvHLiEA7s7JQdkqdRH4BAl4Yn8VdnrlLlr4BlO3jzk6u4NDIpOxRPowQgyNTCMt6+eIOmPW0DB/DTizdwb3FFdiieRQlAkJ9duQ1H0slEXuK6Ln52+ZbsMDyLEoAAs8spTCSXZIfhGePJJcytpGWH4UmUAAQYmknKDsFz6DMVgxKAAMvp0g8uIaVZTqtzpLaXUAIQIFcoyg7Bc7IWfaYiUAIgpIFRAiCkgVECIKSB1XQqcNYqYGZpGZm8peyGIC8lOqSW7w8DrX1AIMLA1kwjsjLAwl3AKu0U9U05dgGOnQfjtZiqxABNg+ELgknccMVxXFweuSut/M0Ymo6wGUBnPFbTo+RrkgCml5Zx7tYwppeWUJPnbRuee+JxaWXvOMow8AKgf/WtrF8Xxx3gzgccY59WWAh3kU/Pwy5U9wTmUliMIRCKw2dGa142ANiug7M3h6SUXSoGhu7WGJ4Y2IuuuPiTjIUmAM6Bi0MjuDA0onzFly22k+GRl7FRnf8apgMDzzFkkhzJ4fLLyWcWpVR+AADnKGQWoRk+6AadHrURDo6phSXcO3sBR/p248nBvUI31RXaB/DJjVs4f4cqfyl2HOVbVv6vXX+sgkK4C7uQqeB/rB4OwM7LjaEecA5cHrmLMzfEtliEJYDR2Xl8dndC1O09J9JWXpaPJMr/VXAcGyqsTnJs2hOhVFdHx3B3bl7Y/YUkAM6BszfviLi1Z5VbJ+wKWvGMqTHoI7MjsB6dvXFH2Hb6Qp6ImaVlLGdo6mY5lstc9r48Vf4DoWmGEpVPM2q37bUXLGWymF0SsyRaSAKYXFgUcVtPGzvHkS/xOy5kgNFPKiiEAYFQvKy+hmrTNAN+SaMA9UxUnRKSADJ5Sb3MdayYA87/OcfMF4D7kGnvrg3M3gLO/Xde8VwAIxCGGWmHpvsqD7YCjGkwAmEEmzuVaIXUm7SgvSSFDAMWimpO8lFdfhW49tf3m/aGuf6HulilvGr4gzD8QXDwmkwE4lCn/6FeFYq2kPvSpqCKqqSTr1wM7P4BjsLLIaqitExIA6MEQEgDU+4VILHPRNfBEMzm9R1F+ZSD2Rs5zN4sb8cd13VgF3JwHXvL9ujMQhKxaFNZ919Lq0GzutHo2vZ/q2YWkshnl6sQTZk4A9MYdJ8Jw1DrsBOlEsCR77ai7+TmQ0R7n2rC5JUMLvzFfElTjO1iHlZ2ueTpyOns9ucvRIJqfcleUI3PNJ3NylsHAaBoZWEEQjCD2/uBqSZlXgF2HA1vWfm/uvZIGLtLuJZzF1Z2teZrETrj6nzBXtHlkc/UtuQmobXUSQCHw2Vd31PC9XbRApewN/9AVwKGTmPd1WLoOvZ1JmSHUTV2tcZzq0CZBBBqLe9tJNK29fWcy5mPYPp9eGLfTille9GT/b0w/Uq9rW6L64oZ06+EMgkgv1peZc0tb329xuT9Cj9zcC8STRFp5XtFojmMbxzcKzuMqlJpJqQyCWDuVnk9+7O3t75ek9jj6vcZeO2bx9ASCUmLod61RkN47enjCBjqVJhqMBRaDKVMAhj5OIXkcGnznZcnCxj65dYrZzRNhz8ob+FJLBzEH754Eo/t7q7JjDvPYAxHdnfj+y+cRCwclB1NVem6Hz6/Oj8KyrxYuQ7Hx386gz1PNaH7YBBms4G1u1fkV13M3sxi+KNV2IXSuvb9gTB0zUChkAN37HX3XMunV/cjMf0+fPvJR/HUI324MTGL8eQyUrkcijYdHPogn6EhGgyiNxHDgZ2daIuW1ylcUhm6AU1C85uz+6+juhGA31Sn8gMKJQAAcG2OoQ9WMPRBddc+674Agr7Sml27ururWvaXEk0RJA5Sn4BMu7q7EWryzmhCNSjzCkAIqT1KAIQ0MEoAhDQwIQlA1ymvEFJNhqChUCE1NWyqM85JiBdEAmLqlJAE0F2DI40IaSSdLWLqlJAE0NPWgqCflsQSUg1Bvx89rXEh9xbTB6BpOL6vT8StCWk4j/fvqcqGKBsR1lt3aPcO7GpvE3V7QhpCb6IVB3t3CLu/sATAwPDikUPopSRASEV2tbfhpaOPCl1GInQqsM8w8BvHj+Dz8QlcvDOKXKEgsjhCPCHo9+Px/j04uKtH6NHgQA3WAjAGPLprJw7s7MHkwiJmF1eQyufhOGouhtHoAAvP0piGvZ0dssPYkK5riJomOuMx9LTFhb3zr1WzxUC6pmFXog27Emq/Evg8tvac/H8+Q8dLxx6VHYZS6OeOkAZGCYCQBkYJgJAGRgmAkAZGCYCQBkYJgJAGRgmAkAa2QQJg6pxbJIGMo8RIbdB3u75ur0sAHO50bYJRk0PbdXuWY8s5Kk4ZnE+t/aN1CYABZ2oTjZosq6EbQJ7W6N8tZ/hk7Z+tSwBFg78FoLxzujwkm8tSU9GDOOfIZhv2sQaArMGKf7f2D9clgB88+3gSnP3n2sSkHsdxsJJKyQ6DVNnK6goct3FfATjjf/JPXnhyYe2fbzgKEInkfgjgvOigVLW8tAjLKu2cQqK+QqGA5ZUl2WFIxC/bOf7vN/qbDRPAq6dP5zjHt8FwUWxgauKcY3ZuBhbtX1D3CgULM7PT4G5pZ0l60IWiw3/zB688nt3oLzfdbeBHb10I+U3t33LgXwPw1jGtJWAaQzwWR1O01YGaXQAAAIBJREFUGYxO960rnHOsrK5geWWpUSt/ljP+J9GQ9cevnj790M6Pkp7qH/3iQptR1H+LMZwC0A1ws2ph1gFDN3yhcDhhBsxmw6fbgYB5R3ZMZD3LyvfbRdsoWNZKOpOZtx27KDum2mJ5cD4FjZ3RUfjbjd75CSGEEEIIIYQQ0pj+HxzA3wXvGQitAAAAAElFTkSuQmCC;" vertex="1" parent="1">
          <mxGeometry x="650" y="140" width="100" height="100" as="geometry" />
        </mxCell>
        <mxCell id="N_rBBtrlS4sjjkyDHwOa-5" value="" style="endArrow=classic;startArrow=classic;html=1;rounded=0;fillColor=#fad7ac;strokeColor=#b46504;exitX=1;exitY=0.5;exitDx=0;exitDy=0;entryX=0;entryY=0.5;entryDx=0;entryDy=0;" edge="1" parent="1" source="N_rBBtrlS4sjjkyDHwOa-2" target="N_rBBtrlS4sjjkyDHwOa-4">
          <mxGeometry width="50" height="50" relative="1" as="geometry">
            <mxPoint x="560" y="420" as="sourcePoint" />
            <mxPoint x="610" y="370" as="targetPoint" />
          </mxGeometry>
        </mxCell>
        <mxCell id="N_rBBtrlS4sjjkyDHwOa-6" value="Information de mon ip public &#xa;et de mon serveur web&#xa;&#xa;Mini Dashboard en PHP 8.1&#xa;" style="shape=image;verticalLabelPosition=bottom;labelBackgroundColor=default;verticalAlign=top;aspect=fixed;imageAspect=0;image=data:image/png,iVBORw0KGgoAAAANSUhEUgAAAQAAAAEACAYAAABccqhmAAAACXBIWXMAAAdhAAAHYQGVw7i2AAAAGXRFWHRTb2Z0d2FyZQB3d3cuaW5rc2NhcGUub3Jnm+48GgAAH/5JREFUeJzt3XmQHNWdJ/Dvy6Mqq6qr70t9SmpJtAQSCCEkDBIYAcNw2t5hjdfGu8Fg2LDXEWbs9UR4Hbue3Y2dnZjBXq8nsBeG2fXaxti76wMbW0ayJA4hYBBCoAPRkmipT6nvquo68nr7RyOQ+qqu6nyZWZ2/T4TDQXX2ez9V1/tVZr6XvwcQQgghhBBCCCEkCFgxv9S5/dH1jON2xlgbB5rBWdzpwAgheTCeZEAfgDNcknYe3/d3RwpuYqEHbtr0sJqOlT0MjkfB0FFoR4QQwThOQeLfjqYmnzx48AljIb+yoASwdvtXtwP8KQCrFhUgIcQFvEuSpAeP7nvs5XxHyvkOWLvtqw+B8WcA1DkSGyFEMFbDOT5f137d6PCZA/8035HzJoDObX/xrxjDU/mOI4T4jgTgjtrlHxsYPnPg4FwHzXkJ8MFp/y4AIRHREUJcoUsS2zHX5YA024ubNj2sfnDNT4OfkNIWsm3+1NSYnmnWBDAZjT0CuuFHyFKxJl1W9tBsP5g1ATCwr4iNhxDiKs4fne3lGQngsm1f20Dz/IQsNWz1uusfvXz6qzMSgATrT9wJiBDiJlvG7dNfm3kJwKTlbgRDCHEZZ+3TX5rlHgBf5kYshBB3SQxN019TZhzFWRyMF9x4ZXkMjzxwC7Zt7URt1aXPBnHOMTSSwJ79R/EPT+9BajK7oDYZY/izO7fgU3dei9ZlNVCUS9cjTaazeOvoGfzgf+9C1/uDC471is5WPPy5Hbiisw1R7dKZTsM00d0zhJ89ewC/3fXmgtskwWJbOejZYdhWGpwXPl6KwSQZslKGULgWTCp8bR7nrGL6azMTQBHK4xE8/fiXsbx17tXCFeVRrFrRiG1bOvHZf/P3yGb1vO1+8yufxGc+cf28/S5rqMJNH1uHBx/9AQ4fO5O3zY9dswbf/68PQVXnfgNrquLYtGElVrTW43v/uDNvmyRYLDODbOoMONwZ+Bdwy4JtjcIyUojEV4CxWSfxCrL4FgA88rlb5h38F1u7uhkP/LMb8h63fm3bvIP/YhEthG9+5VN5j2OM4Vtfu2/ewX+xRx64BW3NtQs6lgRHLjPo+uC/mG3rMHLDjrTlSALYvLGwWcPNV+VfY7RlY2HrkNataUa8LDLvMc2NVWhZVr3gNiWJYfNVNCNKLsIt2NbCLmFFsoy0I+04kgCmX/PnU1dTnveYmgLbZIyhtnr+3ym0TQB52yTBYnPL6xAAAJybjrTjSALo7hkq6Pj3z57Lf0zP+YLaNAwLPf0j8x7T3TtU8A2bQuMgS5skqSiykJajmOzMYzqOJIBnn5/zacOij//jS0cwmc4tuM3f7TkE05w/O08k0njx1XcX3OboWAr7Xz+x4ONJEDCoav4zWNFUdcYN/aI4kgB+/Yc38PQv9+c9jnOO//Gj3dj3yrG8x46MJfFv/9OPkc7kTwJvHe3GX3/vVwuK9d//7c9x4tRA3uMSyQy+8h9+WFASIsEQijZAVua/3ySSGq6CEnImAcw4l1m77au7wPgtxTS2YV0btm9di9rqaRmSc5wfnloH8O7JvoLarKspxx07rkJrU+2s6wAOvdONvfuPwrLtBbepKDJuu3ED1ne2IRKZtg5AN9HdO4Tf/fEQxiYmC4qVBItpJGCZGddmBCSmQFZjkOUikw9nu4+/9NitF7/kaAIghPjYLAnAkUsAQkhpogRASIBRAiAkwCgBEBJglAAICTBKAIQEGCUAQgKMEgAhAUYJgJAAowRASIDNSACyzBwpE0YI8RdFkWZsDzZjsH/54Xskmy/8wRpCSGmQmMQe2fu3l7w2IwHcvuPq/NU6CSGlaMbYpnsAhAQYJQBCAowSACEBRgmAkACjBEBIgFECICTAKAEQEmCUAAgJMEoAhAQYJQBCAowSACEBRgmAkACjBEBIgFECICTAKAEQEmBU/QeABRNJO4VJnkKKp2BwEwZ02LCw4oyO1j4DXA0BIRW2FgEPhWBVVcKqrgGX5fwdkJKT4zm8b51Cwk7k3f1XYQoapWVokltm7rbrc4FLABmewaA9gGFrGMP2EEbsYaR4as7jq88A6/b2z/5DSYJVVQmztg5mbR2M1lboK1bAjsUERU/c0GOdxe7c88jxXEG/1yy34E/Cf4oQC+U/2CeWfAKwwdFv9aHHOoteqwej9nBBu7mn+eQ8jduQR0Yhj4wifOLE1GuMwWxogL5iJXIdHdBXdYArM0qxEZ9K8gSez+6EAaPg3+2zerFP34PbwrcLiEyMJZkAOIBBawAnrS6cNk8iwzOLaKuQdAGAcyiDg1AGBxE98ApsLYxc5zpkNm6EvnIlwErtJDFYjhpHixr8F5w2TyEZSiDOyh2MSpwllQAMbqDLeg9HjLcxao96HQ4AQMrmEHnrECJvHYJVXY3M1VcjvWUr7EjE69DILEb5yOLbsEcQlykBuCbDszhsHMIx8wh07t+apvLoKMp270bsxReR2bQJqW3bYZeXxgclKGxuLboNs4Sqapd0AjC4gSPmOzhkHPT1wJ+O6TqiBw4g8sZBZK7ZhNRNH6cbh8QTJZkAOIAT5jG8ph9Ahme9DqdozJhKBNpbh5C6eQfSW7YCEi3NIO4puQQwbo/jJf0F9Fm9XofiGCmTRflzzyFy6BAS99wDo6XV65BIQJTM1w0HxyH9IH6e/emSGvwXU/v7UfPEE4g//wfALp3rSFK6SuIMIMPT2Jv7I85aZ70ORTzbRuzFFxE6dRrj938aVlW11xGRJcz3ZwB9Vi9+lv5pMAb/RdS+XtQ8/v2PFhgRIoCvE8Bx8xiey/0GWZTujb7FkDJpVP34R4i9sM/rUMgS5ctLAA6OA/p+vG0c9joU73GO+K5dkJNJJO68i1YSEkf57gzABscL+l4a/NNEX30Vlc88DWYWv0yVkOl8lQBscOzL/RHvGse9DsWXtKPHUPWTn4BZptehkCXCNwmAg2NvbhfeM+mm13xCXV2ofOZnNE1IHOGbewAH9FfQZXZ5HUZJCB8/hvLf/AaJe+/1OhTHSZksQl3vQZ4YR74HMbkWhr6iA2ZdrTvBLUG+SABHjSN423jL6zBKSvSfXocdL0Pq5h1eh+IY7egxlP/q/0HKFDDrwxjSW7YgccedtIy6CJ6/Yz3WWbysv+h1GCWpbM8eaO+843UYjlD7+1Hx82cKG/wAwDmir76Ksn17xQS2xHmaAFJ2CntyuwovukE+VPHLX0AZGvY6jEWLvfwSmFX8o7jR/fvp5mgRPEsANrexW/9DST/N5wdM11H5s5+W/PSgMjC4qN+XcjnIo/4oAlNKPEsAbxivY9Ba3B+dTFEGBxHf+Xuvw1gUJ769mV7aSdALniSAEXsYb5mHvOh6yYq++hpCp055HQYpMa4nAJvb2JvbA7uEyiaViopnf03XwaQgrieAd8zDGLaH3O42EOSREURfftnrMEgJcXUdQI7n8KZ+0M0uA6ds7z5kN2ygOgI+sGtQwbP9MvrSEvLNb4QkoDNu47PLDXTG3Ts7djUBvGG8jhwK222FFIaZBuLPP4/xT9/vdSiB9vcnVfyip7ANYfbnZLw6KuNbl+dwfe3iqxMvhGuXAAk+gaPGUbe6CzTtyBEo5897HUZgdU3ECh78F1g28Ni7IWTdGf/uJYDDxluw854IEUdwjthLL3kdRWC9ObK4vR7GDYbD4+5sOutKAsghh/cMesrPTdrbhyGP0cIYL4znFn9lPaK7U/jFlQTwjnF4UfutkcIxy6KzAI9wBzYJt11aHS88AdjcxjHjmOhuBCrdElza4cNgRunsmETcJzwB9Fo982+x7XNRFvU6hKJJuRy041RdicxN+DTgCetd0V04LsZiqGCVCEthlDWHkV1fBymbgTw0/EGhitJ5ejFy6C1kNlzpdRjEp4QmAJ3r6Da7RXbhCAaGJrkZa5TL0Cw3o4zFP/phJzDe+dF/SpOTCJ0+hcjhtxHqem9Rj7C6IXTqJKRkEnY8nv9gEjhCE8BZ+yws+HdtOgOwSrkMm0ObUc4qFvQ7diyG7PoNyK7fAHliHLEXXkD0jTf8W6PPtqEdOYL0ddd5HQnxIaH3AHrMMyKbX5RKqQqfjPwZdoRvWfDgn86qqETinnsx/MUvwWhqcjhC54RPnvQ6BOJTws4AOLhvt/NaIa/Ex8M7EGIhR9ozGxsx+sgjiD/7G0QPvuFIm05Su9+fOkMJUM08xnOQzFEA85+ZcSkGW650JygfEpYARu0RZHhaVPNFu1y9AjeEbnR8co/LChKf/CR4WZnvtvKScjmo/X2B2HZcsicQP//foCX3gPGFTYGaoeVI1n0JudgNgqPzH2FfCeds/1X7WaNchhtC24XO7CdvvRXprVsE9lCc0KnTXocgHOM5VJ/9IiKJnQse/ACg6N2o6vs6tOQegdH5k7AEcN7218Mo1VI1todvAnNhYU/ijrugt7cL76cQobP+vR/jlLCxE4pebKLjKB/6DvJuRrDECEsAQ5Z/EoAMGTvCt0Fx6+lnScLEffeBq87cY3CCMrT0i7CE7MXtJymZw2B2xqFoSoOQBGBzG2N8TETTRVmrrkONVONqn1ZlFSa3b3O1z/nI4+MlXzk4H8ZTDrTh32lrEYQkgBSSvqn5J0PBRnWTJ32nP3Y97EjEk75nsG3II/R0ILmUkASQsJMimi1Kh9KBGIt50rcdDiN71VWe9D0bZbj0NxAhzhKSAJJ8QkSzRelQVnnaf+ZK/yQAeXTE6xCIzwhJAH7Z7UeFihbZ27lvo7kZdtQfTxRKWarHSC4lJAHkuD8+aNVSNWS4U1ppTozBaPXHAhym++PvQvxDSAIwCliEIVKVy3f+52LV+GP/epajBEAuJSYBwB8JwC/FPKx4mdchAKAEQGYSsjLGiZpoTpCZPx5+ses5+OoxTzev5FoYaFr8PDlZWoQkAMknCcCNZb8LIdWdBbvO281QGQAW88maBOIbQr4iJZ988076pBahZPtjWpQzzesQiM8IGamK13feP+CXBUmy4Y8nI7kc9joE4jNCEoAGf9x8G7aHfPFsl5rxx5ZonNElALmUmATgkw9ahqcxanu7/FU2ByGb/jgDsJQ6r0MgPiMkAfhl+g0A3re8LYShJf7gaf8Xs9VGr0MgPiMkAcSZP+a9AeCoccTDysQc0YnfetT3TJZMZwDkUkISQKVc5ZMJOCDDMzhpelMVV0vuhmz0etL3bEzVv5WLiTeErANQoSLG4khxf9yFf00/gOXyCoSZe3fBGc8hPvR91/rLx5YqYKsNwtq3OLD7nIKXhmQM5/Kn/7jCcW2NjbubDWj+mDUOJGE1sqrlaqRMfySANE/jNf0Atodvcq3P+NDjkM0B1/rLx9RWC2vb4sC3joSxf7iw6d+DYzKeH5Tx2MYc6OLEG8Jyb4Mk7tumGMfMozhqHnGlLy21G9Hxn7vS10KZYXEJ4Jd9asGD/4JTKQmPd6kOR0QWSlgCWCb773pzv/4SjmfEFisNTb6GioH/LLSPYuiRDcLa3jW4uIVf+84rvlivEUTCEkC91ADJJysCL+gbW4VHX2/Di+fFXPloqX2o6v86mE/qIXyISdAj4uoins8u7pavbgM2ZQBPCEsAChQ0yPWimi9Y79gavNx1N3Rbwl8dDeH7J1WYDn3oGNcRH34clf3/rqANKdxihDphy+J2B/ZH+VdSDKH3X1fIK0U2v2C9Y2tw4OTd4Hzqn8sB/J8eFX/+uoZXi7x2xQctacm9qDnzecRGfwS/DgU9ttnrEIhPiU0AivcJYPrgv1hPWsI33gnj4Tc0/G5AQdJY2KlsymT4bb+Cse7/jsqBb0DR/b3rTjZ+s9chEJ8SulVOnJWjRqrBiO1NNdr5Bv/FTiYl/N27IXyHAZfFbawrt9AS46hUgJjKkTYZJgygJ81wPCHheEKGxYED4Y/jqdpnXPrXFMcMtcMIr/E6DOJTwvfKWqNchgP6K6K7mWGhg/9iFgeOJSQcSyzsdw7ktuI9czXWKF3FhilcNn6L1yEQHxO+BmuNstb1yrzFDP5iPZP658L7KBqTkCm/w+soiI8JHyERpmG5slx0Nx9yc/ADwK/T92DcrnClr0LlYttg0fp/Mg9XRsnlirhFKBdze/ADQIZr+FX6E671V4jJyvu8DoH4nCsjpUluwjJ5mdA+vBj8F/wk9WlY7ryVC2aGV0GPXu11GMTnXPvUblSvEda2l4MfAPqsZryQvdGTvueSrHkI8M1D2cSvXBsxbXIb6gU8IOT14L/gx6nPeNr/xQytE7my7V6HQUqAq6Pm+tD1jn4n+WXwA8BruWtx0ujwOgwAQLLmEdC3P1kIV0dOg7wMHbIzj6X6afADU7shPT15v9dhQI9thR7b6nUYpES4Pnq2hq+DgsU9/+23wX+B11OCnIUxUf81z/onpcf1EVTG4rg2tKXo3/fr4Ae8nxKcrPk8LLXZs/5J6fFkFK1XN6BJKvyD6ufBf8GPJ+/3ZErQ0DoxWf2A6/2S0ubJSGJg+Lh2M1S28EuBUhj8ANBvNrk+JcilCCYa/wp8kZdWJHg8G01xVo4bQzct6NhSGfwXuD0lmKx7FGaozdU+ydLg6YhapazBBvXKeY8ptcEPAK/mtuCE4c4juJmKu5CuuNuVvsjS4/mo2hq6Hq1y66w/K8XBf8Ezk+KfEtQjG5Bo+LrwfsjS5fnIksCwQ7sNVazqktdLefADwLPpuzBhlwtr31KbMd70N3TdTxbFF6NLg4a7IvcizqYGTKkPfgDI8Ah+MfkpIW3bSh1GW74LW64U0j4JDt+MsBiL4S7tHiC9vuQH/wU/STv/lKAtV2K05bs0308c4atRViFV4N6yG7FM8zoSZzg9JWgrNRht+R7M0ArH2iTB5qsEAADLIhzf3ZjDypg/S2wX6kepf+FIO5bahJGWH8AMr3KkPUIAHyYAAKgJczy2MYcrKiyvQ1m013Ob0WUsbtAa2hqMtD0JK9TiUFSETPFlAgCACpXjOxtz+Ey74XUoi7LYpwSz8Vsx2vID2HK1g1ERMsW3CQAAZAZ8YaWBr3fqCPk60vk9m74b43aBd+yZjGTtFzG+7D+CSxExgZHAK4lhdfsyE09szqIzXpr3BTJcwy8nF/6UoBlajpHWJ+jhHiJcSSQAAGiL2vjepiy+sNKAWoLFbhY2JSghXfEJjLT/TxjaOlfiIsFWMgkAmLok+Ey7gSevzWJzdWndIOw3m7Ave9OcPze0dRhpewKJhr8EZ0tkHpT4XkklgAvaojb+5soc/sv6HFqjpXNZMNtTgrZSh0TDX2Kk7UkY2uUeREWCTPjegCJtrbVwbY2Fl4YU/LBbQfekv/PZ67nNGEIH6nAKtlKHVPVnkam4l77xiWdKOgEAgMSAG+tNbKsz8cqwjP/bq+DtcXf3IlwoDobf2/8an1g2gkzFHUvmQR7GF98GZ07c2HHiC2DxcUgO/FNkl+5zlXwCuEBiwA11Fm6os9CTlrBzUMbvBxSM697fMYwqHNfXWrit0cLVVTcg7XVADqvTOBKp4t9nhQGoKAdGF7GNPGOwwo1QMieLbwNATK4ArIlFtdEQXtSvAwDqwg5k1QVYMgngYq1RG19YaePBFQbemZDxypCE/SMKBjLuJYOqEMfWGgtba2xsrjGh+fvqZFFurrdwKlX8P3B7nYlcbAPC779fdBv6qlXIVLYhnHm56DYMbR061I04bp0tuo0KqRI3NYTwXC9Q7BCuDXNsqHTnJveSTAAXyAy4qtLCVZUWvrjaQE9awpGJj/7Xl5FgO5RoGzWOdeUWOis4rqiwsKbMduRUsBTc12bg4JiEN8cKv/Rqidr40moDaeUahLpOQjt2tOA27IoKTNx7L6x4JTLpOxGZeK7wNuRKTDR+Ey1yCzYoV+Jt83DBbYRYCDvCt6A+wvEvVxj4X+8XfomnycA31rm38G3GR/TMudQuALe40723cjbQm5bQk5bQk2YYM4CEzjCqM6Stj96ajAWEJCCucJSpU/9fH+ZojnI0R2w0RznKFXdO2fzKsoFn+1W8MCRhKJf/01uuclxbbeG+VhNlF94720b0zYPQDr8NeWI8bxu2pkHvWIXJbdtgR6MfvMoRSexEJLETstGPfN/DthSFEdmIVPUDsJXaD18/bZ7Gu+ZRJHgCNp+/DZUpaJSX4Sp144c1LQDgtREZz/Yp6M0wmHz+b4OwxLG23Mb9babIma3d7Q1lt178QqATACEBMyMBLOErU0JIPpQACAkwSgCEBBglAEICjBIAIQFGCYCQAKMEQEiAUQIgJMAoARASYJQACAkwSgCEBBglAEICjBIAIQFGCYCQAKMEQEiAeVIRyOYcthXsAhoiSDIgMXdzOuccFv0tHScxBsmFyqCuJoDzIwkMnp9AVjfd7DZQQqqChrpyLKurENrPRDKD3oExTGZyQvsJMkWWUFtdhubGKsiSmMTuWgLoPzeG3sH8ZZ7I4uiGiZ7+UZiGhdYmMTsKjyfS6Oo+D56nVBZZHNOyMTiUwGRGR+fKRjBHSqdfypXzRcO00HducaWWSWEGhyeQ08VsrX62f4QGv4uSqSzGE2KKybuSACYzOn1gXMY5kErrjrdrWDayObqEc1sqLeZSy5UEYFmls3/fUmJZzteWt0z6W3rBFPS+u5IAotrS2AKr1EQ1B7aomSYckiEJuiFF5hbVQkLadeUvGdFCiJfRBphuikZCiEWdTwCMMdRXlzneLpmbokioqYoJadu1VL6qrR5lAj6QZKaoFsLq5fUQcNMYANDSVI2aSjEfSHIpVZWxur0BiiJmw1vXpgFVVcbaVU1IpbNIp3XYnK4lncYkCVFNRTymCZkyukBiDB3t9Wiq15FI52ALuNcQeIxBCykoj0eErQEAXF4IxBgQj2mIx+hyYCmIREKIRMRcmxJ30N0cQgKMEgAhAUYJgJAAowRASIBRAiAkwCgBEBJglAAICTBX1wGMjE9icGgCmYxBC4EEkBiDpqloqC1HXXVcaF+pySz6zo0jmc5SdScBGGMIh2TUVJWhqb5S2MIu1xLA4HACZ/tG3OoukGzOkc7oeL9nGLpuobmxUkg/iVQGJ06fo0e8BeKcI5sz0Tc4jnRax+oVDUL6ceUSwLRs9PaPudEV+UD/+XHogkqvnemlgiBuGkukMVHSBUHSOTrldxnnXEgRCdO0kcmJqTRE5pacLOGCICYVBPGEIeB9N+jBH08Yppj33Z16AGEqCOIFEe+7FlIgCXzSkMxOE1RUx52KQIKKU5C5aZqKeExMQZBawTMM5FKyxITVX3CvIEh7nbAsRi4VDqlYvbxB2NRRa1M1KuIRIW2TS8myhI72eoRUMRN2rk0DhkMq1q9pxngig3Q2B5tuCzhOYgwRTUVlRUToDkGyxHDZykYkU1kkaB2AEBKAUFhBZUUMqrxkCoIwVFVEUVURdbNbIki8TKNajyWOlgITEmCUAAgJMEoAhAQYJQBCAowSACEBRgmAkACjBEBIgLm6DmAimZkqCJLVYdPjpI5jjEELq2isLUdVhditu9JZHQPnxpGcpCc9RWBgCKkKaqvLUF8TL/2CIMMjSZzuHXaru8AyDAvJVBZtTdVorKsQ0kcqncW7p87BpuWcQhmmhcm+HFLpHDra6oT04colgGXZ6B6gakBu6hkYE/YIaXfvCA1+F42MpZBIZYS07U5BkEyO1ou7jHOOlIAiEpZlI53RHW+XzC+ZzApp15UEIOqbiMzPMJx/30W0SfLLCSrE4koC0EL0GLAXNM35WzzhsCJ063Eyu4igMeRSQZAwIhptI+2mcEgVsg07YwzVgopTkNlJjKG6UswTtK4kAMaAVcvrERZU1IBcSlVkrGqvE/ZN3d5cg1iUHgN2g8QkrGirQ1jQGYBrIzISVnFFZwtGx1PIZHTYdE/QcUyaep9rKssgiywiIUtYt6oR44kMkpNZ2PTHdBxjHOGQiurKmLBqQIDLC4FkiQnfsYa4g4q7LA20FJiQAKMEQEiAUQIgJMAoARASYJQACAkwSgCEBBglAEICzNV1AKl0FoNDiamCIPQ0qeMkNrUnYGNthfANO3K6gYHzCSRpZyAhJAaEQgpqq8pQU1UmrB/XEsDo+CROnR0Cp0pAQmVyBsYm0ljRWits0VUmo+PYqQFYtO27UJmcgYlkBql0Fu3NtUL6cKcgiM3R3TdMg99FZ/pGYQgaoKd7R2jwu+jccBLJVAnXA0hncjBN+sC4ybZtpCadryJj2RyTaTEfRjK3RCknAF033eiGTGPoziddg/6WntANMe+7KwkgHKaCIF4Ih6kgyFIRDom5XedKAohFQtAEfBjJ3EKqjHhZ2PF2GWOoLI843i6ZG2MM1YLKvLtUEISho60eqsBn1MlHZFlCR1s9JCbm/V7eUouIRmd1bmCMYXlLDTRB77drX8uxaBjr17ZieDSJdIY2BhFBYgyapqKuOg5VkYX1oyoyrljTjOGxFJLpHGyaEXAcw1RZt5rqMkQEXkK7el6uyJKwzSqIuxibKu5CBV5KG52TExJglAAICTBKAIQE2IwEwMASXgRCCBGNjU9/ZbYzgAEXIiGEuI3z/ukvzUgANni3K8EQQlzFGM5Mf21GApA43+lOOIQQN9kW//3012Zd1H3m3ORJgHeID4kQ4pKu9oayNdNfnHUWgMH+tvh4CCHuYY/N+upsL3LOlbNDk2+DY63YoAghLjgxVB9bfw1jxvQfzH4GwJgJ2A8D0IWHRggRKcdhPzjb4AfmWQjUXl/+MhgeFhcXIUQ4zr68vKH8lbl+PO9KwPb6sh9y4HMAqAYUIaVF54z9eXtj7Mn5DlpQaZcz5xM3cC49xYAZdxEJIb5zgsN+cL5v/gsWXNvpDc7V+vOphzikvwD4qsXFRwgRoIuBfbu1PvoPU/fx8iuquNuZgeTlXGK3M87aGbNbOBg9FE6IyxhYgnP0Mca7uc13ti+LH/M6JkIIIYQQQgghhPjT/wehBoFaQqxg6wAAAABJRU5ErkJggg==;" vertex="1" parent="1">
          <mxGeometry x="870" y="70" width="80" height="80" as="geometry" />
        </mxCell>
        <mxCell id="N_rBBtrlS4sjjkyDHwOa-7" value="" style="endArrow=none;html=1;rounded=0;fillColor=#b1ddf0;strokeColor=#10739e;entryX=1;entryY=0.25;entryDx=0;entryDy=0;exitX=0;exitY=0.25;exitDx=0;exitDy=0;" edge="1" parent="1" source="N_rBBtrlS4sjjkyDHwOa-6" target="N_rBBtrlS4sjjkyDHwOa-4">
          <mxGeometry width="50" height="50" relative="1" as="geometry">
            <mxPoint x="770" y="300" as="sourcePoint" />
            <mxPoint x="820" y="250" as="targetPoint" />
          </mxGeometry>
        </mxCell>
        <mxCell id="N_rBBtrlS4sjjkyDHwOa-8" value="Base de donnÃ©es&#xa;MariaDB pour enregister les informationsÂ &#xa;de mon Dashboard &#xa;" style="shape=image;verticalLabelPosition=bottom;labelBackgroundColor=default;verticalAlign=top;aspect=fixed;imageAspect=0;image=data:image/png,iVBORw0KGgoAAAANSUhEUgAAAQAAAAEACAYAAABccqhmAAAABHNCSVQICAgIfAhkiAAAAAlwSFlzAAAHYgAAB2IBOHqZ2wAAABl0RVh0U29mdHdhcmUAd3d3Lmlua3NjYXBlLm9yZ5vuPBoAAB3wSURBVHic7d17lGZXWefx77PP5b3UtTsXEs2EDqBoMqNrJgTUrKUhaRWcQWd00o6MLgVncHQtdVAkgLcSHEERBoguF86Is8aMYuJ1oaISLqMiEAx4S0YxkmBC0nSnu7rqrXov55y9n/njrequTtLd1anLPu97ns9atarr7araT3XX/p199tlnHzDGGGOMMcYYY0wTSOwCzMU5/KY7F4rKz2cumQuVn1NxcyCLjjCnInMqMueCzqnTeZRky5cugHNnPtQDZ39nWT7z5xCAlS1/V4nSU2EVWBPVXsD1QE85kVVxrJXB9/I0Wb37NUdWMBPDAqAGvvytd3a6Q64J6q9UlSscXIbKFYg+Q5HLEZ6BcgVwGZDHrvcCCoRjwOdQjgp6PMBRB58LcFxEj/ogj5Yz7qGP/MCRQexim84CYB/cunRn/rnEPTNz4VCAawh6SOAaFQ4Bh4Ar4lYYzVFVHhThIZSHBB4UJw+VwT20fvmJh+79ru8qYxc47SwAdtFNSx9M09bJq4OvrgvCtaJ6HSLXolwHtGPXN2Eq0H8S3P2o3qdO78e7+4az3G8jh91jAfA0vXjpjvlRkj8P4fkK/wr0OuALgCx2bVOuBP4B5D4VvTeBe4Zp+y8+fNs39GIXNoksALbhpqUPpuIeey6Jux6V6xFuRPmXgLvgF5t9op8GPqzq7kW4tzM/+/H3ft/XjWJXVXcWAE/hpqUPpi49+nxwNytyC+iXYUP4STNQ+Cgi70+ED/jiso9/aOmFVeyi6sYCYMPhN/7ms3zwh1EOg341sBi7JrOr1oGPqHC3eLn7q8L9n1xaWgqxi4qtsQHw4nf8QWu40rsF4d8C3wBcHrsms68+B/q7qu63L/N84K6lI0XsgmJoVAC8ZOk93fW0f4uit4J8PbAQuyZTC31BPqAS7mqX1e+8d+lbV2MXtF+mPgCuf+c7s7lji/9aHC9D+RrsXN6c3xDkj1T1f/UuP/X7074WYWoD4Cvf8O4vTpFvV+E7gGfErsdMpGXQu1TcL3zoh4/8Zexi9sJUBcBLlt7T7SXr3yYiLweeH7seM0VEPga8a7bs3PGepZf0Y5ezW6YiAA6/6c6FquQ7RPQ24MrY9ewVJw5xCSIJzjlEBHGCiEMk2fjY4XDA+O82/4sFkK33AuHGLwal8iMG/VWqyi6bb8Pjovy8JNnt73/dN56IXcxOTXQA3PyTv/lMpfoB4DuBmdj17IRzCUmS4lyGSxxOUpxzuCTFbXR6kT3871JldfUYZTncuzamyzrwS0kqb7n7NUf+KXYxT9dEBsBXL/3a51Wp+0ngW5mgpbcijiTNSJKMxKXjP7sUl2R727m3yfuKU8ufjV3GpClB/3cl2Y/+6Q9/02Oxi7lY8X/rLsKtS3fmxxO+W0RfD8zHrud8nEtI0pw0ycbv05wkSan7P/nyyUcIwccuYxKti/Kzwfff9KGll03MMKrev41b3PyTv/4ShbcD18Su5YlEhDRrkaUt0qxFmrYQmczbBFZOHbW5gJ15GNEf+eDrvvlXENHYxVxI7QNgfJ7vfwn0lti1bBLnyLLOlg5f9z06tm/5xMMEbfwK2R1TeF8gfOef/Mi3PBy7lvOpdQDc/IZ3v0xF3kbk4b4gJFmLPGuT5Z2p6vBblcWA1dVjscuYJiuCfO8HfuTIr8Qu5FxqGQAvfscftIarvduB/xyrBhFHnnXIWx2yvFuLSbq95KuC1dVjdv6/J/RXZquZ/1LH9QO1+63+mqXfurxMy/cQYSGPOEcr75LnXbK8s9/N75iiaAioBlQVCJwZzSu6ZWgfAFRBA1U1ohgNUGp/yjrJPlo5+fo/fd2R47EL2apWAXDzG979bBX+GORZ+9aoCHnWodWeIc86UKMjfQgB1YoQ/PjNB4JW49eD3+jo486uIVgHrr8HvMrX/MmPHnkwdiGbavPbfvhNd17tK/2/jDfJ3HNpmtFqzdFqzTxhhdz+qnyJ+grvS7yv8L4ihBIf/PgIbabNw17lq+oSArUIgFt+6rcuCaH8GPDsvW6r1Zqh1Z4jy1p73dRZxp27wJcjSl8Sqo1ObkftxhH0H7LKfdkfLR05Gb+WyG5a+mBKeuyPBV64V22Ic7Rbc7Q7cziXXPgLdsj7kqocUVUFVVXgq8KG5+YsCu+77AvlxXcdORJ11jWN2TgA2fHbRPem84tzdDoLtNtzezaLryhVWVCVQ8pqhK8Km0k3FyTw1Y9/Sn8Q+JnIdcTzlW/4jS9IxP8NsKvjcXGOTnuBdmd2T1bk+aqgKEfjTl8ONmbcjbloQ03kX3zotUceiFVA1BFAin+97nLnb3fm6HYWd3diT5WiHFEWfYqib0d4s1vartIfB74tVgHRRgBf+YY7r0lEH2CX9tbPsjbdmYOk6S7dHKjKqBhQFusUxfCsa+jG7CKfpPKsWLcURxsBpKL/UXej84sw0z1AuzO3C1UpVVUwGq4xGq3b0N7sh8RX+q3AT8VoPFoAKHztTr+HOMf8/OWk6c7OIkKoGA57jIbrNrw3+2+8WW2UAIiyAmZpackB1+/0+3Q7B3bU+YuNm1+WTz7KoL9qnd/EITxvo0/suygjgD/Nv+QAodzxYvtW++J3AVOUYtRnMFjBV1O947OZHDN3t75gAVje74ajBMBosHxV1prd0fcYb4S5/TlMRRkN1xj0V+xIb+qnP7yapgSADHrKDgNANeBDReIu/CMMhz36/VNosJl8U09hsBblqBQlAPpSrM9p2PEindGwR7d74Jx/XxYD1teX8d6G+qa+NHhK34+yV0CUAHCVV18WpPnOntI16K+SJC1are5Zr4fgWV87SVHUbv8FY54kVPGeSxrtMqAv+jsOAIC13nGKUZs06+KcUJXFxjV8G+6byVBFPFBFC4CqWCfXxV1Zq18UQ4piYnZiNuY01RA1AKLthKEaKIe9WM0bUwvlsBd1tBp18/rxD2+X5EwzqXrKwWrUGqIGgAbPaG3fL30aUwvDtZPR56qiP76mKtYphnFT0Jj9Vg5X8TW4ShU9AACK/jJVOYhdhjH7oiqGjNZPxS4DqEkAoDDqPY4v7Zl0Zrr5asho7Rh12Qy2HgHA+KrAsHeMyi7nmSnliwHD1WO12meiNgEAZ0KgHK3FLsWYXVWO1hj0jteq80MddgV+EmW0dgJfDmnNHJzYx2wbM6aM1pdru+alhgEwVo3WCVVJe/ZS3G7t82fMPgpVwXDtBMHHW+t/IbUNAIDgCwYrj5F3F0g780j855gYc0GqSjlcoRis1GWu75xqHQCwsZFH/xTlaJ28u0iady/8RcZE4ssBo7WThFDFLmVbah8Am4IvGfaOk2RtWjMHcEkeuyRjTlNfMlxfxk/YepaJCYBNvhzSX3mMrDVH3plHtrEjkDF7JfiSYrhKNVqr/XD/qUxm79HxjUTVsEeSd8g6iySpjQjM/gm+oBisUo36TGTP3zCZAbBBgaoYUBUDkrRN3p0nyXa82bAx5+TLEeVwZbx0fXL7/WkTHQBb+WrIYHWIS3Oy1ixpa8bWEJhdocFTFX3KUY8wZVvJT00AbApVwag6SdFfJsnapK1Z0rxD5AchmwmjQCiHlKO18Y49NVvBt1umLgA2qerp0wNxyXhUkHdxNldgziP4knK0TjVaQxvw/IipDYCtNHiKwXhhhnMpSd4lzTskWQsbGTTb+Eg/oioH+GKd4Cfj+v1uaUQAbBVCRRiuUg5XEUlIWh2yvItLWzZn0BCqAV+OqIo+vhw04kh/Lo0LgK1UPdVwjWq4BgLO5SR5hzRr2+hgqijBl/hiQFUOCeUInYYp/F3Q6AA4i46v7YZBQTlYQcTh0pw06+DSFkmWY4EwKRRfFYRyiC9H+GoUfe+9urIAOIfxMHGILzc3KBFckuLSnCRtkWQtJMktEmog+BJfjQhVSagKgh/V7r77urIA2LbxMDL4kmq0Pn5JHEmak6Q5kmS4JMclqc0l7BHVMP4/qEpCKAnVaPyIdzu6P20WADvxpFECICCS4tIMl2QkSYZLc8RZMGyXakB9RfAF3pdoVeJDiYZqKlbf1YkFwG5TUK3wRYVnwFnrxkRwLkVcgksynEs2Rg5pwwJCCb5Cgx8f0YNHfUnw1fg2Wjui7xsLgP2k49MIfHn2qGGDiEOcQyQdv3cJIgmSOJwkIAnOOXAOcIjUYwZiPMGmEAIhBFBPUI/6gKpHg0fVj/8ueJuQqxELgBoZD30DsM3FKALgcOJAZBwajP+MyBNGFOPXTn8kZ/ZXUjh70kyVrWNt1TB+TZWgYXyE3vwzwYblE8wCYJIpQNjoiEBz17OYp6kpJ53GmKdgAWBMg1kAGNNgFgDGNJgFgDENZgFgTINZABjTYBYAxjSYBYAxDTZxKwEPdCpu/dKTXHdFnyoI9zw8y+/dt8h6kcQuzZiJM1EB8JxLR9z+jQ9yoHNmrfyN1/T4Ty84xm/+9UF+/ZOXsDyYqB/JmKgm5hTACfzE1z58VuffNNfyfMcNx/mdl3+KH3rho1w6M10PbzBmr0xMAFx3RZ9nX/rkW2i3aqWBb/qSk/zatz3Ajdf09qkyYybXxATAFXPFtj93ruV5/Yse4RmzNhIw5nwmJgCO9i7uiT4zuefwc1f2qBpjpsPEBMB9R7v84+Pti/qaqxa3P2owpokmJgCCwo/94VWc7G9/lv/Eml0RMOZ8JqqH/OOJNi+94zl8+w2P8w3XnaSbn3tvuRCEuz+1sK3vm8+3+Pwbr2L+0CLihP7jfXoPr7L2mVXWHltDg+1hZ6bTRAUAwKlBytv/5Ap++Z7L+PdfeoJbv/QEBzpP3gvr5z78DB5abl3w+7UPtHnuS/85WTc7/dr81QvMX70AN0IoPWuf7fH43x5n+e9O2AMnzFSZuADYtDpMeNfHLudXP3EZ/+bak9z8nFUuman47KmcOz5xKZ94ZGZb3+fqw9ec1fmfyGUJ84cWmT+0yMnnHOTTv/cp2wTTTI2JDYBNw1L4jb+6hN/4q0su+muTVsLcM7d3mgBw8IsuYfnvL2H5Uycuui1j6mhiJgH3QtJOL3pv/YNffOkeVWPM/mt0AJS9Aj+6uL20087ED5qMOa3RAaBBOXbvYxf1NaPl8y9HNmaSRAmAtD17ccv69tCjH32EE/c/vq3PVVVO/O3xPa7INFGsPhFlPKvI9mfe9ph65cHf/weOffIoB7/wILNXL9C9vPuUcwOPfvgRep9djVClmXZSyoEY7UYJgCztttUV4yfB1sT6oz3WHx3fQZi0Uub/2RyzV82Tz7Uo+yUn/9/jrD1qdxia3eeSjKTTbc4IAMBlLcKoPgGwlR9VLD+wzPIDy7FLMQ3g0nhnxNEmAbO8G6tpY2ola21v0dpeiBYALu8gzi6pmWZzLiVJO/Haj9WwIOSd+VjNG1MLeWcBLm4t2q6Kug4ga8+SRDz/MSamJM1JW7NRa4i8EEhozV4CF7kc15hJJ+JozV4a9egP0QMAXJLTnrn4G3mMmVgC+cxBXHLuu1D3S/QAAEhbM+SdxdhlGLMv8s5i1Jn/rWoRAAB5d4GsU5sFgsbsiayzMJ74q4naBABAq7tIa+Zg7NMiY3afjI/8rW69Rrq1uxCftecQ5xit2fZbZjqMJ/wuIa3h4rfaBQBAms/gFjKGvccJ3h7uYSaXSzI6c5chNZjweyq1OgXYyiU53YUryToLdkpgJo+MR7OdhStr2/mhpiOA00RodRdJszaj9ZM2GjATwSUZrZmDJNnFPcgmhnoHwIYka9NdvJJyuEbRX0H14rbxMmY/iDjy7iJZe5boK3y2aSICYEzI2nNkrRlGg1Wq4apNEpp6EMhac+TdRURqe1b9lCYoADaIo9VdJGvNUg5XqIbrqG3UbyIQEZJ8hlZnvtbn+eczeQGwwSUprZlLyDuLlMM1yuEqqvYIL7MPxJG1Zsk7cxN/S/tkVw+ISzZWEc5RDnuUwx4abI7A7D4nCWlnbrxWZcKG+ucy8QGwScSRdxbI2wv4akg57FGVfXuMl9kZgSRtk7XnSLPupMztbdvUBMBpMr5qkGRtVAPVaJ1yuEbwRezKzARxSUbWmiFtzSIuiV3Onpm+ANhCxI2vHLTnCNWIquhTjfq12o3Y1IdLMtK8S5J3G7NRzVQHwFYubZGnLfLuAYIv8UWfqhji/dBOExps3OlnSFsdXNKMTr9VYwJgK5dkuM749mP1FVXZpyqH+HIEdiVhuokjSVukeYck7+AmfBZ/p5r90wOSpGTJPFl7HhRCKPDF4Ewg2PBgwsn4wRt5hzRr47IWMm0zeTvQ+AA4i4xvQnKdfLw5iSpVNSRUI3xV2AhhAog4XNoiyXKStE2StmzPyfOwADgfEdKsA9mZfds1eIIvqMoRoRzh/QhsSXIcAs5lJFkbl+YkaQvnsqm7VLeXLAAukriExHVINkNBIfiC4MuNt4JQlWio7ORht2x0dEkykmTjfZrhXG6dfYcsAHZKxs92e9Lz3VTxm4HgK9RXhFCiwdtKxXMQcUiS4lyGS1JccqbT2zB+b1gA7BURkjR/6uvJGgihIoQK9R71JT54CBWqgRD89J1WiOBcApJsjKISJMkQl+KSZDwbPyXLayeJBUAM4saTjUkO57qJTAMhBFQrNITxyEE9GgKoEjSAhvHHhPGt0ap7fkOUiAMRRARwiHPjn2fzdeeQjU6++d5tfI6pHwuAuhKHSxxP679Ix4FwdhjoEz7l7KAQ98QOembILeLGHd468dSxAJhG4hAB4Txr2Kd3ebu5CBbpxjSYBYAxDWYBYEyDWQAY02AWAMY0mAWAMQ1mAWBMg1kAGNNgFgDGNJgFgDENZgFgTINZABjTYBYAxjSYBYAxDWYBYEyDWQAY02AWAMY0mAWAMQ1mAWBMg1kAGNNgFgDGNJgFgDENZgFgTINZABjTYFECoAprgxjtGlNXo1Csx2g3SgD4UJ6yZ2cbs0mRYrQSo+UoAaDDogq+jNG0MbUTfEWo+lGeGR9tDsBXw1hNG1MrVRmvL0QLgGq0FqtpY2qlGsbrCxFHAAWhGsVq3pha8OWI4Ito7Ue9DDjqn4rZvDHRFYO4fSBqAPhySDWKcvXDmOiq0Ro+4vk/1GAh0Gj9JCFUscswZl8FXzJaX45dRvwAUA0MV4+jagsDTDOoBoa9x1ENsUuJHwAAwReMesfBVgeZKacoo7XjUSf+tqpFAABU5YBB7zjYSMBMK1WGq8epivqsgalNAAD4YsBg9SgaoiyKMmbPqAYGq8fwZb1ug6lVAMB4fUB/9XOEypYKm+kQqoLBytFarn6tXQAAqC8ZrB6ltNWCZsJVwzX6q0ep670vaewCzkU1MFo7gS/WyWcvxUkSuyRjtk2DZ7R+gqqo15D/iWobAJuqYog/9Rh5Z4GsPQtI7JKMOQ+lGPYo+yu1uMx3IbUPANhM05OUwx75zAHSrBO7JGOexJdDRuvLtbnEtx0TEQCbgi8Zrh4jzTvk3YO4ZKLKN1Mq+JJRfxlf8+H+U5nIHlQVA3zxWZK8Q9ZZJEnz2CWZBgpVSTFcoRr1mdRFbBMZADD+566KAVUxIEnb5N15Ejs1MPvAlyPK4QpVOZjUfn/axAbAVr4aMlgdkqQtsvY8aauDTRaa3aVUoz7FcJVQTc45/oVMRQBs8tUIv3YcWXekrRnSfIYka8Uuy0yw4EvK0TrVsDcRs/oXa6oCYJNqoBz2KIc9XJKRtWZIW7OIs7UE5sJUA9VofXy//hQd7Z/KVAbAVuMZ2lOMBqdIkjZpq0vS6trCInMW1UBV9PFFH18OG3N7+tQHwGk6nivw1RBZP4kkOWneJW11cUkWuzoTgYZqPJE86hOq4aTP5z0tzQmALRRQX1AMCorBKVySkWZtkrxDkrZAanmLhNkhVcWXw423QW3X5++nRgbAEwVfUvgShj0QcC4nyTvjUMha2BWFSaUEX+KLAVU5JJQjtJHH+XOzAHgiHe9QFAYF5WAFREjSFkma49Icl7RsBWJNhVARygLvR4RqhC8LJv5C/R6z3+QL2TJs3CQuGQdCshEMWQux04Z9pRpOd3JfjQhVgaptJHOxLACeBg1+4zbPLWu/xZEkOS7NcMmZN7v0uDOqAQ3V+EEyvkL9+L2dv+8OC4DdouH0VYatxCXjMHApLkmRJEVchksSxC5FAuNADcGjodzo5NV4OF+VdlTfYxYAe0yDxwfPU/0aizjEJUiSkrgMcQ4kwSXJ+L1Lxq9N7CSkErzfOIr78Zv6jQ5/pqPbRrDxWABEpBpQH8CXeM59K6mIIC5FZCMQRMbhIQ4RGV+2FMGJA3Hjz1E5KzfEOWTLCyru9EcKyJZlroqiYcuy1/EnjF/TQNAw7rQaUNXxz7HxmoaA6viIzhQunZ02FgATQFVRXwJ23mt2l01dG9NgFgDGNJgFgDENZgFgTINZABjTYBYAxjSYBYAxDWYBYEyDWQAY02AWAMY0mAWAMQ1mAWBMg1kAGNNgFgDGNJgFgDENZgFgTINZABjTYBYAxjSYBYAxDWYBYEyDWQAY02AWAMY0mAWAMQ1mAWBMg0UJgESxR8YYs0WsPhElAERaqzHaNaauhrRPxWg3SgB8ZGH1FNCP0bYxNbT+l2/7rysxGo4zB7C0FIB7o7RtTP18HCTKI5KjTQKKyB/FatuYmonWF6IFQClyB9hkoGk87yq9I1bj0QLgk2951WeAd8dq35g6UOX/fOz22x6J1X7UdQAe/+PAMGYNxkQ00IzXxywgidn4Yx99/8mrvuJwBXI4Zh3GxCAir/mLt7z6D2LWEH0l4DMfvuZnUd4Xuw5j9pe+95759bfFriJ6ANx11xHfavtvBv1U7FqM2Sd/V2r+0o3L4VFFDwCAP3vTa5ddxS3Ap2PXYsxeEvhM5dyL/vJtr4yy8u+JahEAAB+7/bZHEvW32EjATLG/L537qo0rYLVQmwAA+OjbXvtQcMmNwEdi12LM7pI/l6K6sU6dHyJfBXgqj33kj/vdG15yR8eV8yAviF2PMbvgF5er9n/4m597VS92IU8ksQs4n+e/8s0vVfTngcXYtRjzNJxE+J6Pv/XVvx67kHOpdQAAfPkr3/r5FeX/AHlx7FqM2S5Ff99nvOKTP3Pbo7FrOZ/aB8CmG1755sOgbweujV2LMeciyAOIvu6et776rti1bMfEBADA9a94Z+ZmVr4H+AlgIXY9xmwSZA0JbzlZdt74wO3fN4pdz3ZNVABs+opXvfnyqtLXq/AyII9dj2m0kcIv+6r6sU/e/rrjsYu5WBMZAJte8P3/7RmapN+tKt+PTRSafSTImhLe5SreHPNuvp2a6ADYdOOrf3quKOXlwA8Bnx+7HjPVjonoL+R5ePufvem1y7GL2ampCIBNNy0ttddOdV8qwsuBG2PXY6aHqPyZSnjXctX51Uk6x7+QqQqArZ73/T/9XJfwLaryMuDq2PWYiXQU9M6A/s97//tr/iZ2MXthagNg001LS+naaufrQF4myouAduyaTK0NgD8E+eWZhfX3fmhpqYpd0F6a+gDY6stf+dZOhT8scKuiL8EmDs3YKeB9Ivxelupvf/hnbqvdkt290qgA2Or6V7wzS2dWXujh34ny9QifF7sms68+C/K76sLvaG/xQ/f+4neVsQuKobEB8EQ3vPKNz4LkMLD5diBySWYXjS/b6UdF9G6R5O6PveUHPxFrL/46sQB4Crfeemfy4FUPXi/CLajcDHwF0I1dl7ko6yh/jvABgnv/oUev/sRddx3xsYuqGwuAbbj11juTh6769BeJuOtV9XqQ64EbsFWIdeGBvxfkXkXvDS7cO5wb3nPf0lIRu7C6swB4mr7kVW+eaZVyPc7fADxPkWsFvggLhb02Avk7Fb1fVO8V5J5hIp/465/9ofXYhU0iC4BddNPSUrq+0roa0utEwrWou07RaxnfwdiJXd+EKYGHgftB7hPR+0XcfSeK/G+naSFObBYA++D6V7wzY2Hlauf1kKg7FDRcI04OoRxCuQbhSpr3f6EojyE8CDwIPCTIQyrhITQ8GNYPPtzUmfn91LRfulp6zve+o7XoBofEyRWqfJ44uUxDuNw5uVKVy4HLgSuBy6j/QqYhcFzgUYXjIhxT5VFEjqtyTNDHRJLHTpbZZ+xIHp8FwIR5wfe+Y96l1VwZylnnmFPcIhrmRZgLKrMizIEsCporzJz+QmEG3TI/oSwiG///iiKc2vK5Bcr6mQ9ZV6QAPaVKzzl6GnQNcatCOBUCPd+i14VekxbRGGOMMcYYY4wxxkyK/w+FouPDpQYjNwAAAABJRU5ErkJggg==;" vertex="1" parent="1">
          <mxGeometry x="875" y="260" width="70" height="70" as="geometry" />
        </mxCell>
        <mxCell id="N_rBBtrlS4sjjkyDHwOa-9" value="" style="endArrow=none;html=1;rounded=0;fillColor=#b1ddf0;strokeColor=#10739e;entryX=1;entryY=0.75;entryDx=0;entryDy=0;exitX=0;exitY=0.5;exitDx=0;exitDy=0;" edge="1" parent="1" source="N_rBBtrlS4sjjkyDHwOa-8" target="N_rBBtrlS4sjjkyDHwOa-4">
          <mxGeometry width="50" height="50" relative="1" as="geometry">
            <mxPoint x="770" y="300" as="sourcePoint" />
            <mxPoint x="820" y="250" as="targetPoint" />
          </mxGeometry>
        </mxCell>
        <mxCell id="N_rBBtrlS4sjjkyDHwOa-10" value="" style="endArrow=none;dashed=1;html=1;rounded=0;fillColor=#bac8d3;strokeColor=#23445d;entryX=0.5;entryY=1;entryDx=0;entryDy=0;exitX=0.5;exitY=0;exitDx=0;exitDy=0;" edge="1" parent="1" source="N_rBBtrlS4sjjkyDHwOa-8" target="N_rBBtrlS4sjjkyDHwOa-6">
          <mxGeometry width="50" height="50" relative="1" as="geometry">
            <mxPoint x="770" y="300" as="sourcePoint" />
            <mxPoint x="820" y="250" as="targetPoint" />
            <Array as="points">
              <mxPoint x="1000" y="260" />
              <mxPoint x="1040" y="210" />
              <mxPoint x="1000" y="150" />
            </Array>
          </mxGeometry>
        </mxCell>
        <mxCell id="N_rBBtrlS4sjjkyDHwOa-11" value="CI/CD&#xa;Git action&#xa;Lors d&#39;un push sur la branche &quot;main&quot;&#xa;une action est dÃ©clenchÃ© afin de mettre Ã  jourÂ &#xa;mon application Nodejs sur mon Serveur web&#xa;Via SSH&#xa; &#xa;" style="shape=image;verticalLabelPosition=bottom;labelBackgroundColor=default;verticalAlign=top;aspect=fixed;imageAspect=0;image=data:image/png,iVBORw0KGgoAAAANSUhEUgAAAQAAAAEACAYAAABccqhmAAAABHNCSVQICAgIfAhkiAAAAAlwSFlzAAAHJQAAByUBlR96zQAAABl0RVh0U29mdHdhcmUAd3d3Lmlua3NjYXBlLm9yZ5vuPBoAACppSURBVHja7Z13XBXXtsd5uXl5FsQSe+/BnuQmz1xvYgcRC72DKB17r0FFCR2kFxEREFRMubm5uS8m0auJGo0FVMCCvUcTY4yxc+btdTgQhNPmnJk5e2bWH79PEqN4zuy1vrP23quYMQxjhkKh5Cl8CCgUAgAlZU2JPvba1JjjlnaxpRPt48qCHOJPrHNMOJntlHjqU+cN5Z8R5RLFuSZXLHFPPe3jk3V+bEjRzTdm77jTlcgcnyECAEWfUze1jy3zcko8udUtpfKUV+a5e74bLzyekXvpuX/elerAguuK4K03mZnbbjPEiY0S/IygguvVfpsvP59G/g6vjHO/uKedqSSw+Ixojt/mK21wTRAAKB5E3tx/JW/sKJek8n0e6WdugAMG5l9TzNr+k9GOzaUIIBTw2dxST18ln3fXxPU/Lh257D+9cA0RACh9nT36eE+nhJP5nulnb5K37YuQoltUOTlbhZLPP33TJQWJEp4QKFRNjjqabL3mYEdcawQAqsbh25G9eJpH2pkr4PC0vdX5EHxH/y1XX/hkn79FQLfNO7OqL9oCAkAu+3ZzCOfJG7GK7NWfzdomfYfXR3C24JpccdY24sgysm1ograCAJDSHn6IS3LFId+ci09nFt9Gh9ch/7yrDIHBw4nrD39BYNADbQgBIMo3vVPiqe3TNl54JIewni8FFlxnSLT0gGyVNo8L298UbQsBQLUc4k6EeWacuxtSdBMdmGMFb73BeJFn65JUHkn++1W0NwQAFYLkGrfU02fgao5mB4K7fMgLIJ+ThNlX4HSeIREK45V5jvFIO0PC7krGeUM54xB/giHfiZkSdYyxiylV/jf8ultKJeORfpbxzqpifDdeZGbkXmYCtlxjggtvMKECb21Ci24pCAwuwrNHG0QAmOL0vg1xit3EiZ7Rdu3mt/kyvCkZsgVhJkcdZazWHGRGLd/LkP007xqz8juGhOqMzbpDjH1sGUPAyPjmXFS+vfm6UfDOrHpiG/HjDvL3Y8YiAoB3x+9M3pRlfBm0vkYPb3F4e8NbGRxt4vrDzNhV3wni5MbAwWbdYcY+rgz29coIJGQrd1slAhrFlOhj35G/C7MSEQCcn+T3Js5Waaq9PZyMu6WcZiZFHmFGr9xHtaOzBgMBFwAMthoQuRgLBdjekJ91nEQindF2EQDGOv5A8ra6ECpwRl4AecPDvhz24WMof7PzoQnhPyjPHWA7Y+gtSlDhdcYlqeLspI+OvIG2jABg6/jvEge8Glp8S6g8esYz/SxDthjM2A+/l53D64oQ4LnAYaUhERjAG9aSbD3eQ9tGAGg/0Y8pHQV5+FxU0Onj9C5J5cz41QfQ0VnIJvyQ8rn5bb7C7uxk209wg/ETgftItHUEQMPDvQ7uaWcu8+34cF0Gb3rY86IzG6+xq75XXlXOyL3EYg1uwfaialzYfjwsRAAwZk6JJwuglJXPU3u4CoMwdvSKfei4PMl6zUHluYm+OQn+eVcUZE2yEADyTeCZCvXrvB3kbbmmvIsfh3t6QQWQhatG/y1X9Vonz4yzUHcwHgEgn3C/JVzp8RHuw9seQnw4xUZnpOC8YN0h5eGhrqpLuHp0TDhZSv5MMwSAhOUYfyIpgIeUXYAJJLeM+3A/Oh6lNwkQjcHBq7Z1nJF7qXpy5NEIBID0Tvff98k6/4Bzxyf7TcjGw6s78WjSR0eUWZTaojj31DO/Tgg/9DYCQAKCWnyu7/Ph57kkVcgySUcqgpsYbVeJUOTkEH9iLwJAxFl8UI/PpeNDIorzhlOSS8eVsyDbMlDL1sA35+Ij+9iywQgAkdXlc3m1F1xzSITXeBIVVEtCLYKmTMOgwhsK+7iyVQgAEcg1ufI4V1144OdAEQ46vkyuEElk55pcoXaWAvyaU+KpwwgAmYT80PDCeu1BdAwZCnI34DpX3YuE/PpDq9UHeiEAaAr540+s5irkhzAQOuKgI6Agu1DdjYHf5suKiesPz0UA0BHyl3IV8kPLK2hcgcaPqi/biB/hHKBR8tCUqGP/QQCYNuR/zFXDDcgaQ2NHae5otE/ZsKThGZFT4qn75P93QwAInMfPRRNOuM+H0180cBSba8OGI9u8s6qqrdYcHIUAEED2cWUhwYU3uOghhxl8KMPKkIndQGfkl4u/ripIVBqAAOD3sC/C2PZcELZBMg8aMspYOcSVvXRlqMwQTa7YgADgo24/4WSesRV80M0Xm3GguBR0dKqfUlzzgikvRABwKPJAdxl70q8M+TF3H8VTJiE0Ma21UeXhYMLJLxEA3FzzlWHIjxJHN+NDypkNtXZHtqyHEABGyCPtzDUM+VFi60jkk32+DgL2cWVnEADsp+u+5pVZ9SuG/CixCsai1UEgtvQ6+bVXEQB6Oj8h6B/GOD+G/CgqbgniTygBALKLLb1LIwSoA4BXxrmfjdnvQ/ddND4ULZoceVR5VajaDlxBAGgRjOEypi8ftHtCo0PROOosWDXz0DHhZDkCQF3rrqSKH4wZi425/Ci6S4z3Q7agaotavh8B8NJwjlOfGHrPD2nBVmuwbh8ljoYjcDgNduuWUvkvBEBNq+5EXX3bNQnuXMeFYStulLiShqDZCNiva0pljqwBYB9XtsDQjr2QfoldeVFiFcwpgDFmdrGlc2UJAPLFnWsPRgy548c+fSjxFxOdUHYktgk/NEFWALCLKR0eaGALL+/MKmUYhQaEkkokQF5o1aNX7rOUBQCmRh9v4593pdoQ5/fJOo9Gg5KcXJMrQc/Iv5tLHgBeGefuGuL80zddwjc/SrKC0eZ2MccvSRoAJNz51KCefVuuKnuyoaGgJA2B9LPQgDRHkgCwiy11NOTEP6jwOrbuQsnmihAG0disO2QtKQCQfX9Lv7wrLwzp0W+1+gAaB0o+EFixFw4Gn5CXXnPJAMAz/ewtQ3L7ocECGgVKjhmD5KV5ThIAIDQrMqSqj+fCHjhx/YXovurfFWh4shOs+VOiX1W28JyuOQTfQTObZFEDgOz7JxnSxXdqDK8lvSfUfVby6x2IrIjmEBUSXUcwSMbRr6vWdI5qjTuos4EhQdtu9PPNZQYGbGXeDP2YeXfuF8yIRV+bsruQYuyq7/8mSgBMiT7W1G/zZdb7fhjDzfOD1Tv1kvze14gCiPYQPUZnEo2eEO0lCoQ11He9ieNvaj15HdNQbe0imR6e6czgoG3M3xZ+JfR3+Y3Nd6AGAIb084MiCZ4fZrUxXVnIn51BdBYdjFpVEQUbur7DQkvMwdnVQaC+OjrFMxApvDXrU+aDpXuE+F4HRAUAqPBj6/xQKy1Afn8FF9+P/JxORFuJ/kCnM7keEW0fydF8vp5emb/pAkB9tbePZt6YsYX526JdfH/PWaIAAAn9zQNYzu2DE3+BavqXcv19YWFUh4nojMLqAdECrtdzgH9hPhsA1KrNlPVMT88M5q+zP+Pr+8IWtAn1AHBLqaxk+/a3iykV6jCoCV+hFPnZy4h+R8fkXRB1hfG1jgMDiixen/oRYwgE6m8RBgcW87E9+IJqAMCpP9vxXTByWSDDuSjEvSr5e8JVYSk6K/dvwCgh1rCHZ/rvxgCgVh0cY5lhISVcv8TepRYA0zZeeMS2o4+Adf0lQqVXkr/rFaJ41T0zOq/xORsp8EyFWr/+0/OOcwGAWnV2SWTe5m5rcI1KAMDwTrb7fuu1gvby8xO60or8nc2IdlF4L16tcqwnKj1T/RpteQ97TFEi229aTrL5+IWMudUipoX1EsZiwjJOQNDNPZV5d94XXDyXlVQBYGr08XZBLBt82MeVCW1MrUzVdYX83aOI7vL4hoRststEPxJ9RrSBKIRoJFEfojZs3qCqCKaN6s+OVP2sDaqf/aPq7/pV9Xfz8Z0gM8/KVOvVyzOtd5ORQUx9tbIN4ywi6O2zkfn74m+MXXMLagDgnnr6ItuuPkJfFdHQgZV8jiTVm9bQPTA43tdEkUTjRlIwaQY+g+qzRKo+2yUjzkDg2WTSsFZNR4e+BIAWVosZLrcF7R2imbdmfWJUdEQFAOxjyzzYdPWFHmijha/tr6SlDzvcVxOV63G3fUIFDBs+M8F4/J6QRWlNlEhUpgcUzhD1ouXztxg//0V9ADQbPYtTANRFA95ZxkQDo0wOAN+ci0/ZvP1NNK23hEIH8avnFJDueRCut7hKaKEUCl1g/0q0v17uBJxBzKTts7a2WXaPz21AfbWzj2benPmxIXZ9x6QAgIEelF75NVQ8pQ7RhKu9nEiBYA4HpTR+tnaTV1c1BADX24CG6uVlUDQQZRIATIk+9pdAFhl/0A1o7CqTdfaZI1cnQxmmjvYR3zYEAF/bgIa5A1CFyLLw6RXBAUDe/v9g8/aHUckmvE6yQaNGsVEX55iEhgBQbgMmreEdAm2mRCgrD1nYd6zgAPDPu6p3a2//vCumvk/uhUaNYqPurgm26gBgYbOSdwDUbQm8s5j3l+zWKz1aUACwTfox9eReNGgUW5lbLX5VHQDMeT4HaKhOTgnM8AX/5i05yKCHMyP38nOKavwRACjORZz9FXUAaD52rqAAAEFx0rDQnbrs/L4gAHCMP5Gg98Ff0S0qBniiQaMMAEALdQBoOipEcADUytIvX5etz+QdANM36X/vb4J0X016BY0axWoLMHZOV3UAqMkHWG0yCEAasZYy4zu8AsAhrmwFm/HdFBWVNEOjRrFRm4nL3tIEgJYCHgSqU3f3VOb9Jd9qsnUP3gDAptx3QvgPNAGgGxo1il0ewHp7TQCwmLDcpACoLTEeob4N2TVeAEDC+QB9nZ+Agraach80ahS7a8DEjZoAACXCpgZAbdKQhhsCG84B4J1V9Zve1370TfTJRKNGsVE314RjmgBgPn4RFQCoaVkexbwz5/NG3ZE5BYBdTOkImNajj/P75lyksavMfjRqFKstgEPkz5oA0HzcfGoAUHNNGKGu45AlZwBwTa4spbzaT5euo1GjWFUDTlzxXCMATJALYAAEdnIGAH3TfmfkXqZ2UgwaNYrVNeC4uYxmAMyjDgBqIPCQEwDYx5UF6fv253mgp7F6DQ0bpY86O0b9T5NRwZoBMI5OANRBYNantTZvazQA9B3xRUHBjy5ZoXGj9CwEWqDJ+Wk8A1BXTaiCwAGjAAA1/8GFN/R6+0+OOko7AHagcaP0USfHyCoxA6AWAm/N+vSFrixY7Xn/CSfT9Jvrd00M/eXvoXGj9FFL68XV2gBA0zWgLggMCihKMxgA+t79T40+LpYhE/3QwFHa1Ncn621t+/+aRKBlogAAqKtbykODAECcuvPMYt1jvoIKrjOjlu8VCwBy0chRWjsBOcWc0Ob8NbUAq0QDABhaSqKA7qwB4LyhfJc+b3+nxFNiGjM1BY0cpXUoiEfqCij51QYAIdqCcakB/gVfsQaAvmW/4z7cLxbnz0ADR+nZD1BjGnATE/YDMFQ9PTOesAKAXUzpKH1Sf6dvuiQW569Aw0ax0eu2qx6pA0CzMbNFBwDoKPTewq/e0hsALkkV3+vz9reLLRXLPHkLNGoUG/Xzye6oLhtQDFeA6jQkaPsuvQHgk33+oT7TfQUc7W3MJNz30aBRhqi3V1pAw/MAWkqB2Y8gy36gNwCCt96kccCnIQpHQ0YZVRbsEreHlnZgxo4fI//8L50A0LfxB+V5/6CDaMAoLtRu8uoHyoagAkwG4rmp6HydAHBNrjiiy/khQqD87v8JFv+gODsPmLbRvPnY2YLPBOBh0EilTgDo0/fPLeU07W//RDRcFMdXg0dM3QzU6CEjzgnPtAIAin9Cim7pDP+t1/5As/M/xjbgKB6igFdbTliiaD05XLQAgKzAjk7x5hoBQPb/i3QX/lyl/e0fjQaL4kNdneP2m49fIPZzgNUaAeCaUnlC5Km/j/Dtj+K7UxANbcENVT/f3FMaAeCbc/GJyMP/9WikKH6vBeO/hWrBlrZhogRAd4+0x2oBQPb/TUOLte//4XyAYud/iAaKEiYKmKdoOnom03pSuCjzAerfkNV9KYf4E6t1vf19ss/TDIAwNE6UQDMD/inmtOC3Z302vxEA9Nn/E0hg118UCqKAsXNVqcFLRQeAQYFFhxsBwCvz3D1dALBac5BWAPyARokSNDtwypr7NeXBwUyrSWtFBYA+Pht/bgSAGbmXn+vK/qM4/J+DRokSUj3ckvLregRaLRIVALq4bHjeCAC6CoAoLv6Bir8maJQogRODmtRVCoosCoBmoeSf/10HgKkxx3vrCv/tY8toBcA1NEiUKdRqwtLnYusUXNclyCtzRB0AHOJOhOkCwPiwA7QCYBMaI8pEE4Qq/2wVJq4o4I0ZebF1ANDVADSo8AbN+/+haIwoU6iPV8YUMc4LqMkI3PyfOgC4p525rA0AXhnnqG33hYaIouE68M8oYI1YbgKu1gHAJ/v8H1p7/8VQ2/vvOzRCFBXXgXVRwEJRAKCHR9ofdQDw36J9/Lc1vff/i9AIUSbOCvxHfQA0FUnb8M7OidVKAEAPAGjwqcn5oT04xd1/rNEIUaYeJNJoctBE+icHtbWLBP95xcwutnSSrtFfFB8AdkMjRJlSfb0zhzcaHiqSxKB35nw+BiYAZ2sDgO/Gi9QCAA0QRYOajAxuMDxEHM1Dh4WUJJq5JJXv0QYA91Rq+/89R+ND0aBmo2eKcn7gwICtu6AL8FGtFYBxZVj/j0Lp6BLUEAAWE5aJoTtQqZlb6ukz2gBgG/EjrQC4jcaHokEW1ouqG48Qm0f/tCCfjRfMPNLOXNM+/fd7WgFwFo0PRYNaT1z+tCEAxHAd2Ms766aZZ8a5uxrn/xXfpvkG4AAaH4qKZCDV5CCxXQf29Mr8xcw7q+q+JgD4512hGQCfoPGhaFBH+4jr6gBAe7egHh5pD7ROAqJ8AGgGGh+KjqrA6FPqAEB7cVA399THZtM3XXqqCQAuSeU0A2AzGh+KBnVyiDynDgC0Nw3t6pr0zMxv8+UXmgAwNfo4zQAoQeNDUbIFuKYWAGPn0l0P4JL4wixASyGQLd0jwL9E40PRoPZT191RBwDaMwI7OsUrzIIKris0AcBm3SGaAbAXjQ9FY0nwn1eBoVQDoL1DjMIspOimljFgB2kGwGE0PhQNajsp7KE6AIDorgiMYsxmbftJSx/A/TQD4CQaH4oGtbFd+VgTAGjuEwjdgc2g3l8TAMas+o5mAJxD40NRkgn4TCMAKB4i2mbKesZM20BQihuBgK6g8aEoaQ/+QhMAWtrQmw34+tSPNA8EgciAYucH3UXjQ1FRDGS1sFoTACxsVlI9KdgsUMMtQCjdo8BBT9H4UDSo+ZjZjBgjgA6OsQoz/zz1eQCUzwKo1StogCiTdwQaFawZABM/pBYAnSAPYEau+kzAgC1XxQAAHAqCMvVwEHtNzl8DAHoPAbu4bHhhNj3n4jN1APDbfFkMAAhEI0SZUvWnBKu/BVhNby2AW/IzqAZ8rLYZaM5FMQAgFY0QZdJKQKeYE1oBQHFvwO7uqU+gH8BDdQDwyT4vBgDsQiNEmbYOIPyudgDQmwjUwzP9DzPPjLO/ihgAlWiEKNNmAa54og0ArSeH09sSzCvzPvQE/EnEW4D7aIQoU6rF+PkK7QCguCmod/ZdmAx8Vh0AZuSK4hAQ1AQNEWUK9ZuW3UrbFSDt1YD9fHPPmLkmV34rwn6A9eWDxogyyQ2A+4ZMbW//ZmNmUw0AS7+Cr8ycEk/FqwNAYP41sQBgJxojyhTqYL/+mjYA0N4SbFBgUZSZfVyZjToABIsjExB0GY0RZaIioOfaAED7kNAhwdutzSaEH/pvdSXBIfTXAuCMQJRJpW4m4EttwSkeDwalwMNCd/5F+UVIuN+oIGjmtttiAQDoTTRIlLAZgBvctDm/GAqB4Hsov4yvhnRgEQEAMwJRwrYCd4w8oQsAtKcB1wHAM119MtDoFfvEAoBbaJQoIdXSetELXQCgPQmoDgAuSRVV6geD7hdTFNANDRMlhHp5pL7dZGSwVudvNpruluB9fTddrAOAQ1zZLvVtwQ+LCQA5aJwoQcJ/h8hyXW9/83ELKM8ByN9bB4ApUcdWiXAyELYIQ5moBdiial0AsKD4BqAmB6B4XR0AJkcd7aAOAM4bTokJAKD+aKAofhuApL+vK/wXQzfgYSEl7eoAAAoqbNwb0CP9jNgAsA2NFMVz+H9el/M3HRVC9du/k3NCde33qftiPtnnfxNpReBLjUKJXkVDRfFT/LPx1eZj5+h8+9M+FLSXV9b9RgBwTa440qgvoHjqAeorHo0VxYe6Osft0+X8ygxAq8VUA+CNGVsONwKAfWzpKpFnA9bqDzRWFB8yHzdPoQ8AaO4EDBocWBzWCABWqw9YzCy+LbbxYJq0Eg0WxaW6uyZ+po/zNx09k2rnVx0AtmkEAND0TZcatQifEP6DGAGAnYJQXE//0evtT3sFYGfnxOr63+ulL+mWcvqOyHMB6msxGi6Ko8KfIn2cn/Y5AMoDQO+sexoBYBdT+k1DALilVIoVAHAjYIEGjDLq5N8nu23zsbMZKYT/qgPAHzQCwHrtQceGACDbArECALQPjRhlXNvvtff0ffvTfvqvPAAM2hagEQCggC1XX0oIgvHhIgYAyAYNGWVg0c8KfbL+xFD+W78HgFYAeGWe+7lhFDA+7ICYAfArGjPKkKQfXS2/X+7/N4/6t39v7+yfdQLANbmipCEApkQdE3sUUIJGjWKjjvYR1/V1fjEc/oEGBmwt0AkAl6Ty7g17BLomV4odAKAFaNgofdTNNeGfbJyf9tRf0OtTI+D+v4NOANTkA1x8KvKaAHVSEI1BA0dpU2/PtCVQzMPu7b+KegB0c099qu77qn0IJAo4ItIOwbr0hKgLGjpKnfp6Zw5vPmY2K+enffjHn9d/ecf0BoBtxJGpDbcB48L2SwUCd4iaocGjGt73W1gtrGbj/GLI+683A8BNbwCAZuRerq4PALuYUqkAgPlg6Z7btQ0RUKh+PlndLawXsXZ+8/ELReH8HZ3iFZq+u8aH4ryh/Ep9AHhnVkkGAKChISW/DwwoxA5Ccg/7fTIHtxi/QMHW+ZWDPyetFQUA+vhsvM0aALYRP855+RzgpqQA8MHS3UwPz/Rn/afnDUdHkO2ef6S+Jb6Nev7ZrBCF86vKf1eyBgDIP+9K9cuVgYckBYF3533BdHCIVVj65XuiQ8jstN8rLVSf7j7qr/3micb5O2kJ/3UCwD31dMXLTULLJQUAkKVfAdPWLhKSJArRMeTS2Sf2MNurvvoFP61EEvqD+k/fXG4wAFySyifVB4Df5suSA8AHS/cwXV2Ta3ul3e7nm9sGnUSyJ/0dX7dd9cgQx1dqVDDT0jZMNM4PzT+GBu8YZTAAarYBV+vmBsLV4JiV30kOAn9f/A2ESrUFE9UEAiHoMJIr7PnQfOxcxmDnF9m+H9TdPfWJruei88G5Jld8+VJdQPQxyQEA9LeFu5j2DjF15Ozjk3MJrwqlcNCXMajt5LDf2VT1qS/1XSIq5wcN8C/8h9EAsIstfR1uAGoB4JlxVpIAAA2f/yXT1i6q7gESICjIHupT8u+voDOJT50do8uajg41yvFr7vsXiM75wY7r9/4zGADKw8C0Mz/VAiB4603JAgD0ztx/KgsnGpykPrf0y8cR5CIp4+3qHPetOYtSXikk+6gp/dVrVJ5eD9U24sfZ9VODyX9LHgLt7KPUzVSvHhpS8m/ye/CgkLprvfT3Otitu9lszCyGC8evafC5WJTOr+vunzUAVJODntcCwCvzHJ8Ve7eIdkBrb6JZRJuIjkNjD9X/FwQC7y34P0ih1HS3SvZXBZf+d/6/rND5TNyw0z05ts3EFU/ghJ4rxxfrnr+u86/Ly51/OQGAXWzp9voDQ0av2Me1032nT5EO+T2eRKeFuh0gb30tNdYfQZrlH2/O/DgRnVHIMD+7VRfnmKMtOArzG171WUxYLlrnrzn8K/iccwDAzL2ALdfq+gUSIHDqbGyNgPyZbkQ7iZ7znSdA9lO6+605xCp6emZcIEBYQ/67OToq53t78x7uSZvaTVlzH5JxOHd8KO0dPYvqqb56Ff44ximGhe58jXMAqK4ED/LYLfivhhgG+XPtiY7yHQ2Qh6r2XEBTAkZX16RHfadtOmTpl++GDmzYYV5Pj+TEDnbrb0KlnqGZe/r39FvAtJ4ULmrnV7X9PsDmObNaFKfEU+2hSzBPPQJ+I2piqMGotgaP+ITAiMVfMz29MlkvClwn9vLKujfAv/Dzt2Z9+hY6uKZknZTVHR0irrScsOQF3w5fv6pP7CF/nZ3ZR+t19WcwAJRdgzPOneexNuCskRBoRXSVpmhAXXTQySm+uodH+m99p+WcIcTeScDg32/65hZycfQ+XhkTerhtKO7kEHkOknRaWi+u5uK+3qArPhHl9euR91/Jdi1YL55jwskBoaohooEF13mZ60c02AgIvEJ0gG8IvL/kW4aE98qDQK7ytqFve3f31Md9fHKuETDsGRRYtGZoyI7eIu6vt7Crc+yh9lPD77aeuPwZlN4K9WbXutcfO0dUOf36Jf5EMsRW+vEOAOUMwdTTdc1CbNYd5sPBXhD5GWN85M9/IdRNASFvo+Qhbjq5fsQMDipeIe6JusEmd/j6ZbwtbVZJyvFrRaLJa4askUELa7Pu0F9r04O9s3jtFARv8lZGQKBCqLyBEYt2Mf18c5Uk5iYiiIAS5XSxh/tdnGJKTen0sMeHhJ5Wtmsk6fi1tjI0eMf7ggFA1TLsam2F4Hh+G4Y+JBpqIACaEP0sZBbh+0t2M0OCtkMyBu+FHGJRB7t1twQP88fMVh3uhUvW8eu1/PrJ0LUxeFGt1hzsH1R4QxkFuKee5tuxYEvgbCAEuhA9NknHoblfwOIw7eyj2eZx35PawV8b25VPeHf8UcHKwh0xTOnheO//puAAqIkCTv1YmxkoQJ8ASANeYyAE3hMyjVhT+7EB/gXK5iNw4KdpQeF2gSzoEAn23xvBxwEgJAXBHT687VtJ6ERf/5P/vFJj1sWoRZ0QfqhZYH5NdqCA7cL8DITAJlqKjeAG4c3Qj5XRQW0PglpZ+uXvku6o7XV3uNjTNx83nzj8Muqn8QqT9VdibjIAqM4Ctim7Bm+9yYxavlcIB4LtwJsGQuAOrX0IBgZshZPcx1Lvv9+MZRpvjcPPY1pYo8OrOSfaZuyacLKw/nlXlJWC9rFlQjnNAyJzAwAwkKia4lLkNVJPAurkEHm+saMHK/PwwdHNrRYpw3mYuCPHkF5fdXVLfsbFenCyqCQKWK5MDMq/JqSznDbks45atncxpc4Pkc2rcijqgfl7LawWMxY2K/Gtbmi9f9C2RdQAQJUi/AtAYHLkUSGdptiQzzoubP8PFAJgr1xSgaGiTwwjtWlVL6+sX7laC84WdeL6w2/DtWAAiQIEOgsw+FDQOrqiqfXaHx5QBoD3ZNPEwy0pv64CDx2adXaorlbfJgGAqmnIN8qzgLgyIR3nkSGhs0344dE24YcUlDj/Pbk4v2ob0KT2SrCFiNtumajc9zCXa8H54npnVT2BxqE8dAzSpgJDPqv1moNxY1dRMedgv9xKf1tNWPr8z377K9G59VA3t5RnXK8D5wtrG3FkHNQJuCQJOkYMTva7GfJ5x4ftXzZy+X9MHQmsl1/L7qjKP9N2Z6GD6xH6DwnePpV6AKhKhndDduDYD78X0omOGlE0NIboiQkBMFhuAOjjlTHlpak7EmnKQUunH5MCADRt44UnnumCDxHpZwQEoMfgXRM4/3O5dgCqP50XUnrlULhjUOjvnvKUrzXgbXHtYkqtQopuMWSfLaQzfWNkD4HXVC3IhfzM1+QKAAurhdUvteK2XooOr6bYh4T+E0UHANV04d0kEhD6LMDc2M9NfoY90QWePytUKH5NNFyuAGhts+zZy2m/Iej0DWTpl89rfgjvi+yVee6RwMlBOVx9dlUVYRmHn+0pJPwQTcImoIxZ20kfPmyYFtxy4ip0fBbTfakHgPXag8NIFKAQcKz4I66/A/mZ/SHrUNW09BHLiOQe0UEiF3T6BtWBdut+ajyOaxE6f00naUj4GSF6AIAmfXRkoVtKpZBRwDI+v4+q+7Af0WaiQqJ8oi1EuUQZRAGGXkvK7CrwdONOPnglCC2+BgUWrxNiDQRbbPu4sq8FHCr6CzoY/ermEv+tuhLgVpPWyP3K76BQayDogjsmnLwhYIagNzoZ3erpkZyqDgDQ7AMLfSQIAKvVBywmRx0Vqj/fDXQy2kd6p/mqH9M1T5bO39llwwu2k31EBQDVecCY8WH7hWrKEYWORnU2oLP6Pn+hsnN+6AU5JHi74LdDJll4EgksEzAvwBKdjdYIIN1DfSuwYJkd+q1nBgUUpZhiDUy2+MQxPxEIAtfR2agFgLemXoBSmNTLYqbfSVOtgUkNgDjnEYEgsAMdTjxnAMqbAJm0CjNmqIcUAACDPM8JBIHN6HTUAcBPEwCgKajUnb+nZ8aDYaE7/yJbANQrwLkpEASy0PGoAkCAJgBY2KyQfJqvsT39JQEAFQQsVCmzvEPgg2V7UtH5qAFAsCYAwBwAqTp/F9ek58NCSjrQsAbUGANxzk6qQaC8T+Xp77v5RP9J8c3QCU0OgFCNAJBor8BOzgnVQ0N2DKRlDagyCFXRzVO+IfDmzI+Zjo7x1ZZ+BXPQEU0IAM+0eZoAYD5+oeScv4NjrMLQMd6yAIAKAu9Clxy+IdDDM0N5/9rXd1PVgADT78VkCoCFcgFAe/toSPRxpm0NqDQM4qCjiJ7xCYARi3YxbadG1qRgOidWDwoqXoZOKTgAlmgGwCJJlfYOCdo2ncY1oNY4YAAo3406yaI0nLf2ZIBfYQ46p1AASF0mdQB0dIpTmCLFV/QAUEGgD98Hg719stWMXY5X9J226fTAwK2z0FH5Uy+P1BVSBgBElmTPT3XLN+qNhDhpBz6vCD9QnQdoPLhxiFX08d748xt++f8aGFA0u2/Ax60N+R4DVpa8Niho+3RL/4JP+07LvdDDI/0PAM2wkJJRMgbAh1IFQFfX5OdDQ3b0o30NRGEoqjyBW7xBYOkeppt7qn6FG8rT3DgFJHL09Mz4rZd31s99fDbe6Ou76WJ/37wKEjlU9fbZeKunV+b9Hh5pj8m24nknpwQFdHlR9/PIG2KifAGQslojAETcGkyZ5EPJPb8kAKCCQBM+O/V+sGQ309s7W3BjGRKyY6pcAdDTI2Wt1ABAXgq/05DhJzkA1KsdKOPzTGBQULHyelCwOe8hxU4yBkCklADQ2yf7jqlz+yUNgHogKOATAu/M+SfTzj5aGAAEFbvLGABRmgGwWET1/BGC9vGTPQBUEICuvC/4gsDfF3/LvDE9j3l9agSvxjMoaJuPjAEQK3YAtHeIhg6+EWJdA1EbEAzVJLrPd8JQX58c3rYFQ4K3+ckYAPFiBgAU9QwN3iHqWxzRG5HqcLCM79Th4Qv+j+nnu0mZ1cXpFiC4KETGXYETxQqA3t7ZPw8LKWkp9jWQjDERJ80UavDIO3O/UG4POjrFGw+AwKLZMgZAstgAAPt9S7/8fVJZA0kZFHFODyEKiV6ODP7NDA0pAaNQZhV2c0uB5CFlvoAmI4JzhXZ2UcrfNyxkxywZAyBVTOXAEP2R/f5qKa2B5IyKOGUX1Qw/xpSC5KL3yLZh+PwvmfcWfsWMWPw1+bXd6n6vs2wB4J6UKRYA9PTKfEBTHT8CQDcI1qragjOUy0OuAOjhnpRFOwCgX/8A/8ISqa6BpA1MVUx0mXIAeMsYABtpBgDUa5C3/rtSXgNZGBpxsniKowFfGQNgk2YALDGZ47e1i2Is/Qr+LYc1kI2xEUcbKGD3YTaSbR5AD7ekPNoAAIU8Q4N3jJXLGsjO6IjDpfGZQWiAAmUMgHxaAACp35Z++bvltgayNDzidO2JvqMEADPlC4ANBZrbgi8R7F6/77Sca2Sv31uOayDrjjTE+YYTXTIxAObIGABFpgQAHPINCd7uKGcfwNZUNSAIIPrdRACYL9fn3t0tcbspAKBsAhtYFIe2jwBo2GvAFOcDi2QMgB1CAqB9zT5/r9hq9hEAwoKgDdG/BLw2XCpjAOzUDIClnCbz9PPNPTsspKQn2jgCgE0fwq18zycgWiFbALgmfsInAKCh6xsz8o6KpT8fAoBOEMD04lSixzwBwF6+tQDJy/kAQEeneAVc6YmpNx8CQDz1Bb9xDIAmcn2e7SaHNeUSAF1cNryAvH3c4yMA+AbBTKIbHDj/r3J/li3GL6g2BgDQqam7R9rjQQFFaWibCAChQWBJ9JkR2wN7uT/D7m6J6wwBQCcS5vefvrmctmm7CAD5wsCb6CSRQk/n/xyfW4062K2/2WRksE4AtLWLhFZc9wYHFYfjc0MA0Hx7kER0V4Pj38A3v9qswOQW4+dV14KghfWyOsfv5pbybIB/wa43Qz/uhM8KASAmGPQjer+eBuNz0a7BgUVTeronL+njnREMU3WHhZQMw+eCAEChUAgAFArFpf4fjQj8LzDq+MgAAAAASUVORK5CYII=;" vertex="1" parent="1">
          <mxGeometry x="650" y="410" width="100" height="100" as="geometry" />
        </mxCell>
        <mxCell id="N_rBBtrlS4sjjkyDHwOa-13" value="" style="endArrow=classic;html=1;rounded=0;fillColor=#d5e8d4;gradientColor=#97d077;strokeColor=#82b366;entryX=1.029;entryY=0.843;entryDx=0;entryDy=0;entryPerimeter=0;exitX=0;exitY=0.25;exitDx=0;exitDy=0;" edge="1" parent="1" source="N_rBBtrlS4sjjkyDHwOa-11" target="N_rBBtrlS4sjjkyDHwOa-2">
          <mxGeometry width="50" height="50" relative="1" as="geometry">
            <mxPoint x="540" y="490" as="sourcePoint" />
            <mxPoint x="590" y="440" as="targetPoint" />
          </mxGeometry>
        </mxCell>
        <mxCell id="N_rBBtrlS4sjjkyDHwOa-14" value="" style="shape=image;verticalLabelPosition=bottom;labelBackgroundColor=default;verticalAlign=top;aspect=fixed;imageAspect=0;image=data:image/png,iVBORw0KGgoAAAANSUhEUgAABLAAAAFnCAYAAAC2IrD/AAAABGdBTUEAALGeYUxB9wAAAAZiS0dEAP8A/wD/oL2nkwAAAAlwSFlzAAAuIgAALiIBquLdkgAAgABJREFUeAHsnQe8HFX5hk3vyU1vpJEQOoRepUgHEQQEFFERkaKiYqWJgBWVqhQpUvSPIF1Aeu+9BgIJKQRC+k3vyf95L7PhZLO7d8vM3t297/f7PZmZU75zzjtnzsx8d+7N5z5nswJWwApYAStgBayAFbACVsAKWAErYAWsgBWwAlbAClgBK2AFrIAVsAJWwApYAStgBayAFbACVsAKWAErYAWsgBWwAlbAClgBK2AFrIAVsAJWwApYAStgBayAFbACVsAKWAErYAWsgBWwAlbAClgBK2AFrIAVsAJWwApYAStgBayAFbACVsAKWAErYAWsgBWwAlbAClgBK2AFrIAVsAJWwApYAStgBayAFbACVsAKWAErYAWsgBWwAlbAClgBK2AFrIAVsAJWwApYAStgBayAFbACVsAKWAErYAWsgBWwAlbAClgBK2AFrIAVsAJWwApYAStgBayAFbACVsAKWAErYAWsgBWwAlbAClgBK2AFrIAVsAJWwApYAStgBayAFbACVsAKWAErYAWsgBWwAlbAClgBK2AFrIAVsAJWwApYAStgBayAFbACVsAKWAErYAWsgBWwAlbAClgBK2AFrIAVsAJWwApYAStgBayAFbACVsAKWAErYAWsgBWwAlbAClgBK2AFrIAVsAJWwApYAStgBayAFbACVsAKWAErYAWsgBWwAlbAClgBK2AFrIAVsAJWwApYAStgBayAFbACVsAKWAErYAWsgBWwAlbAClgBK2AFrIAVsAJWwApYAStgBayAFbACVsAKWAErYAWsgBWwAlbAClgBK2AFrIAVsAJWwApYAStgBayAFbACVsAKWAErYAWsgBWwAlbAClgBK2AFrIAVsAJWwApYAStgBayAFbACVsAKWAErYAWsgBWwAlbAClgBK2AFrIAVsAJWwApYAStgBayAFbACVsAKWAErYAWsgBWwAlbAClgBK2AFrIAVsAJWwApYAStgBayAFbACVsAKWAErYAWsgBWwAlbAClgBK2AFrIAVsAJWwApYAStgBayAFbACVsAKWAErYAWsgBWwAlbAClgBK2AFrIAVsAJWwApYAStgBayAFbACVsAKWAErYAWsgBWwAlbAClgBK2AFrIAVsAJWwApYAStgBayAFbACVsAKWAErYAWsgBWwAlbAClgBK2AFrIAVsAJWwApYAStgBayAFbACVsAKWAErYAWsgBWwAlbAClgBK2AFrIAVsAJWwApYAStgBayAFbACVsAKWAErYAWsgBWwAlbAClgBK2AFrIAVsAJWwApYAStgBayAFbACVsAKWAErYAWsgBWwAlbAClgBK2AFrIAVsAJWwApYAStgBayAFbACVsAKWAErYAWsgBWwAlbAClgBK2AFrIAVsAJWwApYAStgBayAFbACVsAKWAErYAWsgBWwAlbAClgBK2AFrIAVsAJWwApYAStgBayAFbACVsAKWAErYAWsgBWwAlbAClgBK2AFrIAVsAJWwApYAStgBayAFbACVsAKWAErYAWsgBWwAlbAClgBK2AFrIAVsAJWwApYAStgBayAFbACVsAKWAErYAWsgBWwAlbAClgBK2AFrIAVsAJWwApYAStgBayAFbACVsAKWAErYAWsgBWwAlbAClgBK2AFrIAVsAJWwApYAStgBayAFbACVsAKWAErYAWsgBWwAlbAClgBK2AFrIAVsAJWwApYAStgBayAFbACVsAKWAErYAWsgBWwAlbAClgBK2AFrIAVsAJWwApYAStgBayAFbACVsAKWAErYAWsgBWwAlbAClgBK2AFrIAVsAJWwApYAStgBayAFbACVsAKWAErYAWsgBWwAlbAClgBK2AFrIAVsAJWwApYAStgBayAFbACVsAKWAErYAWsgBWwAlbAClgBK2AFrIAVsAJWwApYAStgBayAFbACVsAKWAErYAWsgBWwAlbAClgBK2AFrIAVsAJWwApYAStgBayAFbACVsAKWAErYAWsgBWwAlbAClgBK2AFrIAVsAJWwApYAStgBayAFbACVsAKWAErYAWsgBWwAlbAClgBK2AFrIAVsAJWwApYAStgBayAFbACVsAKWAErYAWsgBWwAlbAClgBK2AFrIAVsAJWwApYAStgBayAFbACVsAKWAErYAWsgBWwAlbAClgBK2AFrIAVsAJWwApYAStgBayAFbACVsAKWAErYAWsgBWwAlbAClgBK2AFrIAVsAJWwApYAStgBayAFbACVsAKWAErYAWsgBWwAlbAClgBK2AFrIAVsAJWwApYAStgBayAFbACVsAKWAErYAWsgBWwAlbAClgBK2AFrIAVsAJWwApYAStgBayAFbACVsAKWAErYAWsgBWwAlbAClgBK2AFrIAVsAJWwApYAStgBayAFbACVsAKWAErYAWsgBWwAlbAClgBK2AFrIAVsAJWwApYAStgBayAFbACVsAKWAErYAWsgBWwAlbAClgBK2AFrIAVsAJWwApYAStgBayAFbACVsAKWAErYAWsgBVoJgq0aCbj9DATUOD0m3ZLeW3LTlfoDK1SiTFvl+NvDsyFlb894jE2NitgBayAFbACVsAKWAErYAWsgBWwAlagOSjgAFZzOMsljjEtUNUNdwNgCIyIGMS2P/QBBbNWQZymeboYPoYJ8Ba8Ae+C0hbC5xzUkgo2K2AFrIAVsAJWwApYAStgBayAFbACtaeAA1i1d05LHlEUsGqJoy4wGNaHTWFjWA/6QR0oWNVUpoDWNFAQ6+mI19nOhFUOZqGCzQpYAStgBayAFbACVsAKWAErYAWsQI0o4ABWjZzIUoYRBaw0F/R11bqwZcQWbIdCL2gNlWr64msBKJj1MNwDr8J88JdZEsFmBayAFbACVsAKWAErYAWsgBWwAlagihVwAKuKT16xXQ9+JbAdPvSF1VawE2wNw6EHJPW3rHCdqCmYNQeeg5vhXpgKDmRJBJsVsAJWwApYAStgBayAFbACVsAKWIEqVMABrAo4acEXUB3oTqeIOrbdQX8cXWnK01dQ+kpKv94nWwlzYRksAn1xNA9mQz3oqyShPAV2UjaQnX3gQFDQqh/Id63ZUgb0OtwA/4FPwIEsiWCzAlbAClgBK2AFrIAVsAJWwApYAStQRQo4gFXGkxUEqjrSbC8YAsNAXz0NBQWS+oC+gFLASl9I6e9MKbjU2BdRKyij/6lPQZsloKDVLJgGU2A8jIF3QHkDoC/oC6wREeqL+qWAWS3NDenyKvwNbgMF+RzIkgg2K2AFrIAVsAJWwApYAStgBayAFbACVaBALQUpKkru4Nf09LVUd1gXNoMtYEMYBj2hC5TrPCjIpaDWBHgTFNR5AybAQlDgaihsDttEW/WzPSgwthjmggJA+rJLdZSutJUQmsalIFxH6AxdoQ7kqw2Ua8w0tdrU///Bn+B5WOk/9o4KNitgBayAFbACVsAKWAErYAWsgBWwAhWuQFMEESpckuK7FwStFLhR4EdBoJ1hi+i4jm1LqBRbRUcUiJoC78MrEQpuKU3Bp02gP0yD6TAfVGcRKCCkwFV68IqkhgCVxpoKYik41gPWgaGwHmwQ7cu/vjQr13z8iLbOh6tgroNYqGCzAlbAClgBK2AFrIAVsAJWwApYAStQwQqUK2BQwRKU1rUgaKVgjwIyu8MXYBT0Af36X7WYAlrLQMEqBbMeiRjDdinE8mt3ab9K2Q+3G8K2sBNsCvo1xqTn5hLauBXOhA8glrHJj80KWAErYAWsgBWwAlbAClgBK2AFrIAViFeBpIME8fa2QrwFQSsFp9aFPeEA2Ab0a4H68qgWbCWDmAEvwt3wMCjYsyLOr5YCPTvjeyQoALg/bAVdISlTwO4ZOAVeUCNxjkv+bFbAClgBK2AFrIAVsAJWwApYAStgBaxA6Qo4gFWAhkGgpRvV9LXQobAH6NfiWkEt2woG9yE8BPpySYGfuRBr0CfQWIErfZX1VdgP9KVWUvP1XXyfDA9CrOORP5sVsAJWwApYAStgBayAFbACVsAKWAErUJoCSQUESutVhdUOgioD6NoXQUEVfW3VCZqjzWfQ+mLp33APfAyxBn4CzfWV2+ZwLBwGvSEJG4fTE8FBrCTUtU8rYAWsgBWwAlbAClgBK2AFrIAVsAIlKOAAVg7xgiDKYIodCUfBhtAGbJ/+vazRCPFP0FdZE2BV3L+GF50Hab4j6Nf99oW2ELcpiKVA2eNyHPc45NNmBayAFbACVsAKWAErYAWsgBWwAlbAChSugANYGTTLELj6BsU2gFr/NcEMauSVtIJSY0GBrOthEsQaAArOiX5985vwE1BgMW57FYc632/JsYNYUsFmBayAFbACVsAKWAErYAWsgBWwAlagaRVwACvQPwiS9CFZX1wdB/riyoErRMjDFMh6B66CG2EaxBoECs7R9rj+PewCLSFOuxdnx8A0B7DilNW+rIAVsAJWwApYAStgBayAFbACVsAKFKeAA1iRblFgRH/T6gA4GbaD1mArXIHlVNHfyLoY/gsLIbZAVhDEWge3vwP9TbI4z9VK/F0Ap8IyB7FQwWYFrIAVsAJWwApYAStgBayAFbACVqAJFWj2AawoGKIveLYC/VraF0GBLFvpCizAxd3wF3gZVsYVDAqCWHX4/RWcBO0gLpuDo2/DbXIYV7/ly2YFrIAVsAJWwApYAStgBayAFbACVsAKFKZAsw1gBQGQXkimXxVUAERf9NjiV+BDXF4Gf4eZch9XQCg6jwo4ng0/hDi/xNJXZIfC5Lj6iy+bFbACVsAKWAErYAWsgBWwAlbAClgBK1CgAq0KLF8TxYOvrnZhQPo1t2OgDmzJKNANt7vCljARJu/ylaGrnrxlArulmXzgaxlenof+MAriCswOwNc8eJw2PhdHf/FlswJWwApYAStgBayAFbACVsAKWAErYAUKVEC/OtesLApe1THon8KNsCfE+dUO7mwZFJDGe8NN8HOoC76C47B4i76OmoOHM+Gh4j2tVVOBsG/BpmvlOMEKWAErYAWsgBWwAlbAClgBK2AFrIAVKJsCcX2pUrYOF9tQECzZGB9nw4HQtlh/rleSAvpi6r9wFrwlT6X+il5wfrfCnQKT68lvTHYRfk6B2P6GV0z9shsrYAWsgBWwAlbAClgBK2AFrIAVsALNQoFm8QVWFNzQr0t+GfQF0KHg4BUiNJG1od1D4N/RtnUQgCqqS0EA7GUcnAeLi3KUudJBJG+QOcupVsAKWAErYAWsgBWwAlbAClgBK2AFrEDSCtR8ACsKjHRGSP3a2lWgL7BslaGAzsWVoHPTOcYglgJj90BcNhRHCn5+rtQ+yofNClgBK2AFrIAVsAJWwApYAStgBayAFShMgZoOYEXBBv0h7gtAv67WozB5XLoMCuic/AouhoExBYjm40u/9jcV4rIv4ahXXM7sxwpYAStgBayAFbACVsAKWAErYAWsgBXIX4EW+RetnpJBEGRDeq3g1V5Q08G66jk7WXu6kpyH4RQo6e9iRedfvzKqoNhJEIctxMnh0PBlV/Ari3H4tg8rYAWsgBWwAlbAClgBK2AFrIAVsAJWIIcCNRfUCYJX2zPu62AfqLlx5jin1Zqlc6RAo87ZzhpEcC51mLdFwaUVVLgepuVdMXfBjmTvnbuIc62AFbACVsAKWAErYAWsgBWwAlbACliBJBSoqcBOEPDYE7H+AdskIZp9JqrAlni/BvZTK8E51WGh9ioV9FVXXLYjjvxrhHGpaT9WwApYAStgBayAFbACVsAKWAErYAXyVKBmAlhBoEN/q0h/rN3/a1yek6ACi61Hny6DQ6BFcG7z7mr0FdZSKtwGi/OumLvgCLJH5i7iXCtgBayAFbACVsAKWAErYAWsgBWwAlYgbgVqIoAVBDgUvLoEhsQtlP2VXQGdw7/BEVBUECvq8TNsx0b7pW664WCLUp24vhWwAlbAClgBK2AFrIAVsAJWwApYAStQmAJVH8DKELwaXJgELl3BCvSjbxeAgljF/jrhFKo+qfoxmP7Tg82hlIBaDN2wCytgBayAFbACVsAKWAErYAWsgBWwAs1LgaoOYAXBq/05bfryysGr2pu/CmL9Cb6ooQXnXIc5Lfo1wlUUehyW5Sycf6Z+NbVT/sVd0gpYAStgBayAFbACVsAKWAErYAWsgBUoVYHWpTpoqvpBIGMX+nAhOHjVVCcj+XbXoYmLYQE8qnMfBafybflNCk6HAflWyFFOPnrA/BxlnGUFGlUgWMM6ULg7tAf93bapsKzAOU4VmxWwAlbACpRbgWAtV9NtoCt0hpXwCXg9R4RsFujXijLSTfrpB+zTYBEU+synKjYrYAWsgBWoUQWqMoAV3Oz061wKbOiPfttqW4FhDE/n+hh4SXOggBf8ydT5AOIIYCnQ0A8mgc0KNKpAtF61oKC+3KuDvjAE1gX9pwCa25qbyl8CD8C51JtWwBynis0KWAErYAWSUCB47myHf63VCrT0Bq3neibQD9rEQOgDPWAF3AB/pP7S5rqeB9rpnUPaCemT0k6aDYaUdr3YVyDwMfglKJBlswJWwApYASvQoEDVBbCCG+FQRnARKIhlax4KbMIwL4RvwVjNhTwfCOdR/n3YGUq1zjjoWaqTfOtH870l5duCgiDNyfTwnyLfc90k+gTrks6VHs7rQC8zYjgoyD4UBoEe3LuAzmkmG0HiGPhrAXM8kx+nWQErYAWsQB4KRGu47rFal/VVrNZoBagUjNIPGLR2az1XsEqBF+WpTEdoD9nuz98n7154GWrSgvufgk7SojMoCCXtpJV0E9JRx0qvA2knrVtBJpPmT8PVmTKdZgWsgBWwAs1TgaoLYEWnqTvb38GuzfO0NetR78To/wDHw8w8lVhFOQWw4jBdM3pwTdSCB0J9qXMCbAbZHpAT7UsTOl9E2wthPsxBk+lsP4GPQftTYS4sgbIFuIJzowfvftAfhsIIGBahh3UFqvSrENkezsnKaAqCbQw635q7NitgBayAFYhRgWgdV6BlFKwHWrMHQmpN78V+l4h2bIu9/3anrgI2NWORdgpWbQQbgrQTuhcKBal075N+HUD3tGJMz1vyZ7MCVsAKWAErsFoB3RyqxoKb5s/o9FeqpuPuaNwKHIzDCXA6c2JJnl9hfUj5lVDsgxRVG0z1e0T7SW/0cP0XODTphqrEv4I5OodLoR4UxJoIb8NrzAVtJ8B8SCSgFa1Bcv95+AVsCHrR6QSaG8W+5FB1DdODvwJfy9dI9YEVsAJWwAqUpEC0jnfDyXnwVdD6rbU7rvUbV6stKb+rGyjnTqRdG9rU/e970BvivPfhzmYFrIAVsAJWILsCVRPACl4cj2I434eq6Xt2+Z1TpAJ6sddXSe/B3zU3sgWxlB7NnemUXQR6UC3VFFwoh42gkV3L0VCVtKEXAZ17/URX9IfN4EBYBjPhHXga9Mf+X2FbD1nnh/KKsO7UORd8booQz1WsgBWwAhWgwDb04evQsQL6Um1dWJ8Onwj6Ws1mBayAFbACVqCsCuinJhVvQfBqJzp7FpQrgFDx2jTjDioQdQZ8XhoEc0SHmayeRH25E4eV64FX7ZSrrTh0aUof+omwHqZ3h9PhdrgLfgzrMj9a5DFHKJqXDaDUenmVdCErYAWsgBWoRAU606n2ldixKuhTHX3UM5jNClgBK2AFrEDZFaiKAFakir62OAeGRsfeWIFBSKC/hbZOHlLMo8yyPMq5SPUroC+1uoKCm3+G++FsUCArn2AnRXOavv7Ul2A2K2AFrIAVsALNTYFVDFjYrIAVsAJWwAqUXYGK/zW86KsJfV3xU9DXFTYrECqwEwf6Www/Za7k+ntYiymzIqzo/WahgIL0+lVMfZV1CFwENzJX5mf7tVPybVbAClgBK5CnAtFzmkprve0APaAd1MNMWOX1FhVsVsAKWIEiFAjWWP3wVL+Z0RP0Dj8D6iHuP5UhlzYrULEKVHQAK7hgv4SC3wZ9WWGzAqECmhPfhGdAgQkv4qE63k8poBerjeFi2APOYa6MZuv5IhFsVsAKWIE8FAiey9pSXIGqvrAu6NeqR4J+YKAv5hXA0svV3+Fq6q1wEAslbFbACliBHApEa6zebfQrzgpUaY3Vuqo1NkVv9vUO/xGcD7epntdYlLA1CwUqOoAVnYFhbE+FuujYGyuQrkAXEn4JL8H7ZVjEF6R3wMdVo4AeCI6ADeHn8ADzxV8HIITNClgBK5BSIHqJ0qF+4t8N9MI0FIbD+rAeDAIFqzqDAlrpP2QcQtqv4UV4FWxWwApYASuAAsEaq7VTa2wf0DuvglUjQWvsOqAAltZYvbOnr7FDSVNdrbEfgs0KNAsFKjaAFV3YuqhPga2axdnwIEtRYDMq/wxOhsUZHGku6UE8DpsXhxP7aFIFNF+uBgU+9eWevw5o0tPhxq2AFWgqBaLnLb0YdYKeMBj0IrUB6GVqKAyEOugA6S9RJGU1+dMXWg5gZZXIGVbACtSyAsEa25Vx9oIhkFpjFazSmqsfBihfP2gtZI3V2qz/XOhDsFmBZqFARQawogtdJ2A/OLpZnAkPMg4FjsTJA3CL5lDap7Spn16U2s5KHNSX6sT1K0IB3fQvhJZwA3PGX2IhhM0KWIHmo0D0vKW18Fj4AujFqgfonqm1sVTTi1ghL2Oltuf6VsAKWIGKUCB4n92QDmmN3Qm03naHThDH2qh1Oo61Gjc2K1AdClTyhO+DhD8BfRppswL5KKBfJfwp6OaQbvqphr7CKtVW4GBmqU5cv2IU6ElPfg8KloefdOvQZgWsgBWoWQWil6s6BngRnA27wlDQ/bKSnw/pns0KWAErUBUK6IcC/wC9024Pg0A/IIgjeIUbmxVofgpU3ANKEK0+htOxY/M7JR5xiQpsQ339lCM9GNGDpDgCWAvxM1v+bTWjgD69Pg821YiCNUiHNitgBaxALSugF6qGAH4tD9JjswJWwAo0kQJ7067eTWxWwArEpEDFBbCicW3M9jhoFdM47ab5KKA5rQDWFhpyEIzozWEcAay5+Jkh37aaUkBrzlnQraZG5cFYAStgBTIoENwbh5PdMUMRJ1kBK2AFrECRCgRrrP7Ti0p93y5ydK5mBZpWgYq6oKKLXX+X6wTQQ5XNChSjwGAqfSWtoj7ZjcP09ZUDWHEoWXk+DqRLR6lbwYNH5fXSPbICVsAKxKdAp/hc2ZMVsAJWwAqkKeAfEKQJ4kMrUKoCFRPACl4Yt2NQh5c6MNdv9gp8FCigeb5ucFzK7odUXlCKA9etWAX0hd4PYGTF9tAdswJWwApYAStgBayAFbACVsAKNFMFKiaAFemvF8jvQp9mej487HgUUIDpncBVF/b1VVYc9gFOFsfhyD4qUoEN6NU31LMgqF6RHXWnrIAVsAJWwApYAStgBayAFbACzUmBighgBS+K+mOiBzSnE+CxJqLAdLxOCDz3ZT+OXyFchZ8x8vvbIx7TxlabChzJsPQ3C2xWwApYAStgBayAFbACVsAKWAErUCEKVEQAK9JCX1/pj2/3rBBt3I3qVWAcXZ8adF+/PhjHvFqIn9GBX+/WpgKaLwdpaEFwvTZH6lFZAStgBayAFbACVsAKWAErYAWqRAH9wfRKsa3pyP6V0hn3o6oVeIPeh3+nalOOO8Qwoin4GB+Dn0p08T869TokEdRugd9u0Ab0B4M7g36tU2k9oq3OT6WsR+qvAlhXw0ywWQErYAWsgBWwAlbAClgBK2AFrEATK9DkL4zRFw56af4q9GpiPdx89SuwnCG8GAxDc3zL4LiU3bFU/qQUBxVc9xb6dk3cvxqZ4QsmBYdagQJW+p9ZFMzqDyNhc9gGNgQFt1S2qWwzGta8ebCpOuB2rYAVsAJWwApYAStgBayAFbACVuAzBZo8gBV1RX9v5oufdct7VqBoBaZR842gdh/29QVWHPYSThbH4ai5+MgQEFvF2JfDvIipbMcR6HqKbepLLZ2vQyIGRelsymoKrO0JDyoIl2EcZe2MG7MCVsAKWAErYAWsgBWwAlbACjR3BZo0gBV8naFf1xna3E+Gxx+LAm/jZULgSV/2xPE/ECpwpQCWgxkSIWaLAkQKbtWzLjzJ9mn4B5wCh4O+2Cq37UyDdVAPNitgBayAFbACVsAKWAErYAWsgBVoQgVaNmHbqaZ7s6OvLWxWIA4FFPxYEDjakf0uwXGxux9T8Y1iK7te/goomAUrI71PYnsGzM7fQ2wl18PTsNi82ZEVsAJWwApYAStgBayAFbACVsAKFK1AkwWwgq+v9JXDJkWPwBVrXQH9zak/wJnwf6BfOctmc8h4IsjU31j6fHBcyu7rVP6oFAeuW5gC0VdZC6l1EfwK5hfmoeTSPfCwsbwE61XJTu3AClgBK2AFrIAVsAJWwApYAStgBQpXoMkCWFFX9SuM+vXBpvj1oMLVco2mUOAaGj0NfgPfBP06mb6yymRvk/hGkDGC/VHBcSm7CowtLcWB6xauQBTEWkHNv4N+pbCc1orGtihng27LClgBK2AFrIAVsAJWwApYAStgBTIr0NQBrGF0a5fMXXOqFfjcdDS4FVZFgYzl7CuQ9G14BNJNaeGvmu3Gcd/0QkUcz6DO06oX9aMIF65SogIKHl4M75bop9DqI6nQttBKLm8FrIAVsAJWwApYAStgBayAFbAC8SrQJAGs4Ndx9Otdg+Mdkr3VkAIfM5aJqfEEwaOxpP08zGNfgasHIGX6qm8vaJFKKGH7GnXfKaG+q5agQNp5v7EEV8VUHUSlumIquo4VsAJWwApYAStgBayAFbACVsAKxKdAkwSwou63Ybs36Nd0bFYgkwKLSNRXV6stCGa8TOJ/Vmd87nM6fi043oD9bYLjUnYfpPL8oO1SfLluEQoE2t9F9Vx/B60I7zmr9CO3R84SzrQCVsAKWAErYAWsgBWwAlbACliBxBVoygCWfn1w+8RH6AZqToEgmHEPg5sLq+BOmAcp24+duH59MNOvK6ba8ba8CrxHc6+XscmOtNWnjO25KStgBayAFbACVsAKWAErYAWsgBXIoID+iHpT2XY0PLCpGne7sSmgL6RmgX6FbxkoKNoOukI30Jd2xf4an/zkCrKOIX8yKMgQ/vpgD44PgDjsRZyMjsORfcSiwEK8vAT6erMcpjnYtxwNuQ0rYAWsgBWwAlbAClgBK2AFrIAVyK5A2QNY0d+/UlBiNyh7+9mlcE6BCiho9SDoK6g3YTosA/1KqF7662AwbAbbwtagQECugBTZa1h/jtYBBccy2WISxZMwNiiwI/ubB8fF7q6k4t2goImtiRXQl3fR+vE2XVHgtBzrR1va6dnEQ3fzVsAKWAErYAWsgBWwAlbACliBZq9AOV4AM4ncm8StM2U4reIVUOBAXzv9CZ6FJcGv9HH4mRFseI2ju6A9jAD9Wt8RoKCWvsxqzPpR4KswGl8rUu1EQQzV3RL0lddNoGCTTH4Ph046KNEmUv9B+Ui1XaI/V49HgfG4UVCxazzuGvVSpxLBvGu0ggvkViDSUsFs3YNWZSmtgLivvSzi5Jscaa0fLIhsWmtdT/1vr/m6bjblgmtf81XzNl1HfWW8IsJzFiFsVsAKrH5u0NqrdSOTee3NpEqGtGgd1lqrdTjdvAanK9KMjvO8R+taW+n3udqYGJkWgXKMbH0aGVqOhtxGrAooaHAJnAez5DnXQhDkLWZxeYvi4gZQgOkkGAm66eSyE8mcB/+HD7WpOTsEPg/KexOeg5RtzM4eqYMStw9R/4MSfbh6/ArMxuUcKFcAq3P8Q6gtj9HDgx7Q20EH6A49oq32e0b7XdgKBbWFymaylSTOhyX41rmeCzMiprNNobVhMeRci5RfCxbprKEoUC+tO0JdRDe2oda6PjR3pbHKqXw2W0CGtJbO9SCtp0JK52nsN5wPtjWjdaCn7ivSSPr1Bc3XPtAblCZtld8JpH0mW0Ki7pELojk7i33pJx1Temouq4yDhYhgswLVqkC0drSi/1oT6iB93dD9T/c65WsN1v0uk+ketixae7U+zAStt1o7tG5oX2UWQU2uG8E6nNKzF2NN6amt1mHpqXVYWkrTFpBuy0jQvWxppKfuZ1qHpWNISs/lpNfM/UxjqTUL5obuuzrvmgeaE5ojmhcidY/WNdYZNI8yma4hvY9qXojwWtN1JpSuZ8qavNYYV94Waa/rrC20A61nPaEuQrprP/WsyW6DqY6ec56GJ2FxEA/gMB7TQ1vZLJiIW9KoBlyITaKwRBlUSCWXjU0BXdDnwR+h4MmYmrzMgU+ofzHcD7+EI6E9ZLM6Ms6Gb8NU6AgDQYvXEjgDtCil7CvsDEgdlLDVDe5WWP3lVwm+XDVeBXRuFsTrMqc3PTQ1ewvW71aIoQcJPUT0h6ERg9nq2uwHurHpQULldPPT2i1KsVVUXgm63ufCbNB94T14k/69xXYczIKq/SlboLPuzx1AD2h9YB2QxkK6S2flpXTW2hi31noIkdYzYTy8C9L6TbYfwHyomheAQFvpqmeJDWBT2BCGg3SuA2naBmTFzlvNV7EUUvN1Mvvvw9v05Q22mrszYDlUjY7qa4HWUuUZs9aOOG2FnKWeL+J0bF9WIKVA2rqxDukjYXNIrRu6F3aD1LpRyv0utW4sxl+4bozlOHWf0/40qNr5H2mqe5zWXOk4CjYDaat7Wx3o+UFlil2DqdqwBkvTlJ7SdDpMggkwjr6MY/shTAU9W1Zj8CKJNVa6rYSyrbHBtdaFZoeA7tGpeaF7tJ55uoGutdT9pNj5ofGJ1NyYxb7mhe7Lb9GXN9nqWlN6WXWgvcQt0Fpzpy10hV6ga3JQQH/2dU32BOmu67IDNKb/PMpcAufQVtbf1iK/KNPCUG5Tm9sW0KgmzWNwKhwJPwZbeRXQBX4NnAcFB6/CrqYeNJnMY0j/PrwBp4EummymF4kREWGZZzh4JEgYxv4hwXEpuy9Q+blSHLhuYgoogKEbTrkstUiXq70mbye4senBQDc13cDWg41g42hfabpu24NugMU+RFA1L5N/nQvdQMUAUF/2Az3Iz4UP4Hl4hDHo+v0YKvZhNNBZGuqhYSCMhNR6N5R9pfeEjtAaktaZJhrakNZ6iBTq12ZwECyHmfA2PAb3MY432TZck6k1nuOKsEDjbnRIY9gVdgbNZb146v6ShKbyKXRuU+d3ffb3gJWwACbBy/A4PElfx7NdXmka0qdSTPPoJNB1qnUiThuHs3+im677sr1kxTkA+6pMBYJ1oys93BS0ZuwCm4DWjbaQ5Lqh9V70gw1hL8i0bjxLX8eStwwq+hqINNU9bBhIz91hKxgCGmu59NQ9dieQSVM9U06DD2E0vEpfX2Or9Vj3ukr/gVgH+ng6TIU411hp8xb8Cz0+Seq+FM0Lmml4ntyS7W6wA2wAPSGp5x7NNxFeaxtxvC9o7HPhA3gRHgNda5ojlT4f6OJnFujbjtQ66AH9YRAMBl1/2mqtkd51oLKaS6Vck12ofyLcD09ArKZJUW7rToMb59noEsr9A86BKTAMloEeOG3lU0AT73ewKK4FTH64qPQAfxFMhr+ALqZ8bSkF/wn1QYVD2F8/OC52dzkVb4Y5xTpwvUQV0Lqg82+LUYHoJtcSlz1gBGwOW4Ie2IeC0nVTawGVZq3oUHfYKuJYtuPgf3AzY3uN7dK41i98FWXBg0QdDoaC7oXSeTNYF/pCR2gNlWrqm/opdocfwJNwAzzEGOc3tc70I/U361qyq7n8RTgIpHVXaOo5rH51AZ1/8TWYDI/DrWgoPeuhol9I1b88TGPdNSKP4gUX2Z4aR8Hsgmu6ghVIUyBao1uRvB4cAFo7RoHWDc3lprRM68YndEjrxR3wKP2fzrai1o1I0050ayc4EnTfWAcq4T4nTdW3YRG7sF0B82ACvAZPM4bn2Y6BJn+OoA/ppmDqfumJMR2vws+G8D00iPUrmmheaA7oGfNgOADUlp6BKuEeXUc/tow4hu0EeBBui+aD3mEr8VrTnK6D/rAu6BlIQVvNcaX1AT1/tAOtdUlq3Q3/av8JiNWaYvEYwggG5DGKpZT5Cyhw0jBJ2L4NM0AnwFYeBabSzLnwUabmogVIk1/nZAvQRO0AE+ElGAcZo9VREGsl+f+BZXAxDIJ87HkK/TcoqHpHQxwX4mj83CvflfAipn7YrEDcCkTXrtzqJjYUtgU9vG0FQ0E3Ht0Iq9E0po1gQ/gG3AOXMuZX2Jbt14IDjdvTrh4kpO0OoLVyOHSHprgP02wspvW2NxwC+8JDcBHjfoJtk3xJFGmuebsB6NwfDnruUFqlmubA0IjD2L4I18A9jGcWW9+LJEJm255kPXdIM5sVKEqBaN3Qdai1+ZtwIKwDlb5uqI9fhUPgDbgRbmE8H7Jt0nUj0lT3vt3hRNgVukKlWys6WAejIvRuMQOuBf061MJm9G6ge7zOX1+YBCVbcK1tibNvw5egH6itSrW2dGxkxNfZPgFXgb72b7If2kVatqQfvUDPPHrG3CLaH8xWz/F6Hm5KbbWuxm6JOG2kl5oA3Rspo+xb4Y+wIAp0KO1jmAr9dWBLXIFVtHA1PKqW0hfs6MLRzUgL0DGgc6ublWwFTIIb4G+UnZZen/QGn5GfOzhsC38DXYi5bAmZ6tfMoNBB7G8SHBe7qzHfBJOLdeB6VqCSFQhueMPp516wN2wJWleb4p5As4mZbtoKsHwLNM5/wGVo8BHbtdY0pcVhkcZt8LUefAHUth4s+kCtacyQGkw/NdWD6I5wOVyMDtPZJqazfKcs0lyHA+A7oHvSENAcqCbrRGd3gx3gWbgQ9Guasf70G5+1Yi0ZSK1eU7Vyjip2HMG6oZe/E+Fw6FexHc7eMb2kbgO6l38TLgN9fTybbVnWYLUjCzTdkMOfwqHQDarVWtHxvqD58SA8DM3JNH49z5RkwbzQc9H34EiQrtVmmssHgp7tHoILGNvTbMvyQ7tAxx60qeeE/UHPXetCF6i0Z55V9Cl2axm7x8YdbkYRXQy5bBqZF8HctEKLOA6DFmnZPoxZgTH4uwbW+oIquoDakfdrOA90XttDynSOh8EZcLX2g4uOw88sCGzdQurvYfFnuRn3niT1ziBnEPvHQmPzKqiSdXc8OepHWW/4WXvjjEwKaHEWtgIViK5BvSD/Au6Hi+Eg0DVU6y+BAxjjqXAz7Aotsq1J5BVl8gd60NsNrgBpfBEcCGq/1jVmiA0/gJDOf4cRSohbZ/kMLfKv9X9f+A/8CoZCNa8Tur/uBteDrtN1o/nFrs0KWIFSFAiuJd0Pvwt3wg+gH1SzaR3cHLRm/At2gtjvdfjMaNFarHvgUXAbHAPdoBasM4MYWgsDKfcYonmhe5rmxe1wMvSFajatHQfBf+DX0DdYVziM1wLfWqNOhLtAz7MnwSjoCtX8zEP387eW+RctrWSwqK2fh6c3KfOWygXBDR2uguXasZVFgZtoZVx6S9G5VLK+KjgWdLPKZppjX4SLoV9Qd43y0XleSeLl8H9rZK55sCAqUx8kH8b+psFxKbtaiN4vxYHrJq5AR1pon3grnzWgdaeW7BAGcxYMAz3sNifTerQj3ABfg5bZ1iTy8jb5iPz0p9IfQUFwPbivA2qzuZnm1cFwNawHiVmke2ca+AlcDzq/tTSv9VB6HOh+vAeU7WWUtmxWoOYUCNb8IQzuErgIRkItvfy1ZTz7wb/hJOgQjJvD+C3yr/Xq13ApbAC1pOlyxjMNbAUoEM2LXlT5HVwGG0MtzYvejOeXoOePLSH1PKjdWCzSsA3OvgJ3gNasnaAjNEtrmfSoJTp0oJ0+0A10w2jMZlJgYYZCmvBtM6SXK2kRDY2F12A8ZOojyTVhnzCKOzSStCCikmQ6D0eDblb52AEU+gW0iS7EtepE7UjTP8AbaxX4NOF+NvcFecPYPxbieGHROdUCVLH/axl9s30avGpfRiHmlrGtcjS1IY20K0dDFdzGIPp2AXwdSgoIBOuZ1iIFbH4EPcH26d9U+wtCNPxkMk5BomcLuZTW58E5oAfJWjQ9+2wN14Luu62DecehzQpYgXwUCK6bUZS/Dr4F5XyeoLmy2jq09ic4F7oH44+1E5HfOpz+Dn4G+b4bULRqbDY9nVA1va2AjkbzYihd+Tv8ELpALZreQfeGf4ICx7EFsSIN9cz+U7gStgMFs5q1tUxy9MFC+VXa0cOXJm6fPNocQJlMi18P0vvnUT+JIs/i9BuwO+wZbTWu22AR1Jq9zIDG5BjUQPK2zJGfnqUH8G+BLvDGLuz3KXI+pOs6g7S/wgJI2bfY2Sh1UOL2Zuq/U6IPV09eAa0NnZNvZnULc1fv1cbOWIaxojaGUtIoFOw4D/aXl+B+pcNCrSMVzob9QGud7TMFDmBXLzRZf3jxWdGC9xS8+jN8F9oVXLv6KqxDly+E70CrEucsLmxWoPkoEFwveh+5GnaF5rBed2CcCh7oftcj0IHD0i3ypzbOguOhVl+upzA2YWtEAc2JaF4Mo+hl8GVQkKfWbUMGeAUcpIGWeq0F9b8ud9BNfm0J/mpDIPquCH0KzIL+oCBWY7YZBVSv4eQHvnYkaYjSy2yv0t634RaYzJdCM2Ei+3fBN+AXMANqyV5kMItyDEgvf6IQq6PwD0DbjBZ87XU7BR5LK3Qjx08GaZuz/02I4wFkPH5uAH99hQgVbt3pn4JY5bLZaiiYm+VqN6l23sDxnKScV5nfvvT3XBiufgf3Gh02akF5BeYPabRC8yzQkmEfC/tp+IFmOizKIh+dqaxzdzS0KspRdVbS+vc7OErdj0NP+bFZgVpWILhOtmScesHUtjlZawZ7DPweugZ6lKRB5KcFTk6IUDu1anpPmFurg0tgXHq+ugD2TcB3JbscROcuhr3UyRiutYG4+T50kj/bpwq0TFiIwfhvWCzZToUBoJ9UN2Z6Of0DfAX6gI53g1OhA5TTltHYJfCuGg1fYqP9BST/DdS3WlnYNOY3YY3x6jgw3bBEofZ5KuymSo1c1NLyaliosth7cBks1wHWFk6CITqIwW7Cx9sx+LGL5BXQutIu+WYaWljKvzPL1Fa5mvmQhj4qV2NV0M4W9PFHUOyDt+6jB4IfLhAhi9WR/kPokSU/7+TovqGA1clwLGi/uVl3Bvwb2F0Db+ReqiI2K9BsFQiuj2GIcBFs2UzF0Fp5DPwS2ga6lCrHbjj4ObQv1VGF1x9D//RMaMuhQDSv9K5+FujZqDma3lP+DBtr8CVea9vgYkP5sX2mgB68Y7dg8p6G8x1gNtSDglH5viToZP0DHoQH4D+wBZTbJtDgI2o0DF7pWBalrWT3WlCARfvVbosYwMeNDGI6+aJQ60iFI6BNtoqBzg9T5iWQppfCO5Cy3dn5SuqgxO171NdcS53PEt25ehIKBDcArQ35riOldmUJDqaW6qTC6isg1xCQr7B+NWV3tCbtqA4E8yzf/nSh4Mb5Fm7G5XZm7Ado/EVo3CBbUG9/Ek6Btg0ZzfOfQQz7tzC4eQ7fo7YCBSmgdfpc0DrUnE3P3j+AoyRCsKbqsCCL6nankgJi/QqqXH2FV9BlvSv4PSHHuQvm07coJhKJM+C3GmwzOnkO1JXY2Y2o365EHzVXPfaJFUzer6OWkM2ChdBLBwVYJ8pqAmwHhdYtoJmcRd8n95NcJaKAy3LKKMjyRq6yVZI3n37Oa6SvH5L/RCNlsmXrAWJEtswgvZ79e+AhuAFS1oOdU0A3zlJtJQ6ugYYbU6nOXD9xBTrQQjkD2boWai2ApbXq9cTPVHU10JvufhNaF9FtzUm9HNlyK6BgkwKFuq+XYoOpfAb0LMVJjdTdgXH8GPxH3WvkhHoY8SoQvJMcg+fD4vVetd460/PTYUuNINBIh3lZUEea7p5XpeoupHdYvyfkdw41r34KejZq7nYgAnxbIgTXTKGa9C20QnMo3zLOQQYnZxv8ngqpB9Xp7Ct63QuqzabQ4WV5dnoS5f6TZ9lKLqYX3MbGrPyL4J0iBtKfOtvlqhd8hXU75TSXZgXlj2Y/rhvmy/j6p3wHberQVpkKDKNbm5exa7r+w7lXxqbjbyqY42/ifXH8LVS1x73p/QZFjKBFEXWaa5XtGfimxQw+er7QM8uJoGcM26cKfIPNF7QbPIN9muN/rYAVkAJbwo+hnQ5sDQoM59+fQ6cS9OhD3W9DmxJ8VEvVaXT0o2rpbFP0M7r/dKTtn8C6TdGHCmxT18b3oZT3lg4VOK4m71LrBHqgINXZoBfNlOkFcCX0SCVU0XZe1PecXdaLYXTxPkbBeqiDarX2dDzrBROM9TXK6WXiEijkpaQV5beCa6VZ8FJN0mcWpb+vlODBfBMOtRjEccNcgp9LwTclRKhkC87/PvRzQBn7+iFt1ZexvXI1NYaGZsLAcjVYBe1Iiz3grVzrUhWMo5K72JPOfR6eK0Tj4PrfmroK2DhoiAiR6bnqB/AczI3SvKkcBVrSlX2hH/NY+9VuepZfH9pW+kCidUNBq5NhaKX3twn6dyBtfgluLHI91rzWs3xzMD0LTm8OAy1xjJoTB5Xoo9aqKx5yAvyA62x5tnfeWht0MJ5EntdiC2BFNwrdnL8HewUd1+4E0E2vC1SbdabDGpf6n49NotBsqMuncIWW6US/uubqWxDEepxyx8LfYRTka30pqPm3PN8KlGsPP4ERBdTJVfRBMm9XgWa4oOTSpVLz9NO+wyGRxTDLoEeTvixLXjUnT6HzH8DAhAexCv9C66e2Chqnrnld/3oJ0vnUGivKeW5pbg1T27vAZbB0jZzqOJDG0nYhzIdFsBhWQMqkse7DPaKtjsttO9KgznuhGmu+fAcGQDlNukrPGVAPs2EupOYxuw33y15sRR/Qvaqcc3lP2tsPbgJbZSmgefC9yupSLL0p5/wupcM7UflLpTgooW7q3qd1eAHoWUL3wFagH8K2g06g9bAp1uKOtHs8PAAzoRDTGvdl0DjKbbqnzQOtybNAa7KOpXfK1C/d6zpHSOfUsfI0fwuZw2Mpr3urLYMCUQygK1nfBWldTtN80D15Jmgu1IOOde+W6Tx3g94BuubKaYfS2A3wTCHB4nJ2MKG2dE0W+qyXV1da51WqkULRxFUpPUR9D0K/r3GshyotduWe1DRZsg3Fg/qe78Klh1pdTNVsGu9QeDLXIIIg1ouUOxmugRG56gR5mtCpxSVIXns3mF9aAA5bu0RRKVroLoY5Dl4VpV/ZKgXn/yga3bpsDX/6gvpmGdsrZ1O6uY+Gz8fQqK5jrY9zQNfVZPgEpsI0UFo96MFdQZVlINNDpNYabfVw0RMGwhAYCetCHRTykEnxkmwTaveFD0vykmxl6T0PUlpPYH8SqM/SXuk6FwsiVrBNWUt26qA/jIJ94PPQHcplG9JQH1BfC7FRFD6wkAollNVD18fwNDwKb0bHs9nq3qX7vMqkrDU7baE3rAc7wH6wKbSDpE3X0dFwN+vlgmZ4TwvPRdJaF+pf61c517BC+1eT5aPnBl2Tx0A51zfNxanwKrwCo+EjmANaOxaC1gutCx1AfRsGm8E2sBF0hnLZ9jS0L/xLmhWwdgynzrbl6iTtrIDx8AQ8Be/Ax1APeqbQmhya7nWtIrQ+dgVp3QP6wyAYAoNBzx29oBvovLSAdHuLhFXpic3oOOvYg2f03dDj82XSRPNhImg+PAaaD59APWg+KD/VZ51PzQXNg36wPuwC+8BI0PWYtOnZ4Ch4DlYm3VgF+ddaqGsndovzpGlBOB10klK2iJ0LYDxoQY6zPdyVxXQzGQFv5NnaAMp1y7NsksV0gehGKXQht4GOoBtmpsWZ5NWmC31zuKGxG1oQxHqS8jr/V0AdNGaa0IVcxFpwfgFx3dj/D1+Pgq2CFQhujLop/hDKuYbMoD3N00Ie6lS8Wuy1IjqqB4N6+Ag+gPfgXZgEH8NMWACLYVUBD8PhrwnrHGsNXQ/2hMNhY2gJSZsebgbDh0k3VKD/OZTXg8+boHuRtJfm9SC9G9bSPPWezXU1njrPwDWwC5wBO0Nj9waKlGx98bAOTM7HU7AGHEZ5nZ+kbRoNXA83wLuwNA9ddV3oeWcO/R3L9n9wCXwJToENIWltdf62g0ekWR59pmhNmM6XsFmBBgWCNWNTEvYqoywTaOufcCuMAa0JjV6LUX+1PnSHbeGb8EXoDElbOxr4KtwOCwtoTP3sW0D5YouuoqLWVL1b3Aa6760ocH2bR53psNoCzTuQKJ37wCBYF9aH4TAUesJLcDc0ei5VpgZN9+rZjYwrNY86NlIujuwJOLkSbobxsALyOTeLKKbnn3fY3gkXgOb+92AwJG1fpIG/weikG0rA/0p8Lo3Q847258Ni0DOorlOtH8pL2Sx2boJXUwlxbluX6ixaBFrh5/uwc5o/XfBayGVqq23DXjL/pMSbgfvZoImqhakLaAHqDMWMdwD1joZTGWvW312NdKBYw38T3ls7TWSaME/Dw/AmfAKaYF2hH2wG+8L2IH2ymfJ1M5WWOU03kmj8t1NwJzg5Z4VPf6X0HpVp7CYU+VU/fwabqk4M9jY+/gpZz2cMbdhFiQoE15Tm4iUwpESXhVYfQ4UJhVaq9PLB9aqb6FzQ2pDJVpK4AD6CsfA6aE15Fz6Gemi4WTV2HVOuUQt8LKfwTM7/TLbPwQ3wEzgO2kOS1gnnw+HpJBspwvcz1PkqzFHdQCsdFmyp+mi8mMoPgOb65bAvJG26Fw+G5wpoaCBlDyigfLFFNcd/Bo9AoS9JDW0G2k4n4Wp4Fs6D/aEFJGXdcHwwqO+VZKvojK7lhTF3SlpOhT/D+Jh9211tKHAgw+hbhqGsoI274Wx4DQr64U20Zug6mcWafB/bx+AQOAtGQtK2Iw1sCU811lDwXLYVZVs1Vr7EfGnyIGhNfkO+Uuur9kuxQHOtS2IaNPz9y8hvO7Y9oQtMAT0rVarpWU33myUJdHACPs+B2Y343oj83RopE0e27m8/h1egoOss1Xjq3DOXPyTtT6B5/xfYHpK0QTjfB0brOoprLsfUYV1rmj/zQdeC0Lz/ONpqfmkOzAFdC/NgMeh5fSnItNVamLJl7BT1HJVykGvbOldmY3nBQrYHZb8LLYM6GviFsCBKa8u2Q7Qf50bijYY74TGYADoBOhHtQG32gc1hb/gC9IRC7DgKj4erGbP8rjHxIh1akXwQnKj8JrBFtHkXXAovgCZWpn7eR/LlcCT8CgZCJtuMxG3ggUyZ6Wm6ENFBk/U6OBz6pZeJjqXfX+HNLPmrk4P5JX/qbxy2GCcXwXtxOLOPZBSIzr2u3YPh1zASym1P0+C8cjdaxvbG0taHsHHUpm48ujlNgtfhZXgNPoDpoJvTGmuKjpOy1M2duTCRNn4JWut/CC0hKdM6PjQp5yX41bqptStW/aN1W26l8WmwHgyHJE3PHdnuO9na3ZGMpNeAt2njOHhRnUjNP+0XY4G2o6mv54KrYa9ifBVQ5wuUHQAfF1An6aK6bs+Gu0HnPk6rx9kMOSz1fMmHraYU6MFo9i3DiFbSxnXwC5hR6jyM1g2t9f8Huvf+HTaFJK07zg+Ap/TslccYOlJ2oyQ7FPl+lu1JMC6PPsXSnaAd3XMraR3NNb4FZP4AXgI9w8Rlq3A0E+rlMNBGhw0WvKftSUK/KDmpzWM41j1a10XG/ig9X9N46L/G+AwcD9fD5pCUtcDxfnAlzE+qkSL8aq5fCo/CBEidc61DWt9K1lo+4rY4Hib60KlfQq+0zt3A8XNpaXEfTsHhJaC2Jst5lgtsIll6KFW5z8OZ0VaTKR/rRqE/wvZwC4xh0uuEy9rCMNDifyT0hnLbHBo8By6HhZk0UIdS6fR9Loe6Kaqe6tRBunUh4Sh4jPL5/ApFqv677LwN/VIJwVaa/Q3U5ur+aD/daDOVtAk7v4ROqYQSt/+j/r9TPminPfvLILEocaotb3MrEJxznettQTeqA6EzlNvm0aAW85zztNydirk9rZ+/g2/CJ/AkvAHjYRasgCYff/SQsZCunA+7wRaQpPWTc83H1JqZZGNN7TvSV914Fa4D3UuStrzuk9Ga0JLO7A1tE+yU7oW/ghfVRlznPdD2Q9yeCsNhXUjK5H9buKPC5q/Wlwlx6ZqUePZbUwroPlGOIMtDtHMalBy8SqkfrBvPkfYz0LrcN5Wf0HYP/PaEmXn470GZgXmUK6XIXCr/DsaV4qSZ1NWzmt6BxzfRGqtn9j0T1vpD/Ose+kGcYwyutTfwfTroWtN1kJSNwvGG0PCskVQjBfpdSvl/wctxaltgHwou3rLgGlGF4GXzOyTtkuZnNMdXwsoExXgH/3rx+gNMVjvZ2gryFEDRzUb1HoZCTC/RX4d/w6PwSIT2b4PvQ14P5ZSL07RwXQQXQ9bgVdhgoJP6fXuYl7b/JY73UVpwvtOKrHW4kJQHYVlajhbX0+FXkO8fme0Wld+AbRymBfCPMC9y1o7tEdA9OvamjApoTkW0YduXpneCn8KtoLn5VdB11xSmm9krTdFwOdqM1oBVtPV/cDAcC1fBC+RNh4aAbrBWkNXkpjXkv2XohdadVmVop2KaCM7znXRqShk61kVt5Hlf0dqwfcJ90ppzt9oItIilycDfyzj8GyyPxXFmJ+1J3j1zllOtQO0rEKwpuzDahnUmwVFPxfdvQdtYLVg3HsDxlaD7dZK2Ps43UQOBhtna60mG7pNJmtbLJ9RAoEWS7VWz7xZN3PnhtL9Zgn3Q3Nfz6XNJtBHMr/vxr0BOktYL5zuqgTyusyT7UfW+W5c4gm2pfyKED/srONZEGwuhKcK3KEwoYV++1e7j8hFMPh1mNZWLJswECv0KNob+kK9pkegQkW+dpMu9TQO6uRX095wiLZZR7074GrSDdKsj4ZfwKkyGnBboexkF60EPEG1hDNwGr0GjQc3oHCm4ejwcBHHYcpz8FZ4PnO3L/tfh3iDNu0UoEJ0zXR86bzKtLdoX2hd6ueoKevDpBbr21oWRsB4MAuXJT1PaKhrXdTGrKTuRdNvBuhnXupxYl4O1RQ8wi0FzKSnTHG0Dupc1NxvHgHVP0bWZpHXBua5zXWuNme7TwxorVEK+rvNroZAvjQtqLpi/N1HxaBhVkIPCCm9Nca2jcwqr5tJWoGYU6MxIdi7DaO6ijafVTnA/ja3ZaN3QGnk9HAF6TkrKdN+TZo/n0UB3yqh8kvYKzucl2YB9x6bANnjqHZu3tR2NJ+lGJSdxnaX88h6znP1r4FAYqPQErAU+d4BLQe/gtiIV0EtlwRa9rHai4k9gnTQHL3KcaaJpYiiIVarNxcEZ0LDIFjqZoxuC+vA8qJ+n6KCK7Sn6PrmE/r9P3VmQ7YVFF5o0+gXnfVljekf66hxdEaGLteElpbG6lEsFGLW7N6jdtjqIwR7Ax1WBnwHs/wLaQHN8UQ2kaNjVdTyKc6w1QZqnAgSdo32dRz2wSC8FrPWCpLR2oJdRWYcIpWt9kB8hHzoW8qty2pcvla00+4AO3alO5TNnK63zNd6fKYxvPqTmZxLD1TXQMgnHVeBzAX18E/ZMuK8pjfNZe7ekL1ovkrKXcPxKUs7T/H7EsdaWUWnpcR6OwNlQeD1Op/ZlBapIgUH0df2E+zsf/7dCPmtYqV15Hwf3wg9LddRI/W3J1zPdkkbKdSFfa3iS9omc+xksSYlL8x3FAvQMvzXovSApewTH45Jynub3bY4fgm+mpcd5uCnOeoGeZ21FKlDwAhRNWDV3MHxRO4EtY/9qaFh4gnTtroQVaWnFHF5PpdtUsdiFTfUYh/pzDRwM60K1mm5sRWtBVQUVc92stDh9G56BW3T+G9M9Lb8heEXdQmw9Cp8LfQuplKPsZPJ+C7OiMi3ZngA7wKOQa/xkNws7hVGeDDrfbUCBJ5m0Upos3NdxKl37tWT/ZjDv1dKAamgs8xiL0M0/SStm3UqyP4n7ju6LamdS4o3l0UD0rKFnlC3zKF5KkSepvKAUB/nUDfS9n/Jaa7vnU6+IMvK7AbxeRF1XsQK1oMBGDKJ3wgN5B/8Kfjf6TBxTP+7Dz3HQMSZ/mdxo3egDH2bKDNI6s6/nwSSt2d2DkxQzQd9d8b15gv4VV9B7WqO/vVNqH6J79HL83A1HgoK5SdgAnA4DB7BKULfYBWgd2vwRpC+kCnLcDpkWdAUJSn1InICPy6HRL4Eok4+9TaFrYGU+hSu0jG4kpVg/KvdoxEE38k+DEY2UKyk7emHRYvgr2LokZ59VXsruBaC5mbLd2Tk+OljMVgtWczed456gudAFtHCLNqCXSKH1okUAuzVn7zGiGzSqtEBszQ20SgekH4JU83pdDbJPo5OVsibW0ZeRCYq2CN+vyH8Zr/fRNKdnj6RMa/bGch7dU5Nqx36tQEUpEMz3zehY24Q79wL+ZybcRrguKSA9PuH2+uNfL9aVYA3vJcE5rYQ+uQ9rK6A5M2jt5NhSdI29EZu3/By9RLHGgrj5ecpcqivJ62fOcmq+CuiFNG8LFpJjqLRlWkUFqK6EbAu6XjrmptUp9PBWKujhr2QLHlavx5luDNVq29Dx9sG5yWscQfl9qKCLqTHbggK/hA5B3cbq5J0f+dR8/D4ckXfFxgveRZGrgmIK2J0BfaK0BWwV5LJZAf2k5zIYYykqVoEWFduz2unYPIayokKGM4B+DEywL3peeT9B/5lczyHxlUwZMaZtgC8FsmxWoLkpoHmf9Muh3mdelLDBu4QOkzT9YOGtJBvAd2cYqTaSeM6X3wJM5zDpIGQB3XHRLAqsS3rvLHlxJH+Ek4/jcFSAD7U3uoDyhRbVu+6GqlQB11mhfa+Y8hKxUNuMCsdCet2XSLtPzrIs6KvImq38Ik1174BVWfwX6bYhyvo3KldrEGNH+t7wtVK+F0JQbifqfrMA4b5KWRHrRRf058u4/gnoASQOUyDiXJgbOWvF9oewS3SsjebVquDYu81XgfsZ+nUafsxrTPNV1CO3AqUpMIzq3UpzkbO2HlSz/dAtZ8ViMoN1RQ/HeglOyqRbp6Sc268VqGAFOtK3dRPun54p30u4jXT3+qHC2+mJMR+3wN+IPHyW4wcceq9J+jzmMVQXaUSB9chv10iZUrInUjn1DleKn0LqKh6QZABLfdHcjutdV/6anbXMd8RRkEFinwRD0uot4/haaOxBcHpavUIO36VwrD99CB4mb8X37VCNgYxe9PuH0BUatSBYNIrCF8CgRit9VkAPBj8GPRzHYkF/dLP6LfSIxfGnfyfnN/h6I/C3P/vfhXDelzInA9ferXIFxtN/BTtnV/k43H0rUPUKBPeFoQwmyYfjKfif1wSCjaPNJQm22xvfwmYFmpsCeiZOeu7rXUfB73Lb+zSYZOBb49HzfWvt5LA55K3IkR9H1hCcHAOtgvtBHH7tIwYFgnMyIgZ3uVxMJHN5rgIJ5ekevSoh33Kr+d0lQf817zp8kc9nsDtR6NAMBd8k7R6lB0GhDMU+NzVTYp5pCkTU51m24QshXWCwFZwLv4btoCWsdhP1V35/ArdA0osyTcRuB+JR/c/5q4TRuHXO94PrYBso1DaiwkGqFOpYqJO08oM5/hPok+E4TIvOP+A/gbN12f8V9AjStPtJ2rEPm58Cehj7NbygoTeyhqmIrekU0LUtbM1DAa3bSZoCWHH9Tc1C+qlnobmFVCiwbHfK60XeZgWamwIKXtUlPOhZ+J+dcBur3QfPJFqvFqzOSGZnAG7bNeJ6HvmLGykTR/ZxOPkatIjxfSOOftnHpwq0ZbNOwmJ8lLD/NdwH19pkMhatkRnvgdaprvG6bF7eGouyN6gRLRwdODge0h+K9DJxM2hhzWiaEJGPaRRYCpr0hdo7+VYIFrr9qXMJpB6Cv8O+ghjXUmb1/2gQ9U8XyUmwEL4OraBarB0d/Rn0hPMZ23i2q3/VMtJD53o4HA3fBV08xVhLKn0DFBySZkVb1K9uOPgd7Fq0o7UrPk7SebAkytLcPRW2jo5TGwUrp6YOvG2WCmiO/AVu1OiDm5cObU2oQLQ+qAftQetEL9gWuoCt9hXQPXhQwsOcnrD/bO5nkyH6ZitQYrrueUn5LrFrrm4FElVAz8GdEm3hc5+bhv+lCbeRyf1MEhdAkvdABb/1Yq12spl+6Dcfkn4BV1/+DH3gap4J6tn6OU0iVIbpOhuYYFdW4ltzvinOuT5uUJC2o9pPwDrjU+/hExLw3SxcKqiRr32BggdkKDyetNuVnsfLnyaEFsW2Kl+AaRLrhtGoBS89m1BYC18qeKW6utD+BFp4b1bZVJ+jINYM0k+BeXAcKDBULaYH1hNhD/gfvMT4ZrHVRTICtoDtYB3Qi0EpthmVD4OLQg0LcRidJ+n7SzgCWhRSP0fZCeSdDh8FZb7F/lHBcWpXc1FzcvU8SGV42ywUWMQoL4HzoSm+wmgWIjc2yGgt0PXfCbpBPxgMQ2E9GAZat/QQ2xW0bthqXwHNh94JD7Ph4TjhNjK5n0OiSMr0bNc/Kef2awUqWIG+9K3UZ9zGhjeLAssaK5RAfj0+FyfgN3Spe7Dus1PCxLR9vSvNhgFp6Ukc6r7/O9gProdHeWb4mO0K8LO7RGg60/tlrwSb1zVWn6D/XK7V7jzokatQCXnleL4poXuVX1UPOTkterlQBPJYyBT1v4f093M6+SxTwQJNiO6fJeW1p0msevkuVm0oqkDUhqqTZpqMZ8HrMCbMi4JYujGdCtPhJ6CFvFqsJR3dIGIl26Wgc9zoeaZMIdaKwt+EW+CjQiqqbDSn1Nfvwg8grv7Nx9c58AykbCd2fgkdUgnBVnMq1006KOrdGlOgnvH8ES6CRalANvu2BBSIrnl51rWua7En9IdBMBKGwVDQse4PeojWOm5rvgro4Vj36yRtYZLOc/jWvbk+R36pWS1w0KdUJ65vBapQgV70Wc+XSdoCnK9IsoEsvpeQrraTNL3zdGmkgTnkT4SNGykXV3ZbHO0Bu8A4eA6egTd5tviQ7SxYDKsg3/dEFbWVpoDuz51Kc5Gztq6xRTlLJJepdjXPk7J2OO4u53o+9jtI4TLnGzjYHdd7ZnBfT9rtsPrX1TKUCZM0GT6BwWFiHvstKFPIDWkzyu+fw+9G5J0AP2HirP5VQpWPgljz2f0dqK96ya2DajPp1T7BTkvjw6Cgr7CCF1nV/RXEtfitxNcV8H+QsoHs/BYGpxLSttM4npWW5sPaV+A9hvhr+A8s940DFWKy4PpujUsFIHqDAlXDYHjEkChNQSyV0VqlNd5mBUIFOnKgQGZSppeduUk5b8SvHszrGylTanYPOfDDcakyun6VKaD7StLWVOvGcga2MOHBtcF/90baWEz+27B/I+XizlbfNoj4Bts5oOf4SaDA1ljBmjeRrdJnwlLI9x2VorYCFNA86VBA+UKLar7PK7RSTOU1xxULSMpa4Lgca1VS/W9yv3rJyGrRy0hHChwLXTIUfIG0lzKkZ0vSoq+FZttsBbKka9FqaD/Xw1jUX7n4PPTRTg77MnkKeLybXiYKYunCuRoU/DgVWkKhpgfkFJqsKQr1U4nlW9EpzYu7YHw+HQzOz56UPw965VMvzzL3UO6PsCQq34HtGbBLdJxpM5HEeZkynFaTCugnKv+F38HrGqGDV1KhcAuu5bbU7gY9YRCsGzGcrdZOrcO6ztuD1lCtgTYrkI8CnSmk54+kTPdm3eebwlbS6MKEG9Z1qWtObdmaTgHp/zDoeUPno9pN100/2Au0/leEBfckzfukbakaaILnh2U0Oz/hwbXCf122NqL3I2W/BNKhqeaArqXuEeuz1XzU3JRG82AqTIL34B3mx1tsx8F0aFj3m+D80XRNma41PdslZVo7m+oerXm0OKmBRX41f21FKtA6W73gZrArZfbIUE4T6y7QQtGoRYueJqIWk0JNLz0986ykRW1TUJ1cppet3eFdjTV9IYv6u4L8y2BP2A7yMekyGV6E12AizIbOsBFokd0SmmrRp+nYbBM8/QB+iYZL0zUMWwnm0zakXwhDwvwS99+g/umgG5NM5/478M1on01GG0eqbsC22lZAN6KX4W9wOyzINVfJtwUKRNeurqmuoBeXEREj2Q6L0vqz7QIKHGsNtlmBUhXohoPWpTrJUX8JefNz5CeZpeeEpNvW9Sj9fI9L8kw27lvn+mK4G7SOVrutYgCfh52g0p5jW9EnPWsnbXOSbiCLf2mv96gkTRrqXt+YvUKBj2FoYwXLmK/rS3NS74tC71z7wgpYAB/CW/Cc4NlmDNvZsNY7oNJsmRUI3ud0j2mTuVQsqZrrc2PxVLgTvTcsLrxaQTXyuc4KcticCuvhJpe1I/NoyCTyZNIfVuUCXwZHU2UlFPqSM1ht5WHq88A8yqn9LUALnm4K2ewjMv4OKpvrZi0f4+AquAM+AF0ADfoEF7weZH4EP4H2UM0m7b4Db8I/NMZMcyEYu24mCiJsDHHZFBz9AtSHlO3Nzmmgl+lspvOluZixz9kqOb2qFFhIb1+Gf8IdMA18viVCDouuV13b3WA4bAVbg67bodAdtHapjM0KJKVAFxy3Tsp55DfXvT/hphN/ONY12irpQdh/XgromVf3nqacb3l1tLFC0f2hYTyNlW2CfK0XWjeStqY6j3qnmJ/w4LRm5BMEnEi5p2AoVLppTF1BzzDiKzAHFMB6FO5mXr/KdhH4GVEi5Gfd8itWdCldZ6IpTMEz/ZArSeuUpPNa993Yw+E2CLBXFhGeJH1slrxcye+TWQ89chXKkLcuaeqvJlUuU2BKQax8rD+FFJTKOEkVjIlu1ndT5njYFjLZChLvgl/BWyqQHshJHeNvBtm/A43nq1DtpoeFc2EW3MX41vhd80g/jVHjvRQ0p+Ky+Tg6B+4PHCpI9kfoF6Rl2p1L4ruZMpxW1QroWp4Ej8Od8DTMhrWuSaXZPlUguE47kDIKDoDdYST0gJZgswLlVKAzjbVOsEE9S2i9qFXTw3GS+tWqbh5X9Sqg+1TbMnRfz/xNYQocLitDw1o7GjP143Y4FPTcUE2medIdto84ga2eGa+Fh3ge8lf6CJGHKSiYpC3FeWPv/Em2n7TvcgTbkx5Dk/nP+HATvczoAj8SemXonSbU/VDMxBpPvcnQAwqx4RTuCVMbqaRobb43l0GU1QU4vRGf+nJDL8PbZiinG8oN8DOYofxUsEr76RYFxRaSfhN8Gdqnl6nC44H0+VLoA/9k/jT8r27BS/EQ0i+BXSEu081TPq8BnXNZb/gDbK6DRmwK+RMaKePsyldAa1A9fAAvwBPRVmtMwzqQ63qkTLO24BrthBC7w7dB12l3aAE2K9BUCujeqOeQpEzrg+7/A7gOWiXVSAa/qftVlwx5cSbpB3lJ6hdnX+3LCsShgK7jfH+AXWx7WjfmFlu5SurlfC+J3mM0lEfgOdCzQzWbnncOhr3gf3Ah94Rn2a7xn3xxbFtTgZzzZM2iRR3p+V4xiMWcj3Lfy/T8m3Rgtm1RqrhSgwKtc+iwPnkHZMn/kHRd3DmDNVnqziZ9NGyWJT9b8iAyhkBjASwFNhoCSdkcBemD2R8B04O0NXaDhfohMk6BnmsU+PTz09NIm1Hgi/JE6ugmmPQCkNbdxA4H4PlUeAVeDlrpy/75sH+QFsfuzTg5D5ZGzrTQnAHZ5mxUbPXmbfbynSerK3mnSRTQC99yWAC6ZnTedP28B2/COzAe5oAfOBAhH4uCV3oo2AF+DPtAZ7BZgUpQoA2d0PxMyhRAugQWJdVAI371Ax+bFbAC8Smgd5qO8bnL6klBLNunPzy8CiG2Bz2DV7t1YgCHwc6ge8NlPCfNLvDdjmrNxnSPTtL64/xfoPf6clsLGhxQ7kbdXv4KrBXAil5q5OEgGKqdDKYAxaQM6fkkLaeQghxH5lM4KFPH/lbwgvqYY0HRRJ8M+Vh3Cu0BzzbiU77GgF6UtbClbAY7v4UpqYQCtispK2rFZjIQafGaBhTNo37sXgAHQ5z2EM5OhfrIqV5yToLjIN8XHs3BpWD7VIFn2bwPXaHVp0kF/6ufJujhUQt/MbaYSnqZ1HY+1IOusekwNdrXdhYsgIbzl2MtoIgtXYFgja8jT9fN96E/2KxAJSmgAFOxa0k+49A6NySfgi5jBayAFQgUSHJdCpppst1OajnXe5Geu6Jnif9S9H9wiOrUiOnd5WzYEn7BOMf5OTPjmdX7QpKmd4rhSTZg39WrwFoBrGgovdkenGNYj5OX83+dy1Q3WPBeIH8uFDL5dcPYCa6E5bCWBf71hZd+QpLPi7gCdVfBJ5DL5pD5CuwcFLqb/ad0XOWL2yqGMB/Gw5swBhSUk4Ypa8dON+gBfWFAwEL2z4DrYSXIdAO4AA6HlhCXvYqjH8OHgcPD2D8NOgRpuXbV35dUoMrPW64xFpqna+AaaAPFni/VU31dq8XYciqlWOFzU4yEuesEwavBlPwjHAo6ZzYrYAWsgBWwAlbACrTPR4LonWseZX8Po2BdqBVrzUD0fFQHJ/Ls9D5bvzNIhM+s2HeFzzx4zwoUqYAu0Ey2M4mbZcogTV/aPJ8lL99kBUgmwqb5VojKbcd2ECjQkssU5JgFCsQ1ZqMo8GXQp6IZF6dokZafN2AV6AV9EdwBy4p80W5H3aZ+cVTQSmN6CB6Fd2A6rIS1tAhefjV+9b87DATZK9BQj21fuADiDl59gM8fwVuQsl3Y+T30SCXksZ1ImdF5lGt2RZjLy0oc9KIS67t68goMoYlLYf/km3ILVsAKWAErYAWsQA0r8BJjOwsugTqoJduDwfwVjoXJ2d4Ta2nAHosVqAYF1ghgRQEKpR0M2b5mGUueKMWmUflFSA9gKTh2FywBBUkUENGXPvtBW9CL1w4wvpFFZBxl3oF8Alga70nwAKheLlP+AugMH8GrUKwp+NMpqryK7QpoGRElJ7JRgGI8PALS+jmYDWsFrJQWWhCoU38Xw5SI1KfEKt4XLoS4g1dq6yfwBKRsE3YuhHVTCXluX6ac/NmsQLNRIFrfezDgP8H+zWbgHqgVsAJWwApYASsQuwLBD/j/jfNecA50ib2hpnW4N82fCT+CRWCzAlagiRVYI4AV9WU9trvm6Nfr5NXnyM8nS4Gpx+AbEPZhMsenQD2kbCt2dgEFsNrAvnAzLIdsNpeMh0D18jEFQk6Gn/KSl+uLKgWtZkFnmAAzoVgbQcWW8AjcAxOgN0h7BezqIJetJHMG6GuiD0H9Wg7doD8MgK6gNhaCtH0NnoTnQcex/JpW9GKMu4av4/7C9lBQu3HZbBydBncGDoewfyFsEaTls7uCQo+DtjYr0CwUiK5RXZMnwyHNYtAepBWwAlbAClgBK5CoAlEQS+8ff4OlcDb0glqyoxjM03C9nqeCH+jX0hg9FitQNQq0TvU0CEJ8gbRBqfS0rYImr8CqYi/eIFqvIMpHoEBEaKt0EJRT8GIudFc6tiuMgHd1kG5BvbvJOxEUzMnHvkkhBXduybE4TSd/KgwGBY+WQEEW6SzdN4LfwiWgMabsH+wcBueDvmZKNwVe3oR/wYMwCRaAbhqyVtAROkMPaAPyL+ZB0eeOumtZMG+GkvlX2B9aQFymPutmeD2sipz2ZquvSPaIjgvZfELhZ1Wh2DlcSGMuawWaWoHgGt2NvmhN1BpRDabrfTHMh2kwGT6CvSDbPYosmxWwAiigLwX8gxpPBStgBRJXIHr3WkZDl8PH8FvYCGrFOjGQH8FjoPcumxUoVQF/zVeCgq3T6irwsR+0TEtPHepF4u3UQYnb8dR/HoYEfrRAdIM5QdqCtGO9uChI8m6OQJOqvwUPwdE6yMPU7hnwJozJUl59+QC2gZWwCooxBcAURPkPrPHH8BnTUtJuhBHwawiDQcq7Cn4PkyFTEEYPrPMipqhMUha8GG9AG3+FL0DY31Kb1svreXApSG9ZVzgXDtVBEfYSdcYVUc9VrEA1K9CZzv8Q+lTgILRm6Vqvh09Aa9sHMBYmgh4Wp0M9aH15AAaBrbYVKPb+Wtuq5D+6RRTVtWWzAlbAChSiwJJCCqfKRkEsPavfAXqP+iUcAnr+qAXbnEF8HX7XyPtnLYw1nzGk3svyKesyayugmIKtSAVap9XbgGMFZ7KZXi70QhGHLcPJ/aBARKvI4UC2W4JeWFKmvLCfeoFRnetgJmQz+b8BvgTdshVKS9fi9Cs4gcVpXoYvdOTzg6hOV7ZtIO8HxCjgo/FsDI/AGsErjlNfnunB/VY4HgaATGlXwy9gfoa+kVw+C4JXOl+XwI4xty6tz4e/gPZlHeB0+Da0hEJtJRX08ru40IoubwWqUYHgOt2b/u/ZhGPQ+qW1ciFMh2kwHj6ImMD2I5gF9bAc1gjQR2Npr3Rbs1BgLqPUml3MWt8sBPIgrYAVWEsBvSMkbbqf1bLNL3ZwqXcT7tfv4OMEuAu+B9uDnuGr2XQvOgKuh8nVPJCY+j4nJj92YwUKVqAhMBS85OyMh945vOiCnZEjP6+sKEqvsk/CRFhXB5gWt+/DS/QptThsxvEgCG1LDnaHW8LE1H6a/3tJ/2oqL4/tYZR5CS6QLqnFOPA5hjzdvEZCH5gEjVqgsfq9NdzdSCWNXy93qQDWG+z/ESopeLUr/bkYdI7iNAWsLoM/wKLIcVu2p8DJoMBhMaYX5MdUMXVetW+zAjWuQHvG9zXoWMZxao2cD+PhLdDD7Pug9X4q6D6ia3s5+HqUCLZ0BRTw1DyyWQErYAXyUUD3k4X5FCyxjH4QXfNWynNy9M6ke/yt8DB8AY6AXaAvtIBqtA3ptMZyfTV2PuY+Nzy/xezT7qxAXgq0Dkq1Y18XZa5FZRz5i4M6pe4qQPM4rBs42p39K0HBmrHwY+gCoemF7Gi4l8DQwkyLbLR4qq9/h72gF+RjCpT8BF6Ap8MgVlRZfV4A6vM+cGWGMiR/ZkHwaidSL4ZnoLEHc/V9NsiWwqUwUQdNadFYWtCHg+DPMDzm/mhBvAzOhHmRb83T78GpoHNfrD1JRb1E26xAc1JgYwa7c5kGvJJ2dI3dBvfDaNA6puvagSqJYMtXgfkUXAGt8q3gclbACjRrBbRe6Nk5SdN61C3JBirA95I4+hC8m9Xz7qBngntgQ9gD9F42CvRuVk1rfBv6ux/cyJhy/adfFKl5m1vzI/QAK1YBBQZSNpSdLVMHWbYKoKzKkldMsm42d8KR0CFy0JLtvrANjIfNIJPtRuIucJ+CKsFCmV72SRL+Dd9Pz8hxPJC8X8DRMCet3BSOZ8BQ+Am8Bc9m6oPSIuvJ9nD4KawLi6AffALZTOemfZT5LNtbtJ9jnFHRTzdB221JGQ6bwlDoAYthFuh8joVJMA9y+o98avH+JvwG+kKcthJnN8BZMDdyLB2+C7+CTlFaMRvdkO+C5n7DKUY716lCBYI1QOtknzIMQWvIVfA3+ABi/Q8j8GdrXgrMZ7jLQfcwW+EK6HpcVng117ACVauAniH1rJe0tUy6gSz+1W451sOG94EsfSgqOXp3WcJzyWs4EJfDCNgKtoWNYRh0B70PtoBKNfW5P0yq1A6WqV+6R9uKVyD266z4rlRfzdbBS87WdL9fjiEo2PSR8vMNouTw1eAjavspyr0O26eV78mxyGZdyTgRVD/jRaR+0ob6fQnsDlog87W9KXgI/EP9DMY8jbRPYCisD9fAxfAw5aayVXsK8mgRHgw7wIGwJbQD2WbwXdAfAlwe+FZeyjT2obAYLoNZkJepv1hL2B6Ohy9AP2gNoenhdga8D4/Dg9R9je08CMcsHZXUCX4MP4OuEKdJt3+CfNeDrAUcDb+FOijFRlNZY7RZgeakgNaiHUHXUpKmNfhX8DdwkDhJpZuP73rNpeYz3NhH+jYeFQC0WYHmooDmu+5FSZuer5vCdD/Xc3iSpmfxBUk1ELzvqI3Xebd4ne01oHcKvacMB71bbQgjYSD0AY07/R2GpCYx9WkjmKR3o2BMTdKZJmy0nrZXQlNdD0049JKb1lr1RslemrGD1GKgl5udQItjNtOvsSlAE7fNxOEdsH0Rjvegzv5wcyOLyHuUuQAugQ6QjynY9A24HeohZQvZGQ+p/m7A/kUwBRQM0sUsXbtBb9Cim/7yqPyfgDT9K32fzzYM6ulwL1gXHoL/QV6LpHTA2sLxcCr0h2ym86188Xk4GV6BP8L9kS92G0w3kF/Dt0HaxGm6Yf4TfgqaDzJp9jX4A9RBukm7F2F96JWemeH4DtI+yZDuJCtQywpoDdqoDAO8mjYuBQevyiB2M2liDuPUOm8rXIH3qKJnl7yeGwp37xpWoCIV0LPkvDL0rGsZ2sjUhJ6LW2XKiDFNGs6N0V9OV0HwR23O5b1Da5feeTTWDqDne72jrAd6lhHaVxCpC7SEcltHGtwQ7it3w5XQns5Z9H6oe/QS0HmyFabA8xR/RFWCa6AwD828dOto/HVst25Ei2XkK0ATmwUXwZ04PQGGFuhcwSEFXZ6EKZnqBm3cSP4u8I1M5bKkbU76SHghyFfU9O3gWLttYHCEjvOxrhQ6C7YCvfi9yoKgBVxj2htOh8VwBeR1M4kWFC3mJ8JvoDPka7pZ6GagNj9Mq6Qg0XlwAMR981yKzytBWswEmfryNfgL9IF0U7kL4F74N/SCXDaZzNtVwAtFLpmcV4MKDGRM/RMe1xj8/xXW+l9VE27X7mtbgQUMTw/IvRMa5gr86plmSUL+m8LtfBrV88nf4K2m6IDbtAJNoUDwrK81I2lrqwb0zF3mZ8o2NNsl4cFpXZydcBtZ3Qd6rqLQQpgk0Pr5qJK07wnDYBTsAduDnnP07lAu26BcDVVwO7Po2yLokFAf9b49DbStBdOc1vv8i3AxfAy2IhVoHdXTQrBuIz4Wk7+gkTLFZr9Hxf/CD4pwsAN1ToCzWeBWBotfuisthL+BTWGL9Mwsx51IHwQvKD+4Qd7P4fdAC2Yp1p7Kh8Ge8A58Ar1hM1CAS0EXtdXoTTIKXqnovnA6FBK8Uj3pcxX8FrRgpGxXdv4MW6cSYtwuw9flcCboopbpBvQ1+Av0hXR7k4QzQPNlMORzw7qXcqPBZgWamwJavwpdCwrV6C4qjC20kstbgUYUmE++HpCTsnk41n38FWiVVCNl9KuHY41pDixRuzmeh5RtswK1qMDsMgxKz+dNYa1ptFPCDS/Ff33CbRTsPljL1L8pvPNMYfsMXA3rg94bvg4DoRym94920LDWlqPBCmxjBn1SXKBHQn37CL/fgMnQMqE2yul2BY3pXVf4txVKVF6LoWwTqNNODtNFqoBDrBYFhVbi9P/gCOhTYAOa1CfAU6C/4bTWQ1sQeHqfMqfDNdAPGjP1a1GGQq+Rdieo3TisDic7pDmawvEFsDAtPdfhMDLPBgXBCjEtEr+Ff8DiqGIbtl+Fc2FwlBbnRu1cCuqvLmZZC9BN6HxInwe68O+FX8JoyNdmUfBfsCK4AeZb1+WsQLUroABWap1PYixaHx+VY19fScjbrH0qGDM9QQUUtNID+HjP3QRVtmsrUF4FptGcnt31bpCUdcax1g89l5bT2tNYx4Qb1LorKtqCNVt/GP4NOvsm6B3hIhgFSVtPGugEzTmApXc3vWPpOTMJ07Or3k8/CM53Eu3YZxUqkFrgt6DvrRrpv24IIil7Gcf/K9K5gh0KhAzLVj+Y/PdR5hzIZ4GeSjkFvdJtOQl/h8npGTEdz8fP7+Ep+Qv6rsO1LPr6SgGnk2HrtQpkT1hF1kvwDbgcFoOsO5wFl8BgiNsW4vA8OAO0AMo0/74F54POZ2grObgRjoPRYUYe+/dT5oU8yrmIFahFBXozqBYJDkwBhnEJ+rfr5qvAMoae1D1WquplsJt2bFbACtSMAtMYSdKBpR60oWfuclsdDXZIuNF6/KeeyxNuKh730TuS3meegB/ApHg85/Sie0fHnCVqP3MBQ/w4wWFqrndJ0L9dV7ECLem7fpKwUR5jWEIZPVAmZfL9D5hZZAPbU+9c6KGAThTUWcNVsMhdTcafIBWwWaNccHAn+x8Ex2Ew6TXSrwUtmnGabr5nwhXQ6H9DH4xzN8p/A/K1pRT8FxwJj0BqHCPZV9s/h64Qt+nGeBYoQLcocq7g1XfhL9AnSgs3d3BwCkxVYmMBPZWJbDZbnevGznOqvLdWoCYUCNaFbgkPaCb+pyfcht03XwXeT3DoegEdmKB/u7YCVqD8CsygSb1YJ2l6Tm2XZANZfPckPemgiZ6b9ZxeVRa8F+gH/9eWofM6D00xB8owtLyb0DvchLxLF16wA1V8jy5ct2ZRQwEsLYhD8xitJlIiF2uw8DxLGwoaFWP6yuAIuBgGyUHwEqfDBovaUvBGwZLfwbyGjLX/eZKki2BFelbkYxXpV8Lr6flFHC+jzkT4JxwGl0AhfxBZgaYfQg/IxxQIOh1OgnFRBem3D/wb1Ac93MdterD4OUjXVFBJc+pk+C10h3SbTILypisjmCs6bB+h/Ux2P4lPKyOtXqayTrMCtaaA1nf9gCJJm4Pz1LWcZDv23TwV0P1J9+ukbEM5zvSskFSD9msFrECiCuhZUUGYJE3P2pmeVxNpM1ifBtBAp0Qa+czpx+xW5T09eM6/gzE0vDN8NqzY9/T+kcR7UuwdTcJhoPX7SfiPfCrusJ72g2sgyvKmWhXQuYxow7YDtEulFTKm1hQeBgpiNWYtKCCSND2o/h32h35FNKTxfA300xEFRd6VKMGFRtKnwQzSF7L7R5gIv4CR0ArmwH1wNnwAa9VXWmST2F4L54NeFvO15RSsB134r8BT8DKoL9IgV5vKbjCNLbKD2O6ROsixXUneC3AGPAo6lukl97vwMyhGd6o1agpEyf/N0PDH9qP+f5XjcyHbTfkl8t6E1ZoE496W5Gz9nUHe5bAYbFaguSrQIuGBL8B/ah1JuCm7by4K6J4drfMfMOZ66JPQ2EfhtyvMTci/3VoBK1BeBWbSnIIXwxJsthe+B8KEBNvI5FrvKYW8a2Ty0Via1twVjRWq8Hy9S42H3hXez7i6tyouR0X4eZc6es9qX0TdfKpsTSG9m1f7nMxnrDVZJnhnr2OAm8BWsBH0A33EonOrdft9yuqd/xWYBjl/C601BbTI6wGuMetIgaQmaENwIhqkOv9v+BEUY3ph2wuugRPgDfnNEsRaSv718CRsB53hXXgVFqTXIW21BQ/Y95D4Q8h1s9TiMgPeAgVjdHLegPEwB3KeJPJzWX8yvwftcxUibz7cAH+ASZCy9dg5Ew4HTaQkTJr+GO6T80A7HW4P2YJXyl8OK7WTZv04Pg7apKWnDm9l5xkd5DqPqcLeWgErUJQCuodozbVZgSQUmIzTiZBUAGtjfItnwZaMAnrhbpuMa3u1AmspsICUD2DbtXLiS+iCqw3h6fhcNupJz7qbNFqqtAJ61h5bmouKqD2XXkypiJ6UpxOtaEbPYk1h42hUwYbBCTWud8ShoHZsVaRAELgaSLcPga/AZtAVsr03LCLvPfgv/Bsf77Bt+OiF7RqmCT8C8pn4egCpg8QsCmysoIErYH8YWUJjO1D3MjgG3ssWxIr8K5AkijEFg16BYTkqP0XeqfAqLFS5UoMqwcQ4Gndby2cOG0Pe7+BmWByV0znfF86BUZBtMpFVkj1P7R+Ctunj7kjSUKXnsM3JWxcUmU0V68zO6bBTKiFtO5Hjy8H/TWmaMD60AjErUIe/fO4fMTdrd81EgdmM8y3YJqHx9sDvIfAc95dSfpCUUPfK4lbPXEmaXq66q4FMz2FJNmzfzVIB/dDz3YRHrudlrUlXl3Hd6Et7SQew5tOG3hfSn9WVVE2mObAk4Q6vwr/Ix5JeY9vTiS75dCSBMh/jcxwkFcAaiu/94K++f6BCFZjOU2Sal4fCj2EU6FlgJei5Tu/pn0T7ndj2g0HQBzaHzeAouAKuxOes9LhJSzIUHNBi3Ji1pUD/xgrFlP8ufv4OWoRKsR2p/FcYJieBqDqMy5biaHQOZ2PJOxmehoU6AeknIUfdjFnBOLaiwImgSZHJlpB4ExwG18NikPWEM+Fa2ALyOf8UK8g0Se+Bb8Lzqplh3Jqw6ysvh40g78egCS5bB86D74Lmb7qtIEFz57X0DB9bgWamgK7B1DWf1NDrcNw9Kef223wViO4XekF4EbRNyo7Ase6DST0jJNXvuPzOictRDj+6b9usQKIKBM+Yb9CQnn+TtG1x3ifJBuQ7eN4fxeFgpSVoU/A9MUH/5XLdgoZEkrYA5/nOsXlJdgTfrSHpuZFtCPPJeDlbZgzper89BppqfDEMoVm66MGofw+Xw1ag9xE9y50G+8Ne8GVQjOBw2DviRLb3w0IYBr+Bq2Gk1sJgPWwIAAwkIx9rS6FBKhg6yKdiIWWCG5ACLk8VUjdLWYkkAbpkyS86OejrRzjRyclk15H4mjKC8josygLt++PgXBiaxdEHpP8YjoO3ojIt2G4HN4AmUU9Iwpbi9B/wHRijBrKMfQuyNI5cpj4fAxfAb+EuOB40HzPZ8ySq7WxtZqrjNCtQaQp0pkMti+1UcL3NLdZHnvX6Ui7fe0ieLl3MCqyhgB56Zq6REu+Bnmt+Dt3idVvZ3oI1YnkZeropbbQvQztuwgpIgdEwPWEpRuJ/W7URPJcn1aSeBQ6ADkk1EPl9h+20hNsoh/tONNIr4Ybm4z/nDwiDNXZZwn3Re9JmaqMMc3H1UILxPUei3vuSMr0rngxtyzm+pAZTy36j89ODMZ4HPwC9y4yFU+BA+CM8z9yZCUtgOeg/rdO7yttwFRwG3wTNK619B8M1sBGsnuPKKOQiH0F5XSjlMN18/gSzY2hMYpwILROa/Cuz9HEy6bcrj5OjTUkW9b0tTraHK2CfDA61oP4HDoXLYB7IuoIm082wH7SGJEzt/QF+DJ+ogfSxB+dgN7LbqUwj1p58BeJOAy1kmreZTBfAn2FKpkynWYEqUmAQfdXCX6rNKNVBI/X10r+NygTXdSNVnG0FClLgPUq/U1CNwgt/mSqnQMP/hlN49aquofvm0oRHMAr/6yXcht1bgZQCH7KjIFaS1hHnR4CeyZO2DWhg36Qbwf9zkPRaUIZhfG4AjQxPuKFZ+F+QZxtz8ixXSrEdqdy/FAcl1H2ZuhNLqN9Y1RYU+C4oqJHUe3xjfXB+IwpE7wB6Xz8DvgWt4BHQOvlXmKp4QHpMgPQGC/Lmk3ArHA7XggLAO4He7/tCgymI0SPaz2ejRbQTyHlipkFEQjxII9fCj0tsTDeYn8E4uFW+swlYZDu9qNcyQ13dDN7PkF5QUvBiuC4VfwkHg9rURZ2yVey8BzrB/4bwHI3i+DT4ErSDpOwjHP8KboDG/v6UXny3gDjtRpzdK4cxn984+2hfViAfBXStbwJP5FM4Rxk9yC+H1jnKlJKlNeiLcB3MLcWR61qBLApoXj0Mn8+SH0eynhF+CkvhL9xzFzeje0h9NG5pkJQNxPFX4C20ba5/aywpbe13bQUWkvQM7L12Vqwp++PtC3BfAu8Vqfcg3bu/A0MhSZuD86fVQLWufcG7ks6J1pwkbQrOF+TZwEzKJfkcpm5sCAfAVUnMRTWQw/ScqettvRxlSs3qgoPfg3S8njGuqNZ5WqoQlVg/uPa+TP+Og1TwSmvXeOgOHYJyHDaYYhdar5dErH4+oKzm1Smg57LjYR84Gc4kb6UWxq6Qr61LwXXg3XwrFFtOE5MOLqP+hbATbAulWC8q/wGmwlMSsdTJLx+RDU7tBFudlMdBwhdtQRtaGK6EXTM4m0faTfAXCM+Nzu3X4Segc5ekvY7zX8ADsHoC5miwG3mDcuQXmvUmFc4HfZJYaF2XtwKFKKB1STfRJK0O57p2n2cNKGVO6wawCHTzT8p2xvF+cFMc62pSnbTf6lMgeg5Qx++D74Pu40lZRxyfBj3gPOaynhVKfk6Qj7gseB5oFflcoW2J97zpuNAa0Vm+ErTv4PtZ+J/XiQRVbuaugzXjMaSYA3rWTMr0UnY6vAMT45zXwbV+ML6/BUmbxvB2vo1E/WtB+dagdWil6pa4FslFqTYUB8dCao0s1V+2+u+T0TDmbAWC9E/YXw7SKilri2O97L8GL8U5F/HXmOn83w1HQrvGCpeQ35O6f4LecDljnCtfFTDn1I0GC65bnWvNj0q5Lj7tYLL/DsC95qCeJT6An8N4kBbnwl6guaJ1I2Wr2FkEeg55BfQe8TrbhvPK/hx2zwbFQPaAY0Bz7Vk57QD5Wj8KbgLv5lshhnKT8PFb+Af0KNHfCOpfAhLgNU20GCZ+Hb42g3SbTcILSoyhjS640cnfVf4C00RQG3+Ge2AJyFrANvBL0Itle0jKdHHeDz+Dt9VInuNdStF5Kh+DaRH7LbwXgy+7sAKNKaD5pgU3aTuSBrSg6ydq+j3xYtr7iErTQGtIUtYRx1pr3oB3YlpXk+qr/VanAppbz8CXEu6+5vIPYQs4Dx5lPpcSQMZFaabrCdM9vTvoGUY/zNsZdO/V88yzJV5zM/AxC3pDktYf53+Ds+EW+rxAjRWyrkVaqJpe1qRHG1DfF0JBvlTeVtMKvM7o3oKdEh6l/F8MP4BJJV6LDV0N5vm+JGgd0lxP2h6gAb23NGpR/3QNnghfhEnwHOi96gO2uibz+UE2xeKxqE998fZ72Doer1m9LCdndNbctTOmkKT3nfZrZ8WasiHeroIz4QE0KfjeFemoTqmvmnctQfeIjL60fkd1nqTM27AlJGk9cX4ObAd/hhdpv9jnY6qXbtH4pVMvWB+2hx1Bup0PNf1cHMyZgxnrFrAMLoKXQdYC1oGRsBKWwipQuu7hrUC2D3wFjodH5DeaX59w/HsYBXqO+Ba82Jp/CjE1pCCKHj4Sf1gILox7afMK+AVokpRio6h8Jehmo/86u9RxbIOfTSDdJpAwLj2xkONgUhxOvYPT6k7mWOMQU4K83uwfC98DTZgkbSHOr4bfwlQ1VMDD6EyKj4aNVa8E00VwDdwuHwW0r+I2K1CMAvOoNLuYigXW6UJ5Ldrrwb9YD7SeLALN+TbQFjpBHxgCuh6fhEXBdaCFfywMhyRtFM51wzoJxsawruLGZgVWK6B5fzPsA+1Wpyaz0wq3u8MWcB/cwHx+jq1eyhK/x0T3fT3YdQNd15vDdrA1jIA6SD0Hrc/+oTABirU5VJwI8pW0DaOBS+FwuA1eZrwfs10ES2AVyLS+6fm0LXSAntAfBoHWQ/VV2nSEp+DnMB1sViClQD07un53SiUktNW1eiDUwdnwJHO6sT+hQbG1Lbr2lVEHR8MvYCAkbTNo4F41Ejw7NNbmBhT4JfSLCn6T7Rz4AN4EXdtvs9Vzy0xYCIX4V/FGLdJM50Dr5LmwX6OVSi8gvd6Smzz1mkrRT6C36iRs0uF6eADuRJ/X2ar9xbAUVoH0CtdYraO9QGvsEND6OhL0DtkW7oSz8LUwx3jVhtb0LSFpa0cDh4Cu7TvgRvr2Ctt5kO85UdGiLJpzugd3h+EwCraHLWAYdIUWIBsAX4fZOqhh68bYDodW8DLcBKFp3sneh1OhHqRRB+gDX4wYwfZMeBVCzZ7k+F44GvaGjVrzT6H2eSpowdLFmLjpYmGyLKehC0AXxj4xNLo1Pv4BP4N78b8yx0WZsbloAnci8zugyZpuo0moT08s4rgXdb4NumBlc+EOuBh0gleCrC18AX4BO0NrSNI+xvnv4Goo6O+FROd0GfVegK9AKfY4lf8E+l8MSvHjulYgXwUWUXAibJNvhRLK1VH3x6Ab4FiYBrrmtfbUgdYHrT/dQNfUj0BfbLFpMPX1Rdjn08NE/90T79fBWfA4fSjqIb6RHrYgXyRt5Wgj6THUhP/ofqGx3Ae6Z+gZpBxWRyNHwoHwBjwCejl9h+10WAxFf2UQXKO6V+shrjcMhvVhC9gM9HDcE/RQmMk2J3EvuFL+irwHLqT+u7A3lMM60sj+oPZmg9Y06TkHVoCsM0iT1NrWKUprzzb92hxG2vOgXykpVgOq22pFgWDN+C9jOgEGJjw2zcld4Ca4A/7NXHyNreZ3zveLYB1oQ9kBsCt8E3aCdlAOe4JGXi+woQ0or7UpZVqjekRszfZbMB90fevZRevmaMar/Y9A17zWnqVQ0DoaaKY1YiQcBl+HoVAOG00j4wtoaBZlx8GmBdQppWgdlQ+HL8NMmAozYB6sBM3XLiD9tMaKzhFt2So/NF1DD8N9YWJqP7je/kOa5u56qbyEt33xfzwcCS+B+qgvksewleZLoOh7QjDPdG12gj4wBDaCUbApDIM6aAmZbDcSt4OM2mWqUKVpm9DvzaO+38FWcy6TzSVR643+F8KG/EjnOzi4AQ6ALUD+noSG80cZrRM3waEwCPZuzT+F2vpU2BFuK7RiseWji0OL3ZkwAoYX6yuotwH7V8OFcAXiaLLnNdEjsVtR/Dj4kuplsPdIW5EhvdCkbagwCpbB03Ah3A+LIWUay8lwJHRPJSa41ULxS3gECrrxpPVpDMealFowi7GJVDoDPi6msutYgSIV0JzV9V0ua0FDunGKXKbraD+4DhqCR9FapZvFfOgMSZr6uSPcCP+Fm2n/RbZaWwtaJ6J+U63hp4Tq9zqwIci/7kFJ2nKcr0yyAfsuSoGZ1PoH6GFQc71c1omGdohYxPYjGBsxnrmq42mgBzPlLwGZ9ldBB9C1oT53BM3nntAfBsJgGAYDoBeoPZXPx/QcomtCzzIFz9ngxePlqH5LtuUyPX/2jiilTWmwE/wdCtaglIZdt+IVeJse3g/fLlNPdf1+B46AMfAKvMsa8SHb6aA1YSnI2kMX6Au6/jeFUTAU2kC5TH36NyzOp8Hg3rwh5XP1U2uYxieGwz6g9XAhzIJpIF0awO8U9qfCHFCfhMqrXyugA0iz7jAENoYtYQvoC2qvXPYwDc0voLFllNVcOLiAOnEU1fnpF1GKP92zdoD7GnHyHvn/B2c1Ui7u7G443AO+ADovk+F9GAe6R3/MdgbMA80rXYOaW5qLuudpbsk0v7SvOdsbpN06oPk2FPpDL1C5fOdbR8puB/fp2kkFbTiuCQvWA12LdaBr+1FIBZ60m4/NptBLcAC0hW6QbsofC5vBLq3Tc/M41ok7DO6m4+X+6uVF2v0VXAqZBkdyQdaH0mfDbnAx6O9daEJnnGTBiepOkRPgZyA90m0VCTOVWOxkDdraGTcT4G9wEzT4ZSvrCV+Hk2A9yPeComhRpov+FtA50MJQ9PhUF1sMy0GTtVCbT4Vz4WlVLFZn1bVZgXwVSHvh0/VQzNzNt7liyg2nktbGGUHlV9h/C7YP0pLc7YXzY+Ar8C68APrJ6yS2U2Eu6LoPrSUHenCoA63LelBYB9aFodF+D7ZtIGmbQwN64LRViALBdXcnXToK9miirmmOjohQF3SvXwGaz3owFktApn3lq47uzVortC9aQyvQvC/V9DDXHcJng0J9ao2YCv0LrVgh5UfSj65QXyH9cTeaWIFozdB1eR0cBD3L2KUutLV1hNYA9UPrxBLQc4PWA7076H6mdUAorSlMz9APqeECnqO1lm2qOgWaxtgpYhDbraL6qXU0pVFqLVW63hOUrnVTmuk6135TafYJbd8LeekV3Luepcp86Ky6VWgb0ufWPMdl/HtTwThvoJye/TZqgjFqfnUB9VXIUtefrsGFoLml5zula1/3YM0rmbYiNb90n47jutwCP+1gCdSqpc73hwzwgyIG2Y060kk2ByY17K35zywO34HNYH2dHJ3IQl8K9qTOlvCcAi0FLHpUKc6Ci+NmPKwHp0Oh/c7UuHzsDTvA43A7aFwfs9Vio0mvhVKLTn9QuaPg89AWMlkLEhvyStRH7T4C18A4SFkHdvaBH8GOEIcOuMlp08n9M1wOc2OWKHE0AABS8ElEQVQ65x3xVUzfdTO7DLRQlmX+qR2bFQgUeIN9rRFDg7RK2NUatQ7MCDozk32ta9uB1qZymdbMrSNWsl0asYjtEghN9yKtB9pq7dS6UM6+0txqq2dPa4yt8hSYRZfOhy2gRwV0T3NUc1bowbc7lNuG0OAw0HVerI2l4svwxWIdNHG9QbQ/AOqbuB9uvvIUeJYu3QLHN1HXtEbofia0RlSSzaMzf4PZBXaqjvIjC6yTq3i4jrajYNdchZs47wHaf7uIPrxOnTGwVRF1K6GKznd30LtgLhtH5iVwIehcNrWF15/enZvCNqLRPvBhUzRehjZb0kbfqJ1P2NZH+5k2urZ3gzmKj2Cqq3v3gbAvyO6Cdxv21vxnGYcTo6R+qlgfHRSy6U3hY0APbWWzKGiynAYvgH/Bqhgb74IvPbxdAQ/BvfAfuDHa3sNW6crfA9pCLtuRzPa5CuSRt4IyD8O4qKz0lt+r4XrYFdpAkiaNX4FvwF8gruAVrhp+FaiY/t9C3T9Aub8AVJ9tVkAKaBF9rgKlqKNPw1L9CgLNt5M2NpXeBFvda7Qe6ualG93gNHQDq4POoLW1BTSVTVbDgXZN1Q+3GygQnI8HSP4H6N5k+/S62bREIRZT/7+wokQ/TVW9Bw0Pb6rG3W5lKhCtGXrpuQQUPLCtqcBtHN6npGB9XbNE5qNBJPfPnFXTqTMZne49xfx9TwV+dO+qVtMz2sBcnQ/mkN7P78xVtpnlSbv1a3jMembvFI1vAduVOca6Hnk3gObHHaA16Co4BFTvZvgNrPF+H8ytJeTJuuilYlbDbuH/fJkqO6laFEUr3EPxNeZS9UxIYjFQkEgL8w5wMBwJqbHq4s034LI3ZfeFovTRyQpOWAvcbAzng15EvwpdIGnTQ+31cDjoJrci6BOHxVk0XzpQ+/NFeHiSOqdCsfO2iCZdxQqspcAyUu6CpWvlNG2CbiQbqAtp6/L7JF0HukHYsiug8/pe9mznNKUC0f1nOX3QvfCxpuxLBbXdir5spf6kXfN5dTG4p/+PCu/mVanyCrWjS3pGKkqDyhuOexSzAm/j78+wKGa/1exOmvwR9JxfqI2gQl2hlWqgvF6uny5hHHp/+6SE+k1ZtY7G11MH8rjPzKPYuaA5Zvs0uDOqhoXQc3NqHdG9WLGlbKbnN72/z4ZV0BFU/kk4Go6DD4PnEg7XmHOK0cgWqtK0ht3C/+lNlR9D18KrFl9Dg4oGNhkvp8CLxXsrquYKaulkSfhc1o3MX8MmKpTHBa9iq03lQYGr4XAO/Be+D32gHPYhjfwU1OY4NZg+oZRWqAU6bEHd7Qus/yblfwjjVS+O/siPzQoUokAw7x6i3iuF1C1T2Q1oR2t7gwX9vZaEFz5N9b9ZFJhO+pgseU6uHAU+piv6Qcb7ldOlJu3J5rRe6rOY7vk3wqomHUnxjW9E1VbFV3fNWlQguP/9i/FdD9U6v+M8PbNxdja8I6eBRjrMasHz+6YUSr1IZi1fYxkKxlwEBX99Fej7KvX/W6W6tKHfWmNzWjDWtyh4OhQbY8jZThVmbkmfWwXXUBUOIWuXFReZEeX2Zdspa8lPn6+/TP5uoO3/oAUMgmUwF7KZ7u8DosxpesmZlK1kHun7UuYbKtdEJ2U0Tf8AGhZh9SNhm4L/n8GRcAY8Dgshm21OxiUwUgXy0UhlonLDqKIH9LvhNNCxTnLStpwG7ocj4FKYrwUpWJRIKtk64uEk6FWAp3GUPRl0A4i7P3JpswKFKjCdCv8ALbqVZFpvumTo0Eek/R5mZchz0qcKvMlmgsWoXAWCe9Hz9PInMLlye1u2ng2npcHFthZoeh0+XirWTxPXU+A+07rXxN1y8xWiwCL6cQ7o+bY522IG/0e4TSIE174O87G2FNoon4I1VGYOY/kNjCl2TJHOer+6DCYU66eJ621C+60a60Mwp+6i7JlQ31idZpC/MWPsWcPjfC8a2zpsB+UYp9afD2AsPAQnwuMwFC6EHSCbdSVD93nZBwpgvQsrdVSEtaPOT2FH1c0nQKNycVhwgTyPv+/B+3H4zeFDop8FF4AW/t/BQfBNeAKWQybbjcSrYAtlZtMoLXB1GkXvBd1sdbJ0nsph02lE4/o6PAurAp05LM2CsR+Fp4ML8DaRsj+Ex1Qnzj7Jn80KFKpAMAdvpe5jhdZPuPxA/PcJ2wj6ew/p58PSMN/7DQpoDb8dFliPylYgmM//pac/gOYexOqFBhvGcNak43mgF7ZqM617wmYF1lAgWC8+JuNHoOfb5mi6718Il0CxfxKkB3VTL5Hs1rylNLtFIw3mUrEDf5WK0r8an8FG0O+e+Qw80mkVZa+G06AemrMNZvDDa1iAlxnbfOgLO2qcwTu/DrPZJDJ+DZ/AUDgbemepuyl564Pm1TMKjIwGBWeKtSFUVNBD27JasJA8SsPfAwU6krIXcPwfOVe7Udt6yNOidhicDpMhk32exL+BhF/DosCVzsNIOAPuhXNBN4hWUA5TAPNpOBrOgRnBGDks3YLJuA/efgWd8vT6EeV+APeofHDOdWizAk2mQDQXZ9IBrX8fN1lH1m64F0nD0pOj/q4g/SK4Apall2nmxy8y/julgdeZyp8JwTm6g95+D8ZWfq8T62EbPG8l78G9tqDGAj11DVwKywty0PSFte6t2/TdcA8qUYFgfo+hfyfAE5XYzwT7pPc8/fDqt7Aw0KPQJvUi3qfQSlVaXs9Il8FfYHkJmjUMP6h/FQk3NSRW1z/r0N3++XY5Gq+eOa+En8PUfOvWYLlujGkzjavYe3QlahLM6dfpn9bWFnAIdIWcFtTVWnxtVPgLbI/VfkqnaNuSJPmtg2lwvxLegxlQiu1K5d9DTzWUarQUh/nWDQR4kDrfh7H51i2w3BuUrw/rqO2o/emk/wkOBwXTVoFMWwl9I0ifj6HBIp300LkFKO9/cA4ocKXzUi7TC3iq7/ezX+xPZbL2N5gP+1DoYtAimI9NpNAP4W4VDs61Dm1WoFIUeIyO6KFwfoV0qAP9GJmpL9E1pH6eCVfA0kzlmmGa7oF/gE+a4dirdsjBPeEuBnE0PAErq3ZApXV8ONVbl+Ii0nMZPvRMcAPo5aNarC0d3bhaOut+ll+BYL14g9b1knQnVNMcL1a0eir+Bs6Fhj8LwrZYG0jFumIrV1G9xfT1r6BnpXnB3ClpCJGfuTg5He4ryVn5KysosX4hzUbjXU6dq+E7oGuvOZoCO7pH16pNZ2BaT2U7wf4Ne438E80PPbNdCW9BKzgJtoYwnjSKw0OUhj0OL7fkn0kwDkq1I3CgF4DupToqtH6wsNxN3ePhvUJ95FG+fbYyUfsKVj0LR8P/gU7EH+GL8C34L8wDnZBObPaAy+Ae+BmsC5rg5bIVNPQ0qL9nwMcaR6AlSaVbFLzSg+UxcBVkfLHO0NJE0r4Ht0Ksv8qYoS0nWYGiFAiul6txoOt9YVGO4q+0kVwGwePVLUR9nkPCaXAuzFqd2Tx3NP6zQPeP2NdA+bQlp0BwDT5HK0fB32Buci1WrOfJ9EwvCiVZpOdsnPwcroeSfZbUocIqDyisuEs3NwWC9WIsYz8O/gK1vF68y/hOhPOglC+vqN5gek8RtWzTGdyv4AyILXiVJtiHHP8A/gd6f6wG07tcwWtsdM0pSKFnrCPgRlgMzcl0jnXOa86CNfXfDO496Ag/hWGQstSakdqm0lPbD9i5HJbBIPgldAGZtvKn9DlwHSxuyT9auF+GUk2+vgV/gWy/v0hWMhYI+Agt6Kb0eswtbY2//tl8qv2oDx9R5gewN5wGL8JSkKn+0XAT3ArfBqVlO6FkJWJanP8Ah4MWz5I/jcXHGqYX5+jleTAZf4KLYJ01CmU/GEPWd+EeFQnOrQ5tVqCiFIjm5xI69Wc4G+qhqW1dOqCbSEaL+jyPTK0Dx8BLoAeM5mR6oHgbjocrYKXXGlSoQtN5i87dZLr/M/gGPAXLoTnYqwzyWg00jjkc+ZiBu5/AeTAHqsFWVEMn3cemVSBYL/QsfCboHvg81NL8mc94roND4d9Q8P+eR51MNo5EvefUoun8PwNHw/kQR8APN2tasEaPJec4uAYWr1mqYo+KukaCMb/LyPR+dxK8Ac3huVPPmg/CHRDLPVp+KtDep0+XwTLYCs6F7qA5czdcCjfBGnM9mBvK+w38FXRt9IRWcDIcCrL/wMPaUdBJ9iSs4bAhtfB/WlPlG6ABDA+CGIV7KqJGIMITVNcN6aki3GSrsjEZhygz01cNqUrqA8zmeApo0raHreFcuBeuhAOgG7SActoyGnsAjoCzIMmvrrrg/2twK3wfdJyPvUQhnTv1s5YvdA3PViMKRGuP1tDz4QR4B3T9V6xFfV5OB+8C3RzOg4+h1k0PTBPhL/BluAVi/9VpfMZp5b5XxNn3svmK5vQSGrwTNKd/Cq+B5nmtmdabN+APcBS8DrFZpOVsHP4ajoEXYAVUqkmPFyu1czXWL61HoqotmuNLGcRtoOf7M2EM6B5Rrabr4GE4Gk6A0RpnNFYOS7Y38fBDeALml+ytMhzoWe0D+DUcBvdDos8EwTlRMFB6indBfalUm0nHir7PBGPWvPkHHATnwPtQzdcc3c9oGudzcDocCx/GeB3irnIsGJfO661RzxRruBAGwFXwPcr9GRYE5Un+9F2fNP397XPgByT9EmbAL6L9tmxfBr2nLFH91uzIlDgONtZBidaK+npwHASnwmMEfMr2k20NKgowvUrb3wINVheJ+lWKtaHyT+B5eEltqK10i9puSfpA2BUOhs9Db2jKG/542r8EroNZkLH/Si/GonGramfQuI+HPaAj5GOrKKSbximgl/9Y+yd/VWgL6LPIV8Nih6iXu/nFVna9TxWI1h5peRPoJq+5fCj0gHLaEhpTsHxhY42m1jCu30mUPQNugWPgQFgHWkItmM7LTHgDtM5InzEQx71JvldAkrYU5+V6wJtLW8ugXYID0nqTiGbBnJ5GGxeB5rTm8xGwFXSGFlBtpnukrulx8BQ8AM/DVEjk1+yjNU1z4faoraPZfh3WBz0TNbVJk8UwHq6HOyFfk5ZLoEO+FYosp3Z0TdWS6fqVduWwRUk2EqwXH9POH+AmOBK0XmwAbaEabA6dfAZugP9BPcT6HB2tB7oPaT14DLaGPWEn0JrQHVpBtZjuQR/Af0C6jYFE1lL8ZrRIUz3n/x0ehWPhMBgKlaCl1lj17z24DJ6Fkiy45ibg6Bz4FxwKh8Am0BGq0aSV1npp9Rg8CC9Dqe/c0/GRpC3Hua6FOEzr0KnQA/YGPS8Mg9/Do7xrLE6df47XsiCGshmZPwVdC+1gLJwC70ODtYgKt+Dor3DSp8mx/fsJni6Eq2AmxLqYyl8ui8bWizJnwnHQIVf5HHnLyJsCr8PF8BCsHkvUjpLU1tZwAOwBI6ANNKXpYroNLoA31JFck0f5hVgwfwZQT2PWjf/z0BnytSUUvAF+BVPi7F++Hai0cpGuWsQvg69DywT7+DS+vwaTrH08KkfnTw++O8G3YS/oA1prkzDdOBfBaLgeroG1fspBWk6L+t2KQuvDF0Fr2abQDZKcg7iP1ZbjbQ5MAK3bz8BLMBYWQCzrYKDX73D5Y0hivZ+H3x+Bzmks/ZafTBaNpzt5autLkMQ513OBron/lWO9icZEcw1zeBu2+8NusB50ghZQiaZreilMhTGgOfw0vAHTIY7gK27ys0DHdaixNxwI20IfaA3lsHRNXqDRZ+E1+BjyevmMxqJ+Xw97Q1JzQP29E46B+nLMd9pJ1CLt9Cx9Aeg6TmLNS43hHXb0bPJaubQL5vkA2t0dDoIdoS+Ua57TVF62iFLvwyNwF+h6WACJ3ifkXxZo1Y1DradbwjawOQyB7iDNWkCl2Eo6Ug+vwH/hHvgA8lo7KJeYRXq2pIF1YX/4IoyCnqD0ctgqGlkMWk91/T0X8SbbaRD73ArmUS/c7wQHwM4wFNpDJc0furPaQq3eIvUZeBZGwywoeU5F2myFr+thI4jbNIZb4ViYW+o6G5xLzeG/gJ4TWkE9/A9uhBdhBiyHlGl+18EmcDAcBoNA9jKcAk/oINXHhkkRNbgP6bdAZxWI0Zbh63E4Hx6Bhk+/2JbForHpZnscnAZ982h4JWXqYRxIaE1KbSfCEkiZ9OsJm8GeEZpgHaFBW7ZNZZoYWnj+AvdBzqgn+XlZMDk1IfvAFrBXxHps20IhNovCf4K/Qqn/O0oh7VZ02UDn3nT0YBiWUIen4/e/MFb+UwuD9m2lKRCcw3Z42hj2gy/ABqDz2hqKXSdSN06dP61Tz8Nj8AooraRzGfS9K642hJ0iNI4BoPtEsX2naqy2Em8LQOOeAK/Dq6CHiPFQDypTkiaqn8kirerIOxB0buPUZQX+XoAHIPF7Z3DedY6/BIMhTtP98zF4ChL9FQ38r2XR+HR+dP1tCjvANqDz1h86gR6kym26nnXProep8B68AZrLmseTYSEkMoflN18L5kh76gyHbWF7kJ6DoCdozStFR+mxDObBbJgC42AMSI93QJosgoI1CcYwhOqa5zr3SZj6eCd8JOe1cn+N9KtjSAdC3GseLhtsPv/eC6/pqNzaBXOkLc1rnu8Iu8Io0LrYBUqZ41Qv2LRGzICx8Bw8Di+B1oySX5bxUbQFekmTOlgHNDc2gfVBGvaFHtAeyqXdStpaCB/DaHgq4m22mmNln1tqM5cFWnam3EjYHrYFPX8NBGnYFnQvK9aki9bYOaA1VmuU1th34S3QPWgKLIGyaBSMuxVN9oNRsANsDdJB86cDlDJuqhdlq6glvWaBdHkHpNNr0f7HbJdCrFoFmug6OgC6qY0YTef9DojtHhX0uRd+vwffhQEgWwgfgPSbCJp7nUD5G4POc1fQOZ4L/4E/wvuwhrYNkyBqTKLcCnuoUAJWj8974Sp4BhJ/GKeNBovGp8VyL/gtbAnhBbCcY03KSfAGvACvwlioh4afdEZ+WnOsC0s+doNdQIJ3htAnh01iq2h1PFwB18FUWOOk67hQCzTUBNsZtgMtKsOg2AVFF/8ZcDeU/WWGNm1WoCwKRNeP2tI6MRjWB11L60Jf6AlatNuBrmGZ1pNlMB8WwhyYCVNgAuhhYyJ8DMpP5AE26Htb2ugNehDdCDYAXf+DQP3vCFoLNIbWEJctx9FiWBRRz3Ya6IarNXssfACTYTokpgW+bTWiQDCvNV/7gOby+qB5PRTWAaXrmtW8Fi2hWNN1vQQ0jxfAbNAc/hA0h9+HCaC0elgKJd+75SNJC54NpNMAkG5aE7TVs1IddIH2IP20Ly3mRdsV0b40mQszYCpIh09A17q0km4qW/GaqI+22lIgmue6r+leNxw2itC+5npv6BShe2ULKMZWUklzXfcxXQ+6BibBe/A2vAu67zdcP+UO7NFu3hassW2o1Bn6Qn8YEjEoOlZ6D+gIWifaQUrDfHTUuhCurTM51vPAeBgNY2AsaC1ZClW1hkQ6tqLbekYcCJpv0k7bPlAHXUCaaY5K6+UwH2TLQPtCc2o6aF59HG2lSz0sBs2/itAnmD8d6FI/0LW2foTmkMbfC3Tdae5o3rSEYk1j1zxaCAtA8+gj0PX3PoyFCTAF5oA0rgit1I9Ks+j86XxsBd+G/UHnLNc5WkX+DHgMrom2GT/AaVgYgklyLIUvAy02SdlsHD8AN8JToAmS+AQIxjiC5k6DTWECvANvw7vwIdRDGLCSRnUwHLaBnWErGAy6qCrJpOXN8DcYDSW/0Aa6DcTfCfAtGAC5JiDZOW0ZuXfBr0D9TPz8qw2bFagkBaJrS+tLe2gHbSH9utINVTdJsTSirL86RJtrWbAuqN96eOgKPaEOugTbbuyrjLapsWndVB3ZXNC4UqZx6sFAa4S286Kt9utB9w+lLYqQPl4/JIKtZAWCea1rsSNoXusBuQfUQXfQXO4Mmuea29lMc7MeNFc1fzV366PtjGh/IVvll3yvxkdFWaBlKzqmZ0ptW0T7q9jqGpel9nXt15wODSP0PzWnQDC/tQbofqa1oTeEa0Udx6l1RHM/k+k60H1wAdTDrGir5/npoDytE7o+auZeF+knTfT8k3omqGNf66vWVmkqbXWcWjdS+1pbpYu0kzba13PBbJBu9SA9FYyoGc00ltCCOZhpjZVGDXOGrfal1Qqo6jU2GHPqutOcCO/RdRwLXXfKaw3ZTPrMAc2hetD80bGuwRnRvvIWQ83OI40tSYvOmc7DCNgZtofhoPVS6ZqX0n0ivAhPwFuQU/cWFGiwqAE5uxN2+DQ10X/10PYG3AsPwmjQABKdJNE4tWBqcqu9hi9/gouiDWma9BJ3U9gKtgAJ3x1aQqWZFmppeDE8BbH8d7mRJloYd4ezQZOu1PF/jI8L4e8wp5J/ekT/bFbACsSoQLDOruHV68AacvjAClgBK2AFrIAVsAJWwArUjALRO0ALBtQJOoNiCqtAMaF5kPdvY8lJgwUvFt8i4XJQdLMcpo7XgwJYz8Jz0f5ktgrMKHIca1ArEFBj7A79QAGrDUFBq5EwGBTIKjVgg4vEbCmepdff4B6QXiVrFcyFLrg7AX4CfaEUU6T7UTgXFGSr6p8C0H+bFbACVsAKWAErYAWsgBWwAlbAClgBK1AmBVYHsNReFLhQ0OYGOFBpZTYFs5aBPt0bD+9FTGCrgJbS58NCUPBGn4eugHRrRYKCU22hPXQEBWP6gIJV68AQGAoDQGldoTWsoQnHlWga8xtwOdwKM6HkwJV8BMGroRyeA4eDtCzFPqSygmxXg85hLH2VH5sVsAJWwApYAStgBayAFbACVsAKWAErUPsKrBWsiQIYuzD0m0CBnaY2BbWWw2JQ4Koe5kb7+uJIwZx0UyBKQasO0Bm6RccKxAgFuKrR9DXaO6BA0M3wEcQWDAqCVzvi9k+wA6w1R0jL1xRsvBv+DK9Ck//tHvpgswJWwApYAStgBayAFbACVsAKWAErYAWqTAEFejLZUyT+FX4N2cqQVRZTAKVNRBe2fcvSamU1osDVGNCXcTfCBIgtcCVfUfBKv5P6NTgNhkKxpq/onoeL4R5Y6L9xgwo2K2AFrIAVsAJWwApYAStgBayAFbACVqAoBTJ+XRMFM3rgUV/6HFyUZ1eKQwF9XfYerBW4is6Rgos9Qb+Wl/cfPqNsgwVfXOlXLbeFk+GLoC/XijH1dzT8HW6C6RBroE3+bFbAClgBK2AFrIAVsAJWwApYAStgBaxA81IgVwBLSmwE/4JRYCufAvqC6S1Q4Oo2mAgNgaAo6NSSw/XhO7AH3AI6TyqX89f0gqCVzr2CXwpcHQH7Qy8oxhS4egeuBwWuJoEDVxLBZgWsgBWwAlbAClgBK2AFrIAVsAJWwAqUrEDGAJa8BoGOL3CoL7GGgi1ZBfR3vl6Cf8JdMAUyBa6OJvlI0B+ibwkKIH0Aj8NTMAamwUJQMEzWFjpBXxgBW8GOsAEovRhLBdr+j8o3gwNXxajoOlbAClgBK2AFrIAVsAJWwApYAStgBaxATgWyBrBUKwhiHcrhJdBf6bbYFajH45OgwNVDMAtyBa6Gkp3t3C0nbwHMhTmgoJisI+iP2XeJ9luzLdbmUfEFuBHuhdWBNvZtVsAKWAErYAWsgBWwAlbAClgBK2AFrIAViFWBbEGQ1Y0EQayvkHghDFid6Z1SFFhJ5clwH/wbngd9MRUGrlpxuCF8DY6EodDoOaNMEqbA2IfwINwKz4GCZP5VQYlgswJWwApYAStgBayAFbACVsAKWAErYAUSUyCvYEgUxFLZ/eF8GJlYj2rf8SKG+CbcDnfCe7D6D7AHAUNpfBIcAutAXueKcnGagmxT4SW4Gx6B8bC6v+zbrIAVsAJWwApYAStgBayAFbACVsAKWAErkKgCeQdFgsDKDvToT7Aj5F0/0VFUvnMFgj6BR+E2eAJmQPi1lQ71t6iGwMZwCmwP5TZ9aaVfCXwVHoLH4H1YDP7aSiLYrIAVsAJWwApYAStgBayAFbACVsAKWIGyKlBQACoIYinIchYcCR3K2uPqamwe3X0d/gv/gzGw9LdHPMZmjb8x1pvDveCrsB10hXZQDlNwbRaMg1fgKXgZJoKDVohgswJWwApYAStgBayAFbACVsAKWAErYAWaVoGCAliprkaBLH0tdBT8FNZL5XnbEPRRoEpfL+kPnCsoVA+rv14KAoH9SD4CjobNoA0kafq6agFMhw9gNOhLq7dgPMyBlakAG/s2K2AFrIAVsAJWwApYAStgBayAFbACVsAKNLkCRQWw1OsgCLMxhz+Cw6AOmqMtYtD6gkm/GvgAPA9TYVWmYFCgXX/K7ATDYXBEb7bdoRt0gNYRLdm2gky2ksQVEQpS6cupuTAbZsBHoACVmAAfgtLV79WBNe3brIAVsAJWwApYAStgBayAFbACVsAKWAErUGkKFB3ASg0kCsa05Xh3+H607ZTKr9HtKsalL5neh6fgYXgRPoGCv2AKAlptqC/tukDnaFsXbZXeEdR2aDqHCkSpP/NBgas50fE8tmIZZAymkW6zAlbAClgBK2AFrIAVsAJWwApYAStgBaxARStQcgBLowsCMAq67AHfgN2gB9SKLWcg00G/dqeg1ZPwBswAB4cQwWYFrIAVsAJWwApYAStgBayAFbACVsAKWIEkFIglgJXqWBDI0q++bQWHwj4wHPSVVjWZfiVvNujX7l6Gp+FVmAD62sm/eicRbFbAClgBK2AFrIAVsAJWwApYAStgBayAFUhYgVgDWGFfo2BWS9IGwE6gQNb2MAQU4EqsbXwXaquooF/Dmwn64+ZvwkvRdgLbeij4VwOpY7MCVsAKWAErYAWsgBWwAlbAClgBK2AFrIAVKFGBsgSRomBWK/qq/3VvU9gBtoT1QWn6207KT9oUqNLfg1KwSr8OOBnGwtvwbrQ/le088BdWEsFmBayAFbACVsAKWAErYAWsgBWwAlbACliBJlagLAGscIzBrxm2I70v6H/f2wCGwzBYB3pCV+gM7UFfcqmv2mYyBaZWQipAtZD91B81n83+J/ARfAgTI6axVRBLwSzVc8BKItisgBWwAlbAClgBK2AFrIAVsAJWwApYAStQYQqUPYCVafxBUKsN+QpsKXhVB92gU7TVV1pdIJMpCKWAldDXU/rf+LSdG+0vZasvrxykkgg2K2AFrIAVsAJWwApYAStgBayAFbACVsAKWAErYAWsgBWwAlbAClgBK2AFrIAVsAJWwApYAStgBayAFbACVsAKWAErYAWsgBWwAlbAClgBK2AFrIAVsAJWwApYAStgBayAFbACVsAKWAErYAWsgBWwAlbAClgBK2AFrIAVsAJWwApYAStgBayAFbACVsAKWAErYAWsgBWwAlbAClgBK2AFrIAVsAJWwApYAStgBayAFbACVsAKWAErYAWsgBWwAlbAClgBK2AFrIAVsAJWwApYAStgBayAFbACVsAKWAErYAWsgBWwAlbAClgBK2AFrIAVsAJWwApYAStgBayAFbACVsAKWAErYAWsgBWwAlbAClgBK2AFrIAVsAJWwApYAStgBayAFbACVsAKWAErYAWsgBWwAlbAClgBK2AFrIAVsAJWwApYAStgBayAFbACVsAKWAErYAWsgBWwAlbAClgBK2AFrIAVsAJWwApYAStgBayAFbACVsAKWAErYAWsgBWwAlbAClgBK2AFrIAVsAJWwApYAStgBayAFbACVsAKWAErYAWsgBWwAlbAClgBK2AFrIAVsAJWwApYAStgBayAFbACVsAKWAErYAWsgBWwAlbAClgBK2AFrIAVsAJWoJYUaFFLg/FYrIAVsAJWwApYAStgBayAFbACVsAKWAErYAXWVOD0m3ZTQlvopJ0MtoS0hUr/7RGPaVM2i/qm+FQXaJWh4VWkzWudIcNJVsAKWAErYAWsgBWwAlbAClgBK2AFrIAVsAK1pcD+DOc3oIBQaAoa3QxnQ3peWC7J/c44vxY2gBWQMgW2ZsDJDmClJPHWClgBK2AFrIAVsAJWwApYAStgBayAFbACtatAd4a2cZbhDSRdwaKmCmApiDYcNoR0m0pCRwew0mXxsRWwAlbAClgBK2AFrEDNKhD9moJ+RWFLaJNhoPoVipdhYam/QhG11Qdfm4JeCkLT8Vx4CVaU2lbo2PuVoUB0/rvSG821TO9dmgOT4R0o+Vd2ovb64moTSJ9vakJpY2G8DjznpELzsGhuKCiwDqQHJzQvPoa3oah5Efmvo/ooyDTXF5GutW5JMfMu8k/1z60PgyHTGGK7ltRQM7Z0bStJilWZJlclddB9sQJWwApYAStgBayAFbACcSswAoc3QA8IH9ZbcvwRfBHegzhsB5yorfSAgn7S/CrsC/PAVpsK6O/NnAmaByvShqg5oJf6r8DUtLyCDqMXfM2xH8MPYGWaA+XVw9EwHmzNT4EDGfJZkD43NA8fhcNhARRre1LxSkiPMWjuzYZD4QUo1nQtnQsax/I0J1q7z4aGYHBang9rSAGdaJsVsAJWwApYAStgBayAFWhOCuiFTX/EVnQO6BilxfmMnGorbEf7HSL0cmerXQVmMLR/guZUpjmgwNZh8LngKxMdFmObUemroHmc3pbm+iPwDBT1lY3q2apagdei3qfPDa1Fm8I6UX5Bm2De7krFOkj3r7kn39tBKdaXyprj7SG9Dfl9Q//YaluB9OhobY/Wo7MCVsAKWAErYAWsgBWwAo0rsKrxIi5RiQpEL9P6UqNL0D+dz7mwvJhfXwr8FLSrtqL+3EHFr8GeGRzofexYuAP09V/BFrWhQOlxMDiLg09IvwyK+hWuLD6dXF0K6OukD2H9DN1WcEh/OHtMhrx8krpTaJtGCu5M/mXM12KvQ/VbgbBMNpnE0coo5zWeqSNOS1aBOH+6lGxP7d0KWAErYAWsgBWwAlbAClgBK5BFgSiQo9zD4EF4INrewnYkNJXp16cug2y/nqWvSg5X54Ix6LBRC8qPovCXc1T4N3nP58h3Vu0roCBmtq+UFPTdWhIEc0qH+Zqur/UaKbwl+QMbKbNWdtAf9U9fc2Wyt0jU+Gw1roADWDV+gj08K2AFrIAVsAJWwApYASvQjBTQi/ihsAXohVlbBYiyvfiSlZwFX4PcTysKqmUyfT11LAzLlJlHWhvKHA8DspQdT/o1sDLoT5aiTq5hBZYxtmdzjE8BIv36aTG2PZV6NFJRX09trjJBUKqRKquzVwfYVqesufMch0s9v9cUpRaPHMCqxbPqMVkBK2AFrIAVsAJWwApYgeapwHCG3divMpVVmeilWl9fXQr1WRrfiPQjlZfvy31QbluqHaS6GWwVadfCmxnynNRMFAgCOy8x5DlZhr0h6f2z5GVMjuagAqg7ZSywZmJ7Dj+/ZlLeR70oqWskk80j8YVMGU6rPQUcwKq9c+oRWQErYAWsgBWwAlbACliBZqVAEMzZjYEPqNDBP06/7szStxakfwPWy5KfLbkdGd+BPlkKKHB1vfKCIEaWok5uBgqMYYwTsoyzL+kNQaLgespSdI1kBb1GrZGS/WAHsrplz86aM5KcbH//ahJ572Wt6YyaUsABrJo6nR6MFbACVsAKWAErYAWsgBVotgroC4/9oFWlKRAFj5bSryvgkyz924D0o5VXQABBX75k+/pqOXlXwgSwWQEpMANezSKFrp8tsuStlRzMUf2KbrbgUnq99UkoNEgrH1tB+B8zKC1lr7EzPXXgbW0r4ABWbZ9fj84KWAErYAWsgBWwAlbACjQXBfSVhv6OTyXbC3Tu5hwd/Bp5Gyo/CBCsVTzKU8BBX191X6vApwnPs2loy19fZVGo+SWvZMjPgbaZbBsS9VVfIaYgaoe0CvI/C9Lb6Una9iqba34rXxaVac2u+pXJ9CuymucK1tqagQKaDDYrYAWsgBWwAlbAClgBK2AFqlyB6GVPv4rWGXpBP6iD1A+tV7A/E6aAvsRYDIn8alnwctqWJhRg0a8nqU/hi65eOutBX0/oZXcuNLzwFhJwCdrai/pqJ5PpvaclZXN9nSV9EvtD5xoT7auNq+BLMBTSbTgJ34afg17Oc9nuZB6QpYDO7aUwrRAts/hKBRJSc6s35TS3ukGicys6t2pX5y+TSSPNo4LmceRXfc82HzQPVzSmXeRHzctPSgsdy7L2LaqnQNEAGAKdQKb5MRvGQH1j7VMmb4vmn8q/BGqjpw7SbEOO+8OEtPRsh13I2C5D5jzSHoRDINRF53JnuBwazhvbxkz93DhLoXrSX1ResVoF51BzrAdobmuOt4eULWRnKkyBORDLOtHIPJQ+q9LHFdXRfOsFw0B9lq6y+TAOJusgva7SkrZAT83vPrAOdAf1UdfEXFD/pOciKKifrVXBZgWsgBWwAlbAClgBK2AFrED1KRC8LHSl93qR3Be2hqGgNL1EpF5u9PKgF4ZZ8C48Cf/Dxztsl8fxshP1R+8YehFWQGkn2AB6QUcI3z8UJFgM82EKjIGX4Fn8qH9Kz/pyE7Wlscn/d+AoCF+WOWywzvz7G9C4U1o0ZKT9o4DPI2lpSRy+idMb4Mwszg+P8t/IlB+NW1oeB10zlSFN47g7S15eyVE7Kqs2toe9YRsYCkoL59ZKjjW3FBjRuXsK7sPH22z1Ip71PCqvEdP5PQ00Zs3hlOlcfwDnwpxUYgHbPSj7XUifE61Iux8uh3xM9eVH+igAJVPfJsKvoaFvgZ6aj7o2joRtoSe0AZnGtwBOhFsgCZNm74PaTbf+JGwEE9IzshwPI13l020mCffBPlAHoW3BwQCYFCbm2F+PvEFZ8seTPi5LXs7k6HzoPA2HPWBX2Bj6guZaa0jZMnbmw2R4BR6g/pNsp0Mpc1vVd4EfQGput2B/CfwJXoUGi/qrPm0NR4H6uw50gJStYOcq+FEqoVzbYH5rDh0QsQnbXtAeUqaxzYJ3QHPkLupOZCtT/7WOZDUJYLMCVsAKWAErYAWsgBWwAlagyhSIXhj0YrA/HA87QmfIZXrZ6QEjQC8ZJ8PtcDn+3mZb1MtY8PKyIS6+B18GvcjoZSyX6UVR/RkM28HRMBNeg7vgdnxPZru6X0Fbw0j+BnwThkK2ttqR9wXIZavIvDdXgTjyFCSM+n8d/g4D6ZVu0uI78GPKZvsKaC/y90yvGB3PZXspzC02KBn1UXNlPzgBdoDG5pbOpYIiIyA1t+5gX315Wz6L7E8v6h8EXSDdXiPhvPTEPI81fw6BlhnKT8+QlitpSzIPTiswmeMrYE6kp7JHwRkgXaVXJlN/5mXKiCltNn5egu0z+FOftoB7c52vYDzbUFbnJ90mkfAiTIM6CE3ze3NQmawWtKH+dMtS8BXStV7kbYHfdan0bTgSNBdaQjZrT4bmX3/QmL8FavvvcAs+57Mtdn4Poeohqh/YKvYfgFeD/vbh+MegPms/my3NlpFUetTHtvj/MvwEdM5aQyaTljqf0nwf+C5cAP8Hy2AWZLVcJylrJWdYAStgBayAFbACVsAKWAEr0DQK6GUhemEYSA/04H8d7A2NBRgosoa14Eg+vg+3w9ehTfDCxGHjFpQ/gNK3wPdgAMh/oaY6eiHeE/4Mu0Em25nEO+FXMAxUr5psHJ29GlZm6fRhpG+RnhdprRdpBSy1zWR3k/hwpozG0uQ/akPz4ny4DhQs6wyFmM6H5sBJcBt8HQqeW9SpZutB56VBynR9/BsOhY6pxAzbRaTNypAeZ9JzOFuexeFWpLfJkhcmK5ag67BVmBjtv8N2HLyfIa89aTsqPVg7MhRrSFIb22bJXEH685DtGlqrWtSe+vsl0Lw8FYZDoXGRdtTZAS6Dy0E+8hmPiuVjun7WDQpq/2r4OfQJ0jPtTsmUmFRapKnWh9PhSlCArzXkYzoXm8Bf4VzoANMhqxV6orI6coYVsAJWwApYAStgBayAFbACySoQvPCtR0vXwPGgl4dSTf70EvF9yDvQEPRHAbRLYSOIy/QC/JScZfhyR/1VW1X3PhOMRcGMlyGT9SfxO7D6XARa70v6rpkqkTYN9FK9OGgnS9E1kwP/cc+tkbSkuXUKtAvaWbMDtXekQM2waFi6PnRe1o+Oc23mkFmfq0CxecGceA0f2QIFG5On+deY9aXAVhkKrSLtNVgMr0MmUwCra6aMtLReHCvAkclmkdhw/QTjylSuIS2adwqY6LpSMGhzKHX90Dk+Cq6DTSHOINYI+cMGg9bWL0Jj/V1JmWznlax4LdK0LV5/GdGlyBYUuDo58lGfy0djAuSq6zwrYAWsgBWwAlbAClgBK2AFyq+AXi4vBL0Ut4C4rBuOfg3Hg/7gOZu8bAClzga9aGUzvdQuhbkwG+bDMshld5E5IVeBKs/7iP7/HaRLJjuExO3SMrpzfAJ0TEtPHd7MznOpgyK2/ahzASQxt87E73HQooC5RfGqtZb0fBgoEPFHGAT52DwK6TpJ0ibhfEyWBtYhPZ9A24aU0/jSbQ4Jb0WJr7DNdJ2rbipAExXNuJH/IRlzPve5saSPz5K3RnIw344k4/fQa40CpR/shIvLoGFMQXuleNZ86Q9nwT55OlpMuRkqm09QL0+fGYsFY/wqBX4ICmSVYqp/IuwLq7I5ap0tw+lWwApYAStgBayAFbACVsAKVI4C0QtDO3p0KuyXo2cryJsML8N7MB9aQG/YDEZBHWSyriSeCe/D/Woz24tQ8AKzP2W3gUymvugl9r8wGvRytQi6QF9YHzaHTUEvzqmXoKns3wLZ2pevv4LGJVM9BXz66CDN1N5d8AmkyqcVaTh8O1NiEmnSNNLvdvwfBbtlaEfn69vwAmWXRvkHsN0x2k/fTCDh71DwH+SP+iINfwE6n9lsJRkKfrwKYyA1t6S7zuEoqINM1onEM+A90B/BznZuM9Wt1jRpciaMyjIA6bkEtNXc7ABzQLomaQqSvQC7ZWikI2lbw4OZzlE0V1RtR+isnTT7kONxUZquKV3LurZD68XBdqC1YS0L2tiCzLq1Cnya8CKb+ix5q5MDX1uReA50X5259o50Hw2a31NgBei6GA6qvy60gUy2E4nnwndhXqYCBaYNoPxJcESWeqtIXwrLo3z1axHMiI4T2wSarkcjP4dM8yDVvjQcC8/DeFB/28MI0PkdBilNu7AvslrrrDnOsAJWwApYAStgBayAFbACzVOBlho2D+ktShy+XjBK9dHQheCFYU8SvpHDr15eroDrQS8LyyA0vRxsDT+C/SHT+0Af0k+FV2Ea5DLV3x1aZSl0M+k/hY+VHwbDgjG1JWsd2AbUpz3gUXgDsplehkTKurKzLajv6baQhL+AXngrzWbSoctAfe+YoXMHkfYveBh6w3dBL3/ptooEnfM30zMaOw7Ow16U/RZkm7ONza3O1NU4fgT7Qaa51Zf00+A1mAa1btK0YT0JBqpz9SE8Ai/ABFgCuob6Rfs6Ttp0/SyFthka2pK0NpC+fqSKdmBnh9RB2vY1jjVXZJNgDOj6Dk1zbBe4kvmXLeAq3TSfMs3H5aSr//laRwr+DNbNUmEl6U+D1oknYDaEpnMzEA6DH8JgyGQHk6hr9SpdV+F6l6lwI2lq48fQKa2c+vYsPA7Sdh7I6qA3jIdy2TE0tFGOxurJ+ytcDZoL0jll0lTz4mCQpsOgUcu0qDRayQWsgBWwAlbAClgBK2AFrECNKtCNcf0a9JLQAkoxPawPh1L9pPrQmZ0TQH3MZDNI1IvATZDtf6+bx4vVo+S/Ab+DY0EvEum2EwmHw18beRHTy9VQyGQzSbwEPs70Ihek6SX6A9r5gO2tsB4obWlQhsNPLT1N/cvX0uvmWy+JcupL1Pf/4V8vvQdmaKcHaTpHT8BBsD1ksrdJvFYZRY6xC1VPgjrIZI3OLcYyn4qPwKtwLmiuZptbh5F3qcZfZH+pXhXWIa2X8zi+Di6Hd2EFlFWDYN5pDZgCQ9SHNNuY4z7wUVp66lB1NksdBFutec9Aw7jYLgQFW/aAdNuChP7wYXpGdKy5v3mWvGmkv6a8XPMnWBt2p+j+Kp/F7iH9+zBJ+Rl8rsCX8s6H1+Ey0DqVbu1J0HV0H0xOzyzwuDXlRcqk6cNwHkhTaZupr0ouhw2jkUNzNKS5fiZormcKUkrTieRdBK/AFbAh5LRQkJwFnWkFrIAVsAJWwApYAStgBZqBAgrIHF6h49yOfu2apW96cfwb/BtWZngBW10teoGdScIZoBfRfVZnfraj94Svwo2gstmsJRlts2QuJr0+S95ayVGfl5PxzlqZtZ2gF71LYRfolmGo+5J2NBwDbTLkryDtGhifIS/fJM2tnbMU1ty6BHLOrdSc46V0NmXPhuGgvqeb5tZRcBPkmlvp9ar9WGM9Hf4BGYOzZR7gR7T3NgzJ0O4g0kaCymSyLUjslyFjBmnPKz1aZ7T7NCyEjjoIbDD7m8GHCjSl5k+Qr35l6puKjIGGYJMOGrE25H8NumQpJ1+nQrbgVUO1YDwPk6DzeBV0bchc8x+N6QC4Isu41iyd35HWRbV3FkxTlQx6KTlx05gi253tuqmDDNtrSfs7ZApeNRQPNH2ShDPhH5DtPDXU0Q3HZgWsgBWwAlbAClgBK2AFrECFKhC8MCgYkO3h/k3y9IKTM3iVNsTpHF8Ic9LSU4ej2NleB0EfdBjaKg5WhgnBfi/2t9FxjvpB8ea3G7yEPsbo/5tFgTrSfw8NWmYo8yJpCjQW/FIbnJf9qZ7pZVxu34ZrodC5dQl15kIm25zEbTNl1GjaYsb1G7gSKiF4JZkXQUOwSQdp1pnjrZQWzJFwf2eyFIhMNwWDxqUlam2amJamww6wY3p60J6CZHXp+dHxC2znZ8lLTx5OwufTE6NjrV/XgOZ4o9dPcL3eRfG7VSeDtSLtQND44rLbcHQaTFMfgn7E5b9QPxqjAliZ5oB8TYDLodG5HozlXso/AjnNAayc8jjTClgBK2AFrIAVsAJWwApUhALd6YVeGrOZHv4nZ8tMTw9eGp4iTy+DmawjibtkygjS9BL8SXAc7rbj4HTYB1oFL6ZhGe9/qoACHFfAtAyCtCCtD7TJkKd6l0G2c5ChylpJmls7rpX6WYJe1id9dph7L5hbT1Ay29zqRN5u8tRM5sV/GWqhAWbJk4gF5+h5GliYpZFtSc8053qSvk2WOs+RPjctT3Pz5bS01KHmXZfUQbDVnFf7CpSk21IS1O98TX76ZymsNVPnJu+gUKTdEqrcDFr/MtkWJK6bKaOItLHUORdmB+etCDexVumDt1E5PP6PvHdy5K+RFY1LWupcrFgjM+2gZdqxD62AFbACVsAKWAErYAWsgBWoPAUG06VsL0QLyGv4yXURLzjzqft4juFuTZ6CDdlML3IvZcskfSRcD3+CTQlWOJCFEKEF50wv/7eGeXnsP0aZu1Qu8KPDQkxza2iWCppbjymvEP9RWc2thrqqn8Eam1sZqlRl0jx6reCV9Kg0U5BhcpZObUx6zwx5uqZHZEhfTNozSk+bKwpIPAUrlZdmG3E8PC1Nh91hlHYymAJibyk9rZ01igaB0S3JaL1G5mcHr7E7/rPDgva07k3MUkMBnk2z5BWarEBZw3gLrZhgeQUEB2Txr3vCQ6Cv2wq1F6kwPVellrkynWcFrIAVsAJWwApYAStgBaxARSgwlF7UZenJFNLHZsnLmhy8/L1OIf30O5MNIbF3poyg/j3kf5ypTJSml7kfgcpdDLvwctlJL5jBSybJzd6Wo8Df4cM8lZhLuUuhPs/y2YrpHPfIkqlgwXtZ8vJJfo1CCmxkMgXOemXKqLG0NxjPCxpTcM1UyhB1ftW/TDaQxPVSGcG1uj1pCjClm+btq2FiMN7nSZ8R5kX7Ov/baj/wr0PNyaHayWBvkzY5Q3qmpPYkjsiUEaVp7cs2P3NUa8jSeN7NUqg16ZsoL21cWYpnTZ5NjtbNSps7unY7qV8ZTLroHBXTZ51X3c+ymoS1WQErYAWsgBWwAlbAClgBK/CpAvPZ3AazoMWnSUX/u5KaI2F/KMpX8PKjl8m2kMmmkpjzp9aZKgVpE9jXuDsEaaldfYEhJqQSMmxfI+1KOB2yvV9o/IPgJPgqPAf62uhhxjiJbSF/X4nitWV60Y/OtV6o/wW/zGOE91LmIZULAgV5VFuriF5G26yV+mmCXiZ1LRRrk6k4B9pncKB51QcmZsirpSSd0/oKHdBS+vUiHJahf91I2xKeDPI0T3YOjsNdBcI+DhOC/XHsvwM636G15ED+roYVQcZm7PcIjsNdBcOyBdzDctrXmjYwPTE61vr8nvaLvH6WUHW86mexQaRrfGqnWNO10dDHYh0kVK8/fttm8f0J6QpiFWMLqaQ5tEW2ytluMNnKO90KWAErYAWsgBWwAlbACtSyAnMY3O9gTJEvNau1iQISh5CwH7RYnVHcTp8c1aaTpxfRYq2einOhdwYH7UjL9iLZ8OLHOPWCdiGoj9+BbMEQshqsO/9Kk73gA/gv3ISf19k2jKNU7fFTdaYxo8EqOn4NfBnWzzGIaeRdCvm+yOdwlfMrqFLn1kwaXpil8Y6kK0hS6zZOA6y0OR3NN3XtBZgPnXWQZttyrF/7TQWXFAzaLK1M6vApdpalDtK28zh+BnZNS9fh1tAPPqIdNg3W0G7qINhqvqu/+eqpMXVR+Qy2nDTN74It0E7BmmymdbMtLM5WII/0KZTR2lxpprFlu6dJ0wVFdngp9XIGv1oW6djVrIAVsAJWwApYAStgBaxALSqQ7aG8qcfaPkcHZpOXesHMUSxrlurqxSGTtSIxZ5AhejGvp9ypcDZMhXysNYVGwilwN1wKW0KL4EWWw2Zn7zPia0GBwWx2GxnPKjOGwEinbI2QXg960S/WllAx2wt8o3Or2EYrqN4q+lJfQf3J1JUxJE7MlEHaJtAzyNuU/XWC49Su1qDndZBjPj5J9kKVSbMhHIdBsTqOt0grkzqczM7o1EEe23aU0TqTyTQ3iw20pPypvs5xJutIYra2M5XPlDaTxFLW9kw+40hrk8PJXPKkbTEmLXPWdQCrGFldxwpYAStgBayAFbACVsAKlFeBbC9J6kWuQEepvVRAr21jTqKX1jmU+wMcBv+B+ZCPqY0+cCzcAT+Frs0xiBW8/N+KBhMhkynYeB+UEljK5DdTmtrINfcy1QnTVD/XPFAQq6nM78KfKj+NzWtZTsIg0ocFeVuznymYPpb094Jyq3eDOf0miR+uzvhsR4GebT47bPjbV8OD43BXPvRVUr4m3wpiNYV1ptHWJTasYE4p11+JzRdVXfejVcF5L8SJxqoAWFbzRZtVGmdYAStgBayAFbACVsAKWIGKUUBBnmyW5DO9XigUhGjU9MIC+lrgKTgGvgL/Bv1KSb4vYXph/g38Gbo3xyAW45bpJU5fd2QyvSAuU0aRL4npPhubW7ny032lH7ciQUGEbJZk8DVbm6n0ruwkee2k2qn0ra7Z5yHTNVpH+iYgUyBoq4a9tf95gaSZayevkfIJRy+vkfLZgQJYqUDTxuz3/CxrjT21s3SNlNwH+uKrkPK5vRWWu4ji0rYUK+XaK6XdpqybaR6u7o8v2NVSeMcKWAErYAWsgBWwAlbAClSsAnoZymbdyFCgoFhT3TZZKusFbE6WvIzJUVBFwRd9JfQtOBD+AK9DPi+T+uLr2/AzaN2Mg1gMP6vF+WKrl/xsVkdGKV+R6Fx2yOJcwSsF6prKUgGTpmq/ydsNAqCv0JlM50LzbPOoo33Zjoz2w42CqU+GCen7UTsKhD8NmQIU65Mu/7ItIdN6Np90BdoKCdzqC6Zsa47WvPbyV4Jpbme7FnVd5RX8L6H9pqqaK/Cs66qUdVuB5azWMmuOM6yAFbACVsAKWAErYAWsgBWoFAWm5uhIT/L0MlasdaFitpcGvYDVF+pYL6wReoF8Hk6H/eA7cD/oZTSX6QX2ONhZhRzEkgqJmb6MyWalzq3uOO6Qxfli0udlyUssOZhL6pvtUwXeZ/NBFjE2JF2ByGHQP0MZzZ/XlB4ExHSYyZ4ncWaGDPkdCgp+bAaZbCKJ72XKyJGmdSbbHNOYeuWomzUrmEN9shb63Odmk5cteJajWlVkZQp2pjpex06xgUGt+x1TjjJtHcDKpIrTrIAVsAJWwApYAStgBaxABSgQvBB+THeWZOmSvlzokSUvn+RBFOqUpWA96bOy5OWVHAWy9NXFFLgBDoOvwwOQ6wVPL5eHgy1ZBSbhPtt5UGChroTmB1C3W5b6esGfkSUv6WQFfNdJupEq8j+dvr6Wpb8KXPWGjSDTOvEW6ZpD+ZgCZe9kKCi/G/5/O/cf61dZ3wE8LQUt8uPyYyATsCtMcI5toCaIgAnBmYXMqFkGus0sm0Flmy6bbtPodNs/S6bOjKmbOifL/BE3Rd3UKAy1/HJYtGWdSkN/rGUVq1BpkVZK270/5Xt7zz2c8/3R1nl7+3qSd+45z/Oc833O6/t8v+3z9EJSr3NWR3tVrUi+UwcTlIfT996e/rUXcnZP2zjVi9LpqUM61vfdriHth3LT5gx+Z88D1HdG/aPI/pSjctEpwy6sN00hQIAAAQIECBAgQGBuC6zJ8Po2kmqTYMmkw2/8FsEzcm0tILvK/6byu10Nk9YNNrLqsoeSTyVXJm9Khm1iPDPtJybKj05gfW59f8/tn5z62sDY33JeLjy65+JNqZ90Q6J9q1rw1kbCpOWYXLB00ovmcf/aYL4jqZ/tUptKZVUbTAvajTm/NdneUd9VtTWVt3c01H3PSWrz6qSO9hrXV5JdHW3Dqn6Yxm8N6VDz88jGd+GQro9rqu+lGnNX2Z3Ku6uh8Y8QXf0O1bqNGXjZdpVTU3lmV8MYdcelzxnD+i0c1qiNAAECBAgQIECAAIE5IVALhnt6RlJ/6b+02vZjIfaEXHZJXdtT7kr9gz1t+1Xd2Mj6fm7wtuQtSd9iqDbnTkiUH53Ahtx6Tc/tj0/9xdU2ydwa9K3/jOh5dW1PWZX62swcVR5Oh109nWoTocY4afnpXLBk0ovmY//GBsudeb4HOp6xNrfPS57W0VbvX20sjdyoabzOLem+o65plXpP6nVqc7Fd6jtoeVU27tPuM+u80a+ea+esxpmT83N4+szpREc/l95Le66o8db8nq/l3jzY5p6Hm0r9s6ttku+M6p9ydlLf+b1lYW+LBgIECBAgQIAAAQIE5orA1gzky0MG88K01b98T1p+Phdc1HPRo6mvxeaenvYDqh4sMOven0j2/rZCxw1rE6R+y+ZAyoJcfMSB3GCeX1tza9mQZ3xR2k4Z0j6rqbForQX+hbMaZ05qbtVv7uyeqeo9+kFaHulpnUp9bXyMVRpje0Eu6PpNn7HuM087rclzVdqlPju1IXFGuyHn65L/7qgfVrUyjRs6OpyVuguShR1t9TprO+rHqfpqOm3s6bgk9TUXxt5sGcyhMnlxcmxd21FWp67vO62j+yFXdV9GXM/YVer79orkmK7GrrrG5/LytE919Zmu65oc021+EiBAgAABAgQIECDwYxZo/CbBZzOU+3uGUwu/K6utsRjo6bqvT20OvTrp2/iqRWNtYI39Ww/Vdz9KbVBs7bmuNjp29bQ1q2sjrK9fLaROa3Z2/JjABHPrZXXFOHNrYLs4P2tu9W181dxaVn0bY6jTrrItlQ90NaSu5vAvJgtHja3RXhteVyXKbIEyXjG7at/Zc3P0lH1nMwfLc7h55nSso03p9bWOnvU9dHFHfVXdmXy3p21U9fp0uLGn06LUX538VLU35kidPq402i9K40se12Gm4oYc9s3ZmV6H7tH2DP3mIcOv+fKCam+YdXZvtJ+VDr/a2alRubBx7JAAAQIECBAgQIAAgbkr8PUMrW8hdmTa/ij55Rp+Y1FQp7PKoK361wbDsAXDv6V9fdJZ6j7J4uSXkiXJgqSz74jK2lz6yZ4+tWjt29xqXrIzJ9W3qxyVyvqX/ZGbHF0XHyZ1tUFwU8+z1lx5XXJFtQ97jwdt1f+aZNjc+lTaaxNrnFIbARuHdHxR2i6s9r6xNepPTLc3Jz9T/ZXHBBqbiLelZnfLpTaHlybHtep35fzWZHfj+laXztNHU7usrmu1TuW8Xqddqt8dSY1jojIYV13/0WRLz8W/kPq3Jicl48yh2mj5i+TJ1b+jfDt111f9hC4dt5p7VY1nuiGj29wzwmNT/8bk3GpvfP7qdF9p1B+fyjckT9/X2HOwsKdeNQECBAgQIECAAAECc0RgsGjYkeH8ffK9nmE9JfXvSl6VnFiLg8YCYe/x4PyMtNcC7M+So5Ousi6VH0z2dDU26hbn+C3J55O/Si7La5ycDN3MqnEMxjKVa16bLEm6yupU3t/V0KormzWtuuZpbaZcmRwxeN19bYOx1ObWkwbH+9oOo4Py+7ukz7rm1nuSVyfD5taZaf/z5E+Tvrm1Nm3XJeMu8Len6/Lq31NqbG9PnpPU+5gfM2VwXr9p8+zkvclLZ1odtQRW5rz9/bIgdUck9bNZqt+w96XZd+9xY/Pjq6nY0upQexP1Ou3yQCrurMrG9e0+o85ro+36nk71XC9Lam48K1nUM4eemLbnJ9clz0v6ykfTsLKvcR7V35VnuWnI81yQtvcnlyZ9pvWe/2xybfLypD3HUjW71AdZIUCAAAECBAgQIEDg0BC4OcP8QFK/EVN/+W+XM1LxzuQ3klpcfCOLsQfzsxYGJyfnJ5cn5yZdi8VU7/0fHtdG2H/VyYhF4550qfs8LfmD5Ork7qQWqMvz2qvzc1OyLdmdVDky+YmkFjhXJZclXc/yaOo/l+xMekuNb7DgvCOd6ppFHZ3r2f8muTS5Mf3vy8/qd2Ly1OSZSY3zTcnQ10v7vCoNv2V5sPcnr0+63o+aW+9Ifj35YrIqjlvzs/qW7/TcOifHNSe6yiOpvDZZ1dU4pO4LabsmOb6nz4Wp/1jy6eTWjKvey3ofj0uWJM9NLktOS5R+gbVpWp2c0t9lX8s3c7Rm39lkB/eke31PXDTGZdV33Rj9hnV5JI1/ndQ8qPnZLvVd8OLkOcmXktsyhzbmZ82hJyRLk/ruuCQ5IekrX0/D3ya7Rnxv9l1/KNX/MIN9X/L85KSegZd3fS4/l3xpYLojx8ckZyb1ub18cLwgP0eWeqMUAgQIECBAgAABAgTmuMBgo+HRDPPtybnJC3uGXAuuWhhWdiW1CKvFQW0c1WbDsLInjR9OamEyavOqujRLvcaxybMG2Z2f2wZ5MD9rwVN9jk5OGKTG1Ff+Mw2fqcYxF4O3pOuapGuBWrc5OXlV8lvJw0lZLE6mx/DJHNf4DrvSmFvvyMM/PembW09M24HMrY/k+n9IxnpPB+Oq7jUXbkh+pU56yumpvyZ5ZVLvb839+izUmLve1w2pr7lY80J5TGBrftyZXDwGyO3p89AY/bq6fD+VtyU1l0aV5emwZVSnvvbGHFqVPm9O3p10vec1R05LXppcldT3Zn2HHZFMf0fksLfcl5a6/9reHvOkoWG6LI/0geQPk/o+7SqnpvI3k5cn9bmsP8OOSupz2b6m5t/3kqVJZ2lf0NlJJQECBAgQIECAAAECc0Zgc0ZSC4YvJLXhNKzU4qsWCrWQH/V3/1qsfSz5k2RrLVIOsNTrHZ+cnjwjuSA5PzknOSUZtijckPa3JrUoHLesT8d/Tuo5hpVaPE0lxyXDxpDmw65Mz63aLDrYc+vjuecbkm2TzK1B3+257p3JxmRUqTl/bDKVLE66Nq/qOV+X/EeiRKDxntyR09pkGFbq/bitOjSuG9a/q+2WVO7oamjU7crxV+r8AF6neW3Nwfp+q02SYaXmzPQmyzjfEd9J/9cnn62bHshY6/pDoQyesebJ25J/H2PM9efBMclUcnRS581S93pX8pdJHXeW9kWdnVQSIECAAAECBAgQmEcCXQva5uONam/2/X89biyM7skLvyL5x6QWkwdafpAbvCd5TXLfBDcrq4PttTr3/J3kxhpH45nrtLM0+rwvHT7f2Wl+VR5s86Zzza3fTg7W3Hoo96q59bvJtxvvVU4nKrem9xuTzRNd9fjOm1L1x8m/JCsSZbbAipzWhsywsiGNdw3r0NfWeP9XpM+9ff0G9fVerxzRZ6zmwevW5vYHk6uTbyQHo3wzN3ll8uFkT+P5Dsa9fxz3mPS7pd6j308+k4z6x4N06SyPpLa+u2vz6pakb/4tWJRGhQABAgQIECBAgMDhJFB/4b4ueVLroesv7lsGaTXt9+m6XFl/MW8vCuofkv8nqb+4T1SmF0iD/5/I7+Xim5JLkvZrjHvfWnR8OflksmP6/jkep+xIp39NvpbsGeeCEX22pv1DyYrqN+FY6pJa+Lw2WZVMJeOOqd6Peob6jY+5ULZnEOV6e9J+hp2pq7lz0Mu092BuvSYvcFNyoHPri7nHp5NJ51YueazUuDKmOqlNgi3JFUn9ptWkpT5vH09qvle5MTkzad6rjpcl45Z6f6b7725dVG3fatXN9dN1GeC7kyVJjb9d6rNSn69N7YYJz+v6a5PzkrZb3aq+z9Yna5ODUgbzqD7j1ye18fRryalJ13Omemip8dWfJfV9Vffan++rumx18t46aJVyvjnZn7G1bjXr9O6c1Z9J7fvW69U8btenqrs0Ppfr0uPq5BXJ6cnY90jfclyZ/FOyLanPaM2Ls5PmvNia876NrTQpBAgQIECAAAECBAgQIECAAAECBAgQIECAAAECBAgQIECAAAECBAgQIECAAAECBAgQIECAAAECBAgQIECAAAECBAgQIECAAAECBAgQIECAAAECBAgQIECAAAECBAgQIECAAAECBAgQIECAAAECBAgQIECAAAECBAgQIECAAAECBAgQIECAAAECBAgQIECAAAECBAgQIECAAAECBAgQIECAAAECBAgQIECAAAECBAgQIECAAAECBAgQIECAAAECBAgQIECAAAECBAgQIECAAAECBAgQIECAAAECBAgQIECAAAECBAgQIECAAAECBAgQIECAAAECBAgQIECAAAECBAgQIECAAAECBAgQIECAAAECBAgQIECAAAECBAgQIECAAAECBAgQIECAAAECBAgQIECAAAECBAgQIECAAAECBAgQIECAAAECBAgQIECAAAECBAgQIECAAAECBAgQIECAAAECBAgQIECAAAECBAgQIECAAAECBAgQIECAAAECBAgQIECAAAECBAgQIECAAAECBAgQIECAAAECBAgQIECAAAECBAgQIECAAAECBAgQIECAAAECBAgQIECAAAECBAgQIECAAAECBAgQIECAAAECBAgQIECAAAECBAgQIECAAAECBAgQIECAAAECBAgQIECAAAECBAgQIECAAAECBAgQIECAAAECBAgQIECAAAECBAgQIECAAAECBAgQIECAAAECBAgQIECAAAECBAgQIECAAAECBAgQIECAAAECBAgQIECAAAECBAgQIECAAAECBAgQIECAAAECBAgQIECAAAECBAgQIECAAAECBAgQIECAAAECBAgQIECAAAECBAgQIECAAAECBAgQIECAAAECBAgQIECAAAECBAgQIECAAAECBAgQIECAAAECBAgQIECAAAECBAgQIECAAAECBAgQIECAAAECBAgQIECAAAECBAgQIECAAAECBAgQIECAAAECBAgQIECAAAECBAgQIECAAAECBAgQIECAAAECBAgQIECAAAECBAgQIECAAAECBAgQIECAAAECBAgQIECAAAECBAgQIECAAAECBAgQIECAAAECBAgQIECAAAECBAgQIECAAAECBAgQIECAAAECBAgQIECAAAECBAgQIECAAAECBAgQIECAAAECBAgQIECAAAECBAgQIECAAAECBAgQIECAAAECBAgQIECAAAECBAgQIECAAAECBAgQIECAAAECBAgQIECAAAECBAgQIECAAAECBAgQIECAAAECBAgQIECAAAECBAgQIECAAAECBAgQIECAAAECBAgQIECAAAECBAgQIECAAAECBAgQIECAAAECBAgQIECAAAECBAgQIECAAAECBAgQIECAAAECBAgQIECAAAECBAgQIECAAAECBAgQIECAAAECBAgQIECAAAECBAgQIECAAAECBAgQIECAAAECBAgQIECAAAECBAgQIECAAAECBAgQIECAAAECBAgQIECAAAECBAgQIECAAAECBAgQIECAAAECBAgQIECAAAECBAgQIECAAAECBAgQIECAAAECBAgQIECAAAECBAgQIECAAAECBAgQIECAAAECBAgQIECAAAECBAgQIECAAAECBAgQIECAAAECBAgQIECAAAECBAgQIECAAAECBAgQIECAAAECBAgQIECAAAECBAgQIECAAAECBAgQIECAAAECBAgQIECAwF6B/wPWBC6ZlrpnAAAAAABJRU5ErkJggg==;" vertex="1" parent="1">
          <mxGeometry x="643.98" y="93.24000000000001" width="112.04" height="33.52" as="geometry" />
        </mxCell>
        <mxCell id="N_rBBtrlS4sjjkyDHwOa-15" value="" style="shape=image;verticalLabelPosition=bottom;labelBackgroundColor=default;verticalAlign=top;aspect=fixed;imageAspect=0;image=data:image/svg+xml,PHN2ZyBzdHlsZT0iZmlsbDpub25lIiBpZD0ic3ZnNiIgdmVyc2lvbj0iMS4xIiB2aWV3Qm94PSIwIDAgMTAwMCAxMDAwLjAwMDQiIGhlaWdodD0iMTAwMC4wMDA0IiB3aWR0aD0iMTAwMCIgeG1sbnM9Imh0dHA6Ly93d3cudzMub3JnLzIwMDAvc3ZnIj4mI3hhOyAgPG1ldGFkYXRhIGlkPSJtZXRhZGF0YTEyIj4mI3hhOyAgICAmI3hhOyAgICAgICYjeGE7ICAgICAgICBpbWFnZS9zdmcreG1sJiN4YTsgICAgICAgICYjeGE7ICAgICAgICAmI3hhOyAgICAgICYjeGE7ICAgICYjeGE7ICA8L21ldGFkYXRhPiYjeGE7ICA8ZGVmcyBpZD0iZGVmczEwIi8+JiN4YTsgICYjeGE7ICA8cGF0aCBzdHlsZT0iZmlsbDojZTIwMDFhO3N0cm9rZS13aWR0aDoyMi43MjcyODE1NyIgaWQ9InBhdGgyIiBkPSJNIDk5OS45OTk5OCwwIEggMCB2IDEwMDAuMDAwNCBoIDk5OS45OTk5OCB6Ii8+JiN4YTsgIDxwYXRoIHN0eWxlPSJmaWxsOiNmZmZmZmY7c3Ryb2tlLXdpZHRoOjIyLjcyNzI4MTU3IiBpZD0icGF0aDQiIGQ9Ik0gNDk0LjM5MDY5LDY0Ni45MzQzNyBWIDMzNy44MjUxNSBoIDE4OC45NTIzNiB2IDQ4LjgyNTAyIEggNTQ1LjI2MzQ0IHYgODQuNjY4MjIgaCAxMTguODg2NDIgdiA0Ny45Nzk1NiBIIDU0NS4yNjM0NCB2IDEyNy42MzY0MiB6IG0gNDAzLjQ0MzM2LDAgLTY5LjE0NTQ5LC0xMjQuNDYxNDIgSCA3NzcuMDQwODEgViA2NDYuOTM0MzcgSCA3MjYuMTcwMzQgViAzMzcuODI1MTUgaCAxMTQuMTYxNDEgYyA0NS45MzE4NCwwIDEwNy4yNDU1LDEyLjkxMTM3IDEwNy4yNDU1LDg5LjgxODIyIDAsNTIuMjg0MTEgLTI3LjA5MzE5LDc2LjQ4NDEyIC02OS44NTIzLDg3Ljc3Mjc2IGwgODAuMzY1OTQsMTMxLjUxODI0IEggODk3LjY5MzE0IFogTSA4MzQuMTIyNjYsNDc2LjI1NzAyIGMgNDYuMDcyNzQsMCA2MC41MzYzOCwtMTkuNjg0MDkgNjAuNTM2MzgsLTQ5LjE3NzI5IDAsLTE5LjQ3NTAxIC04Ljc0NzczLC00My42MDQ1NiAtNTguNzcyNzUsLTQzLjYwNDU2IGggLTU4Ljc3NTAyIHYgOTIuNzgxODUgeiBNIDMyNi4zOTUxNyw0NTkuMjUyNDcgYyAtMzYuNjg4NjYsLTEwLjMgLTQwLjk5MzIsLTI5LjYzMTgzIC00MC45OTMyLC00Mi4xOTA5MyAwLC0yMy45OTA5MSAxOC41NTY4MiwtNDAuMDc3MjkgNTIuMDAwMDIsLTQwLjA3NzI5IDIzLjA3Mjc0LDAgNDMuNDYzNjUsOS44NzcyOCA1OC4zNTAwMiwyOS41NjM2NSBsIDQwLjI4ODY2LC0yMy40OTU0NiBjIC0xOS41NDMxOSwtMjguNzE1OTIgLTQ5LjgxMzY2LC01Mi42MzYzOSAtOTguNzc5NTksLTUyLjYzNjM5IC01Ny43ODYzOSwwIC0xMDUuMjAwMDUsMzUuOTEzNjUgLTEwNS4yMDAwNSw4OC45MDIzMSAwLDUyLjk4ODY2IDQ0LjgwNDU3LDc1LjkxODIyIDkyLjU3MDUsODkuMzI1MDQgMCwwIDIxLjk0MzE5LDYuMzUgMjIuMTU0NTUsNi40MjA0NiA0MC45OTMyLDEwLjc5NTQ2IDQ0LjE2ODIsMjkuMzUyMjggNDQuMTY4Miw0NS4zNjgyIDAsMjkuMjc5NTYgLTMwLjY5MDkyLDQ3LjQxMzY2IC01Ny4yMjA0Nyw0Ny40MTM2NiAtMjYuNTI5NTYsMCAtNDkuNzQzMjEsLTkuMTAyMjggLTY3LjU5MzIyLC00MC43ODE4NCBsIC00MC4yODg2NSwyMy45ODg2NSBjIDI2LjEwNjgzLDQ0Ljg3NTAyIDU3LjQzNDEyLDYzLjE1MDAyIDEwOC4xNjM2OCw2My4xNTAwMiA1NS45NTIzLDAgMTEwLjA2ODIzLC00Mi42ODg2NSAxMTAuMDY4MjMsLTk2LjAyOTU4IDAsLTYzLjE0Nzc2IC01MS4yMjI3NSwtODAuOTk3NzYgLTk1LjUzNDEzLC05Mi41MDAwNCAtMC4yMTEzNiwwIC0yMi4wODQxLC02LjM1IC0yMi4wODQxLC02LjM1IHoiLz4mI3hhOzwvc3ZnPg==;" vertex="1" parent="1">
          <mxGeometry x="407.5" y="170" width="50" height="50" as="geometry" />
        </mxCell>
        <mxCell id="N_rBBtrlS4sjjkyDHwOa-17" value="" style="shape=image;verticalLabelPosition=bottom;labelBackgroundColor=default;verticalAlign=top;aspect=fixed;imageAspect=0;image=data:image/jpeg,/9j/4AAQSkZJRgABAQAAAQABAAD/2wBDAAYEBAUEBAYFBQUGBgYHCQ4JCQgICRINDQoOFRIWFhUSFBQXGiEcFxgfGRQUHScdHyIjJSUlFhwpLCgkKyEkJST/2wBDAQYGBgkICREJCREkGBQYJCQkJCQkJCQkJCQkJCQkJCQkJCQkJCQkJCQkJCQkJCQkJCQkJCQkJCQkJCQkJCQkJCT/wAARCAG9AyADAREAAhEBAxEB/8QAHQABAAICAwEBAAAAAAAAAAAAAAYHBQgBAwQCCf/EAEkQAAEEAQIDBgMEBAsGBwEBAAABAgMEBQYRBxIhCBMxQVFhInGBFCMykRVCUrEWJDM3YnJ0obLB0Rc0NUNzghglU2OS4fFEov/EABsBAQABBQEAAAAAAAAAAAAAAAAEAQIDBQYH/8QANhEBAAIBAwMDAgUDAQgDAAAAAAECAwQRIQUSMQZBURMiFDJhcYGRobEjFiQzNELB4fBDUtH/2gAMAwEAAhEDEQA/ANqQAAAAAAAAAAAAAAAAAAAAAAAAAAAAAAAAAAAAAAAAAAAAAAAAAAAAAAAAAAAAAAAAAAAAAAAAAAAAAAAAAAAAAAAAAAAAAAAAAAAAAAAAAAAAAAAAAAAAAAAAAAAAAAAAAAAAAAAAAAAAAAAAAAAAAAAAAAAAAAAAAAAAAAAAAAAAAAAAAAAAAAAAAAAAAAAAAAAAAAAAAAAAAAAAAAAAAAAAAAAAAAAAAAAAAAAAAAAAAAAAAAAAAAAAAAAAAAAAAAAAAAAAAAAAAAAAAAAAAAAAAAAAAAAAAAAAAAAAAAAAAAAAAAAAAAAAAAAAAAAAAAAAAAAAAAAAAAAAAAAAAAAAAAAAAAAAAAAAAAAAAAAAAAAAAAAAAAAAAAAAAAAAAAAAAAAAAAAAAAAAAAAAAAAAAAAAAAAAAAAAAAAAAAAAAAAAAAAAAAAAAAAAAAAAAAAAAAAAAAAAAAAAAAAAAAAAAAAAAAAAAAAAAAAAAAAAAAAAAAAAAAAAAAAAAAAAAAAAAAAAAAAAAAAAAAAAAAAAAAAAAAAAAAAAAAAAAAAAAAAAAAAAAAAAAAAAAAAAAAAAAAAAAAAAAAAAAAAAAAAAAAAAAAAAAAAAAAAAAAAAAAAAAAAAAAAABuAAAAAAAAAAAAAAAAAAAAAAAAAAAAAAAAAAAAAAAAAAAAAAAAAAAAAAAAAAAAAAAAAAAAAAAAAAAAAAAAAAAAAAAAAAAAAAAAAAAAAAAAAAAAAAAB4AEVF6oqAeOzmMbUbIs+QqRd2iq7nlanKieO/UCu7HaQ4a177qcmoGd4x3I5yRqrN/n6Aded7SfDfAvjikzbrnet5kdVj7xGp7gZrA8aNBahx0mQqakpxxRp8aWHpG5v8A2qBIsFq3A6kRVw+XpX+XxSGVHKn08QMujmrvsqLt7gc7onmAAAAADdPUDot36lKs6zZswwwNTd0kj0a1PqoEcj4o6KlZM9up8UrYOr9p06f6gQyXtR8NIch9hTKzuXn5Vl7lVjT6gZLJ9onhtiXNbLqKGRXJzIkTVd+4CTaX4iaY1hRbfxGYqTQ+fM9GOb80UCRxyxzMR8T2vYvg5q7ooHPM3fbdN/mByAAAAAAAAAAAAAAAAAAAAAAAAAAAAAAAAAAAAAAAAAAAAAAAAAAAAAAAAAAAAAAAAAAAAAAAAAAAAAAAAAAAAAAAAAACL6q4kaU0U5GZzOVaczvCNzt3/wDxTqBSvFPtX0cC9tLRba+Rlkbu+0/flYvsgFQZLtS8RcnUmrrerQMlarF7qPZdlTboNhXNaTUOop5lhnvXZVRXP2kcqqnn036ll8lcf5ltrRXmZcYrTk+QyLcdYk+wTyfDGllqtRzl8E38t1Md89a1745hZfLFa90PTl9C5rT1hjcpVkhrucjVsNTnYiL57luLWYssb0nlZj1OO8bxL61HonLaZjbNOxZaUqIrZ40VWuReqb+hXT6umXekeVcWopednnrrqHSbIMjUnt0W2G7xzQPVEf7boZa5K2tNY8wyVyVmZqkujeNGtdF5eG+zKXLMT3I6SGy9XNlbv1TqXRMTxC+J3bW6W7UGgc7Xptu5F1C9KjWyRSRryNd/W8Niot2rZhtwR2K8jJYZERzJGLu1yL5ooHdugHDl2QCE6z4xaL0HOlXO5mOGyv8AyY0V70+aJ4Aaz8Ze01ktUWXYnSFiali06LMzdssy/wCQ/UU9LqbVeaYmHmymUtI9232d0rl3X5Fs3isd0+FJtERvLxR6eyr8quKiqyvuIvK6JiKqovuW2zUrXvnwstlrEd0slltCZPE5CDGJG+zkZGc74IW792m3mpix6zHaJtM7RDHXUVtEzM8PrNaCyGnMbHby0sNaab+SrIvNI5Pp4FuLWUyztj8KY9TW87VY6vic9WpOuR17ler4LJ8TGqZ4zY5ntieWauSsztEpVonjlrbQcUlfGZN8kDv+VY+8Rvy3Mi9Yuku2Dqitk4U1DVqW6Tncsnds5XIi+e/sBsRiuO/D3LTV4IdSU2TTNRUZIqt2VfJVXoBP4ZWTRslje17Hpu1zV3RU9UA7AAAAAAAAAAAAAAAAAAAAAAAAAAAAAAAAAAAAAAAAAAAAAAAAAAAAAAAAAAAAAAAAAAAAAAAAAAAAAAAAAAAAAAAD4mcrIXub1cjVVE99gPzg4mZPI5/iBlZMrO9J1tvj+8XpG1F2RPkUmdo3Umdo3ZWrwSz9uGKzBZoyQytR7X867KhrLdWw1ntmJQbdQxV4ndZ+mtC1K2HbVzeGxcliPoj4mfiT1VTT59Za1+7HaYavNqptbfHaXqocO8Bi8szK46vNUnZ05I3/AAr9DHbW5smOaW5Utq8t6dt2bs4uhbkbLYpwSyMVHI5zE3RU89yPTJekbRPDDW9qxtEvRLBFZiWGeNssS9HMeiKhSs2rO9ZW1mazvEuu1Qq36bqdqCOau5vK6JydNvYrS9qW76zyrW81t3RLHZLSeIyeC/QsldjazGbRcqdY1X0MmPU3pk+pE8r6Z71v3oze4SY+xpNmJjkRbkG7obCp1VV8l9ibTqd65e6fCVXX3jJ3T4VBLoHOwU7tr7K9UpSckjeVd1/pJ6obyutwzaKxPltY1eKbRWJ8rs7NPHWXD34tI6itufRlcjKs0q/yTv2VVfBCWktvGvRzUcio5q7Kip5oBWPHXi7X4Y6belaSN+XttVtaNVRVav7Sp6AlpRXxmoOI+UvZKR8tmx8Us00m6p8kMGfU0w7dzFlz0x+U44V8MkV7c1m4VRGL9zA9viqeaopquodR4+nilrtZrOO3HKd6f0BjMBmLmWYqTWZ5FcxXN/kkX0NZn1t8uOKIOTV2yUirM1cJjqN2xer1I47Vhd5ZU6q5SPfLa1IxzPEME5LWrETPD1pXh79bHdR985ERZNk3VPTcti07bb8Le6fG7psY2nckjms1oppI2qjHPaiq0upktSNoldXJakbVl4dR6Xo6opRU7/eJXifzI2J3Ki/RDJg1GTDPdWF2LPbHPdHl5K2gdM0K6tr4aq9yJ8Ky7ruvuXX1ua8822ZLarJbzPCts7wd1DlshLajbjK7Xu+GKJ2yNQ2+LqmGle228y2OPqGOldp3mUD1NpixpPIJStWYX2G9VSJ26sNnp88Zq90eE3BnjLHdEN3ezPmcrmuF9GbLK9zmOVkT3eLmJ4GdnWwAAAAAAAAAAAAAAAAAAAAAAAAAAAAAAAAAAAAAAAAAAAAAAAAAAAAAAAAAAAAAAAAAAAAAAAAAAAAAAAAAAAAAAAefI2VqULFhjVc6KNz0RE33VE3A/NnVmQvaw1pftrG37Rbsu2Ynwp4+BSZiI3k325Xbwsr5mjp99DNVJYH13bRrJt1avoct1GcdskWx+7ntbNJv30TM1yG89m7HTTml5mt83om6J7r6F1aTbwrFZnxLsr2ILcPe1pmTxftsVFRF+hS1Zr5LRNfL7/yKe26kcufEbgAA+XxsexzHsa9j+j27fi+ZWJmOYN5jmGvPE3Ssuj9RJbpfBXnf3sLk/Ud47HVdO1f18fPmHQ6LUfUp2z5bfcCuJ0WseHDL9+ZrbOMj7uyrnIm/KnRy/kbBMakcU9Y3uKfEOeaNXPidN3FVidUa1F2Lb3jHWb28LL3ilZtK5dIaYr6WwkFGFjUkVqLNJ5vcpx+q1Fs2SZnx7Ob1Gact92c2RqcqJsiJ0RPBEIzCAAHgVI58G2/luniUjnwp58PGmVpyT9zBM2xInRUi+JG/NU8DJbFasbyu+naI7pezx2MajqtSyQ1Z5YWLJIxjla1PFV28CsREzET4Vr5jdrFq7FZypkH3szVkgltPVze8ciqv09DsdNkxTSK4p4h0uC9Jrtj8Q3H7KWprWf4bsr2o2MShKsEatbtzN9SSzrpAAAAAAAAAAAAAAAAAAAAAAAAAAAAAAAAAAAAAAAAAAAAAAAAAAAAAAAAAAAAAAAAAAAAAAAAAAAAAAAAAAAAAAAPl7EkY5jk3a5FRU9UA/O7jNiamA4oZmvie8ihin5/drl69PqUmImOSf1T7hnrvI5JkWIy9G0kyN+6tLG5Gub7qc31DSUpP1Mcxt8NHrNNWs99J/hY5qWuF6psqI5PRUAj2U0dXsTuu4u3Nh8gv/OgVVY7+s3w2JeLVWrHbeO6Pj/z7s+PUTX7bRvDCTa1z+knpHqnF/aae/KmTpp029XJ5Ej8Lh1H3YZ2t8Sz/AIbFm5x22n4SvCahxeo6yWMVcitJ5sRU52fNPFCDlwZcU7XjhEvhtjna0Mj/APhjiN/Cw8ABRSUP4p4BM7pSw5saOnrIsrF26mw6bm+nm2nxKZosnZlj9VQ6J4kXNF4HUGJrc6sy1fufH8C+p1bomW4I4D9IZ6XJzRc0VVvwq5OivU1PVs3bj7PlreoZO2nb8r3Xfdffqc00jkAvTxA+ZZY68Tppnsiiam6veqNan1UrEWn8sbybWnwhOR4oUn2/0dpunNnLy+KRdIk+a+hsKdOtNe/NPbCZXQzMd2WdoeqrprO51EsapyfKx3VMdScrI2p5I5ydV+hbfU4sf24a/wBVLZcdftwx/VKatSvRrsr1YI4ImeDGIiJ/9/UhWtNp7rzyi2tNp3l2/ItWsTqfUDNN4p137NPaf+FkcUau+L32M2DD9W8U32ZcOH6tu3fZrdq7OZXUGWkt5Rk0T16tieipyN+SnXafDTFTajpMOOtK7Ub29n3C47DcMsSmOb0niSWVy+KuUzsqyAAAAAAAAAAAAAAAAAAAAAAAAAAAAAAAAAAAAAAAAAAAAAAAAAAAAAAAAAAAAAAAAAAAAAAAAAAAAAAAAAAAAAAAABqJ2uOGsGKvQ6zqSMa249Ip4t9lV3qBAOGHFJ2LazDZhzpKiqiQz+cS+i+xpuoaCb/6uKef7NbrdJNvurK6o5GSRtkYu7Hpui+SnPTExxLSTEx5fRQCo+ZY47ET4pYmSxvTZYnoitd89ytZtWd6ypWbVnesq51NwqfFO7LaQtSULn43V0fyscqddkNrg6jvH09RG7ZYdb3R2Zo3Y7AcXL2HuJiNYU3wyR/CthGKjk91TzQy5+mUzR9TTyvzaCmSvdhlaVDI08pVS5QsxWK79uWSNUVPkvuabJjtjna/DWXx2pO1nf7lijy5XlXF3Ofbl7p2+/yMmH88bL8f5oal2URbEmydOZdtvmdtX8sOqj8sLv4Doz9AXVRU5u9TdPM57rO/1IlpOpRPdCzjTta+tlRfNFHuc+yD6u4sYjTSuq01bfvp0VkS7sYvuvmbHS9NyZvutxCbp9BkyRvk4hF8fp7VnE2ZL+oLcuPxu+6Qoit5m+yeZMyZtPo47Mcb2+Uq2bBpuKRvZZuD07i9N1ErYynHA1fxP2RXP+a+Rps2fJltveWsy5bZJ3vLJGJjACfu6iZU/dD9f8Q6ukKjoIE7/JyN+7j26M381J+i0M557rTtCZpNJbLO8zwp7ROn7nFHX1PF2ba99el3lkcvg1Oqoh1WOkUr218OgrWtY2q/QzTuFraew1PE1E2gqRJE3ptvsniXLmTAAAAAAAAAAAAAAAAAAAAAAAAAAAAAAAAAAAAAAAAAAAAAAAAAAAAAAAAAAAAAAAAAAAAAAAAAAAAAAAAAAAAAAAAFbcd+Gs3E3RUuPpuRt6uvfV+bwcqeXzA0ew+WyHD/AFBLBapRSSV5FjnrTtReqL1MGpwRmr52liz4YyV2iV/6V1liNWVWyY+VGStT4669Hs6fuOW1Glvp7fdy57Np74p+5nSKwBQAOPD/AOioweq9GYrV1R0F2FjJ9vu7LG/E1ff1JOn1mTDPHhnwam+KePCmbMWqeEWZRY5XOqPX4VRd4pW+i+im/r9DW058tvX6Wrrz5W5ovX+M1jXa2JzYrrW/eQOciL80NFqtFbTzO/MS1efSWwyjXFfiHUx+Nmw2OstmuTorZXMcipG30+ZL6Zoptb6luNkjRaSbTF7cKI5vNV33Okhu004Y63ZpDLObZVVpWfhkRF/D7kDqGk+tj48wh6zT/Vrx5X9NqDFwYpcq+9D9i25klR6fl8zma4Mk27NmirgvNuzZTmsOJ2V1Zb/RGn45YKz15G931kl/I3um0GPT0+pmbbBo6Ya9+VK9BcJK+IazJZ5jbV53xJCq7tj919VIet6la/2YuIR9Trpt9tPCyGojWo1rWsY1NmtanRDUe+8zy1v7uQAAKOm3bgoV32bUrYYY05nPcuyIhdSlrz208rq1tadq+VIcSeJtfOc9DD140h8JLb2J3kiey+h0mh0FsUd15/hvNHpJxx3TKyeyjwjvWMzDrq83uKcCObWZ5yqqbbm1lPbcoi7/ADCrkAAAAAAAAAAAAAAAAAAAAAAAAAAAAAAAAAAAAAAAAAAAAAAAAAAAAAAAAAAAAAAAAAAAAAAAAAAAAAAAAAAAAAAAAF8F8wNIO0hwhzGm9U29SVa0tjFXX966RjFVInL5O9B+4jfDzijSwSJTyePiY1en2uFiI9E9zU63p1snOOf4a7V6L6sbxK6MVmaGcrJZx1qOxEvmxeqfM5/JhvjtNbQ02TFbHO1ntMTGBUAfVU+QHiy+HpZyjJRyEDZIXou/TdWr6oZMWa+Ge6sr8eS2Oe6Gt2sMJLonUlijVuL8PVron7KiL5Kdbp8n18UTeHRYbRlxxNoRuSV0rlc9yucviqruqkuOI2hniIjiHWUVctXZRE7D0tuWZI21ftEncqvRiuXlRfkW9td99lIrHnZsHwz0FQ09iob8iR2L1hqP7xeqMT0Q5nqGstlvNI4iGi1uptktNI4iE48eu6ruu5rEByAAAfLntjar3O5WtTdV322KxEzxBETPEIBrPixgMXBLSrxx5afblWNU3iavv6mz0vTc157rcJ+n0GW33W4VNg9PZviTqNtTF0FfNO74mwRfBE316eR0lMcUiK77t3SkUjZv/wANtJfwI0fjcEruaSrH8bk8FcviXr0pAAAAAAAAAAAAAAAAAAAAAAAAAAAAAAAAAAAAAAAAAAAAAAAAAAAAAAAAAAAAAAAAAAAAAAAAAAAAAAAAAAAAAAAAAAB5shRgyVOapahZLDKxWua9EVOqAfnvxa4bZnh/qy2ljHyJRfMsleZI17tzVXdE3BLI6O4wQ4OuylYw0DY1XrJWTZy/Q0+q6X9W3dFmt1HT4yc7rgwGdg1HQbdqxWIo3eUrdlU0efDbDbtmWoy4rY52mWS/yMEcsRsqgPkV2GH1TqijpXGS3LUrUeiL3USr1epn02C2W0ViGbBinJaIiOGsWcy02bydjITu3fM5V8fBPQ6/DjjHSKw6THjilYrDHGRkAAHLeioBeXCLX8FiizA5CVrJ4v5F73fj9jnup6Gaz9SnhptdpZie+q0//wBNLu1YACjhy8rVVUVURFXbbfwKxz4P2VtqfjNQxkktODFz2JW7tck6crTb6fpdskRaZ4bLB0+bx3TPCorcl3WOYRtDGRpPM7ZlepEvivl7m/xYox123bjHTsjZvD2fOG0nD7REEOQqxRZSwvezLy/E3fwaq+RkZFpomy+H1A5AAAAAAAAAAAAAAAAAAAAAAAAAAAAAAAAAAAAAAAAAAAAAAAAAAAAAAAAAAAAAAAAAAAAAAAAAAAAAAAAAAAAAAAAAAAXwA8GWwmOzlR9TJUobcL0VFbKxF/L0A0q4x9n7UWk9QWchgsXLcxMz1kj+zNVyw+eyj9xX9LiNqzAotNt6VjY15Vilb+EiZen4Mk7zVHvpMV53mFg6E4mvnbJPqbOU2R7fBEjNnIavWaCPy4qy12q0MR/w6s9e4xaUptVWWpLLvJI2rspEr0vPb9Eeugy288Ilm+PErmOZh6DY90XaSXxT3J2Lo1f/AJJTMfS9ubSrHN6hyOorLrORtPnevgir0b8kNxhwUxV2pDZY8VMcfbDGcqr5GRe7q9KzadywQSSL/RbuViJnwzYtPlyztjrMvammcyqbpjbO39Qr2W+EuOka2fGKf6PNZxV+n/vFSaP+sxSk1mEfNo8+H/iUmP4eblX02Kbo2zshkfDI2SNzmOTqiou2w2ifJtE8SsHTfGbN4ljILyNv12Jts/o5E9lNXqOl48kzNeJa/PoK25rwnWM44adtIjbUdio9fFduZqGsydIy15rO6FbpuWPEvdleJmDsYqX9FZ2tDbVv3aytXZF36/3bluLQZYtH1K7wtppMsTtavCq7XFnViq+BuTZ0XZHRx+PyNzTpmn2idm0posPnZ1YbROuOI+TY6rjb9ySV3Ks72KjW++5NpStI7apNaxWNobscIuEeK4dacqV30q0uV5eaeyrEV3Mvkil65YqJsByAAAAAAAAAAAAAAAAAAAAAAAAAAAAAAAAAAAAAAAAAAAAAAAAAAAAAAAAAAAAAAAAAAAAAAAAAAAAAAAAAAAAAAAAAAAAA6Lt+rjqktu3PHBBC1XPkeuyNRANUeMXartWZpsNoh/cwt3Y/IKnxO8l5Pb3BHPDXF65HPX3zv763amdu5y9Vcq+alYiZ8M2HT5M1uzHXeWfo8Ns1cY18rY66L5PXqZK4J93R6b0jrcsb2iK/u9qcKMhv/vtf+8u+gm/7Faj/AO8MHqHSF7TsLZbL4nMkXZqtXxMd8U15aTqnQc/T4i2TaYn4YWpUnu2GQwRukkeuyI1C2I34hqsGDJnvGPFG8ysjTnDaGJkdjLLzvXqkTfBPmZ8eCPMvQOk+kaViMmq5n4TWrSq0mIytXjianT4WkiKxDscGmw4I7cVe137r4L1T5hI3n5fMkUU7FZLGyRq+KObvuNonysvSmSvbeN4/ZFs9w+xuTa6SmiVZ/Lb8KqY7Yqz4cz1T0vp9THdh+2yscvhbeFtOr2o3NVPwuXwchFtXaXm+u0GbSZJx5o/8slgNF38/W+0QOiZEi7K5y+ZdXHNobHpfp/PrqfUxztDMLwpyKJv9sr9fcu+g28+itTt+eHgvcOM1UY5zGMsIif8ALXdS2cMxy12q9K67DEzWO79kc7qxj7TVljdDLG7mTmb5oWTG3lz2TFfHbtvG0tn+Cfaghjkqae1XBDA1ypFFciajWt6dOZCjG2mrzxTxMlikbIx6czXNXdHIvmB27gAAAAAAAAAAAAAAAAAAAAAAAAAAAAAAAAAAAAAAAAAAAAAAAAAAAAAAAAAAAAAAAAAAAAAAAAAAAAAAAAAAAAAAAAAAAAOFciIu6omybqq+QGm/aX43SahyEmk8FO6PG1nKlmRjv5Z6eXyBsprSmk7Go7HM5O7rMXd8nr7IZKU3b/onRMnUb724pHmVr4nCUMNAkNSFrenxPVN1UlVrEPUNF03Bo6Rjw1/mXu6bbqq+yFyfHL4mmirxOlmcjY2ornKvkieIniN1uXJXFWb3naI5U7rPUztQZBUau1aFVaxE8/ch5L90vI/UHV7a7UcflhLOGOGgZj35KRrXyvdytVf1TLhpxu6j0h0/HGCdTbmZnhOt906md28OAAAABh9TYODOYyWKRid4xqujft1RU8i21N4ajrPTaa3BaLeduJV3o3UztN33VbKqtaR3K5P2V9SPS/bO0vPugdYt0/NOLL+WVtQzR2IWyxOR8b+rXJ6EqOY3h6pivTJH1acxL6TdF+QZNmNzGn8fm4FZahbzr0SRE6oUtSLNd1Dpen1tJrmr/MKm1Npe1puynNu6By/BKnmQ745ry8r6x0bL0++1uaz4lsB2Y+OU1e3Fo7UFpZK712pzyL1av7KqWNK2zRd/PcDkAAAAAAAAAAAAAAAAAAAAAAAAAAAAAAAAAAAAAAAAAAAAAAAAAAAAAAAAAAAAAAAAAAAAAAAAAAAAAAAAAAAAAAAAAAACsO0BxATQnD23NXk5blxFrweu6+KgaIYjH2NQZZkHM5z5nc0jlXrt5qVrG88J3TtDbV6iuKvuuzG46vi6UdSuxGsY1N1TxcpOisRD2fSaTHpsUYscbbf3ekqlOuxYiqwvnnekcTE3c5fJBM7cysy5a4azkvO0QqnWOtpcw91So5YqbFVOi9XkTJlm3EPLeveob6y04cXFI/uiO6GJy0eVi8NdRwwwuxNh7Wbu5o1VfFfQkYb+0u99I9VpSs6XJO2/hYfki+S+ZIegbgVAbG4UngAxuoMxDhMZNZme1Hcioxq+LlXoWXttDXdU6hj0eC17zztxCjZpu+nfKu271VSFM7vF8t++83+ZS7RWt3YqRlG65XVHLs1V8WGbHl24l1Pp71BOltGnzT9nt+i1YpWTxNkiej2O6oqehJid+Xp2PJTJWL093PopVf77PFl8VBmaElSdqKjkXlVU6ovkW2jeNkLXaKmrwThyfxKlrEVvTuXVGPdHYrSbtcnRei9FIU17Z2eL6zS202W2G8c1foBwR10zX+g6GUc7e1G3uJ038HNTx+pRFT8AAAAAAAAAAAAAAAAAAAAAAAAAAAAAAAAAAAAAAAAAAAAAAAAAAAAAAAAAAAAAAAAAAAAAAAAAAAAAAAAAAAAAAAAAABeiAad9srUslrU+OwbJPuK0PeOZ/SUCt+FeNaq2b72/EnwNUkaevvLv/Rejie7Uz+0LDJDv93jyuXp4Wo6xclRqbLs3zd7IUtaK+UTW6/Do8f1M07f91S6o1lc1DMrGqsNVv4Y0Xx91Il8k2l5V1jrubXWmscU9oR3YxtE4RrlXoiqDaX2xz2ORzVVrk6oqdFCtZms7xOyV4PiFksU1sM/LahRPB/iifMy1zTHl0/TvVOp0sRTJ91Uso8TcPZREnbLXevr1QzRnj3dTpvV+jyf8SvbLI/w50+qf78ny5V/0K/Vr8th/tH0+Y5v/AJ//AB1T8QMBAzdLL5VT9VjVH1a/LHm9T6Cld623/qweS4qRJG5mOquVy+D5V8C22bjho9X60rttgpz8yhGSymSz0qyWHyzu8moiqifJCPNps43VazVa63dkmZeFaNtqbrWmRPVWKU7ZRZ02WI3mk/0l1tarX9U+ilN2Lt52lLNJ64sYF/2awjpqi+Sr1Z8jNjvtxLpuieo8uhn6eXmi1KGQrZSs2zUlbJE5PJfAlRMTHD0/S6rFqafUwzvEvQu6pugSJVpxTxzYrle+xvL3icrvmhHz193nXrPSxW9M9Y8+V09i3UTksZrAyS7tVqTxt3/MjuGbVgAAAAAAAAAAAAAAAAAAAAAAAAAAAAAAAAAAAAAAAAAAAAAAAAAAAAAAAAAAAAAAAAAAAAAAAAAAAAAAAAAAAAAAAAAAboBod2qJnTcW77X+EcTGtT6AfHDdI4tMLI7ZqLKqucvREJmHiu8vVPSUVx9Pm0ztyai4g0cSiw1FbbsJ6L8LSls0ey7qvqfBpfsxfdZWeXzdzOWXTW5Veq+DUXo36Ea15t5eca7qGbWZJvmn+HzhsHdzdpIKkSuVFTd3k1PVRWs28KaHp+fWZIx4a7/r8LHwnDTHVGtlyD1sy+PJ+qikimGPMvQNB6R0+KsW1H3SkUWAxcLeWPH1Wp7tMvZV0WPpekxxtTFDrtaXw9tqtloQIipsqsTZSk0rPDFn6NossTFsUc/CE6l4bOqxPs4qR0rERVWF3inyUwXw7eHG9W9I2xROXSTvHwgL4nxuVr2q1zV2VF8UMH6OHtWazMT5cJ8wo5TfcoRPwnOk+Hy5GJl3J8zIHdWRovVyEimH3l2nQ/S/4iIz6rivx8rEo4mhjY2x1asMaNTxRu6r8yRERHs9A0+hwaesVxViNnqVjHJsrGKi+rULtoSprE8T/hh8ppDD5di97UZFIv8AzIk2VDHbHWWn1vQdFqonvptM+8K21Poi7gVWZm9ip5SJ+r8yPfFMcw886x6dz6KZvX7qfPw8GC1HewFlJasnwL1dGq/C4speaygdN6rm0N4vinj3j5Wjp7WuOzrEar21rHnG9dkX5EquWLcPTOl+odNrKxX8tvhjeKUfPg4ZFT8MvRSmfw1vrOm+kpP6s12RbX2finybp99Vkb4+K+JEeYt4EXcDkAAAAAAAAAAAAAAAAAAAAAAAAAAAAAAAAAAAAAAAAAAAAAAAAAAAAAAAAAAAAAAAAAAAAAAAAAAAAAAAAAAAAAAAAOZPUCIcROJmB4a4d2QzFpGvci9zXZ1fK75enuB+fuudV2tbapvZ20qo+zKrmoq/gb5ICI34YiPIWoqy1m2JWwr1ViO2apXedtkiupzRScdbbVebmRV6qUYN2SwGDnz2QjqQpsiru9/7Keal1KTadoT+mdOvrs8Ya/z+kLmwuGq4KkytVjRqbfG79Zy+pNpWKRs9h6d0/HosMYsXHz+rIFU4AAN9uoFacStOR1XtydZvKyRdpET1I2am3Lzn1Z0qMcxq8XieJhAETr1MDhki0Xg0zWYjY9N4YvjeXY67y33p/p0azVxW35Y5lczGNjajWNRrUTZETyQn+I2h6/WtaRtWOPD6KLgAFOfZ8ysZNE6KRnPG9NlYvhsNonypkrF6zXJG8Kj1xpNcBZSxXRVpzLu3r+BfQiZccxzDyn1H0X8Dl+pjj/Tnx+iLNerV3RdlTzRTF+zmq228Ts99rM5LIVGVJ7Us0LOrWr12KzaZTMmu1OfHGK9pmIerRuqb2i9R083j3q2as/mVEX8TfNF+ZRB2b38IONWD4p49VgdHUykSffU3L8XzT1+m4Fjo5FXZAOQAAAAAAAAAAAAAAAAAAAAAAAAAAAAAAAAAAAAAAAAAAAAAAAAAAAAAAAAAAAAAAAAAAAAAAAAAAAAAAAAAAAAAACKcQ9fY7h3pe1nb7nK2JFbHEidZJPJAPz/13rrMcRdQz5bKTSSySu2hi5vhib+yiBWtZtO0JBpTh0x8LbuYaqoqbtgT0JFMPy77ovpWtqRm1nj4YriBpivhJorFFnLXl6cv7KluXHs13qfo+PRXrkwRtWUMRFRUUwuRXFoDBNxOHbYkYn2ix8Sr5ohLxV2jd6x6Y6dGl0nfaPutylBldOAAAD5gYvU9BMlgrcDkT8HM35luWImrV9Y00Z9FfHMeyjHt5XKnouxAeLTXaZhZfCmoxtK1a2+NXI36ErBHG70T0VgiMd8v8J4Z3cgAAAA8OcxkeYxU9ORqLzNVWqvkviW2jeNkHqWjpqtPbDaPbhRVmB1aeSB/R0blYpBmNp2eJZcU47TS3mFg8L8TDJDZvSxteqr3bUciKhIwVjbd3no3Q470tnvG/syOqeH9bJMdZxzWV7KJurE6NeVyYt+YT+temMeoicul+23x8oDhM5l9EZ+HI0JX1b1R+/RfzRfVFI2207S80y4rY7zTJG0w394P8SqfE7SdfKxcsdqNO7sw+bH+a/JQxp3uAAAAAAAAAAAAAAAAAAAAAAAAAAAAAAAAAAAAAAAAAAAAAAAAAAAAAAAAAAAAAAAAAAAAAAAAAAAAAAAAAAAAAAL4AaRdqviHLqPWbtP15F+w4v4HIi9HyeYEL4caYZYVcrbYjmNXaNi+a+pIw035d16T6PGT/fMseOIhZO+/j/8AhIejbzxsiPEuJJNP94qfgkTqYs3hynq+kW0Xd7xKrsTTW9kq1f8A9SRrdvqRaxvLzTR4ZzZ6Y495hfkMbYoWxtTZGtRqJ8kJ+20bQ9yxVilIpHjaH0F4AAAAQ82RekeOsvd+Fsaqv5FtvEoutvFNPe0/EqDmXeV6p4Kq/vILw2872lZvCuRFxlmNF+JH7qhKweHo/oq2+nyV/VODM7UAAAADfbqD91Na+oNoaksI1NmyIj0+pDzV2l5B6k08Yddbt8Tym3DFE/g+5fNZV/cZ8Efa7P0d/wAjP7peZodZvMeEC4labZLXTLVmbSN6TInmnqRstPdw3q7pEXr+MxR48sj2bOIE2iuIVapLI5aGTX7PKxF6cy/hcR3nLfNioqIqLum3iB9AAAAAAAAAAAAAAAAAAAAAAAAAAAAAAAAAAAAAAAAAAAAAAAAAAAAAAAAAAAAAAAAAAAAAAAAAAAAAAAAAAAAAYzUeSTEYLIZBfCvXfJv6bIoH5o5O/PqDOWLk71fLbnV6qvnzKF+Kk3vFY912YeizHYuvWa3lRkab+6k+kdsbPb+n6eMGmrirHiP7vYVTUW4j9NMyJ/7iGLN4cx6sn/cJ/dW2l1RM9R5v/WT95Gp5h510eYjWYt/mP8ryTwX8ic9rifP6AVAAAAnj0AwGuMglDTlhebZ0qcie5jyTtWWh9R6mMGhtz54Utui+KkJ5BumPDTKtp5Z9eR2zZ28qb+pmw22nZ1npHWRi1P0rTxb/ACtcl7PUIneNwKgAAA8lECp+KDkdqPZPFIm7kXP+Z5d6xmJ10RHtEJPwvka7BSMRfibJ1MuGftdJ6NtE6KY/VMTK610XqzLlOau9EVsjFb1+RSY3hg1OGM2K2O3vCjYpZcNmWSRO5Jas/M1U9UUgzG07PDdRi+lktT4mX6S6Hyv6b0licgjlf39Vj1cvrt1KMLOgAAAAAAAAAAAAAAAAAAAAAAAAAAAAAAAAAAAAAAAAAAAAAAAAAAAAAAAAAAAAAAAAAAAAAAAAAAAAAAAAAAAARDi05W8NNSOaqov2CXr9APzswLEfmKjV8Flb+8R5TenRE6mm/wAwvld/TonQ2D3Hb2AIXxRstjw8ECr1kfzbexhzzxs471jmiumjH7yrGnZ+yW4bDV2WN6O/JSNHl5xgyziy1yR7SvujaZdpQWWO3SRiO/uJ9eY3e46bPGbFW8e8Q7wkAAAA32TdeiePUKTPG6puIeokyl/7HC/eCv03TzUi5r7ztDy31V1WNTn+jj/LX/KHGFybtr2H1545o1Vr2KioqCJ2ndkxZLY7xes8wu/TWbizmMina9Fla1Ekb5opOpaLQ9m6T1Omt08ZKzz4mGW3L9m1/QKAACjhXIxFc7ojU3X5DfYmYrzPiFH6ryH6UztudruZqv5Wr7IQb23l4t1nVfiNZkyRPG/9kw4UWt2Xa2/XdHGfBPDrPRObjJjWCZ3fCJuuxWCJURqH/jd3bylUgW8vEOqf81k2+ZfoPwSc93C/AK/fmSs1C1r05AAAAAAAAAAAAAAAAAAAAAAAAAAAAAAAAAAAAAAAAAAAAAAAAAAAAAAAAAAAAAAAAAAAAAAAAAAAAAAAAAAAAAj+vccuW0Zm6SIqrPTkYif9qgfmzWc7H5KNXfC6GVOZPRUXqI8pGnyfTy1t8TC+a8yWK8UzV3SRiOQ2Ec8vcsWSMtK3j4dgZVY8U7iSZKCqjt+6Zuqem5Gzzzs809ZZ+7URjj2QNPFDA4uFgcPdWsqJ+irsm0ar9093kvoZsWTbiXc+luuVxR+Fz+PaVlIqK3mRUVvkvkpKeixzETHuJ1BybLvsFeXDlRrVVVRETxVfIQttMRG9uIQLW2uWRsfjsZJzPdukkqeXshHyZY8Q4f1D6jiInT6afPEq4VrpVXbdzl+qqR45ed82nf3fceOuSpuyrM5PZile2WaulzWjeKz/AEfDq00DtpYns/rJsUmJY7Y71n7o2ZPTuoLOn7yTwKqsXo9nk5C+l+1sOldTyaHLGTH/ADHyt7CajoZ2u19aVve7fHHvsqL8iXS8Wh6z0/q2n1tYtjnn3ZXZd9i/Zs4cbDZTeDbpv5FFdvmEJ15rGKlUdjqUqPsSbpI9q78iGHJeIjaHF+pevUxYvw2nne0+VWq/ddyLH6vNJmZ8pXw3vtq59sKu5UnarfqZcM7W2dT6S1MYtb22niYW8voS9nq2zptWG1as0712bGxXKo32Ys+SMWO17e0KKlV2SyruROZ882zU9d1IFp3l4Zqcn1Mlr/My/SPQOMdh9HYeg9nI+GrGjm+i7FGBIAAAAAAAAAAAAAAAAAAAAAAAAAAAAAAAAAAAAAAAAAAAAAAAAAAAAAAAAAAAAAAAAAAAAAAAAAAAAAAAAAAAAAPl8aSMcxybtcnKqeqAfnnx10XJoviNkqjIXMqzyLPA7boqO67IBmeHucTJYptOSTeev0RPVpLw23jaXqnpXqcajTfQtP3V/wAJTNM2tC+eRdmMTmVTLPEbuny5a46Tkt4hRWevrksrZsq5XI968vyINrbzu8U6lqp1OptlmfMsYWte+0fsqbL9Siu/wlGB4g5HDtbDIv2iBP1XeKIZqZZq6TpvqbUaTatvur8JVX4q4tzd5688bvRvUzVzx7uox+s9JaI+pWd3zZ4q41jV+zVJpHbdObog/EQszetNPWJ+jSUUzeusrmkWJsncRL05I+m/sYL5Zs5bqPqTVayO3xH6Pbpnh/ay7Us3nLXgXqm/4nFaYd+ZTOj+mMmr2y6jeK/3lP8AGaVxOKY1IajHPT9d6bqpJrSId7pOjaPSxtSkTP6sq2NjG7MY1qeiIhdw2da1jxGzpsY6nbarZ6sUqL47tQbQwZtJhyxtkpE/wi2c4cY+5G6TH/xabZdm/qqYb4Inw5rqXpPBmibafiyurNfIafu8j1lrzM8FRdt/cjbTWXn2XFn0OXt/LMM9Q4m5aoxrJ0jsNam3xJ1MsZ7Rw3ml9XarFEReO6GTTi0vcqn6OTvfL4uhX68tl/tvbt4x8sJlOIeWybHRpIleNU22YnUstlmWn1vqnWamJrWe2JRh8iyKqqqucvVVXxUx/q5q1t53ny+OVQbPTjrD6N2Gy3osTkcVidpZ9NlnDlrkj2lfOOvxZKlDbhcjmyNRfrsT6z3RvD27Saqupw1zV94RPiPqJtLHpjIHp3034/6KGLNbaNnLereqfRwxpcc8z5dXZ60NNrbiLRR0XNTou+0TuXwTl8EIjzJv/G1GtRETZETZEA+wAAAAAAAAAAAAAAAAAAAAAAAAAAAAAAAAAAAAAAAAAAAAAAAAAAAAAAAAAAAAAAAAAAAAAAAAAAAAAAAAAAAAAFOdo7hQvELSy3qEaLlsc1ZIkTosjfNANI8ffu6byfOjXRTRO5ZI3dF90Uuraazum6DXZNHmjNj9me1HxClzVFKkEK12u/GqL4mTJmm0bOg6t6oyazF9GkdsT5R7G4PIZd3LSrPl280Ton1MVazPhz+k6dqNTP8Ao13e6fQmoII1kdQcrU8eVUUu+nZsMnpvqGOvdOPhhZ6s1Z/JPG6N3o5Ni3aWmyYb457bxs6uVS3djcFRy38SATXh5phMnaW/ZYjq8Cpyov6ymfFTfl1/pXpEanLOfJG9a/5Wo1OVEROiImyJ6ISd3p0V7Y7YlyFwAAKBg9Wadhz+OejmJ9pjaqxv809iy+PujhpOudLprsM7V+6PClrEL68j4npyuYqoqELbadnj+THOO00nzDqDG55VUpursz2ndHZHPPR8bEirp4yP6fl6mSuObN30roWo10714r8yn1Hhrh6zW9/3thyeq7ISK4ax5dxpfSOixRE5N7S6M1w3x89eSTHo6CZE3azfoothj2YOoekdNekzp42lEsPq/JaWimoq1r0aqojXfqO9jBXJNOHK9P67qum1th2/T9mHR13UeVZGnNPatSIxqeqqvgWTMzO8tHqNRfPecl53mW+vAjhVBwz0pFHKxq5O2iSWXp12X9nf2KMCzQAAAAAAAAAAAAAAAAAAAAAAAAAAAAAAAAAAAAAAAAAAAAAAAAAAAAAAAAAAAAAAAAAAAAAAAAAAAAAAAAAAAAAAD55fUDQHtH6ZTTfFLKNY1GxW1Swz0XfxArKpWdZtRQp4vejfzUrHLLgx/UyVp8yvfDY2HFY6KtCxG8rUVyp0Vyk+kRWHtvT9JTSYa48ce3L2p0+XoN0z9NmMzGncfm4XMswN51RdpGp1QttWLNbr+k6bWVmMsbfqqfU+lbWnbCo5Oes78EieH1Il8cw8v6x0XL0++080nxLAK1UTcsaNyxN3InqoViN5Xxp3Hx4zC1a8aIi8iOcqeaqT6RtV7b0rTV0+kpSsfDIlWxAAAAAKwQqDiPRZT1A97Go1szUfsnqQ8tdpeT+q9LGHWb18TyiiJ1MUuYTTRWiv0z/HLqqysx3wt2/lP/ozYsW/Mut9P+n51k/Xz8V+PlacMMdeFkUMbY42JsjW+CEqIiI2h6bix1x0ilI2iPZ9hlcL+4rCnhUXEbHJSzz5GoiNnaj+hDzRtZ5P6r0v0dbNq+LJD2dNNP1HxUxLeRXRVXLZk9kaYnMv0EaiouygfQAAAAAAAAAAAAAAAAAAAAAAAAAAAAAAAAAAAAAAAAAAAAAAAAAAAAAAAAAAAAAAAAAAAAAAAAAAAAAAAAAAAAAAAA1k7ZOjltYjHanrwbvrv7mZyeKNXwVQNW9Nta7N00d4d6395WvlsOlxvq6b/ML226f3E97fttMQAAo82Rx1fK05KlpqPjeip4dW+6CYiYR9Zo8erxThyxxP9lL6n0/Pp7IyVpE3jX4o3eSoQslO2Xj3VumX0GecVvHsxVXb7TFzeHOm/wCZbHlrsW3fG/y2Dr7fZoFb+Hu27fkTqzvV7ti2+nXb4h9lWUAAAAAQKu4quR+XrtT8TYk3IueeXmXrT/mqx+jB6T0+/P5NkKp9wxd5XeiFmOvdLTdF6XbXaiKf9MeV014I6sDIIWIyONOVqJ+8mVjaNnsWLFXFSMdPEOwqyAAQpvtyrTiun8fqO6b8hGz+XnPraP8AWpPzC5OxRi4H3M7kXM3njYyJjvRFXqYHDtsEQAAAAAAAAAAAAAAAAAAAAAAAAAAAAAAAAAAAAAAAAAAAAAAAAAAAAAAAAAAAAAAAAAAAAAAAAAAAAAAAAAAAAAAAAAIlxQwTdRaCzePkibIr6r1ai/tIm6AfnPQf9gysTn7t7qVEdv5bL1Kx5SdHl+nnpefaYXzDK2aKORq7tc1FRfoT45jd7njt30raPeH2F4ACkxvwj+tcC3N4WVGNRbMKK+Ny+eyeBZlrFoaP1B038dppiI+6vhTCxuik2Xo5q7KnuQvd49zXld2j8qzLYGvIjt3xp3b0XxQnYp3q9k9P638To6T7xG0syXN0AAADxAKqMRXOXZrU3X2Qb7KWtFed/ClNYZVMvnZ5mKrmIvKz5ELJO88PG+u638Xq72jx7LL0ThWYbCRfD99OiPkX5+RJxViIejenenxpNJWZj7rRvKQGRvwAA6+XiFJ+FUcTLbbWeZAi9ImIi/MjZ55eXesdRGTW9kf9MNmexphZKmjcjknI1G2rHK1fNUQwOSbDgAAAAAAAAAAAAAAAAAAAAAAAAAAAAAAAAAAAAAAAAAAAAAAAAAAAAAAAAAAAAAAAAAAAAAAAAAAAAAAAAAAAAAAAAB8SxNmifE5N2varVT2UD86uM2kptH8Q8vQfGscT5llh6dHMd16ASrQWaZlMIyJz9566cj09vJSZgtvGz1v0v1CNTpYpM/dXykqrsZHRxO4FQAm2/XwApPWWPTHZ+1G3o1y94n1IWWNrPG/UGljT67JWI4nmHfovVK6fv8squ+yzKiSJtvt7lcV+2Wb0/wBYnQZtrT9k+VwVbUN2uyxBI2SJ6bo5F6EyOfD1nDnplpGTHO8S7RsyRMT4PqFQERM+BNl8yuykTG+2/KD681lHVruxlCRrppOkj2r0RPQwZMkRGzivUnXq48f4bTzzPlA9N0/0jnacLk3RZEV3yTqR8cby4jpWnnUaylJ+eV6NRGt2RERE6bJ5E57ZFYrG1fAFQAB58hdix1KW1K9GsjYrt/f0KWntjeUfU6iuDDbNbiIUfbnnzeXc9qOfNZk5Wt269V6EC07y8S1mptqM1stvd+h3CDSiaN0BicWrGslbCj5UT9pU3CKmYAAAAAAAAAAAAAAAAAAAAAAAAAAAAAAAAAAAAAAAAAAAAAAAAAAAAAAAAAAAAAAAAAAAAAAAAAAAAAAAAAAAAAAAAAF6oBQnal4Vy6u023UWLg58jjWq6RrfxSRee3TqqAag6dzljTuSbYajuXfllYqeXovuXY7dstr0nqV9BnjJXx7rlxWUrZemy3Uka5jk+JE8Wr6KTazvzD1/R6zFq8UZsM7/APZ6yqV+wFRfAH7Kp4pI1M+zl8e6RFIuaOXl/rKa/jY287IWnRTC5Bm8BqzIYCRO4k54lX4on/hVC+uSa+G36b1vU6G2+OePiU7xfE/GWWI2/FJWk9Wpu0z11EeJdxo/WWnyxtnjtn+3+WXbrjTjkRf0lGnsqL/oX/Uq2keo+nbb/Vh5bvEXA1GOdFLJacidGxt8fquxb9asIup9VaDHX7bd0/ohuc4lZDJNdDUYlOF3ReXq5U+ZivmmXI9S9WanVROPFHZX9PKIvkWRyucqq5eqqvmphly1rTad58pJw+exmp6vMm++6J89lMmL80N96XtEa+m//vErkXz6+u/5k2Y2ev8AvO7goAHD3NjYr3uRrU6q5V6Ign9Vtr1rE2meI91V681e3LS/o+k9Vqxr1X9tf9CNlvvxDzH1N138Vb6GGZ7Y8rF7LvCWXVupW6kyMLv0Xjl5o1cnwyy+SJ8jA5Buw1u3kieyAcgAAAAAAAAAAAAAAAAAAAAAAAAAAAAAAAAAAAAAAAAAAAAAAAAAAAAAAAAAAAAAAAAAAAAAAAAAAAAAAAAAAAAAAAAAA+JImyscx7Uc1ycqtXwVPQDUbtEdni1jbs+qdLVllpy7vs1Y0VXRr4qqIieAFA4bOZDTtpZaz1RqLtJG7wX2VC+t5r4bLp3Vc+hv34Z/j2lY+E4h4rJo1llfsc/gvN+FV9iTXLWXo3TvVWm1NYjL9tv7JLDbr2Wo6GeKRP6LkMkTE+7ocefHk/JMT/Lqv5OpjK7p7UzGNairtzJuvyKWtFeWPU6zFpaTkyT4524UtqXMOzmWmt9eRV5Wb+hCvbund471bXTrNTbL7MRy9S1rOX0jFVfIEeXbFVnl/k4ZH/1UVRETLNTDkv8AkrM/w9LMLkpE3bRsr8mKV7JZa9P1Fv8Aon+j4kxV+JFR9OdvzYpXslS+j1FfzUn+jyuhezfmTlVPJehbyjzWY8w+eVUC17MRkJMXkYLbPGJ2+3qhWs7TulaPU202auWvmF3YnO0s1VZPWmjVzm7uYqoitUnVvFoey6HqWHWY63paN/eHsfNFG1XPkja1PFVenQrOybbJWsb2mIj92EyetsLjWO5rLZ3on8nF1VSy2WK8tNrPUWi0sTvbun4hXmpNcX89vDHvWq/sMX8Se5Hvlm3Dz/q/qPUa6ZrH21+ISXhBwSzXFDKRyJEtfDxv++tPRURU9G9OqmHZzje/S+mcbpHC1cPioGwVa7Ea1qJ+JfVfcqMsAAAAAAAAAAAAAAAAAAAAAAAAAAAAAAAAAAAAAAAAAAAAAAAAAAAAAAAAAAAAAAAAAAAAAAAAAAAAAAAAAAAAAAAAAAAAA+HRNc1zXIjmuTZWr1RQKT4q9l/T+uHSZLDLHicq7dyq3fupF90TwA1Q4hcKNTcNbncZmmqwOX4LMaKsb/qNhEo7ViFfuppI/P4XKgiZhlrmvT8kzH8uJrs9hPvZpJP6ztxM7qXy3vzeZn+XTuiqGNLdL6EtZxrbNhe4q7+O3V3yMlMU2dP0b01k1v35J7a/5/ZYGN0XhcYxEbUbM/8Abl6kiMdYd5o/T+j00bRXef1ZeKrXrptDBExP6LEQyREQ2+PDTHG1IiP4dyLt4dPkpVl3n/2HDkR3iiL8+o4UmN/P+HksYnH22q2elXk38d2IWTWJRc2g0+WP9SkSiuc4aULMb5caroJdt0jVd2qY7YYnw5fqPpDBkrN9NPbPx7Kyt1JaFh9edqtkjVUVFI1q7TtLzrPgvhvOPJG0w64rMkK7xyPYvq1din7LKZLU/LMw7HXLMiK2SxI5q+KK9VK7yrbPktxNpn+Uh0dw31Rr2ZY8BipriNX45NtmN+ar0LWPfdsVw27H0VWaK/rS6yZ7VRzaUHVvycqlVJ/Rsri8TSwtOOlj60VavEiNZHG3ZEA9YAAAAAAAAAAAAAAAAAAAAAAAAAAAAAAAAAAAAAAAAAAAAAAAAAAAAAAAAAAAAAAAAAAAAAAAAAAAAAAAAAAAAAAAAAAAAAAAAY3O6dxmpcdLjctUit1JWq10cjd/HzRfJQNUuLXZOv4vv8roty3KnV7qTl+8Z5/D6ga7ZLD38PbfUyFWWtOxdlZI1UUDzNTlciqm6IoVidp5XlpfJVsnhqy1XJtGxGvYn6qk7HbevD2no+txanSU+n7e3uyydU3Lm18+AAAAAdNu3DRrPtTvRkUacyqq7Ftrdsbyw589MOOcl52iFI6kyqZrLWLjWo1sjvhTbyId7d07vF+q638ZqbZ493ko4m7k7TatKtLYneuzWRNVyqv0LWubDcJ+yZkMw6LJ6ze6jV6OZUZ/KSdPP0QDa7T2msXpXGRY3D0oadaJNkZGn96r5qBk0TZQOQAAAAAAAAAAAAAAAAAAAAAAAAAAAAAAAAAAAAAAAAAAAAAAAAAAAAAAAAAAAAAAAAAAAAAAAAAAAAAAAAAAAAAAAAAAAAAAAAAAPlzVVFRF2389vACJa04VaU17A5mbxUMsmyok7E5ZE6eO4GsfF/sr29J42fN6XsTZCnFu+Sq5v3kbU6qqeqIBSOCz13Tt3vIFciIu0kbuiLt5F9L9rZ9M6pl0GWL4vHwtXA6vxudjajJUhsbfFE5dt1JVckWeo9N69ptbSNrbW94Zv0809UMmzde28cg2VhyibjY58sbl8/j8JGr7k7Edt0Yi7qpZa8Vjdrdf1TT6Ou+a23wqzVOsbOope6T7mq38LU8/mRb5Js8y6117L1C/bvtWFj8Dezzc4kuXKZl89DDN/C5G/FOvonsY3P8A6Nt9E8KdKaArpFhcXDHJt8U705nu+qgS5G7AcgAAAAAAAAAAAAAAAAAAAAAAAAAAAAAAAAAAAAAAAAAAAAAAAAAAAAAAAAAAAAAAAAAAAAAAAAAAAAAAAAAAAAAAAAAAAAAAAAAAAAAAvVAPh8bXtcj2o5HJsqKm6KgGvvGXsu0dUOnzWlWxUsku7pK3hHKvt6KoGqmpdF6j0VedXy+OtU5GLsknKvKvyUp4X0vNZ3rO0vjHa1zOOajYrj3tT9V/UyxltDcaT1DrdNxW28fqyScTs3sn8l0/olfq2bCPWGu/R47evs7cRWLZ7prunwJsUnLZEz+ptdljbu2Y/H4rMaluMhpVrd+xI7ZEY1XdfmY5mZ8tJky3yT3XneWx3CPsmzyzQ5bW6pGxuz2UWLuq/wBZQx7/AC2lx+NrYqrFUpwxwQRNRrY2Js1EQKPUAAAAAAAAAAAAAAAAAAAAAAAAAAAAAAAAAAAAAAAAAAAAAAAAAAAAAAAAAAAAAAAAAAAAAAAAAAAAAAAAAAAAAAAAAAAAAAAAAAAAAAAAAAA+Vbuiou3UDH5jTuMz1Z1bKUa1yNU25ZmI5EArTUHZd4e56R0raElCR3nWdsifQCNu7Gei132yeURP6yAZjEdkzh7jXsfPDbuq1d/vpOigWbgNE6e0tC2LD4qrVRvg5jE3/MDNo3YDkAAAAAAAAAAAAAAAAAAAAAAAAAAAAAAAAAAAAAAAAAAAAAAAAAAAAAAAAAAAAAAAAAAAAAAAAAAAAAAAAAAAAAAAAAAAAAAAAAAAAAAAAAAAAAAAAAAAAAAAAAAAAAAAAAAAAAAAAAAAAAAAAAAAAAAAAAAAAAAAAAAAAAAAAAAAAAAAAAAAAAAAAAAAAAAAAAAAAAAAAAAAAAAAAAAAAAAAAAAAAAAAAAAAAAAAAAAAAAAAAAAAAAAAAAAAAAAAAAAAAAAAAAAAAAAAAAAAAAAAAAAAAAAAAAAAAAAAAAAAAAAAAAAAAAAAAAAAAAAAAOi3dgoV5LNqRsMETeZ8j12RqeoEAk7Q3DGJ7mO1VU3auy7Mev8AkB9Q9oThjO/lbqymn9Zr0/yAmmI1BitQVktYq/Wuwr154Xo5AMgAAAAAAAAAAAAAABw53K1XLt0TfqBGcfxN0hlM2/B089TmyLF5Vga/rv6IBJ0XfyAAAAAAAAAAAAAAAAAAAAq7Jv1X5AR3VnELTGhmRP1Dl69Dvl2Y16qrnfROvkBGf/EVww32/hVV/wDg/wD0AyeI40cPs5O2vR1Tj5JneDFcrVX80QCZtkR7Uc3qi9UVF6KnqBh9TazwOjqbLeeyVehC93KxZXbcy+yAe7E5ejnKMV/G2orVWZOaOWN27XIB7AAAAAAAAAAAAAAAAAAAAAAAAAAAAAAAAAAAAAAAAAAAAAAAAAAAAAAAAAAAAAAAAAACA8dnOj4R6oe1yoqVF2/+SAaJaD0Bm+I+ZdiMGkTrTY1l2lk5U2T3AsF3ZL4nsZz/AGLHOVPJLab/ALgIrpTWWq+C+rOVFsVpq7+WxSkVe7e35Ab+6U1LU1dp6hnKK81e5C2VvXfbfxT6AZcBv7Acc2/kA39lA5A439gOdwAHG/QDlF38gG/sAA8WbVUw15UVUVIH7Knl8Kgfntw1uzf7XcTO17klfkt3O38d3ldh+ijd/MoPrf2AAFXZAG4Df2A45uqIByq7Acc3y/MBv18ACu28l/IBuqeQBHe35AN9vEDlF3AKuwHG6+gBy9PNANLe2RK//aNTYr15W0m7Jv4ARTSvZx17rPA1M5ioaT6dpFVneWOVU6+gHRq/s/a+0DjFy+SoQuqxOTmkqz87mdFXfby8PEC1uy7xvvz5iPReetyWYp0X7FPKqq9Hp+oq+m24Em7VfDXVOuG4a/p6lLkWVEeyWvG5OiqqbO2Vfbb6gWB2ftHZbQ/Dqpi80ix21c6VYlXfu0XyAskAAAAAAAAAAAAAAAAAAAAAAAAAAAAAAAAAAAAAAAAAAAAAAAAAAAAAAAAAAAAAAAAAAgHHn+aDVX9jX/E0DV/sibJxOlRU3X7G/oibgbtojVTojVT0QDSntfPxzuI8KU+7W0lVqWuT18t/cC/Oy2283g9jFu78veSLD/0t+gEj4ncY9OcLMc2fLSLLclaqwU41+OT59PhQDXLKdtDVMs3/AJbg8TVi33RsiukVU+fQCSYDtpxSY2ymd06kFxsarXfUfzRyP/ZVF6t+e6ldhKuAPaAy/FPOXMRlsXTruiiWeOau5U2T9nlXx+e5QXPqHUeO0tiLOWys6QU67eZ7/P5InqBq9qzto31uSxaZwFZKiLtHYuqrnPT15U22/MrsOdJ9tC8lmOPVGn4H11VEdYpOVrmp68q+P5lBs1pXV2I1phoMvhLKWas3g5PFq+ip5KBQvFbtRZfQfEGbT9PC05aNF7WzOkkVXyovVVTp8K/mBhNT9tSbmSPTWm40Tb4prz1Vebbyanl9SuwxmB7aOooLDEzWn8fbg5kVywK6JyJv128epQbLcP8AiXgOJWHbk8FY7xqLyzQv6SRO28FT/MDO5xdsLf8A7PJ/hUD84NLZuvpnXtTL22SSQUrvevbH+JyI/rt7lRd2oe2jnbFh7cFp6hWg/Vdac6V+3qqJsgGW0b2z3yXYq+rMHBHA9UR1qk5fg91Yv+pQbL4LUOO1Li4MnirDLNWdqOa9i77ey+gGQfIjWK5yoiIm+6r0RAKE4n9q3DaPuS4rT1FuZvxLyyPfJyQsX57Lv/cBV8PbP1i206STC4Z8G/8AJ7PaqJ6I7df3AXhwk7ReneJkjcdNH+iczt/usr92yf1Hefy2AtTI3EpULNtzeZsETpNkXx5U3/yA1j0/2xny6ufVzuIrVMLzvb3sKq6SJERdl/pbqiJ5eIHi1P20by3nxac09USoiqjJ7r3K56b+PKm2394F08FuKNriZoqTOX6Dac0D3MekaryP2TfdAKko9sWaPW01HLYatBhGTuhWWJyuljRFVOb0X5bIB5tXdtCw27JDpfT9eSq1VRtm65yuf78qbbATXSvaMt5bhNmNZX8NEy5jHd2kcblSOVy+C+HRAO/s+ceshxVv5DGZjH1q1qszvo5K26Nc1V8FRfMC8H+AGtfEHtQ5vSfEyTTdXC0ZKFadsEivevPLuqJvvt8Pj6KBsbUnSzTinRqN7xiP23323TcDTLtkJvxJrdU/3FgGwvZx5V4P4BEb0SJyfh89wJtq11CPTOSflEiSn9mk77vE2RW8qgfn9wwSR3FXCJjEd/xJvdcvReTm/wBANte0Fxwt8JGY6rjcdWt3b3O9HTqvJG1u2/RPFd1TzAl/B3X8vEvRFXUM9OOnNI98ckcb+ZFVu3VOibb+gE3AAAAAAAAAAAAAAAAAAAAAAAAAAAAAAAAAAAAAAAAAAAAAAAAAAAAAAAAAAAAAAAAAAIBx5/mg1V/Y1/xNA0O0TrnN8P8AKuymCmbDZcxWK57UVNlK7CcT9qDihYjWNc5Gz+lHXYjigiOlcNe4m65qY6/k2x2MhNtLasu6InmnuvsVH6FYbFY/Q+loaFVEjo4ytsif0WpuqlBoJm8jmuNfE1ys55LWTs91XZvukbN/L6dQNtdK9l7h/g8WyDI439LXFZ97YsOXqvsiL0ApTtE9nuloSk3Ummlm/Riu5bFd/XuV/aRf8tiu46+xp/ODdT1pO/eUFo9sOTJt0FTbW5/sTrKfaVYvl5IoFF8CIuFstuy3X8m1hVTuEmVUhVPdUKi39SdnfhtxBgbY0FmaVC2i7qyKTvY3e3Kq7oUFrcG+FzOFWlkw63ftliWVZppWtVrd18kTdegGnHaO68YNQb+Urf3AWpwF7M2L1DgotR6wbPIyz1r02ryt5f2nL57+nQruJvrzsnaOyODsSabgnxmSijc+Lker2yORF2aqKvmuyblBrhwk1jlOFfE2t3vNGz7SlO7Aq7Nciu5VX5+4G/GWmbPp+3Kzq19Vzmr6orNwPzPdUnyWdfUqxq+eew5jGp5qruhUbh8POyfpLHYKCbVEEuSyUzGvkar1Y2JVT8KbL1+ZQRLjj2YsRhNP2NRaOZLEtRvPPTcvOis81Rfb0AwfZG4iWMbqd+krU7/sV1qugY5fwyJ5AXF2oNf2tF6CWvj5e6t5J3co9F6tb5qgFBdn3hbpzW1yfNauyNZtGB2za0s6MdM/zV26+AGyl3h9wfu439Hvo6ebEjeVHMkYj2+6O38QNVuMPD6twp1NTymlc3FaoukSWs6OZHSQOTyVUXqhUbcaL1h/DfhGzNPc1082OlSbZf10YqKUH57TxOnyMkbWq58kzmtRPFVVeifmBtxwX7L2AjwNbMayqSXb9pneJVk6MhT0XZeqgXxV0/jNN6fmx+Ipw06zIn8scbdk8APzWzSOfmryJurltS+Hn8agbS8DOzJhrOArZ7WVWS3ZspzxVH/CyNnkq9eu/wBAJtx50ziNJ8C8zj8LRho1W8i93E3bf4vMCn+xau+tMv8A2NP3lZG4zk3TYoPz841O5uN+VXbb+PM/egG+2G/4PTX/ANhn+FANOO2R/OTV6b/xJgEL012gdeaSwdXDYjIQxVKyKjGujRy7KoHRqnjRr3X9JMVk8nJNXe9FWKvHsrl2VNui9fEC6+zBwKv4zJR611HVdWdE3+I15E2cir+uv03Ax3bYXbLaa36/czfvaBaHZLXfhDX6bfxyZP3AXMAAAAAAAAAAAAAAAAAAAAAAAAAAAAAAAAAAAAAAAAAAAAAAAAAAAAAAAAAAAAAAAAAAQDjz/NBqr+xr/iaBqh2XtN4jU3EKSnmcfXv10quf3czd27gbXZPgLw4ylJ9R+lqMDX/8yu3kenyUDSrjBoJOFuu7GIp2pHxxI2eCT8LkRfDz8vUruNyNOZm7rfgRHdcvPdvYaRiqnir+RWlBqL2eclVw/F/CT3laxneujRzl2Rqqm25XYfoJv7Jt5lBU/aaytPH8JMtFadGsltrYomqu3M71QCiOxp/OFc/sTv3gbcanwOK1Lh7GLzbIpKU6crkeqJsvqi+oGr+sexrk47UtnSeVrWqrl5mQW15XNT05k6L/AHFdxUmo9Ba/4SWm2rda5jURyKyxXevdqvzQoNrOzXxYv8SdPT1swrJMhjlax0qL1lb6qnqBrH2i1RvGLPqqbokzV29eiAbrcLctSzGgMJaovj7pKrI9mrvyuRNlQCVyyMhifLI5GMYiuc5fBETzUD86NeWYc9xayk2NXnjs5TaJW+fxInT6gfoDK10WkHMenxMoIi7+qRgfnlou7XxfEfHW7TmpBDkGue53giJJ1UqP0frWGWoIp43tdHIxHNVF6ORevQoMBxFzNHCaKzF3IOakDasiKjl25lVPADSDgDTnyXF/DOqNcnLO6V23XlaVF1dtWpK7EYG0jVWGOR7HbeSr4FBR/C/g3nOKVe3JhchRhdXcnPFNKrV29dkAnf8A4PdfcqKmRxW6+kz/APQD5Xsda8VU5shitlXw71y7f3AbF6E0C/htwpsafmtNtzx1J3vka3ZN1YvRANK+F2Or5bivhKVpnPDJkPiT12VVT+9AP0aYxGpsibIibInogHTkf+H2f+k79wH506QowZLipRqWWI+KXKq1yL5p3gH6NQQsgYyONEa1jUY1E8kTwQCse0wx0nBzNo1FVdmL0/rAUP2MJWR64ysauRHOp7tT16lZG5DnexQfnvxfsw2+NGVlgkR7Pt7ERU8/iTcDfzDf8Gpf9Bn+EDTftkfzk1f7EwC4OAvDHRmoOFmEyGT01jrVqWNyvlkj3cvUCz8Zwx0ZhrKWcfprGV5mpsj2QpugEl5Ua1E6dE28ANSu21/xbTX/AEZv8TQLQ7JP80Ff+2Tf5AXOAAAAAAAAAAAAAAAAAAAAAAAAAAAAAAAAAAAAAAAAAAAAAAAAAAAAAAAAAAAAAAAAAAV/x2VX8ItUtRP/AORU/wD9NA1k7ITV/wBpsyp1RKTt18kA3bTwA077ZWmrMGrcfnkgd9ls10hWRE3RHt8lAn/ZI17LqDSs+lrFPZuJbsybfdsjXeXh0Apnj7wdyfD7VdjNYqtL+hrMve15IUVfs6/srsV3GV0x2vdX4TGMpZChTyskScrbMjla9U99t9ygr7iPxT1NxVu9/lHL9nrpzR1ot1ZF7qBZHY2ZtxAvORd0SmqfUC0O1fhdXZHBUbWAW26lWcq2o6rlR3z6AUboPtL600JVbjrKRZapH0bFb352/wDd4geXih2gdR8U6UeJmq1qVHmRe4h3e5y+XVUAvnsm8PcnpbAXs1k4XV3ZJWrFE5NnI1PMDXvtG/zw6g/6rf8ACB88NONmqeFLn1aP39F68y07G6Jv6p6ASLXnan1hrLGSYqpVgxFeZqtlWByue9FTZU39wM32aOCN/O6gq6tztV0WLqO7yFkqfFNJ5L18t9lA28zbP/Jr3/Qfsn/aoH5kX4pFylpjWuV/fP8AhROv4lAtbQXaa1loXGNxT2Q5StF0jZZ3RzPbf0AxXETjVq/iw6LH2+SGsrk5adRFXmd7+oGwfZf4NWtG0pNR5uFI8hcZtDG5PijZ6gWfxY4fQcR9G3MNIrWzqnPXkcn4HoBo/Sv604FarlfAktK3E5WOSRirFO1P3gWrF21M39h5X6ZpOscuyyJKuyr67bAYzQHFbipxB4mY+zSt2H1FsN76CJq/Z2R+aO+n94G32oGr/B7JJsqqtSbw9VYoGgXByJ/+2bAJtu5Mgu7U8U23A/Q9F6gefJ7pjrWybr3Tun0A/PPQLVbxhxqO6K3L9U8/5QD9FE33AxOrtPQ6q03kMLPsjLcLo91TflVU6KBoHk8dqzgVrdZIu+qWqz17qblXu52f5ooE6y/a91nlcTJRgoUaUsjOV1mLfmTp1VEApanZmuZuvPM90ksthj3ucu6ucrk6gfpniFRuHp+0DP8ACgGnXbGav+0iq53wtWk3ZfUDYbs3sczg9p5HJsqwuXb/ALgLOA4XwA1K7bDebL6c3XZEhl33/rNAs7slcycJK7VaqJ9qlci+u+3+gF0AAAAAAAAAAAAAAAAAAAAAAAAAAAAAAAAAAAAAAAAAAAAAAAAAAAAAAAAAAAAAAAAAAHjyuKq5rHWMdeibNVsMVkkap0cigRrRXCbSfD+xPYwGOSvNP0c9zuZdvQCYgYvUOmMTqrHux+ZpxXKrl37uRN9l9UA82l9E4HRlWSrgsfFSikXmejE6u+oGTu42rkqr6lyCOxXk/HHI3dHAVvkezPwyyU/fPwSwr6Qyq1PyAzuC4N6H07Qno0MDWbFYYrJFenM5yfNQO3RPCjSvD2SeXT+PStLMmznuXmXb0Alz4myNVrkRUcmyoqbooEA1JwG0Bqm061kMHEkzvF0C93v+QHzpzgDw80vYSzRwMT5kXdrrC95yr6puBYDYWsRqNRGo1NmoibIifID8/u0Qu3GXPKn/AK7f3IBtpW4O6J1tpjDWMxg4JJ/scW8sfwOX4U8VQDuw/Z14bYSy2zX0/HJI1yOb3z1eiKnzAsWCrHWiZFExkccfRjGN2RqemwHY5qParXIioqbKigQTG8D9C4rUMufrYWP7bK5XKsi8zEVfNGr0A8We7PHDrUVt9u1g2xyvXdywP5EX6IBkNK8FNC6NlSbFYSFJkXdJJvvHIvtuBN0jRFRfNOn0A+lTdNlAj+q9Bac1tWSvncZBban4XKmzm/JQIO3svcMWy94mGl3332WZdvyAsDTmkcHpKmlPCY6vShTxSNqIrvmvmBlpImyxujem7XIrVRfNFAhGE4K6J09qT+EOOxLYr6OVzX77o1y77qifUCcInhv1APbztVq+C+PugEGx3BTRGL1J/CKtiGJkEer0eq7ojl89gJ0ibAcP/D5e+4FHcQOMHCTJZmbTGq4EtLXdyundFu1ip5bp1ArHVeT7PmnqMtvA4xcxklRe5h53d2jl8FX2QCruFOjLnETiJTrVq6xQJOk9h0bd2RMRd9kKyP0MrwthiZE3wYiNT5ImxQRTW3CfSnEKavPqDHpZmrpsyRruVdvT5ASPDYelgMdXxuOhbBUrsRkcaeSAe0AqbgRjW3DfTfEGtDBqCi20kDuaJ3g5v1Ayem9NY3SeJhxWJgSvUhReVifvAygAAAAAAAAAAAAAAAAAAAAAAAAAAAAAAAAAAAAAAAAAAAAAAAAAAAAAAAAAAAAAAAAAAAAAAAAAAAAAAAAA1G419n/WOp+KM2UxFRtilkZGvdNzIiQ7dF3A2o0/j34rC0aEjkc+tAyJzk8FVEAyIAAAAAAAAAAAAAAAAAAAcPTmaqL4L0X3A1u4l9kr+E2at5jAZllWS09ZJIJ2fDuvoqARTCdi3OSWG/pfP1IYN/i+ztVXKn1A2O4dcMcBw1xiUcNX2e7rLO9PjkX1VQJcjUTwA5AAAAAAAAAAAAAAAAAAAAAAAAAAAAAAAAAAAAAAAAAAAAAAAAAAAAAAAAAAAAAAAAAAAAAAAAAAAAAAAAAAAAAAAAHHKipt5AEQDkAAAAAAAAAAAAAAAAAAACpuBwjeu4HOwHCJsByAAAAAAAAAAAAAAAAAAAAAAAAAAAAAAAAAAAAAAAAAAAAAAAAAAAAAAAAAAAAAAAAAAAAAAAAAAAAAAAAAAAAAAAAAAAAAAAAAAAAAAAAAAAAAAAAAAAAAAAAAAAAAAAAAAAAAAAAAAAAAAAAAAAAAAAAAAAAAAAAAAAAAAAAAAAAAAAAAAAAAAAAAAAAAAAAAAAAAAAAAAAAAAAAAAAAAAAAAAAAAAAAAAAAAAAAAAAAAAAAAAAAAAAAAAAAAAAAAAAAAAAAAAAAAAAAAAAAAAAAAAAAAAAAAAAAAAAAAAAAAAAAAAAAAAAAAAAAAAAAAAAAAAAAAAAAAAAAAAAAAAAAAAAAAAAAAAAAAAAAAAAAAAAAAAAAAAAAAAAAAAAAAAAAAAAAAAAAAAAAAAAAAAAAAAAAAAAAAAAAAAAAAAAAAAAAAAAAAAAAAAAAAAAAAAAAAAAAAAAAAAAAAAAAAAAAAAAAAAAAAAAAAAAAAAAAAAAAAAAAAAAAAAAAAAAAAAAAAAAAAAAAAAAAAAAAAAAAAAAAAAAAAAAAAAAAAAAAAAAAAAAAAAAAAAAAAAAAAAAAAAAAAAAAAAAAAAAAAAAAAAAAAAAAAAAAAAAAAAAAAAAAA/9k=;clipPath=inset(8.08% 24% 7.49% 23.33%);" vertex="1" parent="1">
          <mxGeometry x="106.39" y="120" width="67.23" height="60" as="geometry" />
        </mxCell>
      </root>
    </mxGraphModel>
  </diagram>
</mxfile>
